<svg xmlns="http://www.w3.org/2000/svg" viewBox="0 0 464.35 524.97"><defs><style>.cls-1{fill:#4c2a12;}.cls-2{fill:#fff4c0;}.cls-3{fill:#fc9;}</style></defs><title>result_2</title><g id="Calque_2" data-name="Calque 2"><g id="Calque_1-2" data-name="Calque 1"><path class="cls-1" d="M277.19,20.85l.53.38a1.45,1.45,0,0,1,.74,1.54,1.7,1.7,0,0,1-1.23,1.49,2.75,2.75,0,0,0-1,.56,21.28,21.28,0,0,0-1.57,1.58.68.68,0,0,0-.08.55c.36,1.15.25,1.47-.78,2.06A12.94,12.94,0,0,1,269,30.75a.57.57,0,0,0-.38.2l4.88.37.1.14c-.13.13-.25.32-.41.38a21.65,21.65,0,0,1-2.06.69q-7.79,2.11-15.59,4.21a4.54,4.54,0,0,1-3.22-.26,14.45,14.45,0,0,0-4.82-1.18,3.59,3.59,0,0,1-.87-.13,4,4,0,0,0-2.73.19,15,15,0,0,1-8.56.53,8.45,8.45,0,0,1-4.92-3.09,2.84,2.84,0,0,0-1.93-1q-12.48-2.4-25-4.79A4,4,0,0,0,202,27a11.62,11.62,0,0,1-4.32,0,3.38,3.38,0,0,1-3-2.85c-.28-1.32-.48-2.65-.67-4a1.72,1.72,0,0,0-.83-1.27,8,8,0,0,1-3.63-5.47,3.1,3.1,0,0,1,.11-1.38,20.51,20.51,0,0,1,.76-2,1.71,1.71,0,0,1,1.34-1.1c1.52-.29,3-.57,4.54-1a3.94,3.94,0,0,0,1.69-.86A25,25,0,0,1,213,.45,90.18,90.18,0,0,1,231,.46,43.1,43.1,0,0,1,236,1.2a7.52,7.52,0,0,1,3.43,2c1.91,1.74,3.83,3.47,5.74,5.22a2.56,2.56,0,0,0,1.74.7,146.43,146.43,0,0,1,28.63,4,19.25,19.25,0,0,1,2,.53,5.14,5.14,0,0,1,1.37.77c.51.39.44.5,0,1a1.73,1.73,0,0,0-.44,1A8.11,8.11,0,0,1,277.19,20.85ZM201.4,8c.35-.13.61-.21.86-.32a1.11,1.11,0,0,0,.73-1,3,3,0,0,1,1.84-2.72,15.91,15.91,0,0,1,3.31-1.17c2.12-.4,4.29-.61,6.44-.89A2,2,0,0,1,217,3.13c1,2,2,3.9,3,5.87a1.2,1.2,0,0,0,1.28.79c.86-.07,1.72-.08,2.58-.1L232,9.45c4-.1,8.07-.18,12.1-.27l.69,0c-.23-.25-.36-.43-.53-.58-1.65-1.53-3.33-3-5-4.59a9.84,9.84,0,0,0-5-2.68A57.7,57.7,0,0,0,224.13.41c-2.82,0-5.64.09-8.46.19a30.87,30.87,0,0,0-7.5,1.24c-3.81,1.11-6.84,3.49-9.8,6,0,0,0,.07,0,.14l1,.19-7,1a1.69,1.69,0,0,0-1.47,1.1c-.19.49-.48.94-.65,1.44a14.63,14.63,0,0,0-.33,1.55,4.18,4.18,0,0,1,1.15-.65,19.44,19.44,0,0,1,2.17-.14c.36,0,.71-.08,1.07-.12v-.11L190.52,12c.27-.56.51-1.07.78-1.57a1.32,1.32,0,0,1,1.27-.7c2.43.06,4.85.13,7.28.23a1.74,1.74,0,0,1,1,.32c.65.59,1.22,1.27,1.86,1.95l-1.64.66c16.66-.59,33.15,1.2,49.57,2.85l-.18,2.6.23,0c.59-.93,1.2-1.86,1.76-2.81a.63.63,0,0,0-.32-.9,10.38,10.38,0,0,0-2.2-1c-2.85-.57-5.71-1.18-8.6-1.52-4.66-.55-9.34-.95-14-1.31-3.66-.28-7.34-.44-11-.57-3.27-.12-6.54-.19-9.81-.17A8,8,0,0,1,201.4,8Zm26.38,20.93c0-.3,0-.52,0-.73a15.72,15.72,0,0,1,.16-4.79,6.65,6.65,0,0,1,9.32-5.09,12.27,12.27,0,0,1,5.66,4.85c1.05,1.61,2,3.28,3,4.91a3.45,3.45,0,0,0,2.71,1.74,4.91,4.91,0,0,1,1.85.51,23.47,23.47,0,0,1,2.72,1.72,3.41,3.41,0,0,0,2.5.79c1.86-.23,3.73-.43,5.59-.66.89-.12,1.76-.28,2.65-.41l0-.19-1.32.07c-2.06.17-4.15.24-6.19.54s-3.07-.78-4.3-1.93h2.1v-.15c-1.71-.27-3.41-.58-5.13-.8a3.25,3.25,0,0,1-2.74-1.83c-.75-1.48-1.54-2.94-2.41-4.36a25.87,25.87,0,0,0-2.56-3.64,8.9,8.9,0,0,0-8.11-3c-2.75.34-4.45,2.1-5.44,4.61A14.72,14.72,0,0,0,227,26.9c0,.3,0,.61,0,1l-.85-.15c-1.86-.37-3.73-.72-5.58-1.1q-8.35-1.73-16.7-3.48a3.28,3.28,0,0,1-2.58-2.42c-.56-1.7-1.27-3.36-2-5A3.35,3.35,0,0,0,197,13.82a2.21,2.21,0,0,0-2.58.74,3.46,3.46,0,0,0-.39,3.38,15.33,15.33,0,0,1,.2-1.59,1.83,1.83,0,0,1,1.23-1.59,1.72,1.72,0,0,1,1.73.48,1.17,1.17,0,0,0-1.4.52,6.08,6.08,0,0,0-.75,1.51,9.54,9.54,0,0,0-.35,3.83A8,8,0,0,0,195.87,25c.79,1.11,1.73,1.1,2.39-.09a8,8,0,0,0,.89-5c-.18-1.3-.58-2.57-.89-3.85,0,.08.05.15.11.22A16,16,0,0,1,200.74,21a4.05,4.05,0,0,0,3.19,2.71l15.61,3.48C222.27,27.76,225,28.33,227.78,28.93Zm11.86-5.33-.88-.75c-1-.82-1-.82-.51-2a2.15,2.15,0,0,1,.1-.27.81.81,0,0,0-.3-1.12,3.7,3.7,0,0,0-5.15.3,9.17,9.17,0,0,0-.09,12.32,5.52,5.52,0,0,0,8.52-.55,10.42,10.42,0,0,0,1.8-4.59c.39-2-.62-3.39-2-4.69ZM237,9.91V10a2,2,0,0,0,.48.13c2,.16,3.94.29,5.91.48,2.76.26,5.53.52,8.28.85a61.29,61.29,0,0,1,11.45,2.45,6,6,0,0,1,1.73,1,1.53,1.53,0,0,0,1.1.41l3.23-.13c2.5-.09,5-.17,7.51-.27a2.76,2.76,0,0,0,.64-.1,1.25,1.25,0,0,0,.36-.22c-.09-.1-.16-.26-.28-.31a6.26,6.26,0,0,0-1.1-.39,174.2,174.2,0,0,0-19-3.34c-3.36-.35-6.73-.7-10.11-.87-2.52-.12-5.05,0-7.58.08C238.77,9.81,237.89,9.87,237,9.91Zm-9.36.31,0,.12,1.63.15c2.32.2,4.64.38,7,.62,2.67.28,5.32.63,8,.9a29,29,0,0,1,7.62,1.79,2.54,2.54,0,0,1,1.68,1.45.89.89,0,0,0,1,.64l5.75.2a2.75,2.75,0,0,0,.57-.12,4.83,4.83,0,0,0-.88-1,15.59,15.59,0,0,0-2.61-1.32,46.3,46.3,0,0,0-10-2.12c-2.94-.34-5.88-.64-8.82-.85-3.4-.24-6.8-.37-10.2-.54A6.15,6.15,0,0,0,227.66,10.22ZM245.4,24.44a6.67,6.67,0,0,0,1.13.49,10.42,10.42,0,0,0,1.58.13c2.82.12,5.64.25,8.46.35A52.13,52.13,0,0,0,266,25c3.71-.56,7.39-1.3,11.08-2a2.1,2.1,0,0,0,.7-.28.48.48,0,0,0,.11-.83,5.77,5.77,0,0,0-1-.75c-.37-.23-.67-.15-.67.34a.87.87,0,0,1-.73.93c-.88.21-1.76.38-2.63.56a71.65,71.65,0,0,1-13.45,1.55,66,66,0,0,1-12.64-.74A1.27,1.27,0,0,0,245.4,24.44Zm9.95-1.6c1.35.08,2.68.17,4,.22a1.13,1.13,0,0,0,1-.81c.62-1.41,1.27-2.81,1.89-4.23.16-.36.28-.74.41-1.12a8.38,8.38,0,0,0-1.23.06c-1.12.24-2.26.47-3.35.82a1.67,1.67,0,0,0-1.27,2c0,.33.07.66.11,1-.36-.14-.69-.3-1-.4s-.68.08-.66.54S255.32,22.13,255.35,22.84Zm-4.1-2.9a15,15,0,0,0,.45,1.81,1.29,1.29,0,0,0,2.39.38,4.93,4.93,0,0,0,.73-5,1.26,1.26,0,0,0-2.36-.33A5.81,5.81,0,0,0,251.25,19.94ZM219,15.86l-.18,0a2.58,2.58,0,0,0-.18.58c-.06.78-.09,1.56-.14,2.34-.07,1.39-.15,2.77-.22,4.16,0,.44-.25.66-.68.6l-6.27-.86-3.89-.53c-.15,0-.31.09-.47.13l.05.2,12.29,2.18Zm42.32,6.28c.12-.19.26-.38.36-.58.52-1,1-1.94,1.54-2.9A3,3,0,0,1,265.62,17c2.42-.23,4.84-.39,7.25-.62,1.3-.12,2.6-.3,3.9-.47a1.14,1.14,0,0,0,.3-.17l0-.16c-.3,0-.6,0-.9,0l-4.63.22c-2,.11-4,.22-6,.36a2.67,2.67,0,0,0-1.9.93C262.36,18.52,261.91,20.35,261.33,22.14ZM218.38,8.47c0-.24,0-.33,0-.39-.63-1.32-1.24-2.66-1.92-3.95a2.46,2.46,0,0,0-2.6-1.33c-.93.1-1.87.13-2.8.28-1.68.27-3.34.59-5,.9a1.27,1.27,0,0,0-.31.15,1,1,0,0,0,.59.11c2.13-.21,4.25-.4,6.37-.66a3.07,3.07,0,0,1,3.54,1.66c.38.62.78,1.22,1.18,1.82C217.7,7.5,218,7.92,218.38,8.47Zm43.89,14.87,0,.22a11,11,0,0,0,1.15,0c1-.1,2.06-.23,3.09-.36,2.56-.32,5.12-.62,7.67-1a2.56,2.56,0,0,0,1.95-2.85,8.5,8.5,0,0,0-.58,1.09,2,2,0,0,1-1.83,1.41L262.65,23.2A1.34,1.34,0,0,0,262.27,23.34Zm11.78-5.73v-.18a3.4,3.4,0,0,0-.45,0c-2.3.12-4.6.21-6.9.4a1.87,1.87,0,0,0-1.23.75A27.53,27.53,0,0,0,264,21.33a1,1,0,0,0,0,.3.55.55,0,0,0,.36-.27c.27-.52.54-1,.79-1.57a2.61,2.61,0,0,1,2.31-1.54c1.64-.13,3.28-.24,4.91-.38C272.88,17.82,273.47,17.7,274.05,17.61ZM261.47,28.87l.1.1a1.68,1.68,0,0,0,.29-.24c.57-.69,1.14-1.39,1.7-2.1.09-.11.2-.33.15-.39a.62.62,0,0,0-.43-.2c-1.25,0-2.5,0-3.75,0-1,0-1.94.14-2.91.21v.13l5.92.46ZM258,12.92c1.26.8,2.55,1.66,3.89,2.43a3.76,3.76,0,0,0,1.51.29c.19,0,.39-.19.58-.3a2.17,2.17,0,0,0-.38-.46C261.87,13.66,259.85,13.37,258,12.92Zm-50.32,6.75,0-.19a5.34,5.34,0,0,0-.53-.16c-1.47-.29-3-.57-4.42-.84a1.31,1.31,0,0,1-1.27-1.35c-.11-.93-.24-1.86-.37-2.79a2.22,2.22,0,0,0-.17-.47l-.2.05c.11,1.32.21,2.63.35,3.94A1.1,1.1,0,0,0,202.16,19c1,.16,1.93.32,2.89.45S206.78,19.58,207.65,19.67Zm48.09,7.49a3.37,3.37,0,0,0-2.42,1.63c-.2.5.13,1,.64.85a3.38,3.38,0,0,0,2.28-1.77C256.47,27.44,256.23,27.17,255.74,27.16Zm9.71,1.54a5.38,5.38,0,0,0,5.13-1.32,2.9,2.9,0,0,0,1.22-2.67A14.62,14.62,0,0,0,271,26,3.39,3.39,0,0,1,268.33,28c-.3,0-.6.14-.91.21Z"/><path class="cls-2" d="M201.4,8a8,8,0,0,0,5.09,2.12c3.27,0,6.54.05,9.81.17,3.68.13,7.36.29,11,.57,4.69.36,9.37.76,14,1.31,2.89.34,5.75.95,8.6,1.52a10.38,10.38,0,0,1,2.2,1,.63.63,0,0,1,.32.9c-.56.95-1.17,1.88-1.76,2.81l-.23,0,.18-2.6c-16.42-1.65-32.91-3.44-49.57-2.85l1.64-.66c-.64-.68-1.21-1.36-1.86-1.95a1.74,1.74,0,0,0-1-.32c-2.43-.1-4.85-.17-7.28-.23a1.32,1.32,0,0,0-1.27.7c-.27.5-.51,1-.78,1.57l3.77.28v.11c-.36,0-.71.09-1.07.12a19.44,19.44,0,0,0-2.17.14,4.18,4.18,0,0,0-1.15.65,14.63,14.63,0,0,1,.33-1.55c.17-.5.46-1,.65-1.44a1.69,1.69,0,0,1,1.47-1.1l7-1-1-.19c0-.07,0-.13,0-.14,3-2.49,6-4.87,9.8-6A30.87,30.87,0,0,1,215.67.6c2.82-.1,5.64-.23,8.46-.19a57.7,57.7,0,0,1,10.16.89,9.84,9.84,0,0,1,5,2.68c1.63,1.56,3.31,3.06,5,4.59.17.15.3.33.53.58l-.69,0c-4,.09-8.07.17-12.1.27l-8.17.24c-.86,0-1.72,0-2.58.1A1.2,1.2,0,0,1,220,9c-1-2-2-3.92-3-5.87a2,2,0,0,0-2.41-1.27c-2.15.28-4.32.49-6.44.89a15.91,15.91,0,0,0-3.31,1.17A3,3,0,0,0,203,6.64a1.11,1.11,0,0,1-.73,1C202,7.79,201.75,7.87,201.4,8Zm41.89.73.05-.21c-.13-.13-.24-.28-.38-.4C241,6.4,239,4.69,237.09,3A4.05,4.05,0,0,0,235,2a59.78,59.78,0,0,0-15.58-.42c-.76.07-.89.3-.57,1,.91,2,1.85,4,2.77,6a.94.94,0,0,0,1,.61c.74,0,1.49-.06,2.23-.08l15.39-.39C241.27,8.7,242.28,8.73,243.29,8.73Z"/><path class="cls-2" d="M227.78,28.93c-2.78-.6-5.51-1.17-8.24-1.78l-15.61-3.48A4.05,4.05,0,0,1,200.74,21a16,16,0,0,0-2.37-4.63c-.06-.07-.13-.14-.11-.22.31,1.28.71,2.55.89,3.85a8,8,0,0,1-.89,5c-.66,1.19-1.6,1.2-2.39.09a8,8,0,0,1-1.22-3.94,9.54,9.54,0,0,1,.35-3.83,6.08,6.08,0,0,1,.75-1.51,1.17,1.17,0,0,1,1.4-.52,1.72,1.72,0,0,0-1.73-.48,1.83,1.83,0,0,0-1.23,1.59,15.33,15.33,0,0,0-.2,1.59,3.46,3.46,0,0,1,.39-3.38,2.21,2.21,0,0,1,2.58-.74,3.35,3.35,0,0,1,2.36,1.88c.72,1.64,1.43,3.3,2,5a3.28,3.28,0,0,0,2.58,2.42q8.36,1.74,16.7,3.48c1.85.38,3.72.73,5.58,1.1l.85.15c0-.34,0-.65,0-1a14.72,14.72,0,0,1,.81-5.77c1-2.51,2.69-4.27,5.44-4.61a8.9,8.9,0,0,1,8.11,3,25.87,25.87,0,0,1,2.56,3.64c.87,1.42,1.66,2.88,2.41,4.36a3.25,3.25,0,0,0,2.74,1.83c1.72.22,3.42.53,5.13.8v.15h-2.1c1.23,1.15,2.41,2.2,4.3,1.93s4.13-.37,6.19-.54l1.32-.07,0,.19c-.89.13-1.76.29-2.65.41-1.86.23-3.73.43-5.59.66a3.41,3.41,0,0,1-2.5-.79,23.47,23.47,0,0,0-2.72-1.72,4.91,4.91,0,0,0-1.85-.51,3.45,3.45,0,0,1-2.71-1.74c-1-1.63-1.95-3.3-3-4.91a12.27,12.27,0,0,0-5.66-4.85,6.65,6.65,0,0,0-9.32,5.09,15.72,15.72,0,0,0-.16,4.79C227.8,28.41,227.78,28.63,227.78,28.93ZM196.29,19.1c.8-.93.51-2,.71-3C195.66,16.3,195.32,17.79,196.29,19.1Zm1.48,5.73c-.33-.93-.26-1.84-1.19-2.39a10,10,0,0,0-.2,1.51,1.11,1.11,0,0,0,.35.85C197,25,197.36,24.83,197.77,24.83Zm-2.66-5.67.22,3.25C196.48,21.35,196.41,20.15,195.11,19.16Zm3.78,1.31c-.79.23-1,.56-1,1.27s.36.85.88,1.11Zm-1-1.09c.8-.45.81-1.29.05-2.13C197.31,18.38,197.3,18.68,197.92,19.38Z"/><path class="cls-2" d="M239.64,23.6l1.47-1.33c1.4,1.3,2.41,2.66,2,4.69a10.42,10.42,0,0,1-1.8,4.59,5.52,5.52,0,0,1-8.52.55,9.17,9.17,0,0,1,.09-12.32,3.7,3.7,0,0,1,5.15-.3.81.81,0,0,1,.3,1.12,2.15,2.15,0,0,0-.1.27c-.46,1.16-.46,1.16.51,2Zm-4.15-4.22-.07-.13a12.92,12.92,0,0,0-1.42.88,7.29,7.29,0,0,0-2.71,5,7.65,7.65,0,0,0,2.13,6.52,3,3,0,0,0,1.7,1A8.52,8.52,0,0,1,235.49,19.38Zm1,11.5c0,.27,0,.55,0,.82,0,.53.17.77.72.69s1.24-.15,1.85-.27.72-.38.48-.91-.56-1.08-.79-1.63A.81.81,0,0,0,237.7,29c-1.15.24-1.19.26-1.19,1.44Zm6-5.28c-.48,0-.91,0-1.34,0-1,.08-1,.17-1.25,1.14a3.77,3.77,0,0,0-.11.75A.82.82,0,0,0,240,28a18.33,18.33,0,0,0,1.45,1.19c.08.06.44-.05.45-.13C242.13,27.93,242.31,26.78,242.51,25.6Zm-7.74-1c.43-.61,1-1.12,1.13-1.7a12.57,12.57,0,0,0-.17-2.79L235.5,20c-.53.61-1.11,1.18-1.59,1.82-.66.88-.62,1,.06,1.82ZM233.88,30c1.58-1.13,1.44-2.09.62-3.67-.25-.49-.8-.37-1.21-.25a.79.79,0,0,0-.49.55A5.19,5.19,0,0,0,233.88,30Zm3.22-2.79a1.14,1.14,0,0,0,1-1,1.63,1.63,0,0,0-.73-1.85C237.83,26,237.83,26,237.1,27.2Zm-.56-2.69.66,1.58C237.49,25.07,237.23,24.49,236.54,24.51Z"/><path class="cls-2" d="M237,9.91c.87,0,1.75-.1,2.62-.12,2.53,0,5.06-.2,7.58-.08,3.38.17,6.75.52,10.11.87a174.2,174.2,0,0,1,19,3.34,6.26,6.26,0,0,1,1.1.39c.12,0,.19.21.28.31a1.25,1.25,0,0,1-.36.22,2.76,2.76,0,0,1-.64.1c-2.5.1-5,.18-7.51.27l-3.23.13a1.53,1.53,0,0,1-1.1-.41,6,6,0,0,0-1.73-1,61.29,61.29,0,0,0-11.45-2.45c-2.75-.33-5.52-.59-8.28-.85-2-.19-3.94-.32-5.91-.48A2,2,0,0,1,237,10Z"/><path class="cls-2" d="M227.66,10.22a6.15,6.15,0,0,1,.73-.06c3.4.17,6.8.3,10.2.54,2.94.21,5.88.51,8.82.85a46.3,46.3,0,0,1,10,2.12A15.59,15.59,0,0,1,260,15a4.83,4.83,0,0,1,.88,1,2.75,2.75,0,0,1-.57.12l-5.75-.2a.89.89,0,0,1-1-.64,2.54,2.54,0,0,0-1.68-1.45A29,29,0,0,0,244.26,12c-2.67-.27-5.32-.62-8-.9-2.31-.24-4.63-.42-7-.62l-1.63-.15Z"/><path class="cls-2" d="M245.4,24.44a1.27,1.27,0,0,1,1.41-.61,66,66,0,0,0,12.64.74A71.65,71.65,0,0,0,272.9,23c.87-.18,1.75-.35,2.63-.56a.87.87,0,0,0,.73-.93c0-.49.3-.57.67-.34a5.77,5.77,0,0,1,1,.75.48.48,0,0,1-.11.83,2.1,2.1,0,0,1-.7.28c-3.69.68-7.37,1.42-11.08,2a52.13,52.13,0,0,1-9.43.38c-2.82-.1-5.64-.23-8.46-.35a10.42,10.42,0,0,1-1.58-.13A6.67,6.67,0,0,1,245.4,24.44Z"/><path class="cls-2" d="M255.35,22.84c0-.71-.07-1.31-.09-1.92s.21-.66.66-.54.68.26,1,.4c0-.36-.1-.69-.11-1a1.67,1.67,0,0,1,1.27-2c1.09-.35,2.23-.58,3.35-.82a8.38,8.38,0,0,1,1.23-.06c-.13.38-.25.76-.41,1.12-.62,1.42-1.27,2.82-1.89,4.23a1.13,1.13,0,0,1-1,.81C258,23,256.7,22.92,255.35,22.84Z"/><path class="cls-2" d="M251.25,19.94a5.81,5.81,0,0,1,1.21-3.17,1.26,1.26,0,0,1,2.36.33,4.93,4.93,0,0,1-.73,5,1.29,1.29,0,0,1-2.39-.38A15,15,0,0,1,251.25,19.94Zm.84,1.48c.52.86,1.23.9,1.68.09a8.92,8.92,0,0,0,.56-1.35c.14-.36.23-.74.35-1.11l-.2-.1C253.91,20,253.66,21.38,252.09,21.42Z"/><path class="cls-2" d="M219,15.86l.31,8.77L207,22.45l-.05-.2c.16,0,.32-.15.47-.13l3.89.53,6.27.86c.43.06.65-.16.68-.6.07-1.39.15-2.77.22-4.16.05-.78.08-1.56.14-2.34a2.58,2.58,0,0,1,.18-.58Z"/><path class="cls-2" d="M261.33,22.14c.58-1.79,1-3.62,2.3-5.07a2.67,2.67,0,0,1,1.9-.93c2-.14,4-.25,6-.36l4.63-.22c.3,0,.6,0,.9,0l0,.16a1.14,1.14,0,0,1-.3.17c-1.3.17-2.6.35-3.9.47-2.41.23-4.83.39-7.25.62a3,3,0,0,0-2.39,1.69c-.52,1-1,1.94-1.54,2.9C261.59,21.76,261.45,22,261.33,22.14Z"/><path class="cls-2" d="M218.38,8.47c-.38-.55-.68-1-1-1.41-.4-.6-.8-1.2-1.18-1.82a3.07,3.07,0,0,0-3.54-1.66c-2.12.26-4.24.45-6.37.66a1,1,0,0,1-.59-.11A1.27,1.27,0,0,1,206,4c1.67-.31,3.33-.63,5-.9.93-.15,1.87-.18,2.8-.28a2.46,2.46,0,0,1,2.6,1.33c.68,1.29,1.29,2.63,1.92,4C218.4,8.14,218.38,8.23,218.38,8.47Z"/><path class="cls-2" d="M262.27,23.34a1.34,1.34,0,0,1,.38-.14l11.11-1.32a2,2,0,0,0,1.83-1.41,8.5,8.5,0,0,1,.58-1.09,2.56,2.56,0,0,1-1.95,2.85c-2.55.34-5.11.64-7.67,1-1,.13-2.06.26-3.09.36a11,11,0,0,1-1.15,0Z"/><path class="cls-2" d="M274.05,17.61c-.58.09-1.17.21-1.76.26-1.63.14-3.27.25-4.91.38a2.61,2.61,0,0,0-2.31,1.54c-.25.53-.52,1.05-.79,1.57a.55.55,0,0,1-.36.27,1,1,0,0,1,0-.3,27.53,27.53,0,0,1,1.51-2.78,1.87,1.87,0,0,1,1.23-.75c2.3-.19,4.6-.28,6.9-.4a3.4,3.4,0,0,1,.45,0Z"/><path class="cls-2" d="M261.47,28.87l1.08-2-5.92-.46v-.13c1-.07,1.94-.18,2.91-.21,1.25,0,2.5,0,3.75,0a.62.62,0,0,1,.43.2c.05.06-.06.28-.15.39-.56.71-1.13,1.41-1.7,2.1a1.68,1.68,0,0,1-.29.24Z"/><path class="cls-2" d="M258,12.92c1.88.45,3.9.74,5.6,2a2.17,2.17,0,0,1,.38.46c-.19.11-.39.31-.58.3a3.76,3.76,0,0,1-1.51-.29C260.52,14.58,259.23,13.72,258,12.92Z"/><path class="cls-2" d="M207.65,19.67c-.87-.09-1.74-.16-2.6-.27s-1.93-.29-2.89-.45a1.1,1.1,0,0,1-1.09-1.09c-.14-1.31-.24-2.62-.35-3.94l.2-.05a2.22,2.22,0,0,1,.17.47c.13.93.26,1.86.37,2.79a1.31,1.31,0,0,0,1.27,1.35c1.47.27,3,.55,4.42.84a5.34,5.34,0,0,1,.53.16Z"/><path class="cls-2" d="M255.74,27.16c.49,0,.73.28.5.71A3.38,3.38,0,0,1,254,29.64c-.51.12-.84-.35-.64-.85A3.37,3.37,0,0,1,255.74,27.16Z"/><path class="cls-2" d="M265.45,28.7l2-.45c.31-.07.61-.17.91-.21A3.39,3.39,0,0,0,271,26a14.62,14.62,0,0,1,.8-1.28,2.9,2.9,0,0,1-1.22,2.67A5.38,5.38,0,0,1,265.45,28.7Z"/><path class="cls-1" d="M243.29,8.73c-1,0-2,0-3,0l-15.39.39c-.74,0-1.49,0-2.23.08a.94.94,0,0,1-1-.61c-.92-2-1.86-4-2.77-6-.32-.7-.19-.93.57-1A59.78,59.78,0,0,1,235,2a4.05,4.05,0,0,1,2.09,1C239,4.69,241,6.4,243,8.12c.14.12.25.27.38.4ZM225.73,1.78l-.07.19c.19.12.38.25.57.35a19.14,19.14,0,0,1,5.36,4.05A1.62,1.62,0,0,1,232,8.25c1.61,0,3.15,0,4.69,0,.31,0,.43-.21.22-.47A18.55,18.55,0,0,0,235.41,6a21.15,21.15,0,0,0-6.13-3.85A8.76,8.76,0,0,0,225.73,1.78Zm-2.68-.11-.12.3a3,3,0,0,0,.46.34,14.86,14.86,0,0,1,3.91,2.86c.83.94,1.44,1.93.84,3.3.93,0,1.79,0,2.64,0a.77.77,0,0,0,.65-1.23,5.61,5.61,0,0,0-1.32-1.61q-2.4-1.75-4.93-3.29A9.1,9.1,0,0,0,223.05,1.67Z"/><path class="cls-1" d="M196.29,19.1c-1-1.31-.63-2.8.71-3C196.8,17.08,197.09,18.17,196.29,19.1Z"/><path class="cls-1" d="M197.77,24.83c-.41,0-.81.12-1,0a1.11,1.11,0,0,1-.35-.85,10,10,0,0,1,.2-1.51C197.51,23,197.44,23.9,197.77,24.83Z"/><path class="cls-1" d="M195.11,19.16c1.3,1,1.37,2.19.22,3.25Z"/><path class="cls-1" d="M198.89,20.47l-.17,2.38c-.52-.26-.88-.54-.88-1.11S198.1,20.7,198.89,20.47Z"/><path class="cls-1" d="M197.92,19.38c-.62-.7-.61-1,.05-2.13C198.73,18.09,198.72,18.93,197.92,19.38Z"/><path class="cls-1" d="M235.49,19.38a8.52,8.52,0,0,0-.37,13.2,3,3,0,0,1-1.7-1,7.65,7.65,0,0,1-2.13-6.52,7.29,7.29,0,0,1,2.71-5,12.92,12.92,0,0,1,1.42-.88Z"/><path class="cls-1" d="M236.51,30.88v-.41c0-1.18,0-1.2,1.19-1.44a.81.81,0,0,1,1.06.55c.23.55.53,1.08.79,1.63s.11.8-.48.91-1.23.17-1.85.27-.75-.16-.72-.69C236.52,31.43,236.51,31.15,236.51,30.88Z"/><path class="cls-1" d="M242.51,25.6c-.2,1.18-.38,2.33-.61,3.47,0,.08-.37.19-.45.13A18.33,18.33,0,0,1,240,28a.82.82,0,0,1-.19-.51,3.77,3.77,0,0,1,.11-.75c.21-1,.29-1.06,1.25-1.14C241.6,25.57,242,25.6,242.51,25.6Z"/><path class="cls-1" d="M234.77,24.61l-.8-.93c-.68-.83-.72-.94-.06-1.82.48-.64,1.06-1.21,1.59-1.82l.23.08a12.57,12.57,0,0,1,.17,2.79C235.82,23.49,235.2,24,234.77,24.61Z"/><path class="cls-1" d="M233.88,30a5.19,5.19,0,0,1-1.08-3.37.79.79,0,0,1,.49-.55c.41-.12,1-.24,1.21.25C235.32,27.9,235.46,28.86,233.88,30Z"/><path class="cls-1" d="M237.1,27.2c.73-1.22.73-1.22.3-2.89a1.63,1.63,0,0,1,.73,1.85A1.14,1.14,0,0,1,237.1,27.2Z"/><path class="cls-1" d="M236.54,24.51c.69,0,1,.56.66,1.58Z"/><path class="cls-1" d="M252.09,21.42c1.57,0,1.82-1.41,2.39-2.47l.2.1c-.12.37-.21.75-.35,1.11a8.92,8.92,0,0,1-.56,1.35C253.32,22.32,252.61,22.28,252.09,21.42Z"/><path class="cls-2" d="M225.73,1.78a8.76,8.76,0,0,1,3.55.35A21.15,21.15,0,0,1,235.41,6a18.55,18.55,0,0,1,1.51,1.79c.21.26.09.47-.22.47-1.54,0-3.08,0-4.69,0a1.62,1.62,0,0,0-.42-1.88,19.14,19.14,0,0,0-5.36-4.05c-.19-.1-.38-.23-.57-.35Z"/><path class="cls-2" d="M223.05,1.67a9.1,9.1,0,0,1,2.13.65q2.53,1.53,4.93,3.29a5.61,5.61,0,0,1,1.32,1.61.77.77,0,0,1-.65,1.23c-.85.06-1.71,0-2.64,0,.6-1.37,0-2.36-.84-3.3a14.86,14.86,0,0,0-3.91-2.86,3,3,0,0,1-.46-.34Z"/><rect class="cls-1" x="393.47" y="54.34" width="70.88" height="366.71" transform="translate(857.82 475.4) rotate(180)"/><rect class="cls-1" x="295.1" y="54.34" width="70.88" height="380.45" transform="translate(661.09 489.14) rotate(180)"/><rect class="cls-1" x="196.74" y="54.34" width="70.88" height="176.48" transform="translate(464.35 285.17) rotate(180)"/><rect class="cls-1" x="98.37" y="54.34" width="70.88" height="143.44" transform="translate(267.62 252.13) rotate(180)"/><rect class="cls-1" y="54.34" width="70.88" height="70.88" transform="translate(70.88 179.57) rotate(180)"/><rect class="cls-3" x="393.47" y="421.05" width="70.88" height="13.74" transform="translate(857.82 855.85) rotate(180)"/><rect class="cls-3" x="98.37" y="197.78" width="70.88" height="237.01" transform="translate(267.62 632.58) rotate(180)"/><rect class="cls-3" x="196.74" y="230.83" width="70.88" height="203.97" transform="translate(464.35 665.62) rotate(180)"/><rect class="cls-3" y="125.23" width="70.88" height="309.57" transform="translate(70.88 560.02) rotate(180)"/><path class="cls-1" d="M2.87,520.18c1.28-.67,1.46-1.76,1.37-3s0-2.41-.1-3.62a.86.86,0,0,1,.64-1,18.71,18.71,0,0,0,5.57-3.83,1.71,1.71,0,0,0,.68-1.48c-.06-1.78-.06-3.56-.1-5.34a1.39,1.39,0,0,1,.94-1.42c1.74-.93,3.88-1.2,5.12-3a1.72,1.72,0,0,0,.36-.95c0-1.58-.1-3.16-.14-4.74a2.14,2.14,0,0,1,1.29-2.05A4.58,4.58,0,0,0,20,488.41a3.84,3.84,0,0,1,1.91-1.51c2.39-.83,2.41-.85,2.54-3.38.08-1.35,0-2.7.05-4s.19-1.58,1.42-2a10.77,10.77,0,0,0,4.37-2.33,1.38,1.38,0,0,0,.38-.86c0-1.75,0-3.51,0-5.26a2,2,0,0,1,1.42-2.1c.86-.33,2-.56,2.41-1.21s.09-1.72.16-2.6c.06-.71.3-1.41.33-2.12s-.17-1.29-.17-1.93c0-1.49.16-3,.12-4.45s-.23-2.9-.32-4.36c-.15-2.45-.19-2,1.91-2.73a12.18,12.18,0,0,1,7.53.1c1.18.34,2.4.56,3.6.83.09,0,.22,0,.25.05.74,1.12,2,.69,3,1,2.36.73,4.74,1.41,7.11,2.1a4.41,4.41,0,0,0,1.17.27c1,0,1.39.59,1.44,1.45.07,1.41.13,2.82.08,4.22a6.26,6.26,0,0,1-.56,1.5c-.12.36-.37.87-.22,1.09a4.79,4.79,0,0,1,.43,2.85c0,1.06,0,2.12,0,3.18a2.32,2.32,0,0,1-.14,1.1c-.71,1.18-.16,2.35-.12,3.53.06,1.63-.09,3.27-.06,4.9a12.5,12.5,0,0,0,.4,2.15,4.92,4.92,0,0,1,.09.76c0,1.23,0,2.47-.05,3.71s-1.09,2.16-.25,3.61c.58,1,.35,2.53.36,3.81A12.45,12.45,0,0,1,60.2,492a1.92,1.92,0,0,0-.14.49c.1,1.73.21,3.46.32,5.2a2.36,2.36,0,0,1-1.3,2.54c-3.12,1.7-6.08,3.73-9.31,5.21-1.67.77-3.06,1.92-4.73,2.65s-3.26,1.7-4.92,2.49c-1.9.91-3.87,1.7-5.76,2.63C32.64,514,31,515,29.3,515.94c-1.39.74-2.82,1.42-4.23,2.13a.51.51,0,0,1-.15.07c-2.28.48-4.05,2-6.14,2.89s-4.12,2-6.19,3a9.15,9.15,0,0,1-2.33.88,2.54,2.54,0,0,1-1.75-.37c-1.31-1-2.5-2.19-3.75-3.28a.93.93,0,0,0-.69-.27C3.31,521.29,3.1,520.84,2.87,520.18Zm43.35-20.84.68-.07c1.1-.12,1.4.15,1.4,1.25s0,2.3,0,3.45a7.06,7.06,0,0,0,.1.77l.29,0a3.34,3.34,0,0,0,.16-.8c0-1.09-.07-2.19-.21-3.27a2.64,2.64,0,0,1,1.62-2.91c2.68-1.39,5.33-2.82,8-4.25.34-.18.64-.43,1-.65l-.2-.35-3.71,1.82c-.1-1.38-.08-2.59-.29-3.77-.34-1.95.12-3.36,2.12-4.09a7.25,7.25,0,0,0,1.6-1.1l-.2-.34-9.85,4.51c-.26-.52-.69-1-.71-1.44-.06-1.65,0-3.31,0-5,0-.95.81-1.31,1.57-1.62,3.17-1.29,6.33-2.57,9.48-3.88.2-.08.32-.35.47-.53l-.19-.2-3,1.05c-1.08.37-1.28.16-1.29-1,0-1.49-.06-3-.19-4.46-.06-.71.07-1.14.77-1.41,1.08-.41,2.14-.9,3.21-1.35l-.06-.31a4.17,4.17,0,0,0-.94.1q-4,1.47-8.08,3c-1.14.43-1.27.4-1.38-.83-.13-1.61-.18-3.21-.3-4.82a3,3,0,0,1,.42-2.34,7.4,7.4,0,0,0,1.57-.06,15.68,15.68,0,0,0,2-.84l7.14-3.28L59,460c-.82.35-1.56.69-2.32,1-.57.23-.94.07-1-.62-.06-1.26-.14-2.52-.23-3.77a5.81,5.81,0,0,0-.24-.91c0,1.63.1,3.21.21,4.8a1.15,1.15,0,0,1-.74,1.29c-1.82.84-3.62,1.73-5.43,2.58a3.48,3.48,0,0,1-.74.17c-.9.33-1.82.64-2.71,1s-1.82.82-2.73,1.23l.1.23,4.35-1.47a7.34,7.34,0,0,1,.3,1.38c0,1.52,0,3,0,4.56,0,1.29-.49,1.77-1.72,2.25-3.16,1.23-6.29,2.52-9.42,3.79a6.37,6.37,0,0,0-.73.39l.11.21c.37-.12.74-.24,1.11-.38,1.1-.41,2.18-.86,3.29-1.25.51-.19.79,0,.8.61,0,1.58.15,3.16.13,4.74a2.88,2.88,0,0,1-1.64,2.68q-5,2.37-10,4.62a1.48,1.48,0,0,1-1.27-.05.88.88,0,0,0-1.4.07c0-.61-2.1-2.49-2.82-2.62-.89-.17-3.52,1.33-3.85,2.2a.27.27,0,0,0,.14.07,1.29,1.29,0,0,0,.34,0c1-.15,2-.41,2.79.53.14.17.54.13.82.17.49.05,1,0,1.46.12a9.27,9.27,0,0,0,6-.75c.46-.24.95-.42,1.42-.62,1-.43,1.2-.3,1.13.82-.12,2-.28,4-.37,6a1.6,1.6,0,0,1-1,1.53c-3.29,1.52-6.56,3.07-9.84,4.59a2.34,2.34,0,0,1-2.4-.4c-1.09-.87-2.25-1.66-3.4-2.45-.17-.11-.5,0-.75.05.15.2.27.5.47.58.54.21.89.52.84,1.13,0,.46-.09.91-.14,1.37-.12,1,.1,1.29,1.12,1.25a10.27,10.27,0,0,0,5-1,16.06,16.06,0,0,1,2.42-1.11c.71-.28,1.45-.46,2.46-.77v6h.34V505c0-1.55,0-3.1-.07-4.65a1.68,1.68,0,0,1,1.21-1.77c1-.36,1.89-.82,2.83-1.25,2.62-1.18,5.22-2.39,7.84-3.56,1.13-.5,1.54-.18,1.49,1.05,0,1.55-.08,3.1-.18,4.65A2.7,2.7,0,0,1,41,502c-3,1.49-6.07,3-9.12,4.45a12.93,12.93,0,0,1-1.63.53,12.69,12.69,0,0,0-1.73.62c-.93.49-1.82,1.07-2.73,1.61l-1.86,1.08a.45.45,0,0,0,.48,0c2.88-1.28,5.78-2.55,8.65-3.86,1.74-.8,2-.68,1.94,1.21,0,1.31,0,2.63,0,3.95a1.23,1.23,0,0,0,.34-.75c.08-1.55.08-3.11.23-4.65a2,2,0,0,1,.76-1.4c1.25-.75,2.63-1.26,3.91-2,1.69-.95,3.34-2,5-3ZM21.85,512.45c-1.84.69-3.57,1.32-5.29,2s-3.39,1.39-5.09,2.07A2.14,2.14,0,0,0,10,518.72c0,1.21,0,2.41,0,3.62a13.09,13.09,0,0,0,.16,1.34,9.41,9.41,0,0,0,2.27-1.11c1.57-1.42,3.54-2.07,5.31-3.08.09,0,.29.09.44.14l.51-.82.24.86,1.84-1.77.19.38c.18-.09.34-.25.48-.24,1.1.05,1.12-.79,1.06-1.45C22.39,515.29,22.1,514,21.85,512.45ZM33.44,489c-.18,0-.28,0-.35,0-3.13,1.27-6.27,2.53-9.39,3.83a1.25,1.25,0,0,0-.61,1.71,1.27,1.27,0,0,1,0,.72c-.47,1.71-.8,3.24.55,4.44.18-.11.45-.37.54-.32.57.3.84-.12,1.18-.41a1.49,1.49,0,0,1,.32-.24c1.2-.47,2.42-.89,3.61-1.39a29.25,29.25,0,0,0,3.24-1.56,1.89,1.89,0,0,0,.9-1.21C33.5,492.75,33.44,490.92,33.44,489Zm-2.56-2.09.1.23a2.26,2.26,0,0,0,.78,0c2.75-1.16,5.48-2.36,8.23-3.52.5-.21.58-.51.51-1a10.63,10.63,0,0,1,0-1.87c0-.75.21-1.49.18-2.23,0-1-.46-1.2-1.37-.85s-2,.79-2.95,1.18l-5,2A2.14,2.14,0,0,0,29.76,483c0,1.09-.1,2.18-.1,3.27a4.83,4.83,0,0,0,.29,1.13ZM30.8,505.3c.92-.44,1.7-.75,2.4-1.18,2.47-1.49,5.43-1.82,7.89-3.37a1.51,1.51,0,0,0,.76-1.83,22.17,22.17,0,0,1-.28-2.28c0-.65,0-1.3,0-2-.33.11-.56.15-.76.24-3,1.31-6,2.65-9,3.94a1.68,1.68,0,0,0-1.08,1.91c.07,1.25,0,2.51,0,3.77C30.73,504.69,30.77,504.9,30.8,505.3Zm16.45-39.14c-.46.13-.78.2-1.09.32-3,1.12-6,2.28-9,3.36-.7.25-1,.55-.9,1.27.11,1,.16,2,.27,3,.07.59.2,1.17.31,1.8,3.44-1.34,6.64-2.59,9.84-3.87a1,1,0,0,0,.58-.65C47.27,469.71,47.25,468,47.25,466.16ZM28.12,503.25l-.18,0v-2.47c-.73.39-1.29.73-1.89,1-1.51.69-3,1.39-4.55,2-1.1.46-2.24.82-3.35,1.26a.78.78,0,0,0-.39.58c.07,1.86.19,3.71.3,5.55a1.2,1.2,0,0,0,.28,0c3.15-1.44,6.31-2.89,9.45-4.35a.9.9,0,0,0,.45-.58c.1-1.31.15-2.63.22-3.95h-.11ZM54.27,455.5a9.43,9.43,0,0,0-1.05.25c-2.9,1.06-5.81,2.13-8.7,3.23a1.2,1.2,0,0,0-.66.77c-.19,1.3-.3,2.62-.37,3.93a6.21,6.21,0,0,0,.28,1.43c1.34-.51,2.53-.93,3.7-1.41.66-.27,1.27-.64,1.91-.95.18-.08.49-.22.55-.15.51.54.9,0,1.32-.12s.8-.31,1.21-.43a1.92,1.92,0,0,0,1.22-1.2A8.64,8.64,0,0,0,54.27,455.5Zm-4.52,31.84a8.5,8.5,0,0,0,2.11-.13,5.86,5.86,0,0,0,3.2-1.74.93.93,0,0,1,.43-.25c.42-.17.85-.31,1.28-.47a7,7,0,0,1,1.21-.49,1.92,1.92,0,0,0,1.7-2c0-.88,0-1.77.11-2.66s-.48-1.48-1.39-1.17-2,.85-3,1.29c-.37.16-.71.36-1.08.51-1.55.61-3.27.9-4.37,2.36-.07.1-.27.08-.36.17s-.47.39-.49.61c-.08,1.22-.11,2.46-.14,3.69a4.26,4.26,0,0,0,.14.78l.25,0v-2.21h.18ZM47.61,500c-2.65,1.37-5.2,2.71-7.77,4a1.92,1.92,0,0,1-.78.27,1.91,1.91,0,0,0-1.77,1.11c-.83,1.52-.52,3.13-.41,4.71,0,.15.45.43.58.38.95-.41,2-.71,2.42-1.58A10.49,10.49,0,0,0,46,505.74l.07.51c1.14-.48,2.27-2.13,1.8-2.85a3.32,3.32,0,0,1-.26-2.3C47.62,500.74,47.61,500.37,47.61,500ZM25,516.77l0,.29a6.91,6.91,0,0,0,1.4-.81,6.7,6.7,0,0,0,.87-1.3l.23.13-.07.65a35.62,35.62,0,0,1,6-2.73,1.43,1.43,0,0,0,1-1.5c0-1.29,0-2.57,0-3.86,0-1.1-.21-1.25-1.18-.76-2.57,1.28-5.1,2.63-7.71,3.81a1.7,1.7,0,0,0-1.13,1.77c0,1.1.12,2.19.23,3.28A5.09,5.09,0,0,0,25,516.77Zm34.64-55a2.47,2.47,0,0,0-.49.07c-3,1.1-6,2.18-9,3.33a1.35,1.35,0,0,0-.65,1,31.39,31.39,0,0,0,0,3.36c.08,1.32.39,1.53,1.63,1,2.65-1,5.28-2.1,7.9-3.19a.94.94,0,0,0,.5-.68C59.66,465.06,59.64,463.45,59.64,461.75Zm-5.93,40.39c.62-.39,1.23-.8,1.87-1.17,1.1-.66,2.22-1.3,3.33-2a1,1,0,0,0,.48-1.24,3.94,3.94,0,0,1,.12-2.58,1.46,1.46,0,0,0,.19-.74,1,1,0,0,0-.41-.69c-.16-.1-.47.07-.79.13l.49.54c-.38.23-.7.43-1,.61-2.31,1.27-4.64,2.52-6.92,3.84-.43.24-1,.76-1,1.18a40.26,40.26,0,0,0,.2,4.06L53.65,502ZM56,476.94c1.07-.57,2-1,2.89-1.55a1.11,1.11,0,0,0,.52-.71c.09-1.09.12-2.18.12-3.27,0-.71-.41-1-1.11-.72a6,6,0,0,0-1.51.6,1.89,1.89,0,0,0-.84,1,26.56,26.56,0,0,0-.29,3.34A5.65,5.65,0,0,0,56,476.94ZM59.33,486c-.88.59-1.8,1.2-2.7,1.83a.73.73,0,0,0-.31.39,12.27,12.27,0,0,0-.12,4.6,11.45,11.45,0,0,1,2.23-1c.76-.15,1.16-.45,1.15-1.2,0-1.51,0-3-.08-4.51C59.5,486.16,59.46,486.14,59.33,486Zm.58-31.85c-2.38.69-3.53,1.08-3.39,2.93l.6-.67L56.31,459l.25.11.58-.41.25.41c.76-.51,1.87-.85,2.19-1.56C60,456.63,59.82,455.4,59.91,454.18Zm-28.69,21.9-.9,1.34c.82.25,1.79-.11,2.14.85,0,0,.11,0,.16,0l2.63-.37.06-.31c-1.35-.73-2.69-1.48-4.07-2.17-.51-.25-.93,0-1.28.57ZM13.31,513.65h3a14.5,14.5,0,0,0-4.65-3.55.74.74,0,0,0,.17.56,3.37,3.37,0,0,0,.79.52c.69.34.94.73.3,1.36a1.34,1.34,0,0,0-.26.52s.06.13.14.27l.49-.64Zm24.08-46.73c.9,0,1.63,0,2.37,0a8.72,8.72,0,0,1,1.23.19l.83.13c-.17-.26-.28-.63-.51-.74a9.14,9.14,0,0,0-2.53-1c-.64-.11-1.49-.48-2.22.29l1.16.23Z"/><path class="cls-2" d="M48.49,464.54a3,3,0,0,0-.42,2.34c.12,1.61.17,3.21.3,4.82.11,1.23.24,1.26,1.38.83q4-1.51,8.08-3a4.17,4.17,0,0,1,.94-.1l.06.31c-1.07.45-2.13.94-3.21,1.35-.7.27-.83.7-.77,1.41.13,1.48.19,3,.19,4.46,0,1.15.21,1.36,1.29,1l3-1.05.19.2c-.15.18-.27.45-.47.53-3.15,1.31-6.31,2.59-9.48,3.88-.76.31-1.53.67-1.57,1.62-.06,1.66-.1,3.32,0,5,0,.47.45.92.71,1.44l9.85-4.51.2.34a7.25,7.25,0,0,1-1.6,1.1c-2,.73-2.46,2.14-2.12,4.09.21,1.18.19,2.39.29,3.77L59,492.53l.2.35c-.33.22-.63.47-1,.65-2.66,1.43-5.31,2.86-8,4.25a2.64,2.64,0,0,0-1.62,2.91c.14,1.08.16,2.18.21,3.27a3.34,3.34,0,0,1-.16.8l-.29,0a7.06,7.06,0,0,1-.1-.77c0-1.15,0-2.3,0-3.45s-.3-1.37-1.4-1.25l-.68.07c2.45-1.28,4.9-2.57,7.37-3.83a1.86,1.86,0,0,0,1.15-2.06c-.14-1.16-.14-2.34-.24-3.51a4.12,4.12,0,0,0-.3-.92l0,0c.05-1-.29-1.28-1.19-.83q-4.77,2.35-9.48,4.84a1.64,1.64,0,0,0-.53,1.22c-.07,1.14,0,2.28,0,3.43,0,.63-.06,1.26,0,1.89s.39,1,1.11.65a10.8,10.8,0,0,1,1.13-.4c-1.66,1-3.31,2.05-5,3-1.28.71-2.66,1.22-3.91,2a2,2,0,0,0-.76,1.4c-.15,1.54-.15,3.1-.23,4.65a1.23,1.23,0,0,1-.34.75c0-1.32,0-2.64,0-3.95,0-1.89-.2-2-1.94-1.21-2.87,1.31-5.77,2.58-8.65,3.86a.45.45,0,0,1-.48,0l1.86-1.08c.91-.54,1.8-1.12,2.73-1.61a12.69,12.69,0,0,1,1.73-.62,12.93,12.93,0,0,0,1.63-.53c3-1.46,6.09-3,9.12-4.45a2.7,2.7,0,0,0,1.39-2.51c.1-1.55.13-3.1.18-4.65.05-1.23-.36-1.55-1.49-1.05-2.62,1.17-5.22,2.38-7.84,3.56-.94.43-1.87.89-2.83,1.25a1.68,1.68,0,0,0-1.21,1.77c0,1.55.05,3.1.07,4.65v.84h-.34v-6c-1,.31-1.75.49-2.46.77a16.06,16.06,0,0,0-2.42,1.11,10.27,10.27,0,0,1-5,1c-1,0-1.24-.25-1.12-1.25.05-.46.1-.91.14-1.37.05-.61-.3-.92-.84-1.13-.2-.08-.32-.38-.47-.58.25,0,.58-.16.75-.05,1.15.79,2.31,1.58,3.4,2.45a2.34,2.34,0,0,0,2.4.4c3.28-1.52,6.55-3.07,9.84-4.59a1.6,1.6,0,0,0,1-1.53c.09-2,.25-4,.37-6,.07-1.12-.12-1.25-1.13-.82-.47.2-1,.38-1.42.62a9.27,9.27,0,0,1-6,.75c-.48-.08-1-.07-1.46-.12-.28,0-.68,0-.82-.17-.81-.94-1.8-.68-2.79-.53a1.29,1.29,0,0,1-.34,0,.27.27,0,0,1-.14-.07c.33-.87,3-2.37,3.85-2.2.72.13,2.8,2,2.82,2.62a.88.88,0,0,1,1.4-.07,1.48,1.48,0,0,0,1.27.05q5-2.25,10-4.62a2.88,2.88,0,0,0,1.64-2.68c0-1.58-.11-3.16-.13-4.74,0-.61-.29-.8-.8-.61-1.11.39-2.19.84-3.29,1.25-.37.14-.74.26-1.11.38l-.11-.21a6.37,6.37,0,0,1,.73-.39c3.13-1.27,6.26-2.56,9.42-3.79,1.23-.48,1.7-1,1.72-2.25,0-1.52,0-3,0-4.56a7.34,7.34,0,0,0-.3-1.38L43.15,467l-.1-.23c.91-.41,1.81-.85,2.73-1.23s1.81-.67,2.71-1Zm-6.57,19.2c.82-.27,1.48-.46,2.11-.7,2.73-1,5.44-2.14,8.2-3.1a3.07,3.07,0,0,0,2.26-2.68,15.35,15.35,0,0,0-.39-5.75l-1,.31L49,473.29c-2,.71-4,1.4-6,2.12-.61.22-1.26.43-1.24,1.32,0,1.48,0,3,0,4.46C41.79,482,41.86,482.78,41.92,483.74Zm-7.38,4a3.94,3.94,0,0,1,.29,1c.07,1.91.09,3.84.14,5.76,0,.36.09.72.15,1.17l.89-.39c3.07-1.35,6.12-2.75,9.22-4.05,2.15-.9,2.1-.84,2.09-3.19a23.06,23.06,0,0,1,.47-4c.12-.74-.1-1.5-.64-1.43a10.07,10.07,0,0,0-2,.56c-.66.25-1.28.62-1.94.9-2.74,1.17-5.49,2.32-8.24,3.48A1.93,1.93,0,0,0,34.54,487.75Z"/><path class="cls-2" d="M21.85,512.45c.25,1.55.54,2.84.66,4.14.06.66,0,1.5-1.06,1.45-.14,0-.3.15-.48.24l-.19-.38-1.84,1.77-.24-.86-.51.82c-.15,0-.35-.19-.44-.14-1.77,1-3.74,1.66-5.31,3.08a9.41,9.41,0,0,1-2.27,1.11,13.09,13.09,0,0,1-.16-1.34c0-1.21,0-2.41,0-3.62a2.14,2.14,0,0,1,1.44-2.21c1.7-.68,3.38-1.4,5.09-2.07S20,513.14,21.85,512.45Z"/><path class="cls-2" d="M33.44,489c0,1.89.06,3.72,0,5.55a1.89,1.89,0,0,1-.9,1.21,29.25,29.25,0,0,1-3.24,1.56c-1.19.5-2.41.92-3.61,1.39a1.49,1.49,0,0,0-.32.24c-.34.29-.61.71-1.18.41-.09-.05-.36.21-.54.32-1.35-1.2-1-2.73-.55-4.44a1.27,1.27,0,0,0,0-.72,1.25,1.25,0,0,1,.61-1.71c3.12-1.3,6.26-2.56,9.39-3.83C33.16,489,33.26,489,33.44,489Z"/><path class="cls-2" d="M30.88,486.94l-.93.42a4.83,4.83,0,0,1-.29-1.13c0-1.09.08-2.18.1-3.27a2.14,2.14,0,0,1,1.51-2.08l5-2c1-.39,2-.81,2.95-1.18s1.33-.12,1.37.85c0,.74-.14,1.48-.18,2.23a10.63,10.63,0,0,0,0,1.87c.07.5,0,.8-.51,1-2.75,1.16-5.48,2.36-8.23,3.52a2.26,2.26,0,0,1-.78,0Z"/><path class="cls-2" d="M30.8,505.3c0-.4-.07-.61-.07-.83,0-1.26.06-2.52,0-3.77a1.68,1.68,0,0,1,1.08-1.91c3-1.29,6-2.63,9-3.94.2-.09.43-.13.76-.24,0,.73,0,1.38,0,2a22.17,22.17,0,0,0,.28,2.28,1.51,1.51,0,0,1-.76,1.83c-2.46,1.55-5.42,1.88-7.89,3.37C32.5,504.55,31.72,504.86,30.8,505.3Z"/><path class="cls-2" d="M47.25,466.16c0,1.83,0,3.55,0,5.26a1,1,0,0,1-.58.65c-3.2,1.28-6.4,2.53-9.84,3.87-.11-.63-.24-1.21-.31-1.8-.11-1-.16-2-.27-3-.08-.72.2-1,.9-1.27,3-1.08,6-2.24,9-3.36C46.47,466.36,46.79,466.29,47.25,466.16Z"/><path class="cls-2" d="M28.12,503.25l.23-1h.11c-.07,1.32-.12,2.64-.22,3.95a.9.9,0,0,1-.45.58c-3.14,1.46-6.3,2.91-9.45,4.35a1.2,1.2,0,0,1-.28,0c-.11-1.84-.23-3.69-.3-5.55a.78.78,0,0,1,.39-.58c1.11-.44,2.25-.8,3.35-1.26,1.53-.63,3-1.33,4.55-2,.6-.27,1.16-.61,1.89-1v2.47Z"/><path class="cls-2" d="M54.27,455.5a8.64,8.64,0,0,1-.59,5.35,1.92,1.92,0,0,1-1.22,1.2c-.41.12-.8.34-1.21.43s-.81.66-1.32.12c-.06-.07-.37.07-.55.15-.64.31-1.25.68-1.91.95-1.17.48-2.36.9-3.7,1.41a6.21,6.21,0,0,1-.28-1.43c.07-1.31.18-2.63.37-3.93a1.2,1.2,0,0,1,.66-.77c2.89-1.1,5.8-2.17,8.7-3.23A9.43,9.43,0,0,1,54.27,455.5Z"/><path class="cls-2" d="M49.75,487.34l-.2-1.72h-.18v2.21l-.25,0a4.26,4.26,0,0,1-.14-.78c0-1.23.06-2.47.14-3.69,0-.22.3-.43.49-.61s.29-.07.36-.17c1.1-1.46,2.82-1.75,4.37-2.36.37-.15.71-.35,1.08-.51,1-.44,2-.94,3-1.29s1.46.23,1.39,1.17-.09,1.78-.11,2.66a1.92,1.92,0,0,1-1.7,2,7,7,0,0,0-1.21.49c-.43.16-.86.3-1.28.47a.93.93,0,0,0-.43.25,5.86,5.86,0,0,1-3.2,1.74A8.5,8.5,0,0,1,49.75,487.34Z"/><path class="cls-2" d="M47.61,500c0,.39,0,.76,0,1.12a3.32,3.32,0,0,0,.26,2.3c.47.72-.66,2.37-1.8,2.85l-.07-.51a10.49,10.49,0,0,1-6.12,3.16c-.41.87-1.47,1.17-2.42,1.58-.13,0-.57-.23-.58-.38-.11-1.58-.42-3.19.41-4.71a1.91,1.91,0,0,1,1.77-1.11,1.92,1.92,0,0,0,.78-.27C42.41,502.69,45,501.35,47.61,500Z"/><path class="cls-2" d="M25,516.77a5.09,5.09,0,0,1-.32-1c-.11-1.09-.2-2.18-.23-3.28a1.7,1.7,0,0,1,1.13-1.77c2.61-1.18,5.14-2.53,7.71-3.81,1-.49,1.19-.34,1.18.76,0,1.29,0,2.57,0,3.86a1.43,1.43,0,0,1-1,1.5,35.62,35.62,0,0,0-6,2.73l.07-.65-.23-.13a6.7,6.7,0,0,1-.87,1.3,6.91,6.91,0,0,1-1.4.81Z"/><path class="cls-2" d="M59.64,461.75c0,1.7,0,3.31,0,4.91a.94.94,0,0,1-.5.68c-2.62,1.09-5.25,2.16-7.9,3.19-1.24.49-1.55.28-1.63-1a31.39,31.39,0,0,1,0-3.36,1.35,1.35,0,0,1,.65-1c3-1.15,6-2.23,9-3.33A2.47,2.47,0,0,1,59.64,461.75Z"/><path class="cls-2" d="M53.71,502.14l-.06-.12-3.38,2.11a40.26,40.26,0,0,1-.2-4.06c0-.42.55-.94,1-1.18,2.28-1.32,4.61-2.57,6.92-3.84.32-.18.64-.38,1-.61l-.49-.54c.32-.06.63-.23.79-.13a1,1,0,0,1,.41.69,1.46,1.46,0,0,1-.19.74,3.94,3.94,0,0,0-.12,2.58,1,1,0,0,1-.48,1.24c-1.11.65-2.23,1.29-3.33,2C54.94,501.34,54.33,501.75,53.71,502.14Z"/><path class="cls-1" d="M45.24,499.84a10.8,10.8,0,0,0-1.13.4c-.72.34-1,0-1.11-.65s0-1.26,0-1.89c0-1.15,0-2.29,0-3.43a1.64,1.64,0,0,1,.53-1.22q4.71-2.49,9.48-4.84c.9-.45,1.24-.16,1.19.83-1.41.53-2.83,1.06-4.23,1.61-.51.19-1,.42-1.5.62-.92.37-1.89.66-2.77,1.11-1.75.91-1.73.95-1.74,2.94V499c2.31-1,4.48-1.85,6.61-2.81.88-.4,1.65-1.05,2.53-1.47a1.6,1.6,0,0,0,1-1.74c-.07-1.31,0-2.63.05-3.94a4.12,4.12,0,0,1,.3.92c.1,1.17.1,2.35.24,3.51a1.86,1.86,0,0,1-1.15,2.06c-2.47,1.26-4.92,2.55-7.37,3.83Z"/><path class="cls-2" d="M56,476.94a5.65,5.65,0,0,1-.22-1.27,26.56,26.56,0,0,1,.29-3.34,1.89,1.89,0,0,1,.84-1,6,6,0,0,1,1.51-.6c.7-.23,1.1,0,1.11.72,0,1.09,0,2.18-.12,3.27a1.11,1.11,0,0,1-.52.71C58,475.91,57,476.37,56,476.94Z"/><path class="cls-2" d="M59.33,486c.13.11.17.13.17.15,0,1.5.07,3,.08,4.51,0,.75-.39,1.05-1.15,1.2a11.45,11.45,0,0,0-2.23,1,12.27,12.27,0,0,1,.12-4.6.73.73,0,0,1,.31-.39C57.53,487.23,58.45,486.62,59.33,486Z"/><path class="cls-2" d="M59.91,454.18c-.09,1.22.1,2.45-.33,3.4-.32.71-1.43,1.05-2.19,1.56l-.25-.41-.58.41-.25-.11.81-2.59-.6.67C56.38,455.26,57.53,454.87,59.91,454.18Z"/><path class="cls-2" d="M31.22,476.08,30,476c.35-.57.77-.82,1.28-.57,1.38.69,2.72,1.44,4.07,2.17l-.06.31-2.63.37s-.15,0-.16,0c-.35-1-1.32-.6-2.14-.85Z"/><path class="cls-2" d="M48.49,464.54a3.48,3.48,0,0,0,.74-.17c1.81-.85,3.61-1.74,5.43-2.58a1.15,1.15,0,0,0,.74-1.29c-.11-1.59-.2-3.17-.21-4.8a5.81,5.81,0,0,1,.24.91c.09,1.25.17,2.51.23,3.77,0,.69.4.85,1,.62.76-.29,1.5-.63,2.32-1l.23.34L52,463.64a15.68,15.68,0,0,1-2,.84,7.4,7.4,0,0,1-1.57.06Z"/><path class="cls-2" d="M13.31,513.65l-.06-1-.49.64c-.08-.14-.16-.23-.14-.27a1.34,1.34,0,0,1,.26-.52c.64-.63.39-1-.3-1.36a3.37,3.37,0,0,1-.79-.52.74.74,0,0,1-.17-.56,14.5,14.5,0,0,1,4.65,3.55Z"/><path class="cls-2" d="M37.39,466.92l.33-.91-1.16-.23c.73-.77,1.58-.4,2.22-.29a9.14,9.14,0,0,1,2.53,1c.23.11.34.48.51.74l-.83-.13a8.72,8.72,0,0,0-1.23-.19C39,466.89,38.29,466.92,37.39,466.92Z"/><path class="cls-1" d="M41.92,483.74c-.06-1-.13-1.76-.15-2.55,0-1.49,0-3,0-4.46,0-.89.63-1.1,1.24-1.32,2-.72,4-1.41,6-2.12l4.13-1.47,1-.31a15.35,15.35,0,0,1,.39,5.75,3.07,3.07,0,0,1-2.26,2.68c-2.76,1-5.47,2.07-8.2,3.1C43.4,483.28,42.74,483.47,41.92,483.74Zm.86-4.12v1.29c0,1.26.41,1.54,1.59,1q4.55-2.13,9.07-4.32a.82.82,0,0,0,.42-.56,31.82,31.82,0,0,0,.23-3.51c0-1-.47-1.28-1.41-.88-2.55,1.08-5.07,2.28-7.65,3.29C43.26,476.62,42.29,477.63,42.78,479.62Z"/><path class="cls-1" d="M34.54,487.75a1.93,1.93,0,0,1,.38-.27c2.75-1.16,5.5-2.31,8.24-3.48.66-.28,1.28-.65,1.94-.9a10.07,10.07,0,0,1,2-.56c.54-.07.76.69.64,1.43a23.06,23.06,0,0,0-.47,4c0,2.35.06,2.29-2.09,3.19-3.1,1.3-6.15,2.7-9.22,4.05l-.89.39c-.06-.45-.14-.81-.15-1.17,0-1.92-.07-3.85-.14-5.76A3.94,3.94,0,0,0,34.54,487.75Zm1.34,2.52c0,.58,0,1.15,0,1.73a.86.86,0,0,0,.72,1,3.26,3.26,0,0,0,2.57-.34c1.49-.79,3-1.57,4.51-2.34a4.11,4.11,0,0,1,.87-.22c1.05-.23,2.09-.75,2.06-1.9s.09-2.35.1-3.53-.71-1.5-1.62-1.08c-2.16,1-4.26,2.16-6.5,2.93C36.64,487.18,35.49,488.08,35.88,490.27Z"/><path class="cls-2" d="M54.2,489c0,1.31-.12,2.63-.05,3.94a1.6,1.6,0,0,1-1,1.74c-.88.42-1.65,1.07-2.53,1.47-2.13,1-4.3,1.83-6.61,2.81v-3.66c0-2,0-2,1.74-2.94.88-.45,1.85-.74,2.77-1.11.5-.2,1-.43,1.5-.62,1.4-.55,2.82-1.08,4.23-1.61Z"/><path class="cls-2" d="M42.78,479.62c-.49-2,.48-3,2.25-3.7,2.58-1,5.1-2.21,7.65-3.29.94-.4,1.39-.15,1.41.88a31.82,31.82,0,0,1-.23,3.51.82.82,0,0,1-.42.56q-4.52,2.19-9.07,4.32c-1.18.55-1.58.27-1.59-1Z"/><path class="cls-2" d="M35.88,490.27c-.39-2.19.76-3.09,2.7-3.76,2.24-.77,4.34-1.94,6.5-2.93.91-.42,1.62,0,1.62,1.08s-.13,2.35-.1,3.53-1,1.67-2.06,1.9a4.11,4.11,0,0,0-.87.22c-1.51.77-3,1.55-4.51,2.34a3.26,3.26,0,0,1-2.57.34.86.86,0,0,1-.72-1C35.91,491.42,35.88,490.85,35.88,490.27Z"/><path class="cls-1" d="M127.65,496.36a5.4,5.4,0,0,1-.28,1.83,7.55,7.55,0,0,0-1.17,4.8,1.82,1.82,0,0,1-.88-2.05c.29-1.16.81-2.26,1-3.43a4.16,4.16,0,0,0-.39-2.2c-.12-.27-.82-.32-1.27-.4s-.65.16-.59.62a3,3,0,0,0,.31,1.15,5,5,0,0,1,.09-.88c.06-.23.27-.62.38-.6.29,0,.78.21.81.39a5.06,5.06,0,0,1,.08,2.15c-.56,1.85-1.21,3.66-.19,5.55-.93.4-1.53.08-1.52-.88,0-1.12.14-2.23.2-3.35a4,4,0,0,0-.14-1.44c-.2,1.87-.4,3.73-.62,5.69-.31,0-.82,0-1.33,0-3.81-.12-7.63-.27-11.45-.36a1.57,1.57,0,0,0-1.13.38,7.94,7.94,0,0,1-5.69,3.05,8.84,8.84,0,0,1-7-1.61,10.59,10.59,0,0,1-2.2-2.9,1.52,1.52,0,0,0-1.53-.95c-2.18.1-4.37.14-6.55.18A7.25,7.25,0,0,1,85,501c-1-.22-1.34-.88-1.2-2a3.2,3.2,0,0,0,2.84,1c2.89,0,5.79,0,8.73,0l.41-2.57a12.78,12.78,0,0,0-5.24-1.23c-1.35,0-2.7.08-4,.07-.47,0-1.24.11-1.21-.6a2,2,0,0,1,.85-1.42,14.16,14.16,0,0,1,2.6-.89c-.42-2.95-.44-6-1.34-8.8L90.1,482l.13.45c.11-1.95-.57-3.3-1.69-3.45s-2,1.14-2.53,3a8.38,8.38,0,0,1-.53-1.5,3.25,3.25,0,0,1,2-3.76,15.24,15.24,0,0,1,4-.94c3.31-.34,6.64-.52,10-.77a3.35,3.35,0,0,0,.85-.11c3.39-1.23,7-1.42,10.49-1.94,2.07-.31,4.16-.55,6.24-.78a1.19,1.19,0,0,0,1.11-.88c.52-1.46,1.13-2.89,1.65-4.35a7.79,7.79,0,0,1,5.25-5.05,60.39,60.39,0,0,1,12.85-2.38,79.06,79.06,0,0,1,15.15,0,27.55,27.55,0,0,1,10.13,2.58,12.62,12.62,0,0,1,6.85,8.71c.19.78.39,1.56.55,2.34a1.31,1.31,0,0,0,1.2,1.15c1.25.21,2.48.49,3.72.73,1.09.21,1.44.57,1.65,1.68a16.39,16.39,0,0,1,0,7.44c-.52,1.89-.92,3.95-2.74,5.22-.14.1-.17.4-.21.62-.3,1.74-.58,3.5-.87,5.22l.44-.62c-.17,1.69-.85,2.68-2.14,2.78a6.19,6.19,0,0,1-3.29-.22c-.79-.45-1.11-1.74-1.7-2.75l-3.12,1.65c-2.62,1.37-5.22,2.78-7.86,4.11a2,2,0,0,0-1.12,1.67,39.7,39.7,0,0,1-1.22,5.09,6,6,0,0,1-6.25,4.33c-1.12,0-2.24-.11-3.36-.19a2.77,2.77,0,0,1-2.28-1.37,35.21,35.21,0,0,1-2.07-4.23,1,1,0,0,0-1.25-.74c-1.2.15-2.4.19-3.6.31-3.23.3-6.23-.89-9.33-1.4-.79-.13-1-.7-.67-1.62,1.42.24,2.88.37,4.28.72a22.38,22.38,0,0,0,13.37-.91,2.7,2.7,0,0,0,2.08-2.8c0-1,0-2,0-3.16-.78.14-1.41.24-2,.38a36.82,36.82,0,0,1-12.69.51c-1-.12-1.95-.06-2.92-.13a4.65,4.65,0,0,1-1-.27c0-.56.29-.79.88-.74a12.88,12.88,0,0,0,2.06,0,1.61,1.61,0,0,0,1.7-1.51,16.32,16.32,0,0,0-.13-6.42,2.22,2.22,0,0,0-2.33-2.05c-1.52-.17-3-.35-4.55-.39-5.57-.15-11.14-.25-16.71-.35-.84,0-1.67,0-2.5,0h-2.49c8.84.24,17.71-.08,26.5,1.07v.34l-31.8-.91v-.21H101l0-.22c-2,.21-4.11-.46-6,.89l.59-.83a1.29,1.29,0,0,0-1.11,1.37,11.91,11.91,0,0,0,.15,1.88A16,16,0,0,0,96,493l.56-.81c-.24-.14-.53-.22-.56-.36-.35-1.58-.71-3.17-1-4.78-.06-.39.25-.84.39-1.26l.24.08-.16.68c.29,0,.52.07.75.08l20.32.59c4.62.13,9.25.27,13.87.38.51,0,.88.13,1,.65l0,0a2.12,2.12,0,0,1-.77.3c-6.32-.16-12.64-.35-19-.53-3.87-.11-7.75-.24-11.63-.34-1.59,0-3.19,0-4.85,0l.22,1.15c.34,0,.59.06.85.07l20.33.59q7.11.21,14.22.38c.63,0,1,.17.73,1l-36-1,.4,1.3,35.7,1-.07.92-32.83-.94.69,1.4c1,0,2.1,0,3.16,0,6.92.2,13.84.42,20.76.6a1.71,1.71,0,0,0,1-.34A1.82,1.82,0,0,1,127,494a1.39,1.39,0,0,0,.85.36c1.16,0,2.33,0,3.62,0-.15.28-.21.53-.31.54-1.2.18-2.4.33-3.66.5ZM138.26,483l0,0a3.64,3.64,0,0,0,.1-4.22,2.76,2.76,0,0,0-4.54-.36c-1.52,1.81-1.11,4.72.86,5.62l.45.15A2.38,2.38,0,0,0,138.26,483ZM96.73,501.31l0,0a1.84,1.84,0,0,0,2-.1c-.17-.24-.52-.29-.68-.49-.29-.37-.69-.85-.65-1.25a10.23,10.23,0,0,1,.74-3.31,2.15,2.15,0,0,0-.23-2.38c-.28-.38-1.06-.39-1.53-.54-.1,1.53-.18,2.83-.28,4.13-.07.94-.21,1.88-.28,2.82A1,1,0,0,0,96.73,501.31Zm57.41-3.13,0,0-1.73,6.73c1.16-.77,1.15-2.07,1.9-3a6.11,6.11,0,0,1-1.19,4.2,6.3,6.3,0,0,0,1.19-1.59,12.91,12.91,0,0,0,.93-7.5,30.54,30.54,0,0,0-1.14-4.92,3.27,3.27,0,0,0-1.26-1.44.83.83,0,0,0-1.37.4,3.51,3.51,0,0,1,1.34,0c1.15.52,2,2.9,1.57,4.23l-.8-1.43-.22.06ZM120.65,471.5h1.74c4.88-.13,9.76-.32,14.64-.37,4.62-.05,9.25,0,13.87.12,2.23.05,4.46.37,6.69.57.62.05,1-.09.95-.83a22.24,22.24,0,0,0-1.55-6.42,4.38,4.38,0,0,0-3.31-2.74,30.24,30.24,0,0,0-4.44-.54,83.08,83.08,0,0,0-14.36.72c-3.06.42-6.09,1.08-9.13,1.7a3.7,3.7,0,0,0-2.77,2C122.14,467.56,121.45,469.48,120.65,471.5ZM104.1,483.72c3.58,0,7.05,0,10.53,0,.69,0,.81-.52,1-1a11.3,11.3,0,0,1,7-7.12,41.65,41.65,0,0,1,9.71-2.26c2.48-.32,5-.54,7.47-.8-2.76,0-5.51.11-8.26.2a72,72,0,0,0-15.26,2,23.69,23.69,0,0,0-9.22,4.07A7.89,7.89,0,0,0,104.1,483.72Zm14.34,11.34V495l-19-.92c.56,1.15,0,2.2-.6,3.33a16.05,16.05,0,0,0-.82,3.08c4.92.36,9.58.75,14.24,1,3.42.2,6.84.24,10.25.32.24,0,.67-.12.7-.26.23-1.07.39-2.17.56-3.21-4.19,0-8.27.09-12.33,0s-8.18-.44-12.29-.67c0-.86.43-1,1.06-1,3.44.2,6.88.47,10.32.56,4.22.11,8.44.07,12.66.08a3.11,3.11,0,0,0,.72-.16l0-.35c-8,1-15.88-.25-23.87-.5l-.23-1.72Zm40.41-20.13v-.16c-1.84-.22-3.69-.46-5.53-.66a48.84,48.84,0,0,0-13.82.09,12.85,12.85,0,0,0-5.66,2.16,4.19,4.19,0,0,0-1.88,3.73c.16-.48.29-1,.49-1.45a3.86,3.86,0,0,1,4.82-2.42,4,4,0,0,1,2.66,1.89c.73,1.23,1.38,2.51,2.06,3.76,0,0,.08-.06.1-.1.12-.35.24-.71.35-1.06a6.27,6.27,0,0,1,5.6-4.66c2.62-.29,5.25-.56,7.88-.83Zm18.07,4.91-18.06,2.3c1.72.28,3.69.52,5.62.94,1.7.37,2.15,1.21,1.56,2.84-.53,1.42-1.21,2.79-1.87,4.16s-1.49,2.94-2.24,4.4a30.48,30.48,0,0,0,2.47-3,44,44,0,0,1,7.95-8.68C173.78,481.69,175.39,480.81,176.92,479.84Zm-18.2-17.12c.63,3.24,1.2,6.19,1.8,9.14a.78.78,0,0,0,.47.54c1.54.23,3.09.41,4.77.61-.59-2.82-1.12-5.46-1.74-8.08a1.77,1.77,0,0,0-1-1C161.68,463.44,160.31,463.14,158.72,462.72Zm-7.33,42.19c1.52-1.62,1.78-3.67,2-5.75l-.15.32c.26-2-1.37-1.91-2.36-2.13l.58-3.06a1.8,1.8,0,0,1,1.35,1.22c.26.62.42,1.28.63,1.92l.19,0-.89-4.29-.26.06.17.7-2.41.18c.19-.39.35-.71.5-1,.07-.16.23-.35.19-.48-.42-1.38.48-2.2,1.32-3a1.15,1.15,0,0,1,1.82.17,5.4,5.4,0,0,1,.94,1.53,19.45,19.45,0,0,1-.21,13.89,7.44,7.44,0,0,1-1.17,1.89,1.24,1.24,0,0,1-1.9.17l-.4-.28c.94,1.33,2.26,1.36,3.16.09a7.55,7.55,0,0,0,.9-1.85,22.53,22.53,0,0,0,1.12-8.74,13.94,13.94,0,0,0-1.65-6.71c-1-1.7-2.31-1.8-3.27-.1a18.65,18.65,0,0,0-1.78,4.53,13.9,13.9,0,0,0-.09,7V499.7A4.83,4.83,0,0,1,150,501c.29,1.68.61,1.85,2.13,1.11l.29-.12.15.22a10.18,10.18,0,0,1-1.17.81C150.39,503.55,150.34,504.14,151.39,504.91Zm-50.63-29.33c-.24,0-.47,0-.69,0l-7.63.62a11.5,11.5,0,0,0-5,1.23c-.34.2-.65.45-1,.67l.1.21c1.43-1.1,2.74-.61,4,.28.79.57,1.47,1.27,2.2,1.91l2.29,2a35,35,0,0,1,2.42-3.84A35,35,0,0,1,100.76,475.58Zm64.66-11c0,.12-.07.17-.06.22q.78,3.87,1.59,7.74a.87.87,0,0,0,.44.57,11.73,11.73,0,0,0,2.1.38c.61,0,.95-.27.82-1-.24-1.32-.42-2.66-.67-4A4.75,4.75,0,0,0,165.42,464.59Zm7.69,14.12v0c-.64,0-1.3,0-1.94.1-3.78.31-7.56.6-11.32,1-4.77.48-9.53,1-14.29,1.58a5.41,5.41,0,0,0-1.38.56l.09.15Zm-15.82,13,.22,0c-.31-1.32-.61-2.64-.92-4a2.49,2.49,0,0,0-1.83-1.87,4.1,4.1,0,0,0-4.94,1.79c-1.37,2.4-1.5,5.08-1.52,7.76.14-.73.21-1.47.3-2.2a9.8,9.8,0,0,1,1.65-4.92,4.19,4.19,0,0,1,4.08-1.5c1.37.17,1.69,1.32,2.08,2.37C156.72,490,157,490.85,157.29,491.71Zm-11.63.93a21.45,21.45,0,0,1-8,2.29c1.85,1,7.1,0,8.23-1l-1.17-.17Zm27.79-1.05-.11-.21c-.12.05-.26.08-.38.14q-7.76,3.92-15.5,7.85a3.17,3.17,0,0,0-.63.54l.14.15Zm-69.68-7.15c8.84.13,17.69,0,26.51.86C121.48,484,112.62,484.46,103.77,484.44Zm33.29,5.15a12,12,0,0,0-1.56.53c-.46.23-.46.62-.05.95a3.7,3.7,0,0,0,3.51,0c.49-.37.48-.79-.09-1A17.31,17.31,0,0,0,137.06,489.59Zm33.47-21.41-.24,0c.31,1.6.6,3.2,1,4.78.06.25.49.42.75.63l.25-.22C171.94,471.58,171.76,469.71,170.53,468.18ZM95.9,495.84c-3.12-1.66-6.48-1.11-9.75-1.29l-.05.45C89.37,495.18,92.72,494.7,95.9,495.84Zm65.76-22,0,.21,11.2,1.27,0-.31Zm-71,15.9a3.59,3.59,0,0,0,.83-.23c.21-.1.48-.34.47-.51a.72.72,0,0,0-.49-.5,4.45,4.45,0,0,0-1.41,0c-.27,0-.5.29-.75.44a5.43,5.43,0,0,0,.7.66C90.12,489.72,90.36,489.69,90.63,489.74Zm84.6,3.72a8.41,8.41,0,0,0,.46-4.06c-.29.66.05,1.35-.77,1.49a1.06,1.06,0,0,0-.65.69,4.78,4.78,0,0,0,.14,1.34c.13-.09.33-.15.4-.27a6,6,0,0,0,.26-.75l.23,0ZM138.4,477.74a4.75,4.75,0,0,1,1.08,4,3.9,3.9,0,0,1-2.63,3.14,3.39,3.39,0,0,0,2.73-2.51A4.19,4.19,0,0,0,138.4,477.74Zm40.83,4.38a15.6,15.6,0,0,0-.43-5.69,1.16,1.16,0,0,0-1.14-1C179.62,477.34,178.9,479.85,179.23,482.12ZM89.69,492.9l3.06.48C91.05,492.44,90.4,492.32,89.69,492.9Zm37.05,1.55c-.55-.82-1-.92-1.89-.36Z"/><path class="cls-1" d="M128.08,498v-1c5.95.54,11.86,1.06,17.72-.51a5.08,5.08,0,0,1-3,1.57,23.34,23.34,0,0,1-7.27.43C133.12,498.23,130.65,498.12,128.08,498Z"/><path class="cls-1" d="M127.23,501.19c.44,0,.88,0,1.32,0,3,.18,6.06.52,9.09.52a18.8,18.8,0,0,0,4.88-.89,5.33,5.33,0,0,0,3.46-2.64,2.83,2.83,0,0,1-1.17,2.35,10.05,10.05,0,0,1-4.81,1.93,21.31,21.31,0,0,1-9.3-.29c-1.15-.29-2.32-.52-3.48-.78Z"/><path class="cls-1" d="M94.93,499.37c-3.22,0-6.37,0-9.53,0-1.08,0-1.31-.73-.78-2.08.21.39.33,1,.68,1.19a2.81,2.81,0,0,0,1.49.21c2.3-.09,4.59-.24,6.88-.33C94.27,498.32,94.82,498.45,94.93,499.37Z"/><path class="cls-2" d="M120.65,471.5c.8-2,1.49-3.94,2.33-5.78a3.7,3.7,0,0,1,2.77-2c3-.62,6.07-1.28,9.13-1.7a83.08,83.08,0,0,1,14.36-.72,30.24,30.24,0,0,1,4.44.54,4.38,4.38,0,0,1,3.31,2.74,22.24,22.24,0,0,1,1.55,6.42c.09.74-.33.88-.95.83-2.23-.2-4.46-.52-6.69-.57-4.62-.12-9.25-.17-13.87-.12-4.88.05-9.76.24-14.64.37Z"/><path class="cls-2" d="M127.65,496.36l-.11-1c1.26-.17,2.46-.32,3.66-.5.1,0,.16-.26.31-.54-1.29,0-2.46,0-3.62,0A1.39,1.39,0,0,1,127,494a1.82,1.82,0,0,0-2.62-.19,1.71,1.71,0,0,1-1,.34c-6.92-.18-13.84-.4-20.76-.6-1.06,0-2.13,0-3.16,0l-.69-1.4,32.83.94.07-.92-35.7-1-.4-1.3,36,1c.26-.79-.1-.94-.73-1q-7.11-.18-14.22-.38l-20.33-.59c-.26,0-.51,0-.85-.07l-.22-1.15c1.66,0,3.26,0,4.85,0,3.88.1,7.76.23,11.63.34,6.32.18,12.64.37,19,.53a2.12,2.12,0,0,0,.77-.3,6.6,6.6,0,0,1,.37,1.47c.05,1.6,0,3.19,0,4.79a11.63,11.63,0,0,0-.34-6.73l0,.5c-.16-.52-.53-.64-1-.65-4.62-.11-9.25-.25-13.87-.38l-20.32-.59c-.23,0-.46-.05-.75-.08l.16-.68-.24-.08c-.14.42-.45.87-.39,1.26.25,1.61.61,3.2,1,4.78,0,.14.32.22.56.36L96,493a16,16,0,0,1-1.4-4.74,11.91,11.91,0,0,1-.15-1.88,1.29,1.29,0,0,1,1.11-1.37l-.59.83c1.9-1.35,4-.68,6-.89l0,.22H98.26v.21l31.8.91V486c-8.79-1.15-17.66-.83-26.5-1.07h2.49c.83,0,1.66,0,2.5,0,5.57.1,11.14.2,16.71.35,1.52,0,3,.22,4.55.39a2.22,2.22,0,0,1,2.33,2.05,16.32,16.32,0,0,1,.13,6.42,1.61,1.61,0,0,1-1.7,1.51,12.88,12.88,0,0,1-2.06,0c-.59-.05-.84.18-.88.74Z"/><path class="cls-2" d="M104.1,483.72a7.89,7.89,0,0,1,3-4.93,23.69,23.69,0,0,1,9.22-4.07,72,72,0,0,1,15.26-2c2.75-.09,5.5-.2,8.26-.2-2.49.26-5,.48-7.47.8a41.65,41.65,0,0,0-9.71,2.26,11.3,11.3,0,0,0-7,7.12c-.17.48-.29,1-1,1C111.15,483.71,107.68,483.72,104.1,483.72Z"/><path class="cls-2" d="M118.44,495.06l-18.69-.52.23,1.72c8,.25,15.89,1.46,23.87.5l0,.35a3.11,3.11,0,0,1-.72.16c-4.22,0-8.44,0-12.66-.08-3.44-.09-6.88-.36-10.32-.56-.63,0-1.07.14-1.06,1,4.11.23,8.19.55,12.29.67s8.14,0,12.33,0c-.17,1-.33,2.14-.56,3.21,0,.14-.46.27-.7.26-3.41-.08-6.83-.12-10.25-.32-4.66-.26-9.32-.65-14.24-1a16.05,16.05,0,0,1,.82-3.08c.55-1.13,1.16-2.18.6-3.33l19,.92Zm3.32,6.07-.57-.05-8.25-.6c-4.33-.31-8.65-.64-13-.94a7.76,7.76,0,0,0-1.17.08C106.39,501.38,114.1,500.87,121.76,501.13Z"/><path class="cls-2" d="M158.85,474.93l-2.94.29c-2.63.27-5.26.54-7.88.83a6.27,6.27,0,0,0-5.6,4.66c-.11.35-.23.71-.35,1.06,0,0-.08.08-.1.1-.68-1.25-1.33-2.53-2.06-3.76a4,4,0,0,0-2.66-1.89,3.86,3.86,0,0,0-4.82,2.42c-.2.47-.33,1-.49,1.45a4.19,4.19,0,0,1,1.88-3.73,12.85,12.85,0,0,1,5.66-2.16,48.84,48.84,0,0,1,13.82-.09c1.84.2,3.69.44,5.53.66Z"/><path class="cls-2" d="M176.92,479.84c-1.53,1-3.14,1.85-4.57,3a44,44,0,0,0-7.95,8.68,30.48,30.48,0,0,1-2.47,3c.75-1.46,1.53-2.92,2.24-4.4s1.34-2.74,1.87-4.16c.59-1.63.14-2.47-1.56-2.84-1.93-.42-3.9-.66-5.62-.94Z"/><path class="cls-2" d="M158.72,462.72c1.59.42,3,.72,4.28,1.17a1.77,1.77,0,0,1,1,1c.62,2.62,1.15,5.26,1.74,8.08-1.68-.2-3.23-.38-4.77-.61a.78.78,0,0,1-.47-.54C159.92,468.91,159.35,466,158.72,462.72Z"/><path class="cls-2" d="M151.39,504.91c-1-.77-1-1.36,0-1.88a10.18,10.18,0,0,0,1.17-.81l-.15-.22-.29.12c-1.52.74-1.84.57-2.13-1.11a4.83,4.83,0,0,0-.36-1.31v1.37a13.9,13.9,0,0,1,.09-7,18.65,18.65,0,0,1,1.78-4.53c1-1.7,2.27-1.6,3.27.1a13.94,13.94,0,0,1,1.65,6.71,22.53,22.53,0,0,1-1.12,8.74,7.55,7.55,0,0,1-.9,1.85c-.9,1.27-2.22,1.24-3.16-.09l.4.28a1.24,1.24,0,0,0,1.9-.17,7.44,7.44,0,0,0,1.17-1.89,19.45,19.45,0,0,0,.21-13.89,5.4,5.4,0,0,0-.94-1.53,1.15,1.15,0,0,0-1.82-.17c-.84.8-1.74,1.62-1.32,3,0,.13-.12.32-.19.48-.15.33-.31.65-.5,1l2.41-.18-.17-.7.26-.06.89,4.29-.19,0c-.21-.64-.37-1.3-.63-1.92a1.8,1.8,0,0,0-1.35-1.22l-.58,3.06c1,.22,2.62.1,2.36,2.13l.15-.32C153.17,501.24,152.91,503.29,151.39,504.91Z"/><path class="cls-2" d="M100.76,475.58a35,35,0,0,0-3.28,3.12,35,35,0,0,0-2.42,3.84l-2.29-2c-.73-.64-1.41-1.34-2.2-1.91-1.22-.89-2.53-1.38-4-.28l-.1-.21c.32-.22.63-.47,1-.67a11.5,11.5,0,0,1,5-1.23l7.63-.62C100.29,475.56,100.52,475.58,100.76,475.58Z"/><path class="cls-2" d="M165.42,464.59a4.75,4.75,0,0,1,4.22,4c.25,1.32.43,2.66.67,4,.13.7-.21,1-.82,1a11.73,11.73,0,0,1-2.1-.38.87.87,0,0,1-.44-.57q-.81-3.87-1.59-7.74C165.35,464.76,165.39,464.71,165.42,464.59Z"/><path class="cls-2" d="M134.66,484c-2-.9-2.38-3.81-.86-5.62a2.76,2.76,0,0,1,4.54.36,3.64,3.64,0,0,1-.1,4.22l.59-2.08-.27-.11a6.15,6.15,0,0,1-3.77,2.89C134.72,483.71,134.7,483.92,134.66,484Zm.54-6.1a2.59,2.59,0,0,0-1.9,2.4Z"/><path class="cls-2" d="M154.14,498.18l-.8-4.25.22-.06.8,1.43c.45-1.33-.42-3.71-1.57-4.23a3.51,3.51,0,0,0-1.34,0,.83.83,0,0,1,1.37-.4,3.27,3.27,0,0,1,1.26,1.44,30.54,30.54,0,0,1,1.14,4.92,12.91,12.91,0,0,1-.93,7.5,6.3,6.3,0,0,1-1.19,1.59,6.11,6.11,0,0,0,1.19-4.2c-.75.93-.74,2.23-1.9,3l1.73-6.73.44-.28.42.79.15-.08L154.6,496h-.24Z"/><path class="cls-2" d="M173.11,478.71,144.27,482l-.09-.15a5.41,5.41,0,0,1,1.38-.56c4.76-.56,9.52-1.1,14.29-1.58,3.76-.37,7.54-.66,11.32-1,.64-.06,1.3-.07,1.94-.1Z"/><path class="cls-2" d="M157.29,491.71c-.29-.86-.57-1.73-.88-2.58-.39-1.05-.71-2.2-2.08-2.37a4.19,4.19,0,0,0-4.08,1.5,9.8,9.8,0,0,0-1.65,4.92c-.09.73-.16,1.47-.3,2.2,0-2.68.15-5.36,1.52-7.76a4.1,4.1,0,0,1,4.94-1.79,2.49,2.49,0,0,1,1.83,1.87c.31,1.32.61,2.64.92,4Z"/><path class="cls-2" d="M145.66,492.64l-.93,1.1,1.17.17c-1.13,1-6.38,2-8.23,1A21.45,21.45,0,0,0,145.66,492.64Z"/><path class="cls-2" d="M173.45,491.59,157,500.06l-.14-.15a3.17,3.17,0,0,1,.63-.54q7.74-3.94,15.5-7.85c.12-.06.26-.09.38-.14Z"/><path class="cls-2" d="M103.77,484.44c8.85,0,17.71-.49,26.51.86C121.46,484.4,112.61,484.57,103.77,484.44Z"/><path class="cls-2" d="M137.06,489.59a17.31,17.31,0,0,1,1.81.5c.57.23.58.65.09,1a3.7,3.7,0,0,1-3.51,0c-.41-.33-.41-.72.05-.95A12,12,0,0,1,137.06,489.59Z"/><path class="cls-2" d="M96.73,501.31a1,1,0,0,1-.91-1.14c.07-.94.21-1.88.28-2.82.1-1.3.18-2.6.28-4.13.47.15,1.25.16,1.53.54a2.15,2.15,0,0,1,.23,2.38,10.23,10.23,0,0,0-.74,3.31c0,.4.36.88.65,1.25.16.2.51.25.68.49a1.84,1.84,0,0,1-2,.1l.84-.12a7.32,7.32,0,0,1,.35-5.48,2.92,2.92,0,0,0-.13-1.66.87.87,0,0,0-.69-.45c-.17,0-.46.39-.48.63-.17,1.88-.33,3.76-.39,5.65A4.26,4.26,0,0,0,96.73,501.31Z"/><path class="cls-2" d="M170.53,468.18c1.23,1.53,1.41,3.4,1.73,5.23l-.25.22c-.26-.21-.69-.38-.75-.63-.37-1.58-.66-3.18-1-4.78Z"/><path class="cls-1" d="M134.66,484c0-.12.06-.33.13-.34a6.15,6.15,0,0,0,3.77-2.89l.27.11-.59,2.08,0,0a3.2,3.2,0,0,1-3.15,1.22Z"/><path class="cls-2" d="M95.9,495.84c-3.18-1.14-6.53-.66-9.8-.84l.05-.45C89.42,494.73,92.78,494.18,95.9,495.84Z"/><path class="cls-2" d="M161.66,473.84,172.88,475l0,.31-11.2-1.27Z"/><path class="cls-2" d="M90.63,489.74c-.27-.05-.51,0-.65-.13a5.43,5.43,0,0,1-.7-.66c.25-.15.48-.4.75-.44a4.45,4.45,0,0,1,1.41,0,.72.72,0,0,1,.49.5c0,.17-.26.41-.47.51A3.59,3.59,0,0,1,90.63,489.74Z"/><path class="cls-2" d="M175.23,493.46l.07-1.52-.23,0a6,6,0,0,1-.26.75c-.07.12-.27.18-.4.27a4.78,4.78,0,0,1-.14-1.34,1.06,1.06,0,0,1,.65-.69c.82-.14.48-.83.77-1.49A8.41,8.41,0,0,1,175.23,493.46Z"/><path class="cls-2" d="M138.4,477.74a4.19,4.19,0,0,1,1.18,4.61,3.39,3.39,0,0,1-2.73,2.51,3.9,3.9,0,0,0,2.63-3.14A4.75,4.75,0,0,0,138.4,477.74Z"/><path class="cls-2" d="M179.23,482.12c-.33-2.27.39-4.78-1.57-6.69a1.16,1.16,0,0,1,1.14,1A15.6,15.6,0,0,1,179.23,482.12Z"/><path class="cls-2" d="M89.69,492.9c.71-.58,1.36-.46,3.06.48Z"/><path class="cls-2" d="M126.74,494.45l-1.89-.36C125.69,493.53,126.19,493.63,126.74,494.45Z"/><path class="cls-2" d="M135.11,484.19a3.2,3.2,0,0,0,3.15-1.22A2.38,2.38,0,0,1,135.11,484.19Z"/><path class="cls-1" d="M131.5,488.29l0-.5a11.63,11.63,0,0,1,.34,6.73c0-1.6,0-3.19,0-4.79a6.6,6.6,0,0,0-.37-1.47Z"/><path class="cls-1" d="M121.76,501.13c-7.66-.26-15.37.25-23-1.51a7.76,7.76,0,0,1,1.17-.08c4.33.3,8.65.63,13,.94l8.25.6Z"/><path class="cls-1" d="M135.2,477.94l-1.9,2.4A2.59,2.59,0,0,1,135.2,477.94Z"/><path class="cls-1" d="M154.14,498.18l.22-2.16h.24l.53,2.58-.15.08-.42-.79-.44.28Z"/><path class="cls-1" d="M96.73,501.31a4.26,4.26,0,0,1-.53-1.45c.06-1.89.22-3.77.39-5.65,0-.24.31-.63.48-.63a.87.87,0,0,1,.69.45,2.92,2.92,0,0,1,.13,1.66,7.32,7.32,0,0,0-.35,5.48l-.84.12Z"/><path class="cls-1" d="M234.59,492.26l-10.31-1.58c.31-2,.59-3.95.89-5.88s.65-4.1.93-6.15c.08-.62.31-.74.9-.72a14.66,14.66,0,0,0,2.81-.1,5.72,5.72,0,0,0,4.56-3.34,14.57,14.57,0,0,0,1.22-8.65,3.05,3.05,0,0,0-5.89-.73,11.32,11.32,0,0,0-.61,1.72c-.16.55-.25,1.12-.41,1.84l-10.1-1.53a21,21,0,0,1,1.8-7.1,11.63,11.63,0,0,1,12.31-7,26,26,0,0,1,6.07,1.22c4.85,1.69,7.5,5.34,8.22,10.33a25.66,25.66,0,0,1-1.84,13.89,10,10,0,0,1-8.58,6.41c-.67.07-.92.32-1,1C235.29,488,234.93,490,234.59,492.26Z"/><path class="cls-1" d="M227.84,509.46A6.53,6.53,0,0,1,221,503a6.64,6.64,0,0,1,6.58-6.88,6.58,6.58,0,0,1,6.84,6.6A6.49,6.49,0,0,1,227.84,509.46Z"/><path class="cls-1" d="M334.46,501.41l15.08,2.74,0-.17a10.08,10.08,0,0,1-1.1-.52c-.56-.34-1.05-.79-1.63-1.08a12,12,0,0,0-2.64-1.06c-3.16-.65-6.35-1.19-9.53-1.79a2.88,2.88,0,0,1-.49-.18l.06-.29,11.26,2.09c-.1-1.48-.23-1.62-1.54-1.88-1.52-.31-3-.58-4.55-.95a10.8,10.8,0,0,0-4.66-.23A1.31,1.31,0,0,1,334,498l11.6-4c-.71-.9-1.43-1.67-2-2.55-1-1.62-2-3.28-3-5a3,3,0,0,1-.13-2.81,10.44,10.44,0,0,0,.52-6.88,14.23,14.23,0,0,1-.08-6.49,9.39,9.39,0,0,1,2.15-4v2.14l.21,0c.05-.44.14-.88.15-1.32a7.63,7.63,0,0,1,10.4-6.92A4.3,4.3,0,0,1,355,461c-4-.63-7.37.08-9.33,3.91l.15.32,4.62-2.68.17.26-3,2.33.11.16,4-2.36.16.24-2.68,2.11.07.11,4-2.09.18.19-.8,1.22,3.49-1.28,0-.16-1.52-.19.54-.63-1.78-.21-.06-.31,3.68-.9v-.12l-2.41-.58.06-.31c.89-.06,1.78-.13,2.67-.17a17.07,17.07,0,0,1,6.49.47,20.76,20.76,0,0,1,4,2,4.16,4.16,0,0,1,1.95,3,1.81,1.81,0,0,0,.35.92,7.82,7.82,0,0,1,1.69,6.13,21.61,21.61,0,0,1-3,9.81,27.68,27.68,0,0,1-2.85,3.64A7.61,7.61,0,0,0,364,491a1.83,1.83,0,0,0,.73,1.18,58.16,58.16,0,0,0,9.39,5.59l3.37,1.77c.5.26.79.61.45,1.17-.09,0-.16,0-.19,0-2.3-1.86-5-1.86-7.78-1.82-1.33,0-2.65,0-4-.06-1.54,0-1.54,0-2.15,1.69L378,501l0,.21a3,3,0,0,1-.76.17c-4.36-.16-8.72-.35-13.08-.49a1.82,1.82,0,0,0-1.1.41,9.3,9.3,0,0,0-1.1,1.32l15.5.82v0c-1.44,0-2.88,0-4.31,0-3.51-.13-7-.31-10.52-.47a1.34,1.34,0,0,0-.49,0,50.47,50.47,0,0,0-4.91,1.87l19.23.89v.28c-1.64,0-3.28.2-4.91.12-4.55-.25-9.11-.49-13.64-.92a168.08,168.08,0,0,1-22-3.13c-.54-.12-1.07-.33-1.61-.5ZM363.9,480l-.71-.53c-1-.69-1-.78-.61-1.9a3.88,3.88,0,0,0-.47-3.48c-.49-.83-1-1.64-1.48-2.49a3.8,3.8,0,0,1,2.07-5.37,11,11,0,0,1,2.64-.63,30.28,30.28,0,0,1,3.16,0,1.38,1.38,0,0,0-.71-.58,4.7,4.7,0,0,0-4.09.2,14.66,14.66,0,0,1-5.58,1.74l-4.29.37a9.22,9.22,0,0,0-4.94,1.43,3.94,3.94,0,0,1-4.84.27c-1.81,1.58-2.89,5.38-2.06,7.34,1.18-.78,2.15-2.39,4.07-1.06a3.94,3.94,0,0,1-1.27.3,2.89,2.89,0,0,0-2.7,3.23,8.09,8.09,0,0,1-.65,4.28,3.69,3.69,0,0,0,.31,3.86c1.2,1.76,2.4,3.51,3.62,5.26a3.47,3.47,0,0,0,2.43,1.43,12.79,12.79,0,0,0,5.33-.29c3.22-.84,5.52-2.93,7.49-5.46l1.58-2,.15.16c-2.17,5.53-6.31,8.38-12.23,8.75.74,2.56.66,3.89-.31,4.91.23-1.7.43-3.35-.88-4.89a23.93,23.93,0,0,0-1,2.35,2.93,2.93,0,0,0,1.95,4,12.55,12.55,0,0,0,5.79.71c3.78-.39,7.82-4.73,7.55-8.71a13.45,13.45,0,0,1,1.12-6.87s0-.1,0-.18l-.95-.56a6,6,0,0,1,.9-.07c.47-.1,1.06-.14,1.35-.45a7.71,7.71,0,0,0,2.41-5.46c0-1.4-.74-1.89-2-1.19A17.13,17.13,0,0,0,363.9,480Zm-15.65,14.44a2.35,2.35,0,0,0-.51.21,5.51,5.51,0,0,0-1.84,3.59,3.68,3.68,0,0,0,2,4,13.57,13.57,0,0,0,10.65,1.35c3.59-1,6.56-5.29,6.39-9.09a4.23,4.23,0,0,0-.54-1.3l-.28.09c-.25.81-.47,1.62-.75,2.42-2.4,7-8.67,7.85-13.69,6-2.34-.88-3-2.55-2.23-4.92C347.65,496.09,347.93,495.35,348.25,494.47ZM366.82,470l-.26-1.17,2.06,1.27-.4-1.28.17-.13,1.44,1.06a2.93,2.93,0,0,0-2.56-2.7,4.52,4.52,0,0,0-4.5,2.25l2,.64.11-.69Zm-1.91,28.39,8.67.28,0-.23c-.22-.14-.46-.26-.68-.4-1.81-1.12-3.87-1.25-5.9-1.43s-1.59-.55-2.18,1.53A2.12,2.12,0,0,0,364.91,498.35Zm-19.49-.67c-1.56-.26-3-.54-4.47-.73a4.32,4.32,0,0,0-3.06.86l7.28,1.27Zm.58-1.83c-1.66-.15-3.28-.44-4.86.74l3.27.41C345.65,497.15,345.65,497.15,346,495.85Zm19.47-1.63a7.8,7.8,0,0,0,0,1.22c0,.19.2.5.34.52,1.26.2,2.53.36,3.79.52l.06-.19Zm-21.17.94c1.77.43,2.49.1,2.49-1Zm20.91-33.4c0,1.06.3,1.23,1.94,1.1Z"/><path class="cls-1" d="M322,465.66l.63-.4a1.47,1.47,0,0,1,.12,1.8,7,7,0,0,1-4.68,3.87c.65.46,1.08.54,1.58-.07a2.88,2.88,0,0,1,1.34-.75c-.39,1-1.46,1.57-1.35,3l1.18-1.51.24.05a9.56,9.56,0,0,1-.21,1.87c-.45,1.42-1,2.81-1.54,4.2-.44,1.09-.39,1.34.55,2.1a5.53,5.53,0,0,1,2,4.92,14,14,0,0,0,.68,3.39l2.12-2.36a6.83,6.83,0,0,1,1.32,4.18c0,.29-.37.67-.66.86a19.35,19.35,0,0,1-1.84,1c.26.18.45.32.65.44a7,7,0,0,1,3,4.24,3.71,3.71,0,0,1-.11,1.12l-1.25-.6-.24,1-.54-.9-.3,1.18-.24,0-1-2.66.17-.1.61.7c1.19-1.18.62-2.66-1.38-3.47-.49,1.6.13,3,.76,4.63l-1.36-.53,1.3,2-.08.13-9.3-3.86c-.18,1.06-.28,2.07-.54,3-.44,1.65-1,3.28-1.5,4.9a5.91,5.91,0,0,1-.88,1.59,1,1,0,0,1-1.87,0,20.72,20.72,0,0,1-1.08-2c-1.45-2.8-3.06-2.94-4.93-.41a22,22,0,0,1-1.7,2.13c-1.15,1.19-2.34.89-2.63-.72a51.5,51.5,0,0,1-.64-5.41c-.1-1.43,0-2.86,0-4.39l-3.33.45.31,1.09c-.86-.49-1.6-.88-2.32-1.31a.9.9,0,0,0-1.26.08.93.93,0,0,0-.15,1.26c.56,1.1,1.09,2.22,1.72,3.5l2.52-3.05.21.1a3.09,3.09,0,0,1-.3.84,24.44,24.44,0,0,1-1.75,2.3c-.61.68-1.12.57-1.53-.27-.57-1.16-1.1-2.34-1.71-3.67-.21.91-.36,1.65-.55,2.39a9.06,9.06,0,0,1-2.31,4.25,3,3,0,0,1-1.17.64c.83-1.85,2.05-3.5,2-5.71a6.22,6.22,0,0,0-.81.9c-.56,1-1.06,2-1.6,3-.37.69-.6.76-1.5.41l1.16-2.68-.3-.18-2.29,2.86a1.81,1.81,0,0,1-.21-2.48,12.16,12.16,0,0,1,4.3-4.28l1-.61c-.9-.22-1.66-.39-2.41-.6-1.8-.5-2-.91-1.25-2.58a21.11,21.11,0,0,1,1.45-2.69c.63-1,1.42-1,2,.07s1.06,2.23,1.59,3.35l-.2.19c-.26-.25-.6-.45-.74-.75-.32-.64-.51-1.34-.81-2a9.24,9.24,0,0,0-.74-1.18,8.24,8.24,0,0,0-2,3.87,1,1,0,0,0,.49.77,17.62,17.62,0,0,0,2.58.62,1,1,0,0,0,.78-.29,1.48,1.48,0,0,1,2.12-.39,1.5,1.5,0,0,0,.56.15,1.14,1.14,0,0,1,1,.73,1.56,1.56,0,0,0,1.27.65,28.26,28.26,0,0,0,4.48-.82c.53-.16.91-.88,1.34-1.35a1.26,1.26,0,0,0,.12-1.77,2,2,0,0,1-.32-.67c-.36-1.43-1.54-1.83-2.74-2.18-.53-.15-1.8.8-2,1.52s-.43,1.61-.72,2.38a1.95,1.95,0,0,1-3.72-1,3.7,3.7,0,0,1,1.61-2.43,1,1,0,0,0,.46-1.09,9.48,9.48,0,0,1,1.26-6.14,1.8,1.8,0,0,0,.14-1.71c-2-5.67,1.52-13.38,7.11-15.24a22.65,22.65,0,0,1,4.16-.53,8.26,8.26,0,0,0,2.23-.37c3.05-1.28,6.06-1.44,9,.25a9.93,9.93,0,0,1,1.77,1.48,2,2,0,0,0,2.48.44,2.21,2.21,0,0,1,1.06-.14c-1.28,1.42-3.8,1.33-5.52-.18l.92-.21-2.46-1.43-.09.14.83.67-.08.2-1.33-.38-1.51-.45.44-.35-.08-.24-4.3,1.15,0,.3c1.25.83,2.84,1.37,3,3.2-.95-.71-1.83-1.46-2.8-2.05a6.06,6.06,0,0,0-3.5-.78c.61.53,1.08,1,1.58,1.37.1.07.37-.14.55-.12.48,0,.95.13,1.42.2v.34l-2.95.88v.15c.75,0,1.49,0,2.24,0a5.52,5.52,0,0,1,2.07.14v.42c-1.06.14-2.13.26-3.19.43a3.85,3.85,0,0,0-1.17.34,3,3,0,0,1-3.07,0,1.64,1.64,0,0,0-2.22.48,4.48,4.48,0,0,1,1.07.09,4.61,4.61,0,0,1,1.66.77c.73.67.63,1.43-.06,2.19s-1.39,1.55-2.09,2.34l1.17.73c-1.25.8-2.72,1.3-3,3.16l.58-.67.54-.65c.86.65,1.41-.35,2.3-.4-1.18,1.43-3.25,2.31-2.34,4.86-.81-.21-1.41-.33-2-.54-1.07-.37-1.45-.2-1.74.9a5.28,5.28,0,0,0,.59,4.46c.63.93,1,1,2,.6l1.09-.45c-.1.47-.16.8-.25,1.12a2.29,2.29,0,0,0,.77,2.68c3,2.22,6.24,3.72,10.06,3.34a6.75,6.75,0,0,0,2.94-1,10.59,10.59,0,0,0,5-8.95,22.65,22.65,0,0,0-.56-3.41,4.1,4.1,0,0,1,.09-1.71.86.86,0,0,0-.41-1.11,3.9,3.9,0,0,0-2.79-.51c-.29,0-.59.06-.93.09.77-1.31,2.13-1.23,4.53.33a6,6,0,0,0,.08-1.66c-.34-1.44-.79-2.86-1.21-4.35a6.2,6.2,0,0,0,3.76-3.2l-.69-.3,1.21-1.57Zm-21,25.15a11.55,11.55,0,0,1-.66,1,5.68,5.68,0,0,0-1.42,3.72c0,2.09.15,4.19.3,6.27a5.89,5.89,0,0,0,.54,1.81.69.69,0,0,0,1.16.29c.54-.45,1-1,1.54-1.48a19.35,19.35,0,0,1,1.8-1.92,2.47,2.47,0,0,1,3.55.45,17.32,17.32,0,0,1,1,1.61c.39.61.81,1.2,1.38,2a10.92,10.92,0,0,0,1.45-2.27c.65-2.11,1.19-4.25,1.67-6.41a11.54,11.54,0,0,0,0-2.43,3.19,3.19,0,0,0-2.72,1.8,11.61,11.61,0,0,1-3.55,4,1.84,1.84,0,0,1-2.63-.19,9.54,9.54,0,0,1-2.69-5.3c0-.25,0-.5-.06-.75a1.48,1.48,0,0,1,.43.64c.8,1.54,1.55,3.1,2.43,4.6a1.35,1.35,0,0,0,2.12.51c1.85-1.1,2.86-2.9,4-4.69C306.36,493.54,306.36,493.54,301,490.81Zm12.8,2.42c.43.51.71,1.14,1.18,1.36,1.81.85,3.68,1.57,5.68,2.4l-.22-3.26a10.61,10.61,0,0,1-1.45,1.19c-.33.2-.91.38-1.17.22a3.17,3.17,0,0,1-1.5-2.56,7,7,0,0,1,1,1c1,1.09,1.82,1,2.45-.45a4.43,4.43,0,0,0,.26-1.2c.07-.6-.25-.75-.81-.69-1,.09-2,.12-2.94.19a.81.81,0,0,0-.43.2Zm10.64-6.66-1.89,2.57c-.52.72-.9,1.61-2.32,1.49.41.67.61,1.39.95,1.47.64.14,1-.42.86-1.07a4.73,4.73,0,0,0,3-.81.54.54,0,0,0,.25-.39A4.85,4.85,0,0,0,324.43,486.57Zm-22.54-22.45c-.24.08-.49.15-.73.24a10,10,0,0,0-5.79,6.11c-.29.73-.85,1.49-.05,2.26,0,0,0,.14.07.41A15,15,0,0,1,301.89,464.12Zm18,26.42-1.37-2.74-1.92,3.08Zm-26.44-5.31a20.69,20.69,0,0,0,1.37-4.92C293.74,481.78,293,483.33,293.45,485.23Zm27-2.19a2,2,0,0,0-.86-2.11v3.88h.24v-2.7l.13,0Zm.11,5.37-.21-2.23-.4-.07a3.55,3.55,0,0,0-.37,1.08A1.11,1.11,0,0,0,320.54,488.41Zm-27.16-.61c-.93-.27-1.71.43-1.86,1.62Z"/><path class="cls-1" d="M315.69,467.36l1,1.86.18,0-.55-2.15a1.89,1.89,0,0,1,1.44,1.78,2.22,2.22,0,0,1-1.56,2.21,22.93,22.93,0,0,0-5.92,2.51c-1.23.64-1.34.63-2.36-.34a1.74,1.74,0,0,0-2.4-.29l-2.8,1.39-.24-.2,3.34-5.86.45,1.4h.94l-.76,2,1.78-.26-.38.58c1,.7,1.6.59,1.95-.52a23.73,23.73,0,0,0,.58-2.93c.77.22.84.86.81,1.53s-.09,1.25-.14,1.95c2-.56,1.69-2.26,1.94-3.66l.26-.1c.26.4.5.81.77,1.2s.47.9.72.9a1,1,0,0,0,1.07-1.05,10.63,10.63,0,0,0-.32-1.74Z"/><path class="cls-1" d="M334.62,503.78c13,2.87,26.33,3.42,39.59,4.14v.26c-1.6,0-3.21.12-4.8,0a276,276,0,0,1-28.12-2.79c-1.75-.26-3.47-.64-5.21-1-.5-.11-1-.3-1.49-.45Z"/><path class="cls-1" d="M370.13,510.11c-3.62,1.1-31.73-2.1-35.13-4C346.53,509,358.36,509.27,370.13,510.11Z"/><path class="cls-1" d="M322,465.65c-.27.11-.55.23-.83.33a4.21,4.21,0,0,0-.63.2c-.4.24-.78.51-1.35.89,0,.62.44,1.62-.53,2.48.11-1.18.38-2.36-.91-3a2.67,2.67,0,0,0-3.15.19c-.46-.73-.95-.3-1.48,0l-1.73-2.11.36-.54a16.48,16.48,0,0,1,1.7-.06,1.21,1.21,0,0,1,.73.36c1.78,2.05,4.06,1.53,6.3,1.26a12.83,12.83,0,0,1,1.52,0Z"/><path class="cls-1" d="M336.91,509.06c4.41.66,9.13,1.52,13.9,2s9.51.66,14.08.95C362,513.14,339.72,510.7,336.91,509.06Z"/><path class="cls-1" d="M315,486.41l.57.52c-.26.23-.59.38-.65.61a3.52,3.52,0,0,1-3.23,2.95,3.67,3.67,0,0,1-3.82-2.19c-.06-.12-.14-.24-.24-.41l-.52.36-.14-.1.6-1A13.21,13.21,0,0,0,315,486.41Zm-6.26,1.72c.56,1.37,1.63,1.83,3.27,1.54,1.37-.25,2.19-1,2.22-2.21Z"/><path class="cls-1" d="M306.42,481.26l.23-1.59-.35-.19-1.82,2.06a2.45,2.45,0,0,1,1.63-2.38c1.15-.46,1.93-.15,2.94,1.23C308.18,481,307.33,481.53,306.42,481.26Z"/><path class="cls-1" d="M305.61,509.7a1.76,1.76,0,0,1-1.39,1.88c-.75,0-1.45-.84-1.44-1.81a1.67,1.67,0,0,1,1.41-1.76C305,508,305.6,508.71,305.61,509.7Zm-.23,0a13.76,13.76,0,0,0-1.32-1c-.07,0-.45.3-.54.52-.3.71.18,1.17.67,1.68Z"/><path class="cls-1" d="M303.25,504.72a1.66,1.66,0,0,1,1-1.53,1.53,1.53,0,0,1,1.29.13,1.89,1.89,0,0,1,.5,2.05,1.46,1.46,0,0,1-1.61,1.32C303.63,506.6,303.23,506,303.25,504.72Zm2.56.23v-.38c-.43-.28-.87-.82-1.27-.79-.67.06-.68.79-.61,1.33a3.5,3.5,0,0,0,.42,1Z"/><path class="cls-1" d="M303.6,478.17c.48-.86,1.09-1.68,2-1.76,1.69-.15,3.41,0,5.34,0a3.38,3.38,0,0,1-3.17.66,3.7,3.7,0,0,0-3.59.89,2.72,2.72,0,0,1-.42.27S303.71,478.18,303.6,478.17Z"/><path class="cls-1" d="M315.46,480.45l.13-1.21-1.3.82c.25-1.48,1.3-1.73,3.81-1.56C317.05,479.12,317,480.82,315.46,480.45Z"/><path class="cls-1" d="M297,482c.3-.19.76-.61.87-.53a23.18,23.18,0,0,1,1.93,1.66l-.13.28-1.39.44c0,.59,1.2.85.5,1.65-1.41-1.79-1.65-1.33-.11-2.55-.27-1.06-.51-1.18-1.54-.77Z"/><path class="cls-1" d="M313.47,483.17c.28.45.87,1,.77,1.33-.22.84-1.06,1.14-2,1.15l1.55-1.17-.64-1.09Z"/><path class="cls-1" d="M311.37,485.36H309.7C310.12,484.6,310.75,484.61,311.37,485.36Z"/><path class="cls-2" d="M363.9,480a17.13,17.13,0,0,1,2.13-1.66c1.22-.7,2-.21,2,1.19a7.71,7.71,0,0,1-2.41,5.46c-.29.31-.88.35-1.35.45a6,6,0,0,0-.9.07l.95.56c0,.08.06.14,0,.18a13.45,13.45,0,0,0-1.12,6.87c.27,4-3.77,8.32-7.55,8.71a12.55,12.55,0,0,1-5.79-.71,2.93,2.93,0,0,1-1.95-4,23.93,23.93,0,0,1,1-2.35c1.31,1.54,1.11,3.19.88,4.89,1-1,1.05-2.35.31-4.91,5.92-.37,10.06-3.22,12.23-8.75l-.15-.16-1.58,2c-2,2.53-4.27,4.62-7.49,5.46a12.79,12.79,0,0,1-5.33.29,3.47,3.47,0,0,1-2.43-1.43c-1.22-1.75-2.42-3.5-3.62-5.26a3.69,3.69,0,0,1-.31-3.86,8.09,8.09,0,0,0,.65-4.28,2.89,2.89,0,0,1,2.7-3.23,3.94,3.94,0,0,0,1.27-.3c-1.92-1.33-2.89.28-4.07,1.06-.83-2,.25-5.76,2.06-7.34a3.94,3.94,0,0,0,4.84-.27,9.22,9.22,0,0,1,4.94-1.43l4.29-.37a14.66,14.66,0,0,0,5.58-1.74,4.7,4.7,0,0,1,4.09-.2,1.38,1.38,0,0,1,.71.58,30.28,30.28,0,0,0-3.16,0,11,11,0,0,0-2.64.63,3.8,3.8,0,0,0-2.07,5.37c.45.85,1,1.66,1.48,2.49a3.88,3.88,0,0,1,.47,3.48c-.42,1.12-.37,1.21.61,1.9Zm-10.49,6.79a6.25,6.25,0,0,0-1.6-.5c-.29,0-.58.5-.91.55-1.66.26-3.33.44-5,.65-.39.05-.79.08-1.19.11l0,.21h6.77a5.11,5.11,0,0,1-2.9,2.56,1.61,1.61,0,0,1-2.1-.63c-.25-.33-.51-.63-.77-.94.73,2.71,2.55,3.33,4.44,1.62a3.53,3.53,0,0,0,.55-.61c.57-.78,1.1-1.59,1.69-2.35A4.64,4.64,0,0,1,353.41,486.82Zm.53-7.86,2.86,1.43c.08-.15.14-.21.13-.25a.67.67,0,0,0-.14-.28,5.59,5.59,0,0,0-4.09-1.7c-1.2,0-1.73.63-1.78,1.9.73-.05.73-.05.77.61l-.67.21a7,7,0,0,0,4.62-.33h-1.9Zm5-2.41c-.07-.29-.06-.38-.11-.43a1,1,0,0,0-.29-.28,9.48,9.48,0,0,0-8.05-.92c-.3.1-.51.44-.77.67l.1.35C352.93,475.1,356,475,359,476.55ZM345.44,480c0-1.33-1.19-1.74-2.43-1-.54.33-.73.69-.32,1.28a3.78,3.78,0,0,1,.3,1h2.23c-.94-.31-1.14-.9-.83-1.81Zm19.35,1.19,1.5-1.09s.1-.12.11-.12c.19.14.51.25.55.42a8.55,8.55,0,0,1,0,1.34l.26,0a6.81,6.81,0,0,0,.2-1.32c0-1.05-.57-1.33-1.47-.81a5.25,5.25,0,0,0-2.34,2.8,4.74,4.74,0,0,0-.15.83l1.2-1.32.38.17-.23,1.55C366,482.93,366,482.41,364.79,481.19Zm-17.1,4.49c-1.63-.07-2.33-.69-1.57-2.34-1,.87-1.16,1.4-.72,2.07S346.49,486.22,347.69,485.68Zm-.78-7.05v3A2.21,2.21,0,0,0,346.91,478.63Z"/><path class="cls-2" d="M348.25,494.47c-.32.88-.6,1.62-.84,2.37-.78,2.37-.11,4,2.23,4.92,5,1.87,11.29,1,13.69-6,.28-.8.5-1.61.75-2.42l.28-.09a4.23,4.23,0,0,1,.54,1.3c.17,3.8-2.8,8.11-6.39,9.09a13.57,13.57,0,0,1-10.65-1.35,3.68,3.68,0,0,1-2-4,5.51,5.51,0,0,1,1.84-3.59A2.35,2.35,0,0,1,348.25,494.47Z"/><path class="cls-2" d="M366.82,470l-2-.75-.11.69-2-.64a4.52,4.52,0,0,1,4.5-2.25,2.93,2.93,0,0,1,2.56,2.7l-1.44-1.06-.17.13.4,1.28-2.06-1.27Z"/><path class="cls-2" d="M364.91,498.35a2.12,2.12,0,0,1-.05-.25c.59-2.08.08-1.71,2.18-1.53s4.09.31,5.9,1.43c.22.14.46.26.68.4l0,.23Z"/><path class="cls-2" d="M345.42,497.68l-.25,1.4-7.28-1.27A4.32,4.32,0,0,1,341,497C342.41,497.14,343.86,497.42,345.42,497.68Z"/><path class="cls-2" d="M346,495.85c-.35,1.3-.35,1.3-1.59,1.15l-3.27-.41C342.72,495.41,344.34,495.7,346,495.85Z"/><path class="cls-2" d="M365.47,494.22l4.21,2.07-.06.19c-1.26-.16-2.53-.32-3.79-.52-.14,0-.31-.33-.34-.52A7.8,7.8,0,0,1,365.47,494.22Z"/><path class="cls-2" d="M344.3,495.16l2.49-1C346.79,495.26,346.07,495.59,344.3,495.16Z"/><path class="cls-2" d="M365.21,461.76l1.94,1.1C365.51,463,365.19,462.82,365.21,461.76Z"/><path class="cls-2" d="M301,490.81c5.37,2.73,5.37,2.73,9.64,3.31-1.12,1.79-2.13,3.59-4,4.69a1.35,1.35,0,0,1-2.12-.51c-.88-1.5-1.63-3.06-2.43-4.6a1.48,1.48,0,0,0-.43-.64c0,.25,0,.5.06.75a9.54,9.54,0,0,0,2.69,5.3,1.84,1.84,0,0,0,2.63.19,11.61,11.61,0,0,0,3.55-4,3.19,3.19,0,0,1,2.72-1.8,11.54,11.54,0,0,1,0,2.43c-.48,2.16-1,4.3-1.67,6.41a10.92,10.92,0,0,1-1.45,2.27c-.57-.84-1-1.43-1.38-2a17.32,17.32,0,0,0-1-1.61,2.47,2.47,0,0,0-3.55-.45,19.35,19.35,0,0,0-1.8,1.92c-.5.51-1,1-1.54,1.48a.69.69,0,0,1-1.16-.29,5.89,5.89,0,0,1-.54-1.81c-.15-2.08-.27-4.18-.3-6.27a5.68,5.68,0,0,1,1.42-3.72A11.55,11.55,0,0,0,301,490.81Z"/><path class="cls-2" d="M313.79,493.23l2-1.64a.81.81,0,0,1,.43-.2c1-.07,2-.1,2.94-.19.56-.06.88.09.81.69a4.43,4.43,0,0,1-.26,1.2c-.63,1.41-1.41,1.54-2.45.45a7,7,0,0,0-1-1,3.17,3.17,0,0,0,1.5,2.56c.26.16.84,0,1.17-.22a10.61,10.61,0,0,0,1.45-1.19l.22,3.26c-2-.83-3.87-1.55-5.68-2.4C314.5,494.37,314.22,493.74,313.79,493.23Z"/><path class="cls-2" d="M324.43,486.57a4.85,4.85,0,0,1,.86,3.26.54.54,0,0,1-.25.39,4.73,4.73,0,0,1-3,.81c.1.65-.22,1.21-.86,1.07-.34-.08-.54-.8-.95-1.47,1.42.12,1.8-.77,2.32-1.49Z"/><path class="cls-2" d="M301.89,464.12a15,15,0,0,0-6.5,9c0-.27,0-.36-.07-.41-.8-.77-.24-1.53.05-2.26a10,10,0,0,1,5.79-6.11C301.4,464.27,301.65,464.2,301.89,464.12Z"/><path class="cls-2" d="M319.89,490.54l-3.29.34,1.92-3.08Z"/><path class="cls-2" d="M293.45,485.23c-.47-1.9.29-3.45,1.37-4.92A20.69,20.69,0,0,1,293.45,485.23Z"/><path class="cls-2" d="M320.43,483l-.49-1-.13,0v2.7h-.24v-3.88A2,2,0,0,1,320.43,483Z"/><path class="cls-2" d="M320.54,488.41a1.11,1.11,0,0,1-1-1.22,3.55,3.55,0,0,1,.37-1.08l.4.07Z"/><path class="cls-2" d="M293.38,487.8l-1.86,1.62C291.67,488.23,292.45,487.53,293.38,487.8Z"/><path class="cls-2" d="M308.71,488.13l5.49-.67c0,1.18-.85,2-2.22,2.21C310.34,490,309.27,489.5,308.71,488.13Z"/><path class="cls-2" d="M305.38,509.66l-1.19,1.23c-.49-.51-1-1-.67-1.68.09-.22.47-.55.54-.52A13.76,13.76,0,0,1,305.38,509.66Z"/><path class="cls-2" d="M305.81,505l-1.47,1.14a3.5,3.5,0,0,1-.42-1c-.07-.54-.06-1.27.61-1.33.4,0,.84.51,1.27.79Z"/><path class="cls-1" d="M353.41,486.82a4.64,4.64,0,0,0-1,.67c-.59.76-1.12,1.57-1.69,2.35a3.53,3.53,0,0,1-.55.61c-1.89,1.71-3.71,1.09-4.44-1.62.26.31.52.61.77.94a1.61,1.61,0,0,0,2.1.63,5.11,5.11,0,0,0,2.9-2.56h-6.77l0-.21c.4,0,.8-.06,1.19-.11,1.66-.21,3.33-.39,5-.65.33-.05.62-.57.91-.55A6.25,6.25,0,0,1,353.41,486.82Z"/><path class="cls-1" d="M353.94,479l-.2,1.59h1.9a7,7,0,0,1-4.62.33l.67-.21c0-.66,0-.66-.77-.61.05-1.27.58-1.87,1.78-1.9a5.59,5.59,0,0,1,4.09,1.7.67.67,0,0,1,.14.28s-.05.1-.13.25Z"/><path class="cls-1" d="M359,476.55c-3-1.58-6-1.45-9.12-.61l-.1-.35c.26-.23.47-.57.77-.67a9.48,9.48,0,0,1,8.05.92,1,1,0,0,1,.29.28C358.9,476.17,358.89,476.26,359,476.55Z"/><path class="cls-1" d="M345.44,480l-1.05-.5c-.31.91-.11,1.5.83,1.81H343a3.78,3.78,0,0,0-.3-1c-.41-.59-.22-.95.32-1.28C344.25,478.26,345.4,478.67,345.44,480Z"/><path class="cls-1" d="M364.79,481.19c1.18,1.22,1.17,1.74,0,2.48l.23-1.55-.38-.17-1.2,1.32a4.74,4.74,0,0,1,.15-.83,5.25,5.25,0,0,1,2.34-2.8c.9-.52,1.44-.24,1.47.81a6.81,6.81,0,0,1-.2,1.32l-.26,0a8.55,8.55,0,0,0,0-1.34c0-.17-.36-.28-.55-.42,0,0-.06.09-.11.12Z"/><path class="cls-1" d="M347.69,485.68c-1.2.54-1.84.42-2.29-.27s-.3-1.2.72-2.07C345.36,485,346.06,485.61,347.69,485.68Z"/><path class="cls-1" d="M346.91,478.63a2.21,2.21,0,0,1,0,3Z"/><path class="cls-1" d="M401.12,484.7v-3h4.44c1.57,0,1.57,0,2.11-1.44q3.25-8.7,6.53-17.39a1.44,1.44,0,0,1,.46-.69l4.43,24.12c.8-1.46,1.51-2.68,2.14-3.95a1.07,1.07,0,0,1,1.15-.66c1.15,0,2.3,0,3.5,0a10.45,10.45,0,0,0-.19-4.66c-.51-2.66-.69-5.29.46-7.83a25.16,25.16,0,0,1,1.38-2.34l.23.11v1.89l.21,0a10.46,10.46,0,0,0,.14-1.24,7.57,7.57,0,0,1,10.25-7,3.83,3.83,0,0,1,1.26.86,8.56,8.56,0,0,0-7.58,1.52,4.16,4.16,0,0,0-1.67,2.69l4.68-2.71.17.25-3.21,2.5.08.12,4.24-2.49.17.24-2.63,2,.07.12,4-2.05.18.16-.79,1.24,3.39-1.24v-.18l-1.45-.2.52-.62-1.77-.22,0-.31,3.65-.88v-.13l-2.43-.56,0-.31c.74,0,1.47-.11,2.21-.15a21.57,21.57,0,0,1,7,.43,10.78,10.78,0,0,1,4.19,2.21,4.47,4.47,0,0,1,1.58,2.71,2,2,0,0,0,.37,1,7.84,7.84,0,0,1,1.65,6.26c-.48,5-2.11,9.5-5.74,13.13a7,7,0,0,0-2,5.09,1.89,1.89,0,0,0,.73,1.24,57.39,57.39,0,0,0,9.46,5.62c1.06.57,2.14,1.12,3.2,1.69.48.26.77.61.37,1.23-.81-.45-1.57-.93-2.39-1.3a4.92,4.92,0,0,0-1.78-.48c-2.55-.1-5.1-.13-7.65-.16-1.56,0-1.56,0-2.09,1.67l14.07.49,0,.2a1.68,1.68,0,0,1-.47.14c-4.05-.11-8.12-.15-12.17-.36-2.1-.11-1.69-.29-3.13,1.49,5.12.68,10.2.5,15.23,1-1.21,0-2.42,0-3.63,0-3.59-.15-7.18-.33-10.77-.47a4.86,4.86,0,0,0-1.7.19A31.68,31.68,0,0,0,442,505l19,.88c-4.42,1.4-37.74-2-41.83-4.34l15.1,2.73,0-.16a7.27,7.27,0,0,1-.69-.32c-.71-.45-1.38-1-2.13-1.34a9.23,9.23,0,0,0-2.4-1c-3.17-.64-6.35-1.19-9.53-1.78a.86.86,0,0,1-.56-.31c3.77.4,7.45,1.28,11.19,1.88,0-1.3-.18-1.59-1.35-1.83-2-.4-4-.87-6-1.19a18.86,18.86,0,0,0-3,0,2.2,2.2,0,0,1-1-.12l11.46-3.93c-.48-.6-1-1.13-1.35-1.7-1-1.52-2.1-3-3-4.6a21.06,21.06,0,0,1-1.21-3.13c-1.13-.24-1.2-.21-1.83.94l-4.63,8.53a1.85,1.85,0,0,1-.59.7l-4-21.8c-.18.41-.28.61-.36.81-1.25,3.31-2.51,6.61-3.72,9.94a1.09,1.09,0,0,1-1.24.84C405.94,484.68,403.58,484.7,401.12,484.7ZM448.4,486a5.87,5.87,0,0,0,1.88-.81,7.51,7.51,0,0,0,2.27-5.06,2.38,2.38,0,0,0-.51-1.61c-.5-.52-1.22-.17-1.73.19s-1.21,1-1.84,1.53l-1-.69a1,1,0,0,1-.41-1.34,4,4,0,0,0-.41-3.91c-.49-.79-.94-1.61-1.44-2.4-1.16-1.82.17-4.58,1.89-5.14a17.31,17.31,0,0,1,3.19-.71,22.88,22.88,0,0,1,2.87,0,1.67,1.67,0,0,0-.79-.64,5.26,5.26,0,0,0-4.22.17A16.87,16.87,0,0,1,444.4,467a63.1,63.1,0,0,1-6.44.72,8.59,8.59,0,0,0-4.69,1.55,4.12,4.12,0,0,1-1.33.6,3.23,3.23,0,0,1-3.23-.57,8.57,8.57,0,0,0-2.2,7.41c.58-.52,1.13-1.07,1.74-1.56.88-.72,1.57-.73,2.13-.08-.31.07-.6.16-.9.2a3.59,3.59,0,0,0-2.77,3.79,7.13,7.13,0,0,1-.55,4.17,3.92,3.92,0,0,0,.29,4.14c1.17,1.71,2.35,3.43,3.54,5.14a3.31,3.31,0,0,0,2.25,1.39,12.39,12.39,0,0,0,8.83-1.7,19.81,19.81,0,0,0,5-5c.1-.13.19-.26.3-.39s.2-.18.39-.35c-1.56,4.84-5.38,7.52-12,8.52.6,3.34.59,3.78-.15,4.59.34-2.17-.07-4-1.05-4.49-.31.64-.67,1.26-.92,1.92-.78,2.17,0,3.83,2.23,4.49a20.09,20.09,0,0,0,3,.57,8.91,8.91,0,0,0,10-8.76c0-2.37,0-4.72,1.24-6.87Zm-15.49,8.64c-.35.17-.58.21-.71.35a6.24,6.24,0,0,0-1.66,3.66,3.37,3.37,0,0,0,1.5,3.44c4,2.49,8.25,3.09,12.53,1,3.36-1.61,4.46-4.87,4.87-8.35a1,1,0,0,0-.83-1.23c-.26.85-.48,1.67-.76,2.46-2.51,7.15-9,7.64-13.62,5.84-2.28-.88-2.93-2.51-2.17-4.83C432.3,496.31,432.59,495.58,432.91,494.68Zm21.42-24.56a2.88,2.88,0,0,0-2.58-2.69,4.41,4.41,0,0,0-4.41,2.25l1.93.61.07-.67,2,.72-.19-1.11,1.95,1.2-.35-1.51ZM458,498.83l.09-.21-.58-.37c-1.85-1.19-4-1.27-6.06-1.5-1.73-.19-1.74-.17-2.06,1.55,0,.05,0,.1,0,.23ZM422.63,498l3.65.65c1.17.21,2.35.4,3.57.6l.24-1.44c-.78-.09-1.48-.15-2.18-.26s-1.44-.31-2.17-.39A4.36,4.36,0,0,0,422.63,498Zm8-1.88c-2.21-.46-4-.19-4.57.71l3.11.38C430.35,497.35,430.35,497.34,430.65,496.12Zm23.48.57.06-.18L450,494.44a11,11,0,0,0,0,1.31.58.58,0,0,0,.35.43C451.61,496.37,452.87,496.52,454.13,496.69Zm-22.6-2.32-2.46,1C430.57,495.85,431.27,495.57,431.53,494.37Zm18.22-32.16c0,1.06.21,1.2,1.93,1.13Z"/><path class="cls-1" d="M419.42,504c12.93,2.78,26.1,3.33,39.24,4.1C454.08,509.16,422.71,505.89,419.42,504Z"/><path class="cls-1" d="M419.86,506.3c11.4,2.79,23.08,3.09,34.7,3.91C451,511.28,423.65,508.19,419.86,506.3Z"/><path class="cls-1" d="M449.68,512.06c-2.75,1.18-25.84-1.36-28.36-3.08,3.14.56,6.21,1.22,9.32,1.66s6.25.75,9.39,1S446.38,511.91,449.68,512.06Z"/><path class="cls-2" d="M448.4,486l.64.4c-1.22,2.15-1.24,4.5-1.24,6.87a8.91,8.91,0,0,1-10,8.76,20.09,20.09,0,0,1-3-.57c-2.21-.66-3-2.32-2.23-4.49.25-.66.61-1.28.92-1.92,1,.51,1.39,2.32,1.05,4.49.74-.81.75-1.25.15-4.59,6.62-1,10.44-3.68,12-8.52-.19.17-.3.25-.39.35s-.2.26-.3.39a19.81,19.81,0,0,1-5,5,12.39,12.39,0,0,1-8.83,1.7,3.31,3.31,0,0,1-2.25-1.39c-1.19-1.71-2.37-3.43-3.54-5.14a3.92,3.92,0,0,1-.29-4.14,7.13,7.13,0,0,0,.55-4.17,3.59,3.59,0,0,1,2.77-3.79c.3,0,.59-.13.9-.2-.56-.65-1.25-.64-2.13.08-.61.49-1.16,1-1.74,1.56a8.57,8.57,0,0,1,2.2-7.41,3.23,3.23,0,0,0,3.23.57,4.12,4.12,0,0,0,1.33-.6,8.59,8.59,0,0,1,4.69-1.55,63.1,63.1,0,0,0,6.44-.72,16.87,16.87,0,0,0,3.75-1.41,5.26,5.26,0,0,1,4.22-.17,1.67,1.67,0,0,1,.79.64,22.88,22.88,0,0,0-2.87,0,17.31,17.31,0,0,0-3.19.71c-1.72.56-3.05,3.32-1.89,5.14.5.79,1,1.61,1.44,2.4a4,4,0,0,1,.41,3.91,1,1,0,0,0,.41,1.34l1,.69c.63-.53,1.19-1.08,1.84-1.53s1.23-.71,1.73-.19a2.38,2.38,0,0,1,.51,1.61,7.51,7.51,0,0,1-2.27,5.06A5.87,5.87,0,0,1,448.4,486Zm-12.82-4.84a6.79,6.79,0,0,0,4.77-.34h-2l.21-1.57,2.78,1.39c.45-.84.13-1.33-.61-1.66a1.3,1.3,0,0,0-.3-.13c-1.19-.12-2.38-.31-3.56-.31-.82,0-1.65,1.33-1.28,1.86l.64-.13.18.66Zm7.95-1.43a3.28,3.28,0,0,0-.21-.67,9.28,9.28,0,0,0-6.34-4.66,3.43,3.43,0,0,0-1.08.15v.25a29.59,29.59,0,0,1,4.12,1.89A30.38,30.38,0,0,1,443.53,479.77ZM429,479l1.12.55a1.28,1.28,0,0,0,.07-.29c-.14-1.07-1.29-1.39-2.46-.69-.55.32-.71.68-.31,1.27a3,3,0,0,1,.27,1h2.23v-.11l-.92-.36Zm22.51,3,.25.05a4.4,4.4,0,0,0,.22-1.15c0-.39-.15-.92-.41-1.08a1.38,1.38,0,0,0-1.12.19,4.94,4.94,0,0,0-2.26,2.72,6,6,0,0,0-.15.82l1.2-1.32.38.18-.23,1.53c1.12-.73,1.13-1.15,0-2.47.54-.41,1.06-.83,1.62-1.2.06,0,.44.2.46.34A10.72,10.72,0,0,1,451.47,482Zm-20.84,8.35c2.49-2.07,2.53-2.07,5.49.12a3.13,3.13,0,0,0-3-2.36C431.81,488.08,431.18,488.63,430.63,490.38Zm.05-6.64c-.94.79-1.07,1.37-.53,2.06A1.28,1.28,0,0,0,432,486C430.36,485.46,430.32,485.4,430.68,483.74Zm.89-1.77a2.23,2.23,0,0,0,0-3Z"/><path class="cls-2" d="M432.91,494.68c-.32.9-.61,1.63-.85,2.38-.76,2.32-.11,3.95,2.17,4.83,4.65,1.8,11.11,1.31,13.62-5.84.28-.79.5-1.61.76-2.46a1,1,0,0,1,.83,1.23c-.41,3.48-1.51,6.74-4.87,8.35-4.28,2.05-8.55,1.45-12.53-1a3.37,3.37,0,0,1-1.5-3.44A6.24,6.24,0,0,1,432.2,495C432.33,494.89,432.56,494.85,432.91,494.68Z"/><path class="cls-2" d="M454.33,470.12l-1.61-1.2.35,1.51-1.95-1.2.19,1.11-2-.72-.07.67-1.93-.61a4.41,4.41,0,0,1,4.41-2.25A2.88,2.88,0,0,1,454.33,470.12Z"/><path class="cls-2" d="M458,498.83l-8.57-.3c0-.13-.05-.18,0-.23.32-1.72.33-1.74,2.06-1.55,2.08.23,4.21.31,6.06,1.5l.58.37Z"/><path class="cls-2" d="M422.63,498a4.36,4.36,0,0,1,3.11-.84c.73.08,1.44.28,2.17.39s1.4.17,2.18.26l-.24,1.44c-1.22-.2-2.4-.39-3.57-.6Z"/><path class="cls-2" d="M430.65,496.12c-.3,1.22-.3,1.23-1.46,1.09l-3.11-.38C426.68,495.93,428.44,495.66,430.65,496.12Z"/><path class="cls-2" d="M454.13,496.69c-1.26-.17-2.52-.32-3.77-.51a.58.58,0,0,1-.35-.43,11,11,0,0,1,0-1.31l4.19,2.07Z"/><path class="cls-2" d="M431.53,494.37c-.26,1.2-1,1.48-2.46,1Z"/><path class="cls-2" d="M449.75,462.21l1.93,1.13C450,463.41,449.71,463.27,449.75,462.21Z"/><path class="cls-1" d="M435.58,481.2l.83-.23-.18-.66-.64.13c-.37-.53.46-1.86,1.28-1.86,1.18,0,2.37.19,3.56.31a1.3,1.3,0,0,1,.3.13c.74.33,1.06.82.61,1.66l-2.78-1.39-.21,1.57h2A6.79,6.79,0,0,1,435.58,481.2Z"/><path class="cls-1" d="M443.53,479.77a30.38,30.38,0,0,0-3.51-3,29.59,29.59,0,0,0-4.12-1.89v-.25a3.43,3.43,0,0,1,1.08-.15,9.28,9.28,0,0,1,6.34,4.66A3.28,3.28,0,0,1,443.53,479.77Z"/><path class="cls-1" d="M429,479v1.33l.92.36v.11h-2.23a3,3,0,0,0-.27-1c-.4-.59-.24-.95.31-1.27,1.17-.7,2.32-.38,2.46.69a1.28,1.28,0,0,1-.07.29Z"/><path class="cls-1" d="M451.47,482a10.72,10.72,0,0,0,0-1.39c0-.14-.4-.38-.46-.34-.56.37-1.08.79-1.62,1.2,1.11,1.32,1.1,1.74,0,2.47l.23-1.53-.38-.18-1.2,1.32a6,6,0,0,1,.15-.82,4.94,4.94,0,0,1,2.26-2.72,1.38,1.38,0,0,1,1.12-.19c.26.16.38.69.41,1.08a4.4,4.4,0,0,1-.22,1.15Z"/><path class="cls-1" d="M430.63,490.38c.55-1.75,1.18-2.3,2.47-2.24a3.13,3.13,0,0,1,3,2.36C433.16,488.31,433.12,488.31,430.63,490.38Z"/><path class="cls-1" d="M430.68,483.74c-.36,1.66-.32,1.72,1.36,2.28a1.28,1.28,0,0,1-1.89-.22C429.61,485.11,429.74,484.53,430.68,483.74Z"/><path class="cls-1" d="M431.57,482v-3A2.23,2.23,0,0,1,431.57,482Z"/></g></g></svg>