<svg xmlns="http://www.w3.org/2000/svg" viewBox="0 0 224.37 380.45"><defs><style>.cls-1{fill:#4c2a12;}.cls-2{fill:#fff4c0;}.cls-3{fill:#fc9;}</style></defs><title>Fichier 6</title><g id="Calque_2" data-name="Calque 2"><g id="Calque_1-2" data-name="Calque 1"><path class="cls-1" d="M185,280.86l.52.38a1.45,1.45,0,0,1,.74,1.54,1.7,1.7,0,0,1-1.23,1.49,2.75,2.75,0,0,0-1,.56,21.28,21.28,0,0,0-1.57,1.58.68.68,0,0,0-.08.55c.36,1.15.25,1.47-.78,2.06a12.94,12.94,0,0,1-4.77,1.74.57.57,0,0,0-.38.2l4.88.37.1.14c-.13.13-.25.32-.41.38a21.65,21.65,0,0,1-2.06.69q-7.78,2.11-15.59,4.21a4.54,4.54,0,0,1-3.22-.26,14.39,14.39,0,0,0-4.82-1.18,3.59,3.59,0,0,1-.87-.13,4,4,0,0,0-2.73.19,15,15,0,0,1-8.56.53,8.45,8.45,0,0,1-4.92-3.09,2.84,2.84,0,0,0-1.93-1q-12.48-2.4-25-4.79a4,4,0,0,0-1.51,0,11.62,11.62,0,0,1-4.32,0,3.38,3.38,0,0,1-3-2.85c-.28-1.32-.48-2.65-.67-4A1.72,1.72,0,0,0,101,279a8,8,0,0,1-3.63-5.47,3.09,3.09,0,0,1,.11-1.38,20.51,20.51,0,0,1,.76-2,1.71,1.71,0,0,1,1.34-1.1c1.52-.29,3-.57,4.54-.95a3.94,3.94,0,0,0,1.69-.86,25,25,0,0,1,14.89-6.79,90.18,90.18,0,0,1,18.07,0,43.1,43.1,0,0,1,4.93.74,7.43,7.43,0,0,1,3.43,2c1.91,1.74,3.83,3.46,5.74,5.21a2.53,2.53,0,0,0,1.74.71,146.43,146.43,0,0,1,28.63,4,19.25,19.25,0,0,1,2,.53,5.39,5.39,0,0,1,1.37.76c.51.4.44.51,0,1a1.73,1.73,0,0,0-.44,1A8.19,8.19,0,0,1,185,280.86ZM109.17,268c.35-.13.61-.21.86-.32a1.11,1.11,0,0,0,.73-1,3,3,0,0,1,1.84-2.72,15.35,15.35,0,0,1,3.31-1.17c2.12-.4,4.29-.61,6.44-.89a2,2,0,0,1,2.41,1.27c1,1.95,2,3.9,3,5.87a1.2,1.2,0,0,0,1.28.79c.86-.07,1.72-.08,2.58-.11l8.17-.23c4-.1,8.07-.18,12.1-.27l.69,0c-.23-.25-.36-.43-.53-.58-1.65-1.53-3.33-3-5-4.59a9.84,9.84,0,0,0-5-2.68,57.7,57.7,0,0,0-10.16-.89c-2.82,0-5.64.09-8.46.19a30.39,30.39,0,0,0-7.5,1.24c-3.81,1.11-6.84,3.49-9.8,6,0,0,0,.07,0,.14l1,.19-7,1a1.7,1.7,0,0,0-1.47,1.09c-.19.49-.48,1-.65,1.45a15,15,0,0,0-.33,1.54,4.39,4.39,0,0,1,1.15-.64c.71-.12,1.44-.1,2.17-.15.36,0,.71-.07,1.07-.11v-.11L98.29,272c.27-.56.51-1.07.78-1.57a1.32,1.32,0,0,1,1.27-.7c2.43.06,4.85.13,7.28.23a1.74,1.74,0,0,1,1,.32c.65.59,1.22,1.27,1.86,1.95l-1.64.66c16.66-.59,33.15,1.2,49.57,2.85l-.18,2.6.23,0c.59-.93,1.2-1.86,1.76-2.81a.63.63,0,0,0-.32-.9,10.38,10.38,0,0,0-2.2-.95c-2.85-.57-5.71-1.18-8.6-1.52-4.66-.55-9.34-.95-14-1.31-3.66-.28-7.34-.44-11-.57-3.27-.12-6.54-.19-9.81-.17A8,8,0,0,1,109.17,268Zm26.38,20.93c0-.3,0-.52,0-.73a15.72,15.72,0,0,1,.16-4.79,6.65,6.65,0,0,1,9.32-5.09,12.27,12.27,0,0,1,5.66,4.85c1.05,1.61,2,3.28,3,4.91a3.45,3.45,0,0,0,2.71,1.74,4.91,4.91,0,0,1,1.85.51,23.47,23.47,0,0,1,2.72,1.72,3.41,3.41,0,0,0,2.5.79c1.86-.23,3.73-.43,5.59-.66.89-.12,1.76-.28,2.65-.41l0-.19-1.32.07c-2.06.17-4.15.24-6.19.54-1.88.27-3.07-.78-4.3-1.93H162v-.15c-1.71-.27-3.41-.58-5.13-.8a3.25,3.25,0,0,1-2.74-1.83c-.75-1.48-1.54-2.95-2.41-4.36a25.87,25.87,0,0,0-2.56-3.64,8.9,8.9,0,0,0-8.11-3c-2.75.34-4.45,2.1-5.44,4.61a14.72,14.72,0,0,0-.81,5.77c0,.3,0,.61,0,.95l-.85-.15c-1.86-.37-3.73-.72-5.58-1.1q-8.36-1.73-16.7-3.48a3.28,3.28,0,0,1-2.58-2.42c-.56-1.7-1.27-3.36-2-5a3.35,3.35,0,0,0-2.36-1.88,2.21,2.21,0,0,0-2.58.74,3.44,3.44,0,0,0-.39,3.37c.07-.55.09-1.07.2-1.58a1.83,1.83,0,0,1,1.23-1.59,1.72,1.72,0,0,1,1.73.48,1.17,1.17,0,0,0-1.4.52,5.92,5.92,0,0,0-.75,1.51,9.54,9.54,0,0,0-.35,3.83,8,8,0,0,0,1.22,3.94c.79,1.11,1.73,1.1,2.39-.09a8,8,0,0,0,.89-5c-.18-1.3-.58-2.57-.89-3.85,0,.08,0,.15.11.22a16,16,0,0,1,2.37,4.63,4.05,4.05,0,0,0,3.19,2.71l15.61,3.48C130,287.76,132.77,288.34,135.55,288.94Zm11.86-5.34-.88-.74c-1-.82-1-.82-.51-2a2.18,2.18,0,0,1,.11-.27.83.83,0,0,0-.31-1.12,3.7,3.7,0,0,0-5.15.3,9.17,9.17,0,0,0-.09,12.32,5.52,5.52,0,0,0,8.52-.55,10.42,10.42,0,0,0,1.8-4.59c.39-2-.62-3.39-2-4.69Zm-2.62-13.68V270a2.62,2.62,0,0,0,.48.13c2,.16,3.94.29,5.91.48,2.76.26,5.53.52,8.28.85a61.29,61.29,0,0,1,11.45,2.45,6,6,0,0,1,1.73,1,1.53,1.53,0,0,0,1.1.41l3.23-.13c2.5-.09,5-.17,7.51-.27a2.76,2.76,0,0,0,.64-.1,1.25,1.25,0,0,0,.36-.22c-.09-.1-.16-.26-.28-.31a6.26,6.26,0,0,0-1.1-.39,174.2,174.2,0,0,0-19-3.34c-3.36-.35-6.73-.7-10.11-.87-2.52-.12-5.05,0-7.58.08C146.54,269.82,145.66,269.88,144.79,269.92Zm-9.36.31,0,.12,1.63.14c2.32.21,4.64.39,6.95.63,2.67.28,5.32.63,8,.9a29,29,0,0,1,7.62,1.79,2.54,2.54,0,0,1,1.68,1.45.9.9,0,0,0,1,.64l5.75.2a2.75,2.75,0,0,0,.57-.12,4.83,4.83,0,0,0-.88-1,15.59,15.59,0,0,0-2.61-1.32,46.3,46.3,0,0,0-9.95-2.12c-2.94-.34-5.88-.64-8.82-.85-3.4-.24-6.8-.37-10.2-.54A6.15,6.15,0,0,0,135.43,270.23Zm17.74,14.22a6.67,6.67,0,0,0,1.13.49,10.42,10.42,0,0,0,1.58.13c2.82.12,5.64.25,8.46.35a52.13,52.13,0,0,0,9.43-.38c3.71-.56,7.39-1.3,11.08-2a2.1,2.1,0,0,0,.7-.28.48.48,0,0,0,.11-.83,6.42,6.42,0,0,0-1-.76c-.37-.22-.67-.14-.67.35a.87.87,0,0,1-.73.93c-.88.21-1.76.38-2.63.56a71.65,71.65,0,0,1-13.45,1.55,66,66,0,0,1-12.64-.74A1.27,1.27,0,0,0,153.17,284.45Zm10-1.6c1.35.07,2.68.17,4,.21a1.1,1.1,0,0,0,1-.8c.62-1.41,1.27-2.81,1.89-4.23.16-.36.28-.74.41-1.12a8.38,8.38,0,0,0-1.23.06,32.08,32.08,0,0,0-3.35.82,1.67,1.67,0,0,0-1.27,2c0,.33.07.66.11,1-.36-.14-.69-.3-1-.4s-.68.08-.66.54C163.05,281.54,163.09,282.14,163.12,282.85ZM159,280a15,15,0,0,0,.45,1.81,1.29,1.29,0,0,0,2.39.38,4.93,4.93,0,0,0,.73-5,1.26,1.26,0,0,0-2.36-.33A5.81,5.81,0,0,0,159,280Zm-32.24-4.08-.18,0a2.43,2.43,0,0,0-.18.58c-.06.78-.09,1.56-.14,2.34-.07,1.39-.15,2.77-.22,4.16,0,.44-.25.66-.68.6l-6.27-.86-3.89-.53a1.23,1.23,0,0,0-.47.13l0,.2,12.29,2.18Zm42.32,6.28c.12-.19.26-.38.36-.58.52-1,1-1.94,1.54-2.9a3,3,0,0,1,2.39-1.69c2.42-.23,4.84-.39,7.25-.62,1.3-.12,2.6-.3,3.9-.47a1.14,1.14,0,0,0,.3-.17l0-.16c-.3,0-.6,0-.9,0l-4.63.22c-2,.11-4,.22-6,.36a2.67,2.67,0,0,0-1.9.93C170.13,278.53,169.68,280.36,169.1,282.15Zm-42.95-13.67c0-.24,0-.33,0-.39-.63-1.32-1.24-2.66-1.92-3.95a2.45,2.45,0,0,0-2.6-1.33c-.93.1-1.87.13-2.8.28-1.68.27-3.34.59-5,.9a1.27,1.27,0,0,0-.31.15,1,1,0,0,0,.59.11c2.13-.21,4.25-.4,6.37-.66a3.07,3.07,0,0,1,3.54,1.66c.38.62.78,1.22,1.18,1.82C125.47,267.51,125.77,267.93,126.15,268.48ZM170,283.35l0,.22a11,11,0,0,0,1.15,0c1-.1,2.06-.23,3.09-.36,2.56-.32,5.12-.62,7.67-1a2.56,2.56,0,0,0,1.95-2.85,8.5,8.5,0,0,0-.58,1.09,2,2,0,0,1-1.83,1.41l-11.11,1.32A1.34,1.34,0,0,0,170,283.35Zm11.78-5.73v-.18a3.4,3.4,0,0,0-.45,0c-2.3.12-4.6.21-6.9.4a1.87,1.87,0,0,0-1.23.75,27.53,27.53,0,0,0-1.51,2.78,1,1,0,0,0,0,.3.55.55,0,0,0,.36-.27c.27-.52.54-1,.79-1.57a2.62,2.62,0,0,1,2.31-1.54c1.64-.13,3.28-.24,4.91-.38C180.65,277.83,181.24,277.71,181.82,277.62Zm-12.58,11.26.1.1a1.68,1.68,0,0,0,.29-.24c.57-.69,1.14-1.39,1.7-2.1.09-.11.2-.33.15-.39a.62.62,0,0,0-.43-.2c-1.25,0-2.5,0-3.75,0-1,0-1.94.14-2.91.21v.12l5.92.47Zm-3.5-15.95c1.26.79,2.55,1.66,3.89,2.43a3.76,3.76,0,0,0,1.51.29c.19,0,.39-.2.58-.3a2.17,2.17,0,0,0-.38-.46C169.64,273.67,167.62,273.38,165.74,272.93Zm-50.32,6.75,0-.19a5.34,5.34,0,0,0-.53-.16c-1.47-.29-3-.57-4.42-.84a1.32,1.32,0,0,1-1.27-1.36c-.11-.93-.24-1.85-.37-2.78a2.22,2.22,0,0,0-.17-.47l-.2.05c.11,1.32.21,2.63.35,3.94a1.1,1.1,0,0,0,1.09,1.09c1,.16,1.93.32,2.89.45S114.55,279.59,115.42,279.68Zm48.09,7.49a3.37,3.37,0,0,0-2.42,1.63c-.2.5.13,1,.64.84a3.34,3.34,0,0,0,2.28-1.76C164.24,287.45,164,287.18,163.51,287.17Zm9.71,1.54a5.38,5.38,0,0,0,5.13-1.32,2.91,2.91,0,0,0,1.22-2.68c-.29.47-.59.86-.8,1.29a3.39,3.39,0,0,1-2.67,2.05c-.3,0-.6.14-.91.21Z"/><path class="cls-2" d="M109.17,268a8,8,0,0,0,5.09,2.12c3.27,0,6.54.05,9.81.17,3.68.13,7.36.29,11,.57,4.69.36,9.37.76,14,1.31,2.89.34,5.75.95,8.6,1.52a10.38,10.38,0,0,1,2.2.95.63.63,0,0,1,.32.9c-.56.95-1.17,1.88-1.76,2.81l-.23,0,.18-2.6c-16.42-1.65-32.91-3.44-49.57-2.85l1.64-.66c-.64-.68-1.21-1.36-1.86-1.95a1.74,1.74,0,0,0-1-.32c-2.43-.1-4.85-.17-7.28-.23a1.32,1.32,0,0,0-1.27.7c-.27.5-.51,1-.78,1.57l3.77.28v.11c-.36,0-.71.09-1.07.11-.73,0-1.46,0-2.17.15a4.39,4.39,0,0,0-1.15.64,15,15,0,0,1,.33-1.54c.17-.5.46-1,.65-1.45a1.7,1.7,0,0,1,1.47-1.09l7-1-1-.19c0-.07,0-.13,0-.14,3-2.49,6-4.87,9.8-6a30.39,30.39,0,0,1,7.5-1.24c2.82-.1,5.64-.23,8.46-.19a57.7,57.7,0,0,1,10.16.89,9.84,9.84,0,0,1,5,2.68c1.63,1.56,3.31,3.06,5,4.59.17.15.3.33.53.58l-.69,0c-4,.09-8.07.17-12.1.27l-8.17.23c-.86,0-1.72,0-2.58.11a1.2,1.2,0,0,1-1.28-.79c-1-2-2-3.92-3-5.87a2,2,0,0,0-2.41-1.27c-2.15.28-4.32.49-6.44.89a15.35,15.35,0,0,0-3.31,1.17,3,3,0,0,0-1.84,2.72,1.11,1.11,0,0,1-.73,1C109.78,267.8,109.52,267.88,109.17,268Zm41.89.73.05-.21c-.13-.13-.24-.28-.38-.4-2-1.72-3.92-3.43-5.87-5.16a4.05,4.05,0,0,0-2.09-1,59.78,59.78,0,0,0-15.58-.42c-.76.07-.89.3-.57,1,.91,2,1.85,4,2.77,6a.94.94,0,0,0,1,.61c.74,0,1.49-.06,2.23-.08l15.39-.39C149,268.71,150.05,268.74,151.06,268.74Z"/><path class="cls-2" d="M135.55,288.94c-2.78-.6-5.51-1.18-8.24-1.78l-15.61-3.48a4.05,4.05,0,0,1-3.19-2.71,16,16,0,0,0-2.37-4.63c-.06-.07-.13-.14-.11-.22.31,1.28.71,2.55.89,3.85a8,8,0,0,1-.89,5c-.66,1.19-1.6,1.2-2.39.09a8,8,0,0,1-1.22-3.94,9.54,9.54,0,0,1,.35-3.83,5.92,5.92,0,0,1,.75-1.51,1.17,1.17,0,0,1,1.4-.52,1.72,1.72,0,0,0-1.73-.48,1.83,1.83,0,0,0-1.23,1.59c-.11.51-.13,1-.2,1.58a3.44,3.44,0,0,1,.39-3.37,2.21,2.21,0,0,1,2.58-.74,3.35,3.35,0,0,1,2.36,1.88c.72,1.64,1.43,3.3,2,5a3.28,3.28,0,0,0,2.58,2.42q8.36,1.74,16.7,3.48c1.85.38,3.72.73,5.58,1.1l.85.15c0-.34,0-.65,0-.95a14.72,14.72,0,0,1,.81-5.77c1-2.51,2.69-4.27,5.44-4.61a8.9,8.9,0,0,1,8.11,3,25.87,25.87,0,0,1,2.56,3.64c.87,1.41,1.66,2.88,2.41,4.36a3.25,3.25,0,0,0,2.74,1.83c1.72.22,3.42.53,5.13.8v.15h-2.1c1.23,1.15,2.42,2.2,4.3,1.93,2-.3,4.13-.37,6.19-.54l1.32-.07,0,.19c-.89.13-1.76.29-2.65.41-1.86.23-3.73.43-5.59.66a3.41,3.41,0,0,1-2.5-.79,23.47,23.47,0,0,0-2.72-1.72,4.91,4.91,0,0,0-1.85-.51,3.45,3.45,0,0,1-2.71-1.74c-1-1.63-1.95-3.3-3-4.91a12.27,12.27,0,0,0-5.66-4.85,6.65,6.65,0,0,0-9.32,5.09,15.72,15.72,0,0,0-.16,4.79C135.57,288.42,135.55,288.64,135.55,288.94Zm-31.49-9.83c.8-.93.51-2,.71-3C103.43,276.31,103.09,277.8,104.06,279.11Zm1.48,5.73c-.33-.93-.26-1.84-1.19-2.39a10,10,0,0,0-.2,1.51,1.11,1.11,0,0,0,.35.85C104.73,285,105.13,284.84,105.54,284.84Zm-2.66-5.67.22,3.25C104.25,281.36,104.18,280.16,102.88,279.17Zm3.78,1.31c-.79.23-1,.56-1,1.27s.36.85.88,1.11Zm-1-1.09c.8-.45.81-1.29,0-2.13C105.08,278.39,105.07,278.69,105.69,279.39Z"/><path class="cls-2" d="M147.41,283.6l1.47-1.32c1.4,1.3,2.41,2.66,2,4.69a10.42,10.42,0,0,1-1.8,4.59,5.52,5.52,0,0,1-8.52.55,9.17,9.17,0,0,1,.09-12.32,3.7,3.7,0,0,1,5.15-.3.83.83,0,0,1,.31,1.12,2.18,2.18,0,0,0-.11.27c-.46,1.16-.46,1.16.51,2Zm-4.15-4.21-.07-.13a12.92,12.92,0,0,0-1.42.88,7.29,7.29,0,0,0-2.71,5,7.65,7.65,0,0,0,2.13,6.52,3,3,0,0,0,1.7,1A8.52,8.52,0,0,1,143.26,279.39Zm1,11.5c0,.27,0,.55,0,.82,0,.52.17.77.72.69s1.24-.15,1.85-.27.72-.38.48-.91-.56-1.08-.79-1.63a.81.81,0,0,0-1.06-.55c-1.15.24-1.19.26-1.19,1.44Zm6-5.28c-.48,0-.91,0-1.34,0-1,.08-1,.17-1.25,1.14a3.77,3.77,0,0,0-.11.75.82.82,0,0,0,.19.51,18.33,18.33,0,0,0,1.45,1.19c.08.06.44,0,.45-.13C149.9,287.94,150.08,286.79,150.28,285.61Zm-7.74-1c.43-.61,1.05-1.12,1.13-1.7a12.57,12.57,0,0,0-.17-2.79l-.23-.08c-.53.61-1.11,1.18-1.59,1.82-.66.88-.62,1,.06,1.82Zm-.89,5.38c1.58-1.13,1.44-2.09.62-3.67-.25-.49-.79-.37-1.21-.25a.79.79,0,0,0-.49.55A5.19,5.19,0,0,0,141.65,290Zm3.22-2.79a1.14,1.14,0,0,0,1-1,1.63,1.63,0,0,0-.73-1.85C145.6,286,145.6,286,144.87,287.21Zm-.56-2.69.66,1.58C145.26,285.08,145,284.5,144.31,284.52Z"/><path class="cls-2" d="M144.79,269.92c.87,0,1.75-.1,2.62-.12,2.53,0,5.06-.2,7.58-.08,3.38.17,6.75.52,10.11.87a174.2,174.2,0,0,1,19,3.34,6.26,6.26,0,0,1,1.1.39c.12.05.19.21.28.31a1.25,1.25,0,0,1-.36.22,2.76,2.76,0,0,1-.64.1c-2.5.1-5,.18-7.51.27l-3.23.13a1.53,1.53,0,0,1-1.1-.41,6,6,0,0,0-1.73-1,61.29,61.29,0,0,0-11.45-2.45c-2.75-.33-5.52-.59-8.28-.85-2-.19-3.94-.32-5.91-.48a2.62,2.62,0,0,1-.48-.13Z"/><path class="cls-2" d="M135.43,270.23a6.15,6.15,0,0,1,.73-.06c3.4.17,6.8.3,10.2.54,2.94.21,5.88.51,8.82.85a46.3,46.3,0,0,1,9.95,2.12,15.59,15.59,0,0,1,2.61,1.32,4.83,4.83,0,0,1,.88,1,2.75,2.75,0,0,1-.57.12l-5.75-.2a.9.9,0,0,1-1-.64,2.54,2.54,0,0,0-1.68-1.45A29,29,0,0,0,152,272c-2.67-.27-5.32-.62-8-.9-2.31-.24-4.63-.42-6.95-.63l-1.63-.14Z"/><path class="cls-2" d="M153.17,284.45a1.27,1.27,0,0,1,1.41-.61,66,66,0,0,0,12.64.74A71.65,71.65,0,0,0,180.67,283c.87-.18,1.75-.35,2.63-.56a.87.87,0,0,0,.73-.93c0-.49.3-.57.67-.35a6.42,6.42,0,0,1,1,.76.48.48,0,0,1-.11.83,2.1,2.1,0,0,1-.7.28c-3.69.68-7.37,1.42-11.08,2a52.13,52.13,0,0,1-9.43.38c-2.82-.1-5.64-.23-8.46-.35a10.42,10.42,0,0,1-1.58-.13A6.67,6.67,0,0,1,153.17,284.45Z"/><path class="cls-2" d="M163.12,282.85c0-.71-.07-1.31-.09-1.92,0-.46.22-.66.66-.54s.68.26,1,.4c0-.36-.1-.69-.11-1a1.67,1.67,0,0,1,1.27-2,32.08,32.08,0,0,1,3.35-.82,8.38,8.38,0,0,1,1.23-.06c-.13.38-.25.76-.41,1.12-.62,1.42-1.27,2.82-1.89,4.23a1.1,1.1,0,0,1-1,.8C165.8,283,164.47,282.92,163.12,282.85Z"/><path class="cls-2" d="M159,280a5.81,5.81,0,0,1,1.21-3.17,1.26,1.26,0,0,1,2.36.33,4.93,4.93,0,0,1-.73,5,1.29,1.29,0,0,1-2.39-.38A15,15,0,0,1,159,280Zm.84,1.48c.52.86,1.23.9,1.68.09a8.92,8.92,0,0,0,.56-1.35c.14-.36.23-.74.35-1.11l-.2-.1C161.68,280,161.43,281.39,159.86,281.43Z"/><path class="cls-2" d="M126.78,275.87l.31,8.77-12.29-2.18,0-.2a1.23,1.23,0,0,1,.47-.13l3.89.53,6.27.86c.43.06.65-.16.68-.6.07-1.39.15-2.77.22-4.16,0-.78.08-1.56.14-2.34a2.43,2.43,0,0,1,.18-.58Z"/><path class="cls-2" d="M169.1,282.15c.58-1.79,1-3.62,2.3-5.07a2.67,2.67,0,0,1,1.9-.93c2-.14,4-.25,6-.36l4.63-.22c.3,0,.6,0,.9,0l0,.16a1.14,1.14,0,0,1-.3.17c-1.3.17-2.6.35-3.9.47-2.41.23-4.83.39-7.25.62a3,3,0,0,0-2.39,1.69c-.52,1-1,1.94-1.54,2.9C169.36,281.77,169.22,282,169.1,282.15Z"/><path class="cls-2" d="M126.15,268.48c-.38-.55-.68-1-1-1.41-.4-.6-.8-1.2-1.18-1.82a3.07,3.07,0,0,0-3.54-1.66c-2.12.26-4.24.45-6.37.66a1,1,0,0,1-.59-.11,1.27,1.27,0,0,1,.31-.15c1.67-.31,3.33-.63,5-.9.93-.15,1.87-.18,2.8-.28a2.45,2.45,0,0,1,2.6,1.33c.68,1.29,1.29,2.63,1.92,3.95C126.17,268.15,126.15,268.24,126.15,268.48Z"/><path class="cls-2" d="M170,283.35a1.34,1.34,0,0,1,.38-.14l11.11-1.32a2,2,0,0,0,1.83-1.41,8.5,8.5,0,0,1,.58-1.09,2.56,2.56,0,0,1-1.95,2.85c-2.55.34-5.11.64-7.67,1-1,.13-2.06.26-3.09.36a11,11,0,0,1-1.15,0Z"/><path class="cls-2" d="M181.82,277.62c-.58.09-1.17.21-1.76.26-1.63.14-3.27.25-4.91.38a2.62,2.62,0,0,0-2.31,1.54c-.25.53-.52,1.05-.79,1.57a.55.55,0,0,1-.36.27,1,1,0,0,1,0-.3,27.53,27.53,0,0,1,1.51-2.78,1.87,1.87,0,0,1,1.23-.75c2.3-.19,4.6-.28,6.9-.4a3.4,3.4,0,0,1,.45,0Z"/><path class="cls-2" d="M169.24,288.88l1.08-2-5.92-.47v-.12c1-.07,1.94-.18,2.91-.21,1.25,0,2.5,0,3.75,0a.62.62,0,0,1,.43.2c.05.06-.06.28-.15.39-.56.71-1.13,1.41-1.7,2.1a1.68,1.68,0,0,1-.29.24Z"/><path class="cls-2" d="M165.74,272.93c1.88.45,3.9.74,5.6,2a2.17,2.17,0,0,1,.38.46c-.19.1-.39.31-.58.3a3.76,3.76,0,0,1-1.51-.29C168.29,274.59,167,273.72,165.74,272.93Z"/><path class="cls-2" d="M115.42,279.68c-.87-.09-1.74-.16-2.6-.27s-1.93-.29-2.89-.45a1.1,1.1,0,0,1-1.09-1.09c-.14-1.31-.24-2.62-.35-3.94l.2-.05a2.22,2.22,0,0,1,.17.47c.13.93.26,1.85.37,2.78a1.32,1.32,0,0,0,1.27,1.36c1.47.27,3,.55,4.42.84a5.34,5.34,0,0,1,.53.16Z"/><path class="cls-2" d="M163.51,287.17c.49,0,.73.28.5.71a3.34,3.34,0,0,1-2.28,1.76c-.51.13-.84-.34-.64-.84A3.37,3.37,0,0,1,163.51,287.17Z"/><path class="cls-2" d="M173.22,288.71l2-.45c.31-.07.61-.17.91-.21a3.39,3.39,0,0,0,2.67-2.05c.21-.43.51-.82.8-1.29a2.91,2.91,0,0,1-1.22,2.68A5.38,5.38,0,0,1,173.22,288.71Z"/><path class="cls-1" d="M151.06,268.74c-1,0-2,0-3,0l-15.39.39c-.74,0-1.49,0-2.23.08a.94.94,0,0,1-1-.61c-.92-2-1.86-4-2.77-6-.32-.7-.19-.93.57-1a59.78,59.78,0,0,1,15.58.42,4.05,4.05,0,0,1,2.09,1c1.95,1.73,3.91,3.44,5.87,5.16.14.12.25.27.38.4Zm-17.56-6.95-.07.19.57.35a19.14,19.14,0,0,1,5.36,4.05,1.62,1.62,0,0,1,.42,1.88c1.61,0,3.15,0,4.69,0,.32,0,.43-.21.22-.47a17.41,17.41,0,0,0-1.51-1.79,20.94,20.94,0,0,0-6.13-3.85A8.76,8.76,0,0,0,133.5,261.79Zm-2.68-.11-.12.3a3,3,0,0,0,.46.34,14.86,14.86,0,0,1,3.91,2.86c.83.94,1.44,1.93.84,3.3.93,0,1.79,0,2.64,0a.77.77,0,0,0,.65-1.23,5.61,5.61,0,0,0-1.32-1.61q-2.4-1.75-4.93-3.29A9,9,0,0,0,130.82,261.68Z"/><path class="cls-1" d="M104.06,279.11c-1-1.31-.63-2.8.71-3C104.57,277.09,104.86,278.18,104.06,279.11Z"/><path class="cls-1" d="M105.54,284.84c-.41,0-.81.12-1,0a1.11,1.11,0,0,1-.35-.85,10,10,0,0,1,.2-1.51C105.28,283,105.21,283.91,105.54,284.84Z"/><path class="cls-1" d="M102.88,279.17c1.3,1,1.37,2.19.22,3.25Z"/><path class="cls-1" d="M106.66,280.48l-.17,2.38c-.52-.26-.88-.54-.88-1.11S105.87,280.71,106.66,280.48Z"/><path class="cls-1" d="M105.69,279.39c-.62-.7-.61-1,0-2.13C106.5,278.1,106.49,278.94,105.69,279.39Z"/><path class="cls-1" d="M143.26,279.39a8.52,8.52,0,0,0-.37,13.2,3,3,0,0,1-1.7-1,7.65,7.65,0,0,1-2.13-6.52,7.29,7.29,0,0,1,2.71-5,12.92,12.92,0,0,1,1.42-.88Z"/><path class="cls-1" d="M144.28,290.89v-.41c0-1.18,0-1.2,1.19-1.44a.81.81,0,0,1,1.06.55c.23.55.53,1.08.79,1.63s.11.8-.48.91-1.23.17-1.85.27-.75-.17-.72-.69C144.29,291.44,144.28,291.16,144.28,290.89Z"/><path class="cls-1" d="M150.28,285.61c-.2,1.18-.38,2.33-.61,3.47,0,.08-.37.19-.45.13a18.33,18.33,0,0,1-1.45-1.19.82.82,0,0,1-.19-.51,3.77,3.77,0,0,1,.11-.75c.21-1,.29-1.06,1.25-1.14C149.37,285.58,149.8,285.61,150.28,285.61Z"/><path class="cls-1" d="M142.54,284.62l-.8-.93c-.68-.83-.72-.94-.06-1.82.48-.64,1.06-1.21,1.59-1.82l.23.08a12.57,12.57,0,0,1,.17,2.79C143.59,283.5,143,284,142.54,284.62Z"/><path class="cls-1" d="M141.65,290a5.19,5.19,0,0,1-1.08-3.37.79.79,0,0,1,.49-.55c.42-.12,1-.24,1.21.25C143.09,287.91,143.23,288.87,141.65,290Z"/><path class="cls-1" d="M144.87,287.21c.73-1.22.73-1.22.3-2.89a1.63,1.63,0,0,1,.73,1.85A1.14,1.14,0,0,1,144.87,287.21Z"/><path class="cls-1" d="M144.31,284.52c.69,0,.95.56.66,1.58Z"/><path class="cls-1" d="M159.86,281.43c1.57,0,1.82-1.41,2.39-2.47l.2.1c-.12.37-.21.75-.35,1.11a8.92,8.92,0,0,1-.56,1.35C161.09,282.33,160.38,282.29,159.86,281.43Z"/><path class="cls-2" d="M133.5,261.79a8.76,8.76,0,0,1,3.55.35,20.94,20.94,0,0,1,6.13,3.85,17.41,17.41,0,0,1,1.51,1.79c.21.26.1.47-.22.47-1.54,0-3.08,0-4.69,0a1.62,1.62,0,0,0-.42-1.88,19.14,19.14,0,0,0-5.36-4.05l-.57-.35Z"/><path class="cls-2" d="M130.82,261.68a9,9,0,0,1,2.13.65q2.53,1.53,4.93,3.29a5.61,5.61,0,0,1,1.32,1.61.77.77,0,0,1-.65,1.23c-.85.06-1.71,0-2.64,0,.6-1.37,0-2.36-.84-3.3a14.86,14.86,0,0,0-3.91-2.86,3,3,0,0,1-.46-.34Z"/><path class="cls-1" d="M93.55,101a6.5,6.5,0,0,1-4.28,1.36H84.58a.39.39,0,0,1-.34-.16.41.41,0,0,1-.09-.37l2.7-12.67a.69.69,0,0,1,.23-.38.62.62,0,0,1,.4-.15h4.44a5.62,5.62,0,0,1,2.45.51A3.73,3.73,0,0,1,96,90.6a4.18,4.18,0,0,1,.58,2.24,7.33,7.33,0,0,1-.11,1.2c-.23,1.13-.45,2.16-.67,3.1A6.76,6.76,0,0,1,93.55,101ZM88.44,90.39l-2.15,10.2h3a4.61,4.61,0,0,0,3.2-1A4.82,4.82,0,0,0,94,96.94c.23-.94.44-1.9.63-2.9A7.79,7.79,0,0,0,94.72,93c0-1.71-1-2.57-3-2.57Z"/><path class="cls-1" d="M107.27,97.23a8.89,8.89,0,0,1-.23,1,6.62,6.62,0,0,1-2,3.2,5.11,5.11,0,0,1-3.42,1.17,4,4,0,0,1-2.86-1,3.58,3.58,0,0,1-1.07-2.72c0-.13,0-.34,0-.63a6.1,6.1,0,0,1,.16-.89c.09-.4.17-.72.23-1a6.45,6.45,0,0,1,2-3.18,5.13,5.13,0,0,1,3.37-1.2,4,4,0,0,1,2.86,1,3.55,3.55,0,0,1,1.08,2.71c0,.14,0,.36,0,.65A8.25,8.25,0,0,1,107.27,97.23Zm-1.6-1.42a1.9,1.9,0,0,0-2.14-2.16,3.59,3.59,0,0,0-2.3.77,4,4,0,0,0-1.33,2,10.79,10.79,0,0,0-.35,1.65,4.38,4.38,0,0,0,0,.53,2.4,2.4,0,0,0,.54,1.64,2,2,0,0,0,1.58.62,3.58,3.58,0,0,0,2.3-.78,3.85,3.85,0,0,0,1.34-2,10,10,0,0,0,.36-1.65C105.65,96.15,105.67,95.94,105.67,95.81Z"/><path class="cls-1" d="M117.56,102.2a.58.58,0,0,1-.4.16h-.72a.42.42,0,0,1-.35-.16.47.47,0,0,1-.09-.37l1.1-5.18a6.64,6.64,0,0,0,.14-1.1c0-1.27-.68-1.9-2-1.9a3.56,3.56,0,0,0-2.34.76,3.78,3.78,0,0,0-1.25,2.24l-1.1,5.18a.65.65,0,0,1-.22.37.61.61,0,0,1-.41.16h-.72a.42.42,0,0,1-.35-.16.43.43,0,0,1-.08-.37l1.94-9.14a.55.55,0,0,1,.23-.37.63.63,0,0,1,.42-.16H112a.4.4,0,0,1,.34.16.46.46,0,0,1,.07.37l-.11.61a4.75,4.75,0,0,1,1.29-1,3.8,3.8,0,0,1,1.79-.37,3.89,3.89,0,0,1,2.68.87,3,3,0,0,1,1,2.41,6.52,6.52,0,0,1-.11,1.12l-1.18,5.47A.62.62,0,0,1,117.56,102.2Z"/><path class="cls-1" d="M129.47,102.2a.58.58,0,0,1-.4.16h-.73a.4.4,0,0,1-.34-.16.41.41,0,0,1-.09-.37l1.1-5.18a6.64,6.64,0,0,0,.14-1.1c0-1.27-.68-1.9-2-1.9a3.59,3.59,0,0,0-2.35.76,3.82,3.82,0,0,0-1.24,2.24l-1.1,5.18a.62.62,0,0,1-.23.37.58.58,0,0,1-.4.16h-.73a.41.41,0,0,1-.34-.16.47.47,0,0,1-.09-.37l2-9.14a.55.55,0,0,1,.23-.37.63.63,0,0,1,.41-.16H124a.38.38,0,0,1,.33.16.43.43,0,0,1,.08.37l-.12.61a4.8,4.8,0,0,1,1.3-1,3.76,3.76,0,0,1,1.78-.37,3.9,3.9,0,0,1,2.69.87,3,3,0,0,1,1,2.41,5.7,5.7,0,0,1-.12,1.12l-1.17,5.47A.67.67,0,0,1,129.47,102.2Z"/><path class="cls-1" d="M141.29,93a3.88,3.88,0,0,1,1,2.81,5,5,0,0,1-.1,1.09l-.1.53a.77.77,0,0,1-.24.38.64.64,0,0,1-.4.15h-6.83a5.52,5.52,0,0,0,0,.59,2.42,2.42,0,0,0,.55,1.69,1.89,1.89,0,0,0,1.45.61,3.87,3.87,0,0,0,1.55-.26,4.33,4.33,0,0,0,1.1-.72,1.43,1.43,0,0,1,.33-.22.9.9,0,0,1,.36-.06h.88a.41.41,0,0,1,.29.1.32.32,0,0,1,.12.25.54.54,0,0,1,0,.18,4.71,4.71,0,0,1-1.59,1.64,5.17,5.17,0,0,1-3,.77,4.11,4.11,0,0,1-2-.48,3.18,3.18,0,0,1-1.32-1.35,4.12,4.12,0,0,1-.46-2c0-.13,0-.35,0-.67a9.37,9.37,0,0,1,.38-1.8,6.44,6.44,0,0,1,2-3.1A5,5,0,0,1,138.56,92,3.64,3.64,0,0,1,141.29,93Zm-.67,2.75a2.06,2.06,0,0,0-.58-1.54,2.11,2.11,0,0,0-1.58-.58,3.25,3.25,0,0,0-2.05.74,4.3,4.3,0,0,0-1.38,2h5.53A2.91,2.91,0,0,0,140.62,95.77Z"/><path class="cls-1" d="M150.59,92.32a.46.46,0,0,1,.08.37l-.14.63a.65.65,0,0,1-.23.37.62.62,0,0,1-.4.15H149a3.11,3.11,0,0,0-1.92.59,2.69,2.69,0,0,0-1,1.67l-1.22,5.73a.62.62,0,0,1-.23.37.57.57,0,0,1-.4.16h-.72a.42.42,0,0,1-.35-.16.43.43,0,0,1-.08-.37L145,92.69a.55.55,0,0,1,.23-.37.63.63,0,0,1,.41-.16h.73a.37.37,0,0,1,.33.16.43.43,0,0,1,.08.37l-.11.61a3.11,3.11,0,0,1,1.08-.88,3.62,3.62,0,0,1,1.45-.26h1.09A.39.39,0,0,1,150.59,92.32Z"/><path class="cls-1" d="M156.85,102.2a.57.57,0,0,1-.4.16h-.72a.42.42,0,0,1-.35-.16.43.43,0,0,1-.08-.37L158,89a.62.62,0,0,1,.23-.37.57.57,0,0,1,.4-.16h.72a.42.42,0,0,1,.35.16.47.47,0,0,1,.09.37l-2.75,12.87A.62.62,0,0,1,156.85,102.2Z"/><path class="cls-1" d="M162.12,88.66a.92.92,0,0,1,.63-.23h1.14a.35.35,0,0,1,.26.1.33.33,0,0,1,.11.25.66.66,0,0,1-.08.22l-1.59,2.65a1.44,1.44,0,0,1-.38.44,1,1,0,0,1-.58.19h-.49a.34.34,0,0,1-.29-.15.29.29,0,0,1,0-.33l.94-2.6A1.34,1.34,0,0,1,162.12,88.66Z"/><path class="cls-1" d="M172.46,92.69a.62.62,0,0,1,.22-.37.61.61,0,0,1,.41-.16h.72a.42.42,0,0,1,.35.16.43.43,0,0,1,.08.37l-1.94,9.14a.6.6,0,0,1-.22.37.61.61,0,0,1-.41.16H171a.39.39,0,0,1-.34-.16.41.41,0,0,1-.09-.37l.13-.61a3.64,3.64,0,0,1-1.23,1,4.18,4.18,0,0,1-1.83.34,3.35,3.35,0,0,1-2.58-1,4,4,0,0,1-1-2.79,6.4,6.4,0,0,1,.08-1,10.35,10.35,0,0,1,.28-1.28,6.15,6.15,0,0,1,1.91-3.29A4.83,4.83,0,0,1,169.54,92a3.76,3.76,0,0,1,1.81.4,2.32,2.32,0,0,1,1,.94Zm-.77,3.12a2.12,2.12,0,0,0-.56-1.6,2.15,2.15,0,0,0-1.61-.56,3.08,3.08,0,0,0-2.15.81,4.48,4.48,0,0,0-1.27,2.25,8.09,8.09,0,0,0-.23,1.1,7.88,7.88,0,0,0-.08.82,2.39,2.39,0,0,0,.53,1.65,1.88,1.88,0,0,0,1.47.59,3.53,3.53,0,0,0,2.21-.76,3.58,3.58,0,0,0,1.32-2,15.73,15.73,0,0,0,.31-1.55A5.12,5.12,0,0,0,171.69,95.81Z"/><path class="cls-1" d="M182.66,92.32a.46.46,0,0,1,.08.37l-.14.63a.68.68,0,0,1-.22.37.65.65,0,0,1-.41.15H181a3.11,3.11,0,0,0-1.92.59,2.78,2.78,0,0,0-1,1.67l-1.22,5.73a.67.67,0,0,1-.62.53h-.73a.4.4,0,0,1-.34-.16.41.41,0,0,1-.09-.37L177,92.69a.59.59,0,0,1,.23-.37.65.65,0,0,1,.42-.16h.72a.39.39,0,0,1,.34.16.46.46,0,0,1,.07.37l-.11.61a3.14,3.14,0,0,1,1.09-.88,3.53,3.53,0,0,1,1.44-.26h1.1A.38.38,0,0,1,182.66,92.32Z"/><path class="cls-1" d="M190.19,92.35a2.37,2.37,0,0,1,1,1l.14-.61a.56.56,0,0,1,.24-.37.61.61,0,0,1,.41-.16h.72a.39.39,0,0,1,.34.16.46.46,0,0,1,.08.37l-2.08,9.79a5.31,5.31,0,0,1-1.75,3.16,5.64,5.64,0,0,1-3.61,1,5.46,5.46,0,0,1-2.21-.4,3.45,3.45,0,0,1-1.37-1,2.05,2.05,0,0,1-.46-1.24,1.42,1.42,0,0,1,0-.26.62.62,0,0,1,.23-.37.65.65,0,0,1,.42-.16h.58a.49.49,0,0,1,.36.12.71.71,0,0,1,.17.41c.21.83,1,1.24,2.26,1.24,2,0,3.22-.85,3.57-2.53l.28-1.24a4.91,4.91,0,0,1-1.36,1,4.22,4.22,0,0,1-1.84.36,3.42,3.42,0,0,1-2.62-1,3.83,3.83,0,0,1-1-2.76,5.33,5.33,0,0,1,.08-1c0-.33.14-.76.27-1.3A6.44,6.44,0,0,1,184.27,94a5.46,5.46,0,0,1,1.86-1.55,4.92,4.92,0,0,1,2.2-.53A3.94,3.94,0,0,1,190.19,92.35Zm-4.07,2.12a4.42,4.42,0,0,0-1.3,2.24,9.79,9.79,0,0,0-.24,1.1,4.74,4.74,0,0,0-.08.86,2.36,2.36,0,0,0,.52,1.63,2,2,0,0,0,1.58.57,3.65,3.65,0,0,0,2.3-.79A3.78,3.78,0,0,0,190.27,98q.19-.83.3-1.41a5.31,5.31,0,0,0,.05-.68,2.16,2.16,0,0,0-.6-1.64,2.34,2.34,0,0,0-1.69-.58A3.22,3.22,0,0,0,186.12,94.47Z"/><path class="cls-1" d="M202.94,93a3.88,3.88,0,0,1,1,2.81,5.77,5.77,0,0,1-.09,1.09l-.1.53a.73.73,0,0,1-.25.38.62.62,0,0,1-.4.15h-6.83c0,.27,0,.46,0,.59a2.47,2.47,0,0,0,.55,1.69,1.89,1.89,0,0,0,1.46.61,3.78,3.78,0,0,0,1.54-.26,4.33,4.33,0,0,0,1.1-.72,1.46,1.46,0,0,1,.34-.22.88.88,0,0,1,.35-.06h.88a.44.44,0,0,1,.3.1.31.31,0,0,1,.11.25.82.82,0,0,1,0,.18,4.8,4.8,0,0,1-1.59,1.64,5.19,5.19,0,0,1-3,.77,4.12,4.12,0,0,1-2-.48,3.3,3.3,0,0,1-1.32-1.35,4.12,4.12,0,0,1-.46-2c0-.13,0-.35,0-.67a9.31,9.31,0,0,1,.37-1.8,6.52,6.52,0,0,1,2-3.1A5,5,0,0,1,200.22,92,3.63,3.63,0,0,1,202.94,93Zm-.66,2.75a2.1,2.1,0,0,0-.58-1.54,2.12,2.12,0,0,0-1.58-.58,3.28,3.28,0,0,0-2.06.74,4.21,4.21,0,0,0-1.37,2h5.53A2.91,2.91,0,0,0,202.28,95.77Z"/><path class="cls-1" d="M213.76,102.2a.58.58,0,0,1-.4.16h-.73a.41.41,0,0,1-.34-.16.47.47,0,0,1-.09-.37l1.1-5.18a6.64,6.64,0,0,0,.14-1.1c0-1.27-.68-1.9-2-1.9a3.59,3.59,0,0,0-2.35.76,3.82,3.82,0,0,0-1.24,2.24l-1.1,5.18a.62.62,0,0,1-.23.37.57.57,0,0,1-.4.16h-.72a.42.42,0,0,1-.35-.16.47.47,0,0,1-.09-.37l2-9.14a.55.55,0,0,1,.23-.37.63.63,0,0,1,.41-.16h.73a.38.38,0,0,1,.33.16.43.43,0,0,1,.08.37l-.12.61a5,5,0,0,1,1.3-1,3.76,3.76,0,0,1,1.78-.37,3.9,3.9,0,0,1,2.69.87,3,3,0,0,1,1,2.41,5.7,5.7,0,0,1-.12,1.12L214,101.83A.62.62,0,0,1,213.76,102.2Z"/><path class="cls-1" d="M219.93,99.69a.92.92,0,0,0,.29.77,1.47,1.47,0,0,0,.89.21h1.23a.39.39,0,0,1,.34.16.47.47,0,0,1,.08.37l-.14.63a.62.62,0,0,1-.23.37.58.58,0,0,1-.4.16h-1.08a3.22,3.22,0,0,1-2.06-.59,2.17,2.17,0,0,1-.72-1.79,6.05,6.05,0,0,1,.11-1l1.08-5.09h-1.45a.42.42,0,0,1-.34-.15.41.41,0,0,1-.09-.37l.14-.63a.55.55,0,0,1,.23-.37.63.63,0,0,1,.41-.16h1.48l.66-3.2a.62.62,0,0,1,.23-.37.58.58,0,0,1,.4-.16h.73a.41.41,0,0,1,.34.16.47.47,0,0,1,.09.37l-.67,3.2H224a.39.39,0,0,1,.34.16.46.46,0,0,1,.07.37l-.13.63a.65.65,0,0,1-.23.37.62.62,0,0,1-.4.15h-2.49L220,98.93A3.76,3.76,0,0,0,219.93,99.69Z"/><path class="cls-1" d="M84.93,129.09a.62.62,0,0,1-.22.38.65.65,0,0,1-.41.15h-.72a.44.44,0,0,1-.35-.15.46.46,0,0,1-.08-.38l2.74-12.86a.64.64,0,0,1,.23-.38.62.62,0,0,1,.4-.15h.73a.43.43,0,0,1,.34.15.5.5,0,0,1,.09.38l-.14.6a5.13,5.13,0,0,1,1.33-1,4.3,4.3,0,0,1,1.83-.35,3.7,3.7,0,0,1,1.9.48,3.38,3.38,0,0,1,1.29,1.36,4.44,4.44,0,0,1,.46,2,6,6,0,0,1-.08,1,10.28,10.28,0,0,1-.28,1.27A6.09,6.09,0,0,1,92,124.93a5,5,0,0,1-3.28,1.16,4,4,0,0,1-1.87-.39,2.41,2.41,0,0,1-1-.94Zm1.57-7a2.19,2.19,0,0,0,.65,1.67,2.3,2.3,0,0,0,1.63.61,3.2,3.2,0,0,0,2.2-.83,4.41,4.41,0,0,0,1.31-2.23,8.43,8.43,0,0,0,.23-1.1,5.4,5.4,0,0,0,.06-.77A2.38,2.38,0,0,0,92,117.8a1.92,1.92,0,0,0-1.53-.61,3.74,3.74,0,0,0-2.32.74,3.66,3.66,0,0,0-1.31,2c-.13.54-.23,1.06-.31,1.55A3.36,3.36,0,0,0,86.5,122.13Z"/><path class="cls-1" d="M105.47,120.77c-.08.37-.16.69-.24,1a6.55,6.55,0,0,1-2,3.2,5.11,5.11,0,0,1-3.42,1.17,4,4,0,0,1-2.86-1,3.59,3.59,0,0,1-1.06-2.72c0-.13,0-.34,0-.63a5.78,5.78,0,0,1,.15-.89q.14-.6.24-1a6.35,6.35,0,0,1,2-3.17,5.09,5.09,0,0,1,3.36-1.2,4,4,0,0,1,2.87,1,3.58,3.58,0,0,1,1.08,2.71c0,.14,0,.36,0,.64S105.55,120.4,105.47,120.77Zm-1.61-1.42a1.9,1.9,0,0,0-2.14-2.16,3.56,3.56,0,0,0-2.29.77,4.05,4.05,0,0,0-1.34,2,13.86,13.86,0,0,0-.35,1.65,4.38,4.38,0,0,0,0,.53,2.4,2.4,0,0,0,.54,1.64,2,2,0,0,0,1.58.62,3.54,3.54,0,0,0,2.3-.78,3.92,3.92,0,0,0,1.35-2,10,10,0,0,0,.35-1.65A6.14,6.14,0,0,0,103.86,119.35Z"/><path class="cls-1" d="M109,115.85a.67.67,0,0,1,.41-.15h.73a.4.4,0,0,1,.33.15.46.46,0,0,1,.08.38l-1.1,5.18a5.91,5.91,0,0,0-.14,1.07,2,2,0,0,0,.5,1.45,2,2,0,0,0,1.47.48,3.35,3.35,0,0,0,2.21-.78,3.8,3.8,0,0,0,1.26-2.22l1.1-5.18a.59.59,0,0,1,.23-.38.67.67,0,0,1,.41-.15h.73a.4.4,0,0,1,.33.15.46.46,0,0,1,.08.38l-1.94,9.14a.62.62,0,0,1-.23.37.57.57,0,0,1-.4.16h-.72a.42.42,0,0,1-.35-.16.47.47,0,0,1-.09-.37l.14-.61a5.23,5.23,0,0,1-1.27,1,3.61,3.61,0,0,1-1.69.36,3.89,3.89,0,0,1-2.66-.84,3,3,0,0,1-1-2.37,5.08,5.08,0,0,1,.14-1.18l1.16-5.47A.59.59,0,0,1,109,115.85Z"/><path class="cls-1" d="M125.73,115.85a.46.46,0,0,1,.08.38l-.14.62a.62.62,0,0,1-.22.38.64.64,0,0,1-.4.15h-1a3.15,3.15,0,0,0-1.92.59,2.78,2.78,0,0,0-1,1.67L120,125.37a.67.67,0,0,1-.23.37.58.58,0,0,1-.4.16h-.73a.4.4,0,0,1-.34-.16.41.41,0,0,1-.09-.37l1.94-9.14a.65.65,0,0,1,.24-.38.67.67,0,0,1,.41-.15h.73a.4.4,0,0,1,.33.15.49.49,0,0,1,.08.38l-.12.6a3.22,3.22,0,0,1,1.09-.87,3.53,3.53,0,0,1,1.44-.26h1.1A.4.4,0,0,1,125.73,115.85Z"/><path class="cls-1" d="M139.15,116.23a.64.64,0,0,1,.23-.38.6.6,0,0,1,.4-.15h.72a.44.44,0,0,1,.35.15.46.46,0,0,1,.08.38L139,125.37a.67.67,0,0,1-.62.53h-.73a.4.4,0,0,1-.34-.16.41.41,0,0,1-.09-.37l.13-.61a3.64,3.64,0,0,1-1.23,1,4.16,4.16,0,0,1-1.82.34,3.32,3.32,0,0,1-2.58-1,3.94,3.94,0,0,1-1-2.79,6.4,6.4,0,0,1,.08-1,10.35,10.35,0,0,1,.28-1.28,6.15,6.15,0,0,1,1.91-3.29,4.83,4.83,0,0,1,3.23-1.16,3.65,3.65,0,0,1,1.81.4,2.36,2.36,0,0,1,1,.93Zm-.77,3.12a2.16,2.16,0,0,0-.55-1.6,2.19,2.19,0,0,0-1.62-.56,3.08,3.08,0,0,0-2.15.81,4.44,4.44,0,0,0-1.27,2.25,8.09,8.09,0,0,0-.23,1.1,7.88,7.88,0,0,0-.08.82,2.39,2.39,0,0,0,.53,1.65,1.88,1.88,0,0,0,1.47.59,3.53,3.53,0,0,0,2.21-.76,3.58,3.58,0,0,0,1.32-2c.13-.54.24-1,.32-1.55A5,5,0,0,0,138.38,119.35Z"/><path class="cls-1" d="M143.49,125.74a.57.57,0,0,1-.4.16h-.72a.42.42,0,0,1-.35-.16.43.43,0,0,1-.08-.37l1.94-9.14a.59.59,0,0,1,.23-.38.67.67,0,0,1,.41-.15h.73a.4.4,0,0,1,.33.15.46.46,0,0,1,.08.38l-1.94,9.14A.62.62,0,0,1,143.49,125.74ZM146.18,114a.58.58,0,0,1-.4.16h-1.12a.4.4,0,0,1-.34-.16.37.37,0,0,1-.07-.37l.24-1.12a.67.67,0,0,1,.62-.53h1.12a.39.39,0,0,1,.34.16.41.41,0,0,1,.09.37l-.23,1.12A.7.7,0,0,1,146.18,114Z"/><path class="cls-1" d="M156.37,112.5a.62.62,0,0,1,.23-.37.58.58,0,0,1,.4-.16h.73a.41.41,0,0,1,.34.16.47.47,0,0,1,.09.37l-2.75,12.87a.65.65,0,0,1-.22.37.61.61,0,0,1-.41.16h-.72a.42.42,0,0,1-.35-.16.43.43,0,0,1-.08-.37l.13-.61a4.76,4.76,0,0,1-1.33,1,4.07,4.07,0,0,1-1.82.35,3.74,3.74,0,0,1-1.91-.48,3.24,3.24,0,0,1-1.28-1.36,4.32,4.32,0,0,1-.46-2,5.05,5.05,0,0,1,.08-1,10,10,0,0,1,.27-1.28,6.18,6.18,0,0,1,1.95-3.28,5,5,0,0,1,3.29-1.17,4,4,0,0,1,1.86.39,2.48,2.48,0,0,1,1,.94Zm-1.57,7a2.16,2.16,0,0,0-.64-1.66,2.29,2.29,0,0,0-1.63-.61,3.22,3.22,0,0,0-2.21.82,4.35,4.35,0,0,0-1.3,2.24,8,8,0,0,0-.24,1.1,5.27,5.27,0,0,0-.06.76,2.47,2.47,0,0,0,.55,1.69,2,2,0,0,0,1.53.61,3.73,3.73,0,0,0,2.27-.77,3.62,3.62,0,0,0,1.36-2c.13-.55.24-1.06.31-1.55A3.52,3.52,0,0,0,154.8,119.46Z"/><path class="cls-1" d="M167.12,116.56a3.88,3.88,0,0,1,1,2.81,5.06,5.06,0,0,1-.1,1.09L168,121a.73.73,0,0,1-.25.38.62.62,0,0,1-.4.15h-6.83c0,.27,0,.46,0,.59a2.47,2.47,0,0,0,.55,1.69,1.89,1.89,0,0,0,1.45.61,3.84,3.84,0,0,0,1.55-.26,4.33,4.33,0,0,0,1.1-.72,1.28,1.28,0,0,1,.34-.22.88.88,0,0,1,.35-.06h.88a.44.44,0,0,1,.3.1.33.33,0,0,1,.11.25.54.54,0,0,1,0,.18,4.76,4.76,0,0,1-1.58,1.64,5.2,5.2,0,0,1-3,.77,4.11,4.11,0,0,1-2-.48,3.3,3.3,0,0,1-1.32-1.35,4.12,4.12,0,0,1-.46-2c0-.13,0-.36,0-.67a8.61,8.61,0,0,1,.37-1.8,6.52,6.52,0,0,1,2-3.1,5,5,0,0,1,3.32-1.22A3.59,3.59,0,0,1,167.12,116.56Zm-.66,2.75a2.1,2.1,0,0,0-.58-1.54,2.14,2.14,0,0,0-1.58-.58,3.28,3.28,0,0,0-2.06.74,4.23,4.23,0,0,0-1.37,1.94h5.53A2.74,2.74,0,0,0,166.46,119.31Z"/><path class="cls-1" d="M176.42,115.85a.49.49,0,0,1,.08.38l-.14.62a.62.62,0,0,1-.22.38.65.65,0,0,1-.41.15h-.94a3.11,3.11,0,0,0-1.92.59,2.78,2.78,0,0,0-1,1.67l-1.22,5.73a.67.67,0,0,1-.62.53h-.73a.4.4,0,0,1-.34-.16.41.41,0,0,1-.09-.37l1.94-9.14a.61.61,0,0,1,.24-.38.65.65,0,0,1,.41-.15h.72a.41.41,0,0,1,.34.15.49.49,0,0,1,.08.38l-.12.6a3.22,3.22,0,0,1,1.09-.87,3.53,3.53,0,0,1,1.44-.26h1.1A.4.4,0,0,1,176.42,115.85Z"/><path class="cls-1" d="M190.84,112.5a.67.67,0,0,1,.62-.53h.73a.39.39,0,0,1,.34.16.41.41,0,0,1,.09.37l-2.74,12.87a.67.67,0,0,1-.23.37.58.58,0,0,1-.4.16h-.73a.4.4,0,0,1-.34-.16.41.41,0,0,1-.09-.37l.14-.61a4.81,4.81,0,0,1-1.34,1,4.07,4.07,0,0,1-1.82.35,3.7,3.7,0,0,1-1.9-.48,3.32,3.32,0,0,1-1.29-1.36,4.44,4.44,0,0,1-.46-2,6,6,0,0,1,.08-1,12.06,12.06,0,0,1,.27-1.28,6.13,6.13,0,0,1,2-3.28A5,5,0,0,1,187,115.5a4,4,0,0,1,1.87.39,2.54,2.54,0,0,1,1,.94Zm-1.57,7a2.17,2.17,0,0,0-.65-1.66,2.26,2.26,0,0,0-1.63-.61,3.2,3.2,0,0,0-2.2.82,4.44,4.44,0,0,0-1.31,2.24,8.09,8.09,0,0,0-.23,1.1,5.27,5.27,0,0,0-.06.76,2.42,2.42,0,0,0,.55,1.69,2,2,0,0,0,1.53.61,3.7,3.7,0,0,0,2.26-.77,3.64,3.64,0,0,0,1.37-2c.13-.55.23-1.06.31-1.55A3.52,3.52,0,0,0,189.27,119.46Z"/><path class="cls-1" d="M201.59,116.56a3.88,3.88,0,0,1,1,2.81,5.79,5.79,0,0,1-.1,1.09l-.1.53a.77.77,0,0,1-.24.38.65.65,0,0,1-.41.15h-6.82a5.52,5.52,0,0,0,0,.59,2.42,2.42,0,0,0,.55,1.69,1.87,1.87,0,0,0,1.45.61,3.87,3.87,0,0,0,1.55-.26,4.52,4.52,0,0,0,1.1-.72,1.43,1.43,0,0,1,.33-.22.88.88,0,0,1,.35-.06h.89a.43.43,0,0,1,.29.1.3.3,0,0,1,.12.25.54.54,0,0,1,0,.18,4.71,4.71,0,0,1-1.59,1.64,5.17,5.17,0,0,1-3,.77,4.08,4.08,0,0,1-2-.48,3.26,3.26,0,0,1-1.33-1.35,4.24,4.24,0,0,1-.46-2c0-.13,0-.36,0-.67a8.67,8.67,0,0,1,.38-1.8,6.44,6.44,0,0,1,2-3.1,5,5,0,0,1,3.31-1.22A3.6,3.6,0,0,1,201.59,116.56Zm-.67,2.75a2.06,2.06,0,0,0-.58-1.54,2.11,2.11,0,0,0-1.58-.58,3.3,3.3,0,0,0-2.06.74,4.38,4.38,0,0,0-1.37,1.94h5.53A2.74,2.74,0,0,0,200.92,119.31Z"/><path class="cls-1" d="M204.8,119a3.39,3.39,0,0,1,1.41-2.76,4.77,4.77,0,0,1,2.87-.77,5.35,5.35,0,0,1,2,.33,2.89,2.89,0,0,1,1.2.85,1.73,1.73,0,0,1,.38,1,.47.47,0,0,1-.2.37.64.64,0,0,1-.43.16h-.65a.55.55,0,0,1-.54-.28,1.56,1.56,0,0,0-.59-.58,2.66,2.66,0,0,0-1.18-.2,3.58,3.58,0,0,0-1.84.41,1.26,1.26,0,0,0-.69,1.14.75.75,0,0,0,.26.58,2.32,2.32,0,0,0,.82.39c.36.11.92.25,1.67.42,1.72.41,2.58,1.21,2.58,2.41a4.68,4.68,0,0,1-.07.67,3.38,3.38,0,0,1-1.43,2.07,5.28,5.28,0,0,1-3.1.81,5.68,5.68,0,0,1-2-.33,3.34,3.34,0,0,1-1.33-.83,1.55,1.55,0,0,1-.45-1,.64.64,0,0,1,.18-.45.52.52,0,0,1,.43-.2h.7a.58.58,0,0,1,.55.25,2,2,0,0,0,1.93.91,4.22,4.22,0,0,0,1.85-.39,1.46,1.46,0,0,0,.93-1,1.21,1.21,0,0,0,0-.23.75.75,0,0,0-.32-.62,2.91,2.91,0,0,0-.9-.41c-.38-.11-1-.26-1.78-.44C205.56,121,204.8,120.25,204.8,119Z"/><path class="cls-1" d="M92.68,140.1a3.87,3.87,0,0,1,1,2.8,5.09,5.09,0,0,1-.1,1.1l-.1.53a.77.77,0,0,1-.24.38.64.64,0,0,1-.4.15H86a5.36,5.36,0,0,0,0,.59,2.42,2.42,0,0,0,.55,1.69A1.89,1.89,0,0,0,88,148a3.84,3.84,0,0,0,1.55-.26,4.13,4.13,0,0,0,1.1-.73,1.73,1.73,0,0,1,.33-.21.9.9,0,0,1,.36-.06h.88a.41.41,0,0,1,.29.1.3.3,0,0,1,.12.25.54.54,0,0,1,0,.18A4.71,4.71,0,0,1,91,148.86a5.25,5.25,0,0,1-3,.77,4.11,4.11,0,0,1-2-.48,3.24,3.24,0,0,1-1.32-1.35,4.12,4.12,0,0,1-.46-2c0-.13,0-.36,0-.67a8.61,8.61,0,0,1,.37-1.8,6.44,6.44,0,0,1,2-3.1A5,5,0,0,1,90,139,3.6,3.6,0,0,1,92.68,140.1ZM92,142.85a2,2,0,0,0-.58-1.54,2.1,2.1,0,0,0-1.57-.58,3.26,3.26,0,0,0-2.06.74,4.33,4.33,0,0,0-1.38,1.94H92A2.74,2.74,0,0,0,92,142.85Z"/><path class="cls-1" d="M103.46,149.28a.66.66,0,0,1-.4.16h-.73a.43.43,0,0,1-.34-.16.41.41,0,0,1-.09-.37l1.1-5.18a6.5,6.5,0,0,0,.13-1.1c0-1.27-.67-1.9-2-1.9a3.56,3.56,0,0,0-2.34.76,3.83,3.83,0,0,0-1.25,2.24l-1.09,5.18a.65.65,0,0,1-.23.37.64.64,0,0,1-.4.16h-.73a.44.44,0,0,1-.34-.16.48.48,0,0,1-.09-.37l1.94-9.14a.65.65,0,0,1,.24-.38.67.67,0,0,1,.41-.15h.73a.4.4,0,0,1,.33.15.46.46,0,0,1,.08.38l-.12.6a5.07,5.07,0,0,1,1.3-1,3.89,3.89,0,0,1,1.78-.36,4,4,0,0,1,2.69.86,3.07,3.07,0,0,1,1,2.42,5.53,5.53,0,0,1-.12,1.11l-1.18,5.48A.63.63,0,0,1,103.46,149.28Z"/><path class="cls-1" d="M113.81,139.24a.4.4,0,0,1,.33.15.46.46,0,0,1,.08.38l-.14.62a.67.67,0,0,1-.22.38.65.65,0,0,1-.41.15H111l-1.7,8a.7.7,0,0,1-.23.37.64.64,0,0,1-.4.16h-.73a.43.43,0,0,1-.34-.16.41.41,0,0,1-.09-.37l1.71-8h-1.65a.42.42,0,0,1-.34-.15.43.43,0,0,1-.09-.38l.14-.62a.59.59,0,0,1,.23-.38.67.67,0,0,1,.41-.15h1.65l.22-1a4.61,4.61,0,0,1,1.26-2.54,3.94,3.94,0,0,1,2.68-.8h1.23a.39.39,0,0,1,.34.16.47.47,0,0,1,.08.37l-.14.63a.62.62,0,0,1-.23.37.57.57,0,0,1-.4.16h-1a2.57,2.57,0,0,0-1.15.21,1.33,1.33,0,0,0-.57.58,4,4,0,0,0-.3.95l-.19.89Z"/><path class="cls-1" d="M122.73,139.77a.64.64,0,0,1,.23-.38.6.6,0,0,1,.4-.15h.73a.43.43,0,0,1,.34.15.5.5,0,0,1,.09.38l-2,9.14a.63.63,0,0,1-.22.37.66.66,0,0,1-.4.16h-.73a.43.43,0,0,1-.34-.16.41.41,0,0,1-.09-.37l.14-.61a3.77,3.77,0,0,1-1.24,1,4.16,4.16,0,0,1-1.82.34,3.32,3.32,0,0,1-2.58-1,3.93,3.93,0,0,1-1-2.79,6.45,6.45,0,0,1,.07-1,12.64,12.64,0,0,1,.28-1.28,6.21,6.21,0,0,1,1.91-3.29,4.85,4.85,0,0,1,3.23-1.16,3.62,3.62,0,0,1,1.81.4,2.36,2.36,0,0,1,1,.93Zm-.76,3.11a2,2,0,0,0-2.18-2.15,3.09,3.09,0,0,0-2.15.81,4.42,4.42,0,0,0-1.26,2.25,8,8,0,0,0-.24,1.1,7.88,7.88,0,0,0-.08.82,2.4,2.4,0,0,0,.53,1.65,1.89,1.89,0,0,0,1.47.59,3.67,3.67,0,0,0,3.53-2.77c.13-.54.24-1.05.32-1.55A5.14,5.14,0,0,0,122,142.88Z"/><path class="cls-1" d="M134.16,149.28a.66.66,0,0,1-.4.16H133a.43.43,0,0,1-.34-.16.41.41,0,0,1-.09-.37l1.1-5.18a6.5,6.5,0,0,0,.13-1.1c0-1.27-.68-1.9-2-1.9a3.56,3.56,0,0,0-2.34.76,3.83,3.83,0,0,0-1.25,2.24l-1.09,5.18a.7.7,0,0,1-.23.37.64.64,0,0,1-.4.16h-.73a.43.43,0,0,1-.34-.16.45.45,0,0,1-.09-.37l1.94-9.14a.65.65,0,0,1,.24-.38.67.67,0,0,1,.41-.15h.73a.4.4,0,0,1,.33.15.49.49,0,0,1,.08.38l-.12.6a5.2,5.2,0,0,1,1.29-1,4.63,4.63,0,0,1,4.48.5,3.07,3.07,0,0,1,1,2.42,5.53,5.53,0,0,1-.12,1.11l-1.18,5.48A.63.63,0,0,1,134.16,149.28Z"/><path class="cls-1" d="M140.33,146.77a.89.89,0,0,0,.28.76,1.44,1.44,0,0,0,.89.22h1.24a.37.37,0,0,1,.33.16.43.43,0,0,1,.08.37l-.14.63a.63.63,0,0,1-.22.37.64.64,0,0,1-.4.16h-1.08a3.2,3.2,0,0,1-2.06-.59,2.15,2.15,0,0,1-.73-1.79,5.46,5.46,0,0,1,.12-1.06l1.08-5.08h-1.45a.44.44,0,0,1-.35-.15.46.46,0,0,1-.08-.38l.13-.62a.65.65,0,0,1,.24-.38.67.67,0,0,1,.41-.15h1.47l.67-3.2a.65.65,0,0,1,.22-.37.61.61,0,0,1,.41-.16h.72a.42.42,0,0,1,.35.16.43.43,0,0,1,.08.37l-.66,3.2h2.47a.4.4,0,0,1,.33.15.46.46,0,0,1,.08.38l-.14.62a.62.62,0,0,1-.22.38.64.64,0,0,1-.4.15h-2.5L140.43,146A3.93,3.93,0,0,0,140.33,146.77Z"/><path class="cls-1" d="M146,142.57a2.85,2.85,0,0,1,.08-.74,3.32,3.32,0,0,1,1.32-2,4.79,4.79,0,0,1,2.87-.76,5.35,5.35,0,0,1,2,.33,2.77,2.77,0,0,1,1.2.85,1.73,1.73,0,0,1,.38,1,.47.47,0,0,1-.19.37.72.72,0,0,1-.44.16h-.64a.57.57,0,0,1-.55-.28,1.56,1.56,0,0,0-.59-.58,2.66,2.66,0,0,0-1.18-.2,3.51,3.51,0,0,0-1.84.41,1.26,1.26,0,0,0-.69,1.14.74.74,0,0,0,.27.58,2.26,2.26,0,0,0,.81.39c.37.11.92.25,1.67.42,1.73.41,2.59,1.21,2.59,2.41a5.14,5.14,0,0,1-.08.67,3.36,3.36,0,0,1-1.42,2.07,5.31,5.31,0,0,1-3.11.81,5.72,5.72,0,0,1-2-.33,3.41,3.41,0,0,1-1.33-.83,1.55,1.55,0,0,1-.45-1,.69.69,0,0,1,.18-.46.56.56,0,0,1,.43-.19H146a.6.6,0,0,1,.55.25,2,2,0,0,0,1.92.91,4.22,4.22,0,0,0,1.85-.39,1.42,1.42,0,0,0,.93-.95.72.72,0,0,0,0-.23.73.73,0,0,0-.32-.62,2.64,2.64,0,0,0-.89-.41c-.38-.11-1-.26-1.79-.44Q146,144.4,146,142.57Z"/><path class="cls-1" d="M86.23,316.79l-1.57,2.61a1.26,1.26,0,0,1-.34.35.9.9,0,0,1-.53.14h-.88a.36.36,0,0,1-.35-.35.49.49,0,0,1,.06-.22l7.51-12.51a1.15,1.15,0,0,1,1-.65h1.26a.7.7,0,0,1,.74.65l2.16,12.37a1.12,1.12,0,0,1,0,.2.47.47,0,0,1-.51.51h-.65a.59.59,0,0,1-.67-.49L93,316.79ZM92.72,315l-1.22-7-4.21,7Z"/><path class="cls-1" d="M103,318a3.15,3.15,0,0,0,1.3-1.16,1.38,1.38,0,0,1,.37-.41.65.65,0,0,1,.4-.12h.72a.44.44,0,0,1,.37.16.37.37,0,0,1,.05.37,4.94,4.94,0,0,1-2.49,2.7,5.45,5.45,0,0,1-2.46.52,4.06,4.06,0,0,1-2-.5,3.5,3.5,0,0,1-1.33-1.37,3.9,3.9,0,0,1-.47-1.94,5.49,5.49,0,0,1,.06-.8,13.51,13.51,0,0,1,.33-1.57,6.42,6.42,0,0,1,2-3.18,5,5,0,0,1,3.32-1.24,4.41,4.41,0,0,1,2.25.51,3.32,3.32,0,0,1,1.27,1.25,3.1,3.1,0,0,1,.39,1.46.47.47,0,0,1-.18.37.56.56,0,0,1-.39.16h-.67a.48.48,0,0,1-.35-.12,1,1,0,0,1-.2-.41,2,2,0,0,0-.69-1.17,2.44,2.44,0,0,0-1.43-.36,3.68,3.68,0,0,0-2.15.74,3.88,3.88,0,0,0-1.47,2.18,11,11,0,0,0-.3,1.38c0,.28,0,.49,0,.6a2.46,2.46,0,0,0,.55,1.75,2,2,0,0,0,1.49.57A4.08,4.08,0,0,0,103,318Z"/><path class="cls-1" d="M116.8,319.73a.6.6,0,0,1-.4.16h-.73a.4.4,0,0,1-.34-.16.41.41,0,0,1-.09-.37l1.1-5.18a6.4,6.4,0,0,0,.13-1.1c0-1.27-.68-1.9-2-1.9a3.56,3.56,0,0,0-2.34.77,3.81,3.81,0,0,0-1.25,2.23l-1.09,5.18a.67.67,0,0,1-.23.37.58.58,0,0,1-.4.16h-.73a.4.4,0,0,1-.34-.16.41.41,0,0,1-.09-.37l2.75-12.87a.67.67,0,0,1,.62-.53h.73a.4.4,0,0,1,.34.16.41.41,0,0,1,.09.37l-.92,4.34a4.52,4.52,0,0,1,1.27-1,3.83,3.83,0,0,1,1.79-.37,3.9,3.9,0,0,1,2.7.88,3,3,0,0,1,1,2.4,5.7,5.7,0,0,1-.12,1.12L117,319.36A.6.6,0,0,1,116.8,319.73Z"/><path class="cls-1" d="M128.5,310.55a3.88,3.88,0,0,1,1,2.81,5.16,5.16,0,0,1-.1,1.1l-.1.53a.79.79,0,0,1-.24.37.66.66,0,0,1-.4.16h-6.83a5.22,5.22,0,0,0,0,.58,2.41,2.41,0,0,0,.55,1.69,1.85,1.85,0,0,0,1.45.61,3.87,3.87,0,0,0,1.55-.26,4.33,4.33,0,0,0,1.1-.72,1.43,1.43,0,0,1,.33-.22.9.9,0,0,1,.36-.06H128a.46.46,0,0,1,.29.1.32.32,0,0,1,.12.26.49.49,0,0,1,0,.17,4.71,4.71,0,0,1-1.59,1.64,5.17,5.17,0,0,1-3,.78,4.11,4.11,0,0,1-2-.48,3.21,3.21,0,0,1-1.32-1.36,4.12,4.12,0,0,1-.46-2c0-.13,0-.35,0-.67a9.37,9.37,0,0,1,.38-1.8,6.44,6.44,0,0,1,2-3.1,5,5,0,0,1,3.31-1.22A3.64,3.64,0,0,1,128.5,310.55Zm-.67,2.75a2.06,2.06,0,0,0-.58-1.54,2.11,2.11,0,0,0-1.58-.58,3.2,3.2,0,0,0-2,.75,4.22,4.22,0,0,0-1.38,1.94h5.53A2.91,2.91,0,0,0,127.83,313.3Z"/><path class="cls-1" d="M133.78,317.22a.92.92,0,0,0,.28.77,1.52,1.52,0,0,0,.89.21h1.24a.41.41,0,0,1,.33.16.43.43,0,0,1,.08.37l-.14.63a.67.67,0,0,1-.62.53h-1.08a3.2,3.2,0,0,1-2.06-.59,2.14,2.14,0,0,1-.73-1.78,5.29,5.29,0,0,1,.12-1.06l1.08-5.08h-1.45a.45.45,0,0,1-.35-.16.48.48,0,0,1-.09-.37l.14-.63a.63.63,0,0,1,.24-.37.61.61,0,0,1,.41-.16h1.47l.67-3.2a.6.6,0,0,1,.22-.37.61.61,0,0,1,.41-.16h.72a.4.4,0,0,1,.34.16.41.41,0,0,1,.09.37l-.66,3.2h2.47a.38.38,0,0,1,.33.16.43.43,0,0,1,.08.37l-.14.63a.63.63,0,0,1-.22.37.66.66,0,0,1-.41.16H135l-1.08,5.08A4.44,4.44,0,0,0,133.78,317.22Z"/><path class="cls-1" d="M147.13,310.55a3.88,3.88,0,0,1,1,2.81,6,6,0,0,1-.09,1.1l-.1.53a.74.74,0,0,1-.25.37.64.64,0,0,1-.4.16h-6.83c0,.26,0,.45,0,.58a2.45,2.45,0,0,0,.54,1.69,1.86,1.86,0,0,0,1.46.61,3.87,3.87,0,0,0,1.55-.26,4.29,4.29,0,0,0,1.09-.72,1.46,1.46,0,0,1,.34-.22.88.88,0,0,1,.35-.06h.88a.49.49,0,0,1,.3.1.32.32,0,0,1,.12.26,1,1,0,0,1,0,.17,4.71,4.71,0,0,1-1.59,1.64,5.19,5.19,0,0,1-3,.78,4.05,4.05,0,0,1-2-.48,3.29,3.29,0,0,1-1.33-1.36,4.12,4.12,0,0,1-.46-2c0-.13,0-.35,0-.67a9.31,9.31,0,0,1,.37-1.8,6.52,6.52,0,0,1,2-3.1,5,5,0,0,1,3.32-1.22A3.61,3.61,0,0,1,147.13,310.55Zm-.66,2.75a2.1,2.1,0,0,0-.58-1.54,2.12,2.12,0,0,0-1.58-.58,3.23,3.23,0,0,0-2.06.75,4.13,4.13,0,0,0-1.37,1.94h5.53A2.91,2.91,0,0,0,146.47,313.3Z"/><path class="cls-1" d="M156.43,309.85a.43.43,0,0,1,.08.37l-.14.63a.63.63,0,0,1-.22.37.66.66,0,0,1-.4.16h-.95a3.13,3.13,0,0,0-1.92.58,2.78,2.78,0,0,0-1,1.67l-1.22,5.73a.6.6,0,0,1-.22.37.58.58,0,0,1-.4.16h-.73a.4.4,0,0,1-.34-.16.41.41,0,0,1-.09-.37l1.94-9.14a.72.72,0,0,1,.65-.53h.72a.39.39,0,0,1,.34.16.47.47,0,0,1,.08.37l-.12.61a3.14,3.14,0,0,1,1.09-.88,3.53,3.53,0,0,1,1.44-.26h1.1A.38.38,0,0,1,156.43,309.85Z"/><path class="cls-1" d="M162.7,319.73a.6.6,0,0,1-.4.16h-.73a.4.4,0,0,1-.34-.16.41.41,0,0,1-.09-.37l2.75-12.87a.67.67,0,0,1,.62-.53h.73a.4.4,0,0,1,.34.16.41.41,0,0,1,.09.37l-2.75,12.87A.6.6,0,0,1,162.7,319.73Z"/><path class="cls-1" d="M174.6,310.22a.67.67,0,0,1,.62-.53H176a.4.4,0,0,1,.34.16.41.41,0,0,1,.09.37l-1.94,9.14a.62.62,0,0,1-.23.37.57.57,0,0,1-.4.16h-.72a.42.42,0,0,1-.35-.16.47.47,0,0,1-.09-.37l.14-.61a3.64,3.64,0,0,1-1.23,1,4.17,4.17,0,0,1-1.83.35,3.35,3.35,0,0,1-2.58-1,3.94,3.94,0,0,1-1-2.8,6.49,6.49,0,0,1,.08-1,12,12,0,0,1,.27-1.27,6.21,6.21,0,0,1,1.92-3.3,4.81,4.81,0,0,1,3.22-1.16,3.66,3.66,0,0,1,1.82.41,2.3,2.3,0,0,1,1,.93Zm-.77,3.12a2,2,0,0,0-2.18-2.16,3.07,3.07,0,0,0-2.14.81,4.52,4.52,0,0,0-1.27,2.25,9.79,9.79,0,0,0-.24,1.1,7.31,7.31,0,0,0-.07.82,2.34,2.34,0,0,0,.53,1.65,1.88,1.88,0,0,0,1.47.59,3.5,3.5,0,0,0,2.2-.76,3.6,3.6,0,0,0,1.33-2c.13-.53.23-1.05.31-1.55A5.12,5.12,0,0,0,173.83,313.34Z"/><path class="cls-1" d="M87.81,343.43h-.68c-.29,0-.46-.16-.51-.49l-2-9.1a.52.52,0,0,1,.11-.44.57.57,0,0,1,.42-.17h.62a.57.57,0,0,1,.43.14.6.6,0,0,1,.18.33l1.49,7,4.5-7a.81.81,0,0,1,.66-.47h1a.43.43,0,0,1,.31.1.33.33,0,0,1,.11.25.5.5,0,0,1-.1.26l-5.83,9.1a1.44,1.44,0,0,1-.31.36A.57.57,0,0,1,87.81,343.43Z"/><path class="cls-1" d="M104.33,338.3c-.08.37-.16.69-.23.95a6.56,6.56,0,0,1-2,3.2,5.11,5.11,0,0,1-3.42,1.18,4,4,0,0,1-2.85-1,3.59,3.59,0,0,1-1.07-2.73c0-.13,0-.34,0-.63a5,5,0,0,1,.16-.89c.09-.4.16-.72.23-.95a6.38,6.38,0,0,1,2-3.18,5.09,5.09,0,0,1,3.36-1.2,4,4,0,0,1,2.87,1,3.55,3.55,0,0,1,1.08,2.71c0,.14,0,.36,0,.65S104.41,337.93,104.33,338.3Zm-1.61-1.42a1.9,1.9,0,0,0-2.14-2.16,3.58,3.58,0,0,0-2.29.77,4,4,0,0,0-1.33,2,11.72,11.72,0,0,0-.36,1.64c0,.24,0,.41,0,.53a2.4,2.4,0,0,0,.54,1.64,2,2,0,0,0,1.58.62,3.59,3.59,0,0,0,2.31-.78,4,4,0,0,0,1.34-2,10.11,10.11,0,0,0,.35-1.64C102.71,337.22,102.72,337,102.72,336.88Z"/><path class="cls-1" d="M107.34,343.27a.58.58,0,0,1-.4.16h-.73a.41.41,0,0,1-.34-.16.47.47,0,0,1-.09-.37l1.94-9.14a.6.6,0,0,1,.24-.37.63.63,0,0,1,.41-.16h.73a.38.38,0,0,1,.33.16.43.43,0,0,1,.08.37l-1.94,9.14A.62.62,0,0,1,107.34,343.27ZM110,331.52a.58.58,0,0,1-.4.16h-1.12a.4.4,0,0,1-.34-.16.37.37,0,0,1-.07-.37l.23-1.12a.62.62,0,0,1,.23-.37.58.58,0,0,1,.4-.16h1.12a.4.4,0,0,1,.34.16.41.41,0,0,1,.09.37l-.24,1.12A.68.68,0,0,1,110,331.52Z"/><path class="cls-1" d="M113.61,340.76a.92.92,0,0,0,.28.77,1.53,1.53,0,0,0,.9.21H116a.39.39,0,0,1,.34.16.47.47,0,0,1,.07.37l-.13.63a.62.62,0,0,1-.23.37.58.58,0,0,1-.4.16h-1.08a3.2,3.2,0,0,1-2.06-.59,2.17,2.17,0,0,1-.73-1.78,5.29,5.29,0,0,1,.12-1.06l1.08-5.08h-1.45a.43.43,0,0,1-.34-.16.41.41,0,0,1-.09-.37l.14-.63a.55.55,0,0,1,.23-.37.63.63,0,0,1,.41-.16h1.47L114,330a.62.62,0,0,1,.23-.37.57.57,0,0,1,.4-.16h.72a.42.42,0,0,1,.35.16.47.47,0,0,1,.09.37l-.67,3.2h2.47a.37.37,0,0,1,.33.16.43.43,0,0,1,.08.37l-.13.63a.7.7,0,0,1-.23.37.64.64,0,0,1-.4.16h-2.49L113.71,340A3.76,3.76,0,0,0,113.61,340.76Z"/><path class="cls-1" d="M120.28,333.39a.63.63,0,0,1,.41-.16h.73a.38.38,0,0,1,.33.16.46.46,0,0,1,.08.37l-1.1,5.18a5.89,5.89,0,0,0-.14,1.08,1.92,1.92,0,0,0,.5,1.44,2,2,0,0,0,1.46.48,3.38,3.38,0,0,0,2.22-.78,3.8,3.8,0,0,0,1.26-2.22l1.1-5.18a.55.55,0,0,1,.23-.37.63.63,0,0,1,.41-.16h.73a.38.38,0,0,1,.33.16.43.43,0,0,1,.08.37L127,342.9a.62.62,0,0,1-.23.37.58.58,0,0,1-.4.16h-.73a.41.41,0,0,1-.34-.16.47.47,0,0,1-.09-.37l.14-.61a5,5,0,0,1-1.27,1,3.61,3.61,0,0,1-1.69.37,3.88,3.88,0,0,1-2.66-.85,3,3,0,0,1-1-2.37,5.08,5.08,0,0,1,.14-1.18l1.15-5.47A.6.6,0,0,1,120.28,333.39Z"/><path class="cls-1" d="M137.31,333.39a.46.46,0,0,1,.07.37l-.13.63a.65.65,0,0,1-.23.37.64.64,0,0,1-.4.16h-.94a3.16,3.16,0,0,0-1.93.58,2.72,2.72,0,0,0-1,1.67l-1.22,5.73a.62.62,0,0,1-.23.37.57.57,0,0,1-.4.16h-.72a.42.42,0,0,1-.35-.16.47.47,0,0,1-.09-.37l2-9.14a.55.55,0,0,1,.23-.37.63.63,0,0,1,.41-.16h.73a.38.38,0,0,1,.33.16.43.43,0,0,1,.08.37l-.12.61a3.23,3.23,0,0,1,1.09-.88,3.6,3.6,0,0,1,1.44-.26H137A.39.39,0,0,1,137.31,333.39Z"/><path class="cls-1" d="M145.9,334.09a3.88,3.88,0,0,1,1,2.81,5.16,5.16,0,0,1-.1,1.1l-.1.53a.79.79,0,0,1-.24.37.64.64,0,0,1-.4.15h-6.83a5.52,5.52,0,0,0,0,.59,2.42,2.42,0,0,0,.55,1.69,1.85,1.85,0,0,0,1.45.61,3.87,3.87,0,0,0,1.55-.26,4.33,4.33,0,0,0,1.1-.72,1.43,1.43,0,0,1,.33-.22.9.9,0,0,1,.36-.06h.88a.46.46,0,0,1,.29.1.32.32,0,0,1,.12.26.54.54,0,0,1,0,.17,4.71,4.71,0,0,1-1.59,1.64,5.17,5.17,0,0,1-3,.78,4.11,4.11,0,0,1-2-.49,3.18,3.18,0,0,1-1.32-1.35,4.13,4.13,0,0,1-.47-2c0-.13,0-.35,0-.67a9.37,9.37,0,0,1,.38-1.8,6.44,6.44,0,0,1,2-3.1,5,5,0,0,1,3.31-1.22A3.64,3.64,0,0,1,145.9,334.09Zm-.67,2.75a2.06,2.06,0,0,0-.58-1.54,2.11,2.11,0,0,0-1.58-.58,3.3,3.3,0,0,0-2.06.74,4.36,4.36,0,0,0-1.37,2h5.53A2.91,2.91,0,0,0,145.23,336.84Z"/><rect class="cls-3" y="226.92" width="71.7" height="153.53" transform="translate(71.7 607.38) rotate(180)"/><rect class="cls-1" width="71.7" height="226.92" transform="translate(71.7 226.92) rotate(180)"/><path class="cls-1" d="M136.28,68.93l15.08,2.73,0-.17a10,10,0,0,1-1.1-.51c-.56-.34-1.05-.8-1.63-1.08A10.89,10.89,0,0,0,146,68.84c-3.16-.66-6.35-1.2-9.53-1.79a2.92,2.92,0,0,1-.49-.19l.06-.29,11.26,2.09c-.1-1.48-.23-1.62-1.54-1.88-1.52-.31-3-.58-4.55-.94a10.64,10.64,0,0,0-4.66-.24,1.31,1.31,0,0,1-.79-.14l11.6-4c-.71-.89-1.43-1.67-2-2.54-1-1.62-2-3.29-3-5a3,3,0,0,1-.13-2.8,10.48,10.48,0,0,0,.52-6.89,14.19,14.19,0,0,1-.08-6.48,9.36,9.36,0,0,1,2.15-4V36l.21,0c.05-.45.14-.89.15-1.33a7.63,7.63,0,0,1,10.4-6.92,4.3,4.3,0,0,1,1.16.78c-4-.63-7.37.08-9.33,3.92l.15.31,4.62-2.68.17.26-3,2.33.11.17,4-2.37.16.25L151,32.82l.07.11,4-2.08.17.19-.8,1.21L158,31l0-.17-1.51-.18L157,30l-1.78-.21-.06-.3,3.68-.91v-.12l-2.41-.57.06-.32c.89-.06,1.78-.13,2.67-.17a17.07,17.07,0,0,1,6.49.47,20.76,20.76,0,0,1,4,2,4.13,4.13,0,0,1,1.95,3.05,1.81,1.81,0,0,0,.35.91,7.83,7.83,0,0,1,1.69,6.13,21.61,21.61,0,0,1-3,9.81,26.86,26.86,0,0,1-2.85,3.64,7.63,7.63,0,0,0-1.93,5.15,1.8,1.8,0,0,0,.73,1.18,58.16,58.16,0,0,0,9.39,5.59l3.37,1.77c.5.27.79.61.45,1.18-.09,0-.16,0-.19,0-2.3-1.85-5-1.85-7.78-1.81-1.32,0-2.65,0-4-.06-1.54,0-1.54,0-2.15,1.68l14.2.49,0,.2a3,3,0,0,1-.76.17c-4.36-.16-8.72-.35-13.08-.49a1.89,1.89,0,0,0-1.1.41,9.3,9.3,0,0,0-1.1,1.32l15.51.82v0c-1.44,0-2.87,0-4.31,0-3.51-.13-7-.31-10.52-.47a1.34,1.34,0,0,0-.49,0,47.93,47.93,0,0,0-4.91,1.86l19.24.89v.28c-1.63.05-3.28.21-4.91.12-4.55-.24-9.11-.49-13.64-.92a168.08,168.08,0,0,1-22-3.13c-.54-.12-1.07-.33-1.61-.5Zm29.44-21.38c-.22-.17-.46-.36-.71-.53-1-.7-1-.78-.61-1.91a3.88,3.88,0,0,0-.47-3.48c-.49-.83-1-1.63-1.48-2.49a3.8,3.8,0,0,1,2.07-5.37,11,11,0,0,1,2.64-.63,30.28,30.28,0,0,1,3.16,0,1.4,1.4,0,0,0-.71-.59,4.74,4.74,0,0,0-4.09.2,14.49,14.49,0,0,1-5.58,1.74c-1.43.13-2.86.26-4.29.37a9.32,9.32,0,0,0-4.94,1.44,4,4,0,0,1-4.84.26c-1.81,1.58-2.89,5.38-2.06,7.35,1.18-.79,2.15-2.4,4.07-1.06-.31.1-.46.16-.61.19s-.44.08-.65.11a2.89,2.89,0,0,0-2.71,3.22,8.14,8.14,0,0,1-.65,4.29,3.68,3.68,0,0,0,.31,3.85c1.2,1.76,2.4,3.52,3.62,5.26a3.47,3.47,0,0,0,2.43,1.43,12.46,12.46,0,0,0,5.33-.29c3.22-.84,5.52-2.92,7.49-5.46l1.58-2,.15.16C162,59.1,157.86,62,151.94,62.32c.74,2.56.66,3.89-.31,4.91.23-1.69.43-3.34-.87-4.89a21.91,21.91,0,0,0-1,2.35,2.93,2.93,0,0,0,2,4,12.58,12.58,0,0,0,5.79.71c3.78-.39,7.82-4.73,7.55-8.71a13.35,13.35,0,0,1,1.13-6.87s0-.1-.05-.17l-.95-.56a6.11,6.11,0,0,1,.9-.08,2.58,2.58,0,0,0,1.35-.45,7.71,7.71,0,0,0,2.41-5.46c0-1.4-.74-1.89-2-1.19A18.26,18.26,0,0,0,165.72,47.55ZM150.07,62a3.3,3.3,0,0,0-.51.2,5.51,5.51,0,0,0-1.84,3.59,3.7,3.7,0,0,0,2,4,13.53,13.53,0,0,0,10.65,1.34c3.59-1,6.56-5.28,6.39-9.08a4.13,4.13,0,0,0-.54-1.3l-.28.08c-.25.81-.47,1.63-.75,2.43-2.4,7-8.67,7.84-13.69,6-2.34-.88-3-2.54-2.23-4.92C149.47,63.6,149.75,62.86,150.07,62Zm18.57-24.52-.26-1.16,2.06,1.26L170,36.3l.17-.13,1.44,1a2.91,2.91,0,0,0-2.56-2.69,4.5,4.5,0,0,0-4.5,2.25l2,.63.11-.68Zm-1.91,28.4,8.67.27,0-.23c-.22-.13-.46-.26-.68-.4-1.81-1.12-3.87-1.25-5.9-1.43s-1.59-.55-2.18,1.54C166.68,65.64,166.69,65.67,166.73,65.87Zm-19.49-.68c-1.56-.25-3-.53-4.47-.72a4.26,4.26,0,0,0-3.06.85L147,66.59Zm.58-1.82c-1.66-.15-3.27-.45-4.86.74l3.27.4C147.47,64.66,147.47,64.66,147.82,63.37Zm19.48-1.64a8,8,0,0,0,0,1.22c0,.2.2.5.34.52,1.26.21,2.53.36,3.79.53l.06-.2Zm-21.18,1c1.77.42,2.49.1,2.49-1ZM167,29.27c0,1.07.3,1.24,1.94,1.1Z"/><path class="cls-1" d="M136.44,71.3c13,2.86,26.33,3.41,39.59,4.13v.26c-1.6,0-3.21.12-4.8,0a276.26,276.26,0,0,1-28.12-2.8c-1.74-.26-3.47-.64-5.21-1-.5-.1-1-.3-1.48-.45Z"/><path class="cls-1" d="M172,77.62c-3.62,1.1-31.73-2.1-35.13-4C148.35,76.49,160.18,76.79,172,77.62Z"/><path class="cls-1" d="M138.73,76.57c4.41.66,9.13,1.53,13.9,2s9.51.66,14.08,1C163.87,80.66,141.54,78.21,138.73,76.57Z"/><path class="cls-2" d="M165.72,47.55a18.26,18.26,0,0,1,2.13-1.67c1.22-.7,2-.21,2,1.19a7.71,7.71,0,0,1-2.41,5.46,2.58,2.58,0,0,1-1.35.45,6.11,6.11,0,0,0-.9.08l.95.56c0,.07.06.13.05.17A13.35,13.35,0,0,0,165,60.66c.27,4-3.77,8.32-7.55,8.71a12.58,12.58,0,0,1-5.79-.71,2.93,2.93,0,0,1-2-4,21.91,21.91,0,0,1,1-2.35c1.3,1.55,1.1,3.2.87,4.89,1-1,1.05-2.35.31-4.91,5.92-.36,10.06-3.22,12.23-8.75l-.15-.16-1.58,2c-2,2.54-4.27,4.62-7.49,5.46a12.46,12.46,0,0,1-5.33.29,3.47,3.47,0,0,1-2.43-1.43c-1.22-1.74-2.42-3.5-3.62-5.26a3.68,3.68,0,0,1-.31-3.85,8.14,8.14,0,0,0,.65-4.29,2.89,2.89,0,0,1,2.71-3.22c.21,0,.43-.06.65-.11s.3-.09.61-.19c-1.92-1.34-2.89.27-4.07,1.06-.83-2,.25-5.77,2.06-7.35a4,4,0,0,0,4.84-.26,9.32,9.32,0,0,1,4.94-1.44c1.43-.11,2.86-.24,4.29-.37a14.49,14.49,0,0,0,5.58-1.74,4.74,4.74,0,0,1,4.09-.2,1.4,1.4,0,0,1,.71.59,30.28,30.28,0,0,0-3.16,0,11,11,0,0,0-2.64.63,3.8,3.8,0,0,0-2.07,5.37c.45.86,1,1.66,1.48,2.49a3.88,3.88,0,0,1,.47,3.48C164,46.24,164,46.32,165,47,165.26,47.19,165.5,47.38,165.72,47.55Zm-10.48,6.78a7.39,7.39,0,0,0-1.61-.5c-.29,0-.58.5-.91.55-1.66.26-3.33.45-5,.65-.39,0-.79.08-1.19.12l0,.2h6.77a5,5,0,0,1-2.9,2.56,1.61,1.61,0,0,1-2.1-.63c-.25-.32-.51-.63-.77-.94.74,2.72,2.55,3.33,4.44,1.63a4,4,0,0,0,.55-.62c.57-.78,1.1-1.59,1.69-2.35A4.9,4.9,0,0,1,155.24,54.33Zm.52-7.86,2.86,1.43c.08-.15.14-.21.13-.25a.67.67,0,0,0-.14-.28,5.59,5.59,0,0,0-4.09-1.7c-1.2,0-1.73.63-1.78,1.9.73,0,.73,0,.77.62l-.67.2a7,7,0,0,0,4.62-.33h-1.9Zm5-2.41c-.08-.28-.07-.37-.12-.43a1.28,1.28,0,0,0-.29-.28,9.48,9.48,0,0,0-8-.92c-.3.1-.51.44-.77.67l.1.36C154.75,42.61,157.79,42.48,160.79,44.06Zm-13.53,3.45c0-1.32-1.19-1.74-2.43-1-.54.32-.73.68-.32,1.27a3.86,3.86,0,0,1,.3,1H147c-.93-.31-1.14-.91-.83-1.81Zm19.35,1.2,1.5-1.1s.1-.12.11-.12c.19.14.52.26.55.43a8.53,8.53,0,0,1,0,1.34l.26,0a6.69,6.69,0,0,0,.2-1.32c0-1.05-.57-1.33-1.47-.8A5.19,5.19,0,0,0,165.44,50a4.86,4.86,0,0,0-.15.84l1.2-1.33.38.17-.23,1.56C167.78,50.44,167.79,49.92,166.61,48.71Zm-17.1,4.48c-1.63-.07-2.33-.69-1.57-2.34-1,.88-1.16,1.41-.72,2.08S148.32,53.73,149.51,53.19Zm-.78-7v3A2.21,2.21,0,0,0,148.73,46.14Z"/><path class="cls-2" d="M150.07,62c-.32.87-.6,1.61-.84,2.36-.78,2.38-.11,4,2.23,4.92,5,1.87,11.29,1,13.69-6,.28-.8.5-1.62.75-2.43l.28-.08a4.13,4.13,0,0,1,.54,1.3c.17,3.8-2.8,8.1-6.39,9.08a13.53,13.53,0,0,1-10.65-1.34,3.7,3.7,0,0,1-2-4,5.51,5.51,0,0,1,1.84-3.59A3.3,3.3,0,0,1,150.07,62Z"/><path class="cls-2" d="M168.64,37.47l-2-.74-.11.68-2-.63a4.5,4.5,0,0,1,4.5-2.25,2.91,2.91,0,0,1,2.56,2.69l-1.44-1-.17.13.4,1.27-2.06-1.26Z"/><path class="cls-2" d="M166.73,65.87c0-.2,0-.23,0-.25.59-2.09.08-1.72,2.18-1.54s4.09.31,5.9,1.43c.22.14.46.27.68.4l0,.23Z"/><path class="cls-2" d="M147.24,65.19l-.25,1.4-7.28-1.27a4.26,4.26,0,0,1,3.06-.85C144.23,64.66,145.68,64.94,147.24,65.19Z"/><path class="cls-2" d="M147.82,63.37c-.35,1.29-.35,1.29-1.59,1.14l-3.27-.4C144.55,62.92,146.16,63.22,147.82,63.37Z"/><path class="cls-2" d="M167.3,61.73l4.2,2.07-.06.2c-1.26-.17-2.53-.32-3.79-.53-.14,0-.31-.32-.34-.52A8,8,0,0,1,167.3,61.73Z"/><path class="cls-2" d="M146.12,62.68l2.49-1C148.61,62.78,147.89,63.1,146.12,62.68Z"/><path class="cls-2" d="M167,29.27l1.94,1.1C167.33,30.51,167,30.34,167,29.27Z"/><path class="cls-1" d="M155.24,54.33a4.9,4.9,0,0,0-1,.67c-.59.76-1.12,1.57-1.69,2.35A4,4,0,0,1,152,58c-1.89,1.7-3.7,1.09-4.44-1.63.26.31.52.62.77.94a1.61,1.61,0,0,0,2.1.63,5,5,0,0,0,2.9-2.56h-6.77l0-.2c.4,0,.8-.07,1.19-.12,1.66-.2,3.33-.39,5-.65.33-.05.62-.56.91-.55A7.39,7.39,0,0,1,155.24,54.33Z"/><path class="cls-1" d="M155.76,46.47l-.2,1.59h1.9a7,7,0,0,1-4.62.33l.67-.2c0-.67,0-.67-.77-.62,0-1.27.58-1.87,1.78-1.9a5.59,5.59,0,0,1,4.09,1.7.67.67,0,0,1,.14.28s-.05.1-.13.25Z"/><path class="cls-1" d="M160.79,44.06c-3-1.58-6-1.45-9.13-.6l-.1-.36c.26-.23.47-.57.77-.67a9.48,9.48,0,0,1,8,.92,1.28,1.28,0,0,1,.29.28C160.72,43.69,160.71,43.78,160.79,44.06Z"/><path class="cls-1" d="M147.26,47.51l-1-.49c-.31.9-.1,1.5.83,1.81h-2.23a3.86,3.86,0,0,0-.3-1c-.41-.59-.22-1,.32-1.27C146.07,45.77,147.22,46.19,147.26,47.51Z"/><path class="cls-1" d="M166.61,48.71c1.18,1.21,1.17,1.73,0,2.48l.23-1.56-.38-.17-1.2,1.33a4.86,4.86,0,0,1,.15-.84,5.19,5.19,0,0,1,2.34-2.79c.9-.53,1.44-.25,1.47.8a6.69,6.69,0,0,1-.2,1.32l-.26,0a8.53,8.53,0,0,0,0-1.34c0-.17-.36-.29-.55-.43,0,0-.06.09-.11.12Z"/><path class="cls-1" d="M149.51,53.19c-1.19.54-1.84.42-2.29-.26s-.3-1.2.72-2.08C147.18,52.5,147.88,53.12,149.51,53.19Z"/><path class="cls-1" d="M148.73,46.14a2.21,2.21,0,0,1,0,3Z"/></g></g></svg>