<svg xmlns="http://www.w3.org/2000/svg" viewBox="0 0 464.35 548.01"><defs><style>.cls-1{fill:#4c2a12;}.cls-2{fill:#fc9;}.cls-3{fill:#fff4c0;}</style></defs><title>22Fichier 1</title><g id="Calque_2" data-name="Calque 2"><g id="Calque_1-2" data-name="Calque 1"><rect class="cls-1" y="305.13" width="70.88" height="160.57"/><rect class="cls-1" x="98.37" y="185.79" width="70.88" height="279.91"/><rect class="cls-1" x="196.74" y="265.35" width="70.88" height="200.35"/><rect class="cls-1" x="295.1" y="85.25" width="70.88" height="380.45"/><rect class="cls-1" x="393.47" y="165.53" width="70.88" height="300.17"/><rect class="cls-2" y="85.25" width="70.88" height="219.88"/><rect class="cls-2" x="98.37" y="85.25" width="70.88" height="100.54"/><rect class="cls-2" x="196.74" y="85.25" width="70.88" height="180.1"/><rect class="cls-2" x="393.47" y="85.25" width="70.88" height="80.29"/><path class="cls-1" d="M300.81,33.51l.86.64a2.32,2.32,0,0,1,1.13,2.5A2.72,2.72,0,0,1,300.86,39a5.1,5.1,0,0,0-1.68,1,30.18,30.18,0,0,0-2.46,2.47,1.06,1.06,0,0,0-.16.87c.58,1.92.43,2.4-1.3,3.38a20.61,20.61,0,0,1-7.58,2.76,1,1,0,0,0-.62.32l7.87.6.14.29a3.17,3.17,0,0,1-.83.61c-1.67.56-3.34,1.11-5,1.58Q277.59,56,266,59a7.14,7.14,0,0,1-5.08-.42,22.89,22.89,0,0,0-7.74-1.89,6.1,6.1,0,0,1-1.49-.23,5.94,5.94,0,0,0-4.21.28c-4.56,1.48-9.2,2.13-13.93.86a13.42,13.42,0,0,1-7.82-4.92,4.61,4.61,0,0,0-3.09-1.65c-13.4-2.58-26.8-5.19-40.22-7.69-1.33-.25-2.79.3-4.19.31a40,40,0,0,1-5.25-.25,5.07,5.07,0,0,1-4.55-4.29,51.24,51.24,0,0,1-1-5.67,4.3,4.3,0,0,0-2-3.37c-3.25-2.25-5.3-5.44-5.28-9.41,0-1.78,1.19-3.57,2-5.3.18-.4.9-.67,1.42-.79,2.45-.56,4.94-1,7.38-1.59a6.29,6.29,0,0,0,2.72-1.35A40.05,40.05,0,0,1,197.56.73a143.85,143.85,0,0,1,29.12,0A68,68,0,0,1,234.59,2,12,12,0,0,1,240,5.07c3,2.73,6,5.44,9,8.2a4.91,4.91,0,0,0,3.28,1.36,232.86,232.86,0,0,1,46.54,6.66,25,25,0,0,1,3.41,1.08,5.64,5.64,0,0,1,1.55,1.19.56.56,0,0,1-.11,1,2.23,2.23,0,0,0-1,2C302.5,30,302.4,30.42,300.81,33.51ZM179,12.86c.57-.21,1-.35,1.39-.52a1.78,1.78,0,0,0,1.17-1.67,4.78,4.78,0,0,1,3-4.37,25,25,0,0,1,5.3-1.88c3.42-.64,6.9-1,10.35-1.44,2-.26,3,.24,3.88,2.05,1.59,3.14,3.19,6.27,4.77,9.42a1.91,1.91,0,0,0,2.06,1.28c1.38-.12,2.76-.13,4.15-.17,4.37-.13,8.74-.27,13.11-.37,6.48-.16,13-.29,19.44-.44.3,0,.6,0,1.1-.05-.36-.4-.57-.69-.84-.93-2.65-2.46-5.36-4.87-8-7.38a15.84,15.84,0,0,0-8-4.3A93.12,93.12,0,0,0,215.53.67C211,.59,206.47.8,201.94,1a49.37,49.37,0,0,0-12.05,2c-6.13,1.78-11,5.6-15.74,9.6,0,0,0,.11,0,.22l1.65.32c-3.67.53-7.48,1.1-11.3,1.64a2.71,2.71,0,0,0-2.35,1.77c-.32.78-.78,1.52-1,2.32a23.63,23.63,0,0,0-.54,2.48,6.91,6.91,0,0,1,1.85-1,33.52,33.52,0,0,1,3.48-.24c.58,0,1.15-.12,1.73-.19l0-.17-6.06-.44c.44-.91.83-1.73,1.25-2.53a2.12,2.12,0,0,1,2-1.12q5.85.13,11.7.37a2.79,2.79,0,0,1,1.65.51c1,.94,2,2,3,3.13l-1.38.55-1.25.51c26.76-.94,53.24,1.92,79.63,4.59l-.29,4.16.36.08c.95-1.51,1.93-3,2.83-4.53a1,1,0,0,0-.52-1.43A15.66,15.66,0,0,0,257,22c-4.58-.92-9.17-1.9-13.81-2.44-7.49-.89-15-1.54-22.53-2.11-5.89-.45-11.81-.71-17.71-.93-5.25-.19-10.51-.3-15.77-.26C184,16.29,181.5,14.8,179,12.86ZM221.4,46.48a11,11,0,0,0,0-1.17,26.15,26.15,0,0,1,.25-7.7c1.37-7.2,8.21-10.95,15-8.18a19.65,19.65,0,0,1,9.1,7.8c1.68,2.58,3.2,5.27,4.83,7.88a5.51,5.51,0,0,0,4.35,2.79,8.22,8.22,0,0,1,3,.82,38.19,38.19,0,0,1,4.36,2.77,5.58,5.58,0,0,0,4,1.27c3-.37,6-.69,9-1.07,1.43-.18,2.84-.44,4.25-.66l0-.29c-.7,0-1.41,0-2.11.11-3.32.27-6.66.38-10,.86-3,.43-4.92-1.25-6.9-3.1h3.37v-.23c-2.75-.44-5.49-.94-8.25-1.29a5.21,5.21,0,0,1-4.39-2.94c-1.21-2.38-2.48-4.73-3.88-7a40.15,40.15,0,0,0-4.11-5.85,14.27,14.27,0,0,0-13-4.75c-4.42.55-7.16,3.37-8.75,7.4a23.8,23.8,0,0,0-1.29,9.28c0,.48,0,1,0,1.51-.56-.09-1-.15-1.36-.23-3-.59-6-1.15-9-1.77C200.89,40.88,192,39,183,37.15a5.27,5.27,0,0,1-4.14-3.9c-.91-2.73-2.05-5.39-3.2-8a5.38,5.38,0,0,0-3.79-3c-1.84-.48-3.19-.09-4.14,1.2-1.13,1.52-1.44,4.06-.63,5.41.1-.89.15-1.73.31-2.55a3,3,0,0,1,2-2.54,2.76,2.76,0,0,1,2.78.77,1.88,1.88,0,0,0-2.25.82,9.62,9.62,0,0,0-1.19,2.43,15.11,15.11,0,0,0-.56,6.16,12.56,12.56,0,0,0,2,6.32c1.25,1.79,2.77,1.77,3.83-.13a12.76,12.76,0,0,0,1.42-8c-.28-2.09-.93-4.12-1.42-6.18,0,.13.08.24.17.36A25.28,25.28,0,0,1,178,33.67,6.52,6.52,0,0,0,183.07,38c8.37,1.84,16.72,3.73,25.09,5.59C212.54,44.59,216.93,45.51,221.4,46.48Zm19-8.56-.93-.82c-.64-.56-1.61-1-1.81-1.71s.4-1.57.71-2.34a1.32,1.32,0,0,0-.47-1.72,6,6,0,0,0-8.34.47c-5.09,5-5.17,14.63-.16,19.73A8.88,8.88,0,0,0,243,50.88c1.82-2.25,2.51-4.93,3.07-7.7.47-2.35-.55-5.28-3.37-7.32Zm-4.2-22,0,.14a7.27,7.27,0,0,0,.77.2c3.17.26,6.33.47,9.5.77,4.44.42,8.88.84,13.31,1.37a97.85,97.85,0,0,1,18.38,3.93A9.65,9.65,0,0,1,281,24a2.48,2.48,0,0,0,1.77.67c1.72-.09,3.45-.15,5.18-.21L300,24a5,5,0,0,0,1-.16,2.83,2.83,0,0,0,.59-.36c-.15-.17-.27-.42-.45-.5a10.64,10.64,0,0,0-1.77-.62A279.4,279.4,0,0,0,268.86,17c-5.4-.57-10.82-1.12-16.24-1.39-4.05-.2-8.11.05-12.17.12C239,15.76,237.64,15.85,236.23,15.92Zm-15,.53v.15c.87.08,1.74.17,2.62.24,3.75.34,7.51.63,11.26,1,4.25.43,8.49,1,12.73,1.43a46.79,46.79,0,0,1,12.25,2.86,4,4,0,0,1,2.68,2.21c.34,1,1,1.15,1.86,1.17,3,.09,6,.22,9,.32a5.38,5.38,0,0,0,1-.2,7.64,7.64,0,0,0-1.46-1.58,24.48,24.48,0,0,0-4.29-2.13c-7.39-2.54-15.1-3.41-22.83-4.15-3.31-.32-6.63-.6-10-.8-4.61-.28-9.23-.46-13.84-.67A6.45,6.45,0,0,0,221.18,16.45Zm28.54,22.8a10,10,0,0,0,1.83.8,14.19,14.19,0,0,0,2.44.21c4.56.2,9.12.46,13.68.54A99.39,99.39,0,0,0,279,40.55c5.15-.5,10.26-1.37,15.38-2.18,2.16-.34,4.3-.88,6.43-1.42.49-.12,1.17-.52,1.27-.91s-.4-1-.74-1.36a3.41,3.41,0,0,0-1.1-.71c-.57-.27-1-.08-1,.57A1.48,1.48,0,0,1,298,36.12c-1.34.31-2.7.56-4,.85a116.29,116.29,0,0,1-22.16,2.51,105.37,105.37,0,0,1-19.84-1.2A1.94,1.94,0,0,0,249.72,39.25Zm16-2.57,6.12.37a1.84,1.84,0,0,0,1.94-1.2c.3-.69.56-1.4.88-2.08.91-2,1.84-4,2.77-6,.29-.62.19-.92-.56-.77-.43.08-.87.12-1.3.21-1.62.36-3.27.64-4.85,1.13-2.29.7-2.92,1.86-2.53,4.22.05.25.09.5.15.81-.67-.25-1.21-.5-1.78-.66s-1,.11-1,.77C265.56,34.52,265.63,35.55,265.68,36.68ZM259.09,32a23.21,23.21,0,0,0,.73,2.9c.75,2,2.62,2.25,3.84.62a8,8,0,0,0,1.17-8.1c-.75-1.93-2.54-2.14-3.8-.51A9.37,9.37,0,0,0,259.09,32ZM207.3,25.47l-.26,0a4.67,4.67,0,0,0-.32,1c-.1,1.29-.15,2.58-.22,3.86-.12,2.17-.25,4.33-.35,6.49,0,.76-.4,1.12-1.14,1-2.43-.32-4.85-.67-7.28-1-3-.41-6-.84-8.95-1.23-.24,0-.51.16-.76.24a2.37,2.37,0,0,0,.63.36l14.63,2.62,4.52.8C207.63,34.78,207.46,30.13,207.3,25.47Zm93.25-.08,0-.4c-.5,0-1,0-1.52,0-5.53.29-11.05.61-16.57.89a4.85,4.85,0,0,0-3.8,1.94,22.35,22.35,0,0,0-3,6.16l-.54,1.46a1.93,1.93,0,0,0,.77-.87c.83-1.55,1.63-3.12,2.48-4.66a4.88,4.88,0,0,1,3.78-2.66c1.59-.2,3.2-.26,4.79-.4,3.7-.32,7.39-.63,11.08-1A24.54,24.54,0,0,0,300.55,25.39ZM186,6.49l0,.33c.31,0,.63,0,.93,0,3.41-.34,6.82-.65,10.22-1.06,2.77-.33,4.22.32,5.69,2.68,1,1.55,2,3.05,3,4.58.09.15.15.33.23.49.2-.27.25-.37.21-.44-1.05-2.18-2-4.39-3.18-6.52a3.84,3.84,0,0,0-4.12-2c-2.91.32-5.82.6-8.71,1C188.83,5.72,187.4,6.16,186,6.49ZM299,31.3c-.29.57-.61,1.12-.85,1.72a2.93,2.93,0,0,1-2.3,2c-1,.16-2,.26-3,.38l-15.33,1.86a3.67,3.67,0,0,0-.75.25l.06.27a24.62,24.62,0,0,0,2.85,0c5.29-.64,10.58-1.35,15.87-2A3.87,3.87,0,0,0,299,31.3Zm-3.27-3V28A4.06,4.06,0,0,0,295,28c-3.73.2-7.46.34-11.19.65a3.07,3.07,0,0,0-2,1.23,46.17,46.17,0,0,0-2.36,4.39,1.57,1.57,0,0,0-.07.54l.28.1c.47-.92,1-1.82,1.41-2.77a4.26,4.26,0,0,1,3.73-2.76c2.6-.23,5.2-.38,7.79-.6C293.69,28.64,294.71,28.45,295.73,28.3ZM277.24,43.13l-1.74,3.28.29.18c1.09-1.35,2.22-2.68,3.25-4.08.41-.55-.11-.69-.57-.68L267.7,42v.36Zm-7.35-22.38c2.07,1.31,4.2,2.72,6.4,4a4.81,4.81,0,0,0,2.16.39c.34,0,.69-.3,1-.47a4,4,0,0,0-.66-.8C276.11,22,272.89,21.47,269.89,20.75ZM189.05,31.59l0-.29a8.75,8.75,0,0,0-.87-.27q-3.54-.69-7.1-1.35a2.13,2.13,0,0,1-2-2.19c-.18-1.49-.37-3-.59-4.47a3,3,0,0,0-.29-.73l-.3.08c.18,2.11.33,4.23.56,6.34.13,1.1.65,1.55,1.77,1.74,1.55.25,3.09.51,4.65.71C186.28,31.34,187.66,31.45,189.05,31.59Zm76.92,12a5.4,5.4,0,0,0-3.51,2.58,1.06,1.06,0,0,0,.06,1,1.26,1.26,0,0,0,1.06.35,5.54,5.54,0,0,0,3.47-2.66C267.49,44.12,267.15,43.63,266,43.63Zm16,2.47c4.48,1.58,10.78-2.75,10.23-6.44A13.33,13.33,0,0,0,291,41.4a6.25,6.25,0,0,1-5.19,3.82C284.53,45.42,283.23,45.8,281.93,46.1Z"/><path class="cls-3" d="M179,12.86c2.49,1.94,4.94,3.43,8.17,3.4,5.26,0,10.52.07,15.77.26,5.9.22,11.82.48,17.71.93,7.52.57,15,1.22,22.53,2.11,4.64.54,9.23,1.52,13.81,2.44a15.66,15.66,0,0,1,3.53,1.53,1,1,0,0,1,.52,1.43c-.9,1.54-1.88,3-2.83,4.53l-.36-.08.29-4.16c-26.39-2.67-52.87-5.53-79.63-4.59l1.25-.51,1.38-.55c-1-1.1-1.94-2.19-3-3.13a2.79,2.79,0,0,0-1.65-.51q-5.85-.24-11.7-.37a2.12,2.12,0,0,0-2,1.12c-.42.8-.81,1.62-1.25,2.53l6.06.44,0,.17c-.58.07-1.15.15-1.73.19a33.52,33.52,0,0,0-3.48.24,6.91,6.91,0,0,0-1.85,1,23.63,23.63,0,0,1,.54-2.48c.27-.8.73-1.54,1-2.32a2.71,2.71,0,0,1,2.35-1.77c3.82-.54,7.63-1.11,11.3-1.64l-1.65-.32c0-.11,0-.19,0-.22,4.76-4,9.61-7.82,15.74-9.6a49.37,49.37,0,0,1,12.05-2C206.47.8,211,.59,215.53.67a93.12,93.12,0,0,1,16.32,1.42,15.84,15.84,0,0,1,8,4.3c2.61,2.51,5.32,4.92,8,7.38.27.24.48.53.84.93-.5,0-.8.05-1.1.05-6.48.15-13,.28-19.44.44-4.37.1-8.74.24-13.11.37-1.39,0-2.77,0-4.15.17a1.91,1.91,0,0,1-2.06-1.28c-1.58-3.15-3.18-6.28-4.77-9.42-.92-1.81-1.84-2.31-3.88-2.05-3.45.45-6.93.8-10.35,1.44a25,25,0,0,0-5.3,1.88,4.78,4.78,0,0,0-3,4.37,1.78,1.78,0,0,1-1.17,1.67C180,12.51,179.58,12.65,179,12.86ZM246.3,14l.2-.5a7.28,7.28,0,0,1-.71-.47c-3.17-2.77-6.3-5.61-9.54-8.3a7.28,7.28,0,0,0-3.17-1.51,88.42,88.42,0,0,0-20.49-1.09c-1.57.07-3.14.21-4.71.37-1.11.12-1.3.48-.9,1.5.11.27.23.52.35.78,1.36,2.93,2.75,5.86,4.08,8.81a1.75,1.75,0,0,0,1.9,1.17q14-.42,28-.75C243,14,244.64,14,246.3,14Z"/><path class="cls-3" d="M221.4,46.48c-4.47-1-8.86-1.89-13.24-2.86-8.37-1.86-16.72-3.75-25.09-5.59A6.52,6.52,0,0,1,178,33.67a25.28,25.28,0,0,0-3.81-7.43c-.09-.12-.2-.23-.17-.36.49,2.06,1.14,4.09,1.42,6.18a12.76,12.76,0,0,1-1.42,8c-1.06,1.9-2.58,1.92-3.83.13a12.56,12.56,0,0,1-2-6.32,15.11,15.11,0,0,1,.56-6.16,9.62,9.62,0,0,1,1.19-2.43,1.88,1.88,0,0,1,2.25-.82,2.76,2.76,0,0,0-2.78-.77,3,3,0,0,0-2,2.54c-.16.82-.21,1.66-.31,2.55-.81-1.35-.5-3.89.63-5.41.95-1.29,2.3-1.68,4.14-1.2a5.38,5.38,0,0,1,3.79,3c1.15,2.64,2.29,5.3,3.2,8a5.27,5.27,0,0,0,4.14,3.9c8.94,1.85,17.88,3.73,26.83,5.58,3,.62,6,1.18,9,1.77.4.08.8.14,1.36.23,0-.54,0-1,0-1.51a23.8,23.8,0,0,1,1.29-9.28c1.59-4,4.33-6.85,8.75-7.4a14.27,14.27,0,0,1,13,4.75,40.15,40.15,0,0,1,4.11,5.85c1.4,2.28,2.67,4.63,3.88,7a5.21,5.21,0,0,0,4.39,2.94c2.76.35,5.5.85,8.25,1.29v.23h-3.37c2,1.85,3.88,3.53,6.9,3.1,3.3-.48,6.64-.59,10-.86.7-.06,1.41-.07,2.11-.11l0,.29c-1.41.22-2.82.48-4.25.66-3,.38-6,.7-9,1.07a5.58,5.58,0,0,1-4-1.27,38.19,38.19,0,0,0-4.36-2.77,8.22,8.22,0,0,0-3-.82,5.51,5.51,0,0,1-4.35-2.79c-1.63-2.61-3.15-5.3-4.83-7.88a19.65,19.65,0,0,0-9.1-7.8c-6.76-2.77-13.6,1-15,8.18a26.15,26.15,0,0,0-.25,7.7A11,11,0,0,1,221.4,46.48Zm-49.56-20.7a2,2,0,0,0-1.76,1.46,3.72,3.72,0,0,0,.64,3.41C171.83,29.86,171.76,28.13,171.84,25.78Zm1.23,14.11c-.49-2.77-.82-3.41-1.83-3.65a11.32,11.32,0,0,0-.28,2.14,2,2,0,0,0,.55,1.46C171.84,40.09,172.51,39.89,173.07,39.89Zm-3.81-3.84c1.88-1.88,1.67-4.15-.34-5.12Zm5.45.68.26-3.82c-1.31.16-1.55,1-1.66,1.9S173.83,36.26,174.71,36.73Zm-1.27-5.58c1.25-.77,1.27-1.87.1-3.45C172.45,29.36,172.42,30,173.44,31.15Z"/><path class="cls-3" d="M240.43,37.92l2.28-2.06c2.82,2,3.84,5,3.37,7.32-.56,2.77-1.25,5.45-3.07,7.7a8.88,8.88,0,0,1-13.58.65c-5-5.1-4.93-14.76.16-19.73a6,6,0,0,1,8.34-.47,1.32,1.32,0,0,1,.47,1.72c-.31.77-.9,1.68-.71,2.34s1.17,1.15,1.81,1.71Zm-6.71-7c-.62.33-1.27.62-1.86,1-6.16,4.13-6.64,14.61-.87,19.3a16.43,16.43,0,0,0,1.95,1.16C226.6,47,226.93,35.92,233.72,31Zm1.69,18.65c0,.47,0,.94,0,1.41,0,.76.28,1.13,1.06,1,1-.14,2-.24,3.07-.43s1.15-.61.76-1.48-.88-1.73-1.27-2.62a1.3,1.3,0,0,0-1.69-.88c-1.86.39-1.92.42-1.92,2.32Zm9.65-8.47c-.3,0-.52-.07-.73-.07-.53,0-1.07,0-1.6.08-1.3.14-1.52.33-1.8,1.62a6.08,6.08,0,0,0-.21,1.39,1.21,1.21,0,0,0,.3.83c.74.68,1.52,1.31,2.3,1.94.39.3.71.26.8-.3Zm-10.93-9a9.93,9.93,0,0,0-3.49,4,1.25,1.25,0,0,0,.12,1.11c.52.77,1.16,1.45,1.81,2.24.52-.66,1-1.2,1.39-1.79a2.45,2.45,0,0,0,.56-1.23C234.47,35.11,234.28,33.75,234.13,32.17Zm-2.93,16c2.44-1.87,2.36-3.2,1-5.86-.42-.85-1.3-.62-2-.47s-.8.69-.77,1.31A9,9,0,0,0,231.2,48.2Zm5-4.48c1.2-.28,1.61-.71,1.81-1.7a2.74,2.74,0,0,0-1.36-3.08C237.57,40.65,237.68,42.19,236.22,43.72Zm-.76-4.34,1.06,2.53C237,40.25,236.57,39.33,235.46,39.38Z"/><path class="cls-3" d="M236.23,15.92c1.41-.07,2.81-.16,4.22-.19,4.06-.07,8.12-.32,12.17-.12,5.42.27,10.84.82,16.24,1.39a279.4,279.4,0,0,1,30.51,5.37,10.64,10.64,0,0,1,1.77.62c.18.08.3.33.45.5a2.83,2.83,0,0,1-.59.36,5,5,0,0,1-1,.16l-12.07.43c-1.73.06-3.46.12-5.18.21A2.48,2.48,0,0,1,281,24a9.65,9.65,0,0,0-2.79-1.65,97.85,97.85,0,0,0-18.38-3.93c-4.43-.53-8.87-.95-13.31-1.37-3.17-.3-6.33-.51-9.5-.77a7.27,7.27,0,0,1-.77-.2Z"/><path class="cls-3" d="M221.18,16.45a6.45,6.45,0,0,1,1-.13c4.61.21,9.23.39,13.84.67,3.33.2,6.65.48,10,.8,7.73.74,15.44,1.61,22.83,4.15a24.48,24.48,0,0,1,4.29,2.13,7.64,7.64,0,0,1,1.46,1.58,5.38,5.38,0,0,1-1,.2c-3-.1-6-.23-9-.32-.87,0-1.52-.14-1.86-1.17a4,4,0,0,0-2.68-2.21,46.79,46.79,0,0,0-12.25-2.86c-4.24-.43-8.48-1-12.73-1.43-3.75-.39-7.51-.68-11.26-1-.88-.07-1.75-.16-2.62-.24Z"/><path class="cls-3" d="M249.72,39.25a1.94,1.94,0,0,1,2.2-1,105.37,105.37,0,0,0,19.84,1.2A116.29,116.29,0,0,0,293.92,37c1.34-.29,2.7-.54,4-.85a1.48,1.48,0,0,0,1.32-1.58c0-.65.38-.84,1-.57a3.41,3.41,0,0,1,1.1.71c.34.39.84,1,.74,1.36s-.78.79-1.27.91c-2.13.54-4.27,1.08-6.43,1.42-5.12.81-10.23,1.68-15.38,2.18a99.39,99.39,0,0,1-11.32.25c-4.56-.08-9.12-.34-13.68-.54a14.19,14.19,0,0,1-2.44-.21A10,10,0,0,1,249.72,39.25Z"/><path class="cls-3" d="M265.68,36.68c-.05-1.13-.12-2.16-.15-3.18,0-.66.38-.93,1-.77s1.11.41,1.78.66c-.06-.31-.1-.56-.15-.81-.39-2.36.24-3.52,2.53-4.22,1.58-.49,3.23-.77,4.85-1.13.43-.09.87-.13,1.3-.21.75-.15.85.15.56.77-.93,2-1.86,4-2.77,6-.32.68-.58,1.39-.88,2.08a1.84,1.84,0,0,1-1.94,1.2Z"/><path class="cls-3" d="M259.09,32A9.37,9.37,0,0,1,261,27c1.26-1.63,3.05-1.42,3.8.51a8,8,0,0,1-1.17,8.1c-1.22,1.63-3.09,1.33-3.84-.62A23.21,23.21,0,0,1,259.09,32Zm1.35,2.37c.86,1.4,2,1.46,2.7.13a32.8,32.8,0,0,0,1.34-3.5,1.37,1.37,0,0,0,0-.49C263.38,32.16,263,34.35,260.44,34.41Z"/><path class="cls-3" d="M207.3,25.47c.16,4.66.33,9.31.5,14.09l-4.52-.8-14.63-2.62a2.37,2.37,0,0,1-.63-.36c.25-.08.52-.27.76-.24,3,.39,6,.82,8.95,1.23,2.43.33,4.85.68,7.28,1,.74.1,1.1-.26,1.14-1,.1-2.16.23-4.32.35-6.49.07-1.28.12-2.57.22-3.86a4.67,4.67,0,0,1,.32-1Z"/><path class="cls-3" d="M300.55,25.39a24.54,24.54,0,0,1-2.53.49c-3.69.35-7.38.66-11.08,1-1.59.14-3.2.2-4.79.4a4.88,4.88,0,0,0-3.78,2.66c-.85,1.54-1.65,3.11-2.48,4.66a1.93,1.93,0,0,1-.77.87l.54-1.46a22.35,22.35,0,0,1,3-6.16,4.85,4.85,0,0,1,3.8-1.94c5.52-.28,11-.6,16.57-.89.5,0,1,0,1.52,0Z"/><path class="cls-3" d="M186,6.49c1.44-.33,2.87-.77,4.33-1,2.89-.41,5.8-.69,8.71-1a3.84,3.84,0,0,1,4.12,2c1.14,2.13,2.13,4.34,3.18,6.52,0,.07,0,.17-.21.44-.08-.16-.14-.34-.23-.49-1-1.53-2-3-3-4.58-1.47-2.36-2.92-3-5.69-2.68-3.4.41-6.81.72-10.22,1.06-.3,0-.62,0-.93,0Z"/><path class="cls-3" d="M299,31.3a3.87,3.87,0,0,1-3.43,4.45c-5.29.66-10.58,1.37-15.87,2a24.62,24.62,0,0,1-2.85,0l-.06-.27a3.67,3.67,0,0,1,.75-.25l15.33-1.86c1-.12,2-.22,3-.38a2.93,2.93,0,0,0,2.3-2C298.39,32.42,298.71,31.87,299,31.3Z"/><path class="cls-3" d="M295.73,28.3c-1,.15-2,.34-3.07.43-2.59.22-5.19.37-7.79.6a4.26,4.26,0,0,0-3.73,2.76c-.42.95-.94,1.85-1.41,2.77l-.28-.1a1.57,1.57,0,0,1,.07-.54,46.17,46.17,0,0,1,2.36-4.39,3.07,3.07,0,0,1,2-1.23c3.73-.31,7.46-.45,11.19-.65a4.06,4.06,0,0,1,.69.08Z"/><path class="cls-3" d="M277.24,43.13l-9.54-.75V42l10.77-.19c.46,0,1,.13.57.68-1,1.4-2.16,2.73-3.25,4.08l-.29-.18Z"/><path class="cls-3" d="M269.89,20.75c3,.72,6.22,1.2,8.94,3.11a4,4,0,0,1,.66.8c-.35.17-.7.48-1,.47a4.81,4.81,0,0,1-2.16-.39C274.09,23.47,272,22.06,269.89,20.75Z"/><path class="cls-3" d="M189.05,31.59c-1.39-.14-2.77-.25-4.15-.43-1.56-.2-3.1-.46-4.65-.71-1.12-.19-1.64-.64-1.77-1.74-.23-2.11-.38-4.23-.56-6.34l.3-.08a3,3,0,0,1,.29.73c.22,1.49.41,3,.59,4.47a2.13,2.13,0,0,0,2,2.19q3.56.66,7.1,1.35a8.75,8.75,0,0,1,.87.27Z"/><path class="cls-3" d="M266,43.63c1.18,0,1.52.49,1.08,1.28a5.54,5.54,0,0,1-3.47,2.66,1.26,1.26,0,0,1-1.06-.35,1.06,1.06,0,0,1-.06-1A5.4,5.4,0,0,1,266,43.63Z"/><path class="cls-3" d="M281.93,46.1c1.3-.3,2.6-.68,3.91-.88A6.25,6.25,0,0,0,291,41.4a13.33,13.33,0,0,1,1.13-1.74C292.71,43.35,286.41,47.68,281.93,46.1Z"/><path class="cls-1" d="M246.3,14c-1.66,0-3.32,0-5,0q-14,.35-28,.75a1.75,1.75,0,0,1-1.9-1.17c-1.33-2.95-2.72-5.88-4.08-8.81-.12-.26-.24-.51-.35-.78-.4-1-.21-1.38.9-1.5,1.57-.16,3.14-.3,4.71-.37a88.42,88.42,0,0,1,20.49,1.09,7.28,7.28,0,0,1,3.17,1.51c3.24,2.69,6.37,5.53,9.54,8.3a7.28,7.28,0,0,0,.71.47Zm-18.13-.77h7.49c.58,0,.75-.34.39-.8a29.12,29.12,0,0,0-2.36-2.82,32.86,32.86,0,0,0-10.46-6.41c-1.68-.69-3.43-.3-5.19-.21a2.4,2.4,0,0,0,.82.69,30.81,30.81,0,0,1,8.73,6.64A2.48,2.48,0,0,1,228.17,13.25ZM222,13.6c1.48,0,2.86.08,4.23,0a1.25,1.25,0,0,0,1-2,8.37,8.37,0,0,0-2-2.48c-2.73-2-5.56-3.78-8.37-5.62A5.18,5.18,0,0,0,213.65,3a1.79,1.79,0,0,0,.69.68,23.27,23.27,0,0,1,6.28,4.6C222,9.82,222.93,11.42,222,13.6Z"/><path class="cls-1" d="M171.84,25.78c-.08,2.35,0,4.08-1.12,4.87a3.72,3.72,0,0,1-.64-3.41A2,2,0,0,1,171.84,25.78Z"/><path class="cls-1" d="M173.07,39.89c-.56,0-1.23.2-1.56,0a2,2,0,0,1-.55-1.46,11.32,11.32,0,0,1,.28-2.14C172.25,36.48,172.58,37.12,173.07,39.89Z"/><path class="cls-1" d="M169.26,36.05l-.34-5.12C170.93,31.9,171.14,34.17,169.26,36.05Z"/><path class="cls-1" d="M174.71,36.73c-.88-.47-1.51-1-1.4-1.92s.35-1.74,1.66-1.9Z"/><path class="cls-1" d="M173.44,31.15c-1-1.11-1-1.79.1-3.45C174.71,29.28,174.69,30.38,173.44,31.15Z"/><path class="cls-1" d="M233.72,31c-6.79,5-7.12,16-.78,21.47A16.43,16.43,0,0,1,231,51.27c-5.77-4.69-5.29-15.17.87-19.3C232.45,31.58,233.1,31.29,233.72,31Z"/><path class="cls-1" d="M235.41,49.61V49c0-1.9.06-1.93,1.92-2.32a1.3,1.3,0,0,1,1.69.88c.39.89.87,1.74,1.27,2.62s.18,1.3-.76,1.48-2.05.29-3.07.43c-.78.11-1.09-.26-1.06-1C235.43,50.55,235.41,50.08,235.41,49.61Z"/><path class="cls-1" d="M245.06,41.14l-.94,5.49c-.09.56-.41.6-.8.3-.78-.63-1.56-1.26-2.3-1.94a1.21,1.21,0,0,1-.3-.83,6.08,6.08,0,0,1,.21-1.39c.28-1.29.5-1.48,1.8-1.62.53,0,1.07-.06,1.6-.08C244.54,41.07,244.76,41.11,245.06,41.14Z"/><path class="cls-1" d="M234.13,32.17c.15,1.58.34,2.94.39,4.31a2.45,2.45,0,0,1-.56,1.23c-.4.59-.87,1.13-1.39,1.79-.65-.79-1.29-1.47-1.81-2.24a1.25,1.25,0,0,1-.12-1.11A9.93,9.93,0,0,1,234.13,32.17Z"/><path class="cls-1" d="M231.2,48.2a9,9,0,0,1-1.78-5c0-.62.09-1.18.77-1.31s1.61-.38,2,.47C233.56,45,233.64,46.33,231.2,48.2Z"/><path class="cls-1" d="M236.22,43.72c1.46-1.53,1.35-3.07.45-4.78A2.74,2.74,0,0,1,238,42C237.83,43,237.42,43.44,236.22,43.72Z"/><path class="cls-1" d="M235.46,39.38c1.11-.05,1.53.87,1.06,2.53Z"/><path class="cls-1" d="M260.44,34.41c2.53-.06,2.94-2.25,4-3.86a1.37,1.37,0,0,1,0,.49,32.8,32.8,0,0,1-1.34,3.5C262.47,35.87,261.3,35.81,260.44,34.41Z"/><path class="cls-3" d="M228.17,13.25a2.48,2.48,0,0,0-.58-2.91,30.81,30.81,0,0,0-8.73-6.64A2.4,2.4,0,0,1,218,3c1.76-.09,3.51-.48,5.19.21a32.86,32.86,0,0,1,10.46,6.41,29.12,29.12,0,0,1,2.36,2.82c.36.46.19.79-.39.8Z"/><path class="cls-3" d="M222,13.6c1-2.18,0-3.78-1.36-5.28a23.27,23.27,0,0,0-6.28-4.6,1.79,1.79,0,0,1-.69-.68,5.18,5.18,0,0,1,3.26.46c2.81,1.84,5.64,3.65,8.37,5.62a8.37,8.37,0,0,1,2,2.48,1.25,1.25,0,0,1-1,2C224.84,13.68,223.46,13.6,222,13.6Z"/><path class="cls-1" d="M8.7,544.18a2.16,2.16,0,0,0,1.09-2.42c-.07-1,0-1.92-.08-2.88a.69.69,0,0,1,.52-.78,15.07,15.07,0,0,0,4.45-3.05,1.38,1.38,0,0,0,.54-1.19c-.05-1.42-.05-2.84-.09-4.27,0-.57.22-.83.76-1.12,1.39-.75,3.1-1,4.08-2.38a1.33,1.33,0,0,0,.29-.76c0-1.26-.08-2.52-.11-3.78a1.7,1.7,0,0,1,1-1.64,3.62,3.62,0,0,0,1.18-1.09,3,3,0,0,1,1.53-1.2c1.9-.67,1.92-.69,2-2.7.06-1.08,0-2.16,0-3.23s.16-1.27,1.14-1.6a8.81,8.81,0,0,0,3.49-1.86,1.17,1.17,0,0,0,.3-.69c0-1.4,0-2.8,0-4.2A1.59,1.59,0,0,1,32,501.67c.68-.27,1.56-.45,1.92-1s.07-1.37.12-2.08.25-1.12.27-1.69-.14-1-.13-1.54c0-1.19.12-2.37.09-3.55s-.18-2.32-.25-3.48c-.12-1.95-.16-1.63,1.52-2.18a9.72,9.72,0,0,1,6,.08c.94.27,1.92.45,2.88.66.06,0,.17,0,.19,0,.6.9,1.6.55,2.41.8,1.88.58,3.78,1.12,5.67,1.68a3.9,3.9,0,0,0,.93.21,1.05,1.05,0,0,1,1.15,1.16c.06,1.12.11,2.25.07,3.37a5,5,0,0,1-.45,1.2c-.1.28-.29.69-.18.87a3.81,3.81,0,0,1,.35,2.27c0,.85,0,1.69,0,2.54a1.93,1.93,0,0,1-.11.88c-.57.94-.13,1.87-.1,2.81,0,1.31-.07,2.61-.05,3.92a12.84,12.84,0,0,0,.32,1.71,3.19,3.19,0,0,1,.08.61c0,1,0,2,0,3s-.87,1.72-.21,2.89c.47.8.29,2,.29,3a10,10,0,0,1-.3,1.79c0,.14-.12.26-.11.39.08,1.38.16,2.77.25,4.15a1.87,1.87,0,0,1-1,2c-2.5,1.36-4.86,3-7.43,4.16-1.34.61-2.45,1.54-3.78,2.12s-2.61,1.35-3.93,2c-1.52.72-3.09,1.35-4.59,2.1s-2.69,1.47-4.05,2.19c-1.11.59-2.25,1.13-3.37,1.7a.52.52,0,0,1-.13.06c-1.81.38-3.22,1.61-4.9,2.3s-3.29,1.62-4.94,2.42a7.41,7.41,0,0,1-1.85.7,1.94,1.94,0,0,1-1.4-.3c-1.05-.81-2-1.74-3-2.61-.14-.13-.41-.27-.55-.22C9.06,545.07,8.89,544.71,8.7,544.18Zm34.61-16.63.54-.06c.88-.1,1.12.12,1.12,1s0,1.83,0,2.75a4.07,4.07,0,0,0,.08.61l.23,0a2.88,2.88,0,0,0,.12-.64c0-.87,0-1.74-.16-2.6a2.1,2.1,0,0,1,1.29-2.33c2.14-1.11,4.26-2.25,6.38-3.39.27-.15.51-.35.77-.52l-.16-.28-3,1.45a29.78,29.78,0,0,0-.23-3c-.28-1.56.1-2.68,1.7-3.26a5.9,5.9,0,0,0,1.27-.88l-.16-.27-7.86,3.6c-.21-.41-.55-.78-.57-1.15-.05-1.32,0-2.65,0-4,0-.76.65-1,1.26-1.29,2.52-1,5-2.06,7.56-3.1.16-.06.25-.28.38-.42l-.16-.16c-.79.28-1.59.57-2.39.84s-1,.12-1-.8c0-1.18-.06-2.37-.16-3.55-.05-.57,0-.91.61-1.13.87-.33,1.71-.71,2.57-1.08l-.05-.24a2.66,2.66,0,0,0-.75.08q-3.24,1.17-6.45,2.37c-.91.35-1,.32-1.1-.66-.11-1.28-.15-2.56-.24-3.84a2.43,2.43,0,0,1,.33-1.88,5.26,5.26,0,0,0,1.26-.05A10.73,10.73,0,0,0,48,499l5.71-2.61-.19-.27c-.66.28-1.24.55-1.85.78s-.75.05-.77-.5c-.05-1-.11-2-.19-3a3.83,3.83,0,0,0-.19-.72c0,1.3.08,2.57.17,3.83a.92.92,0,0,1-.59,1c-1.45.67-2.89,1.38-4.34,2.06a2.81,2.81,0,0,1-.59.13c-.72.27-1.45.51-2.16.81s-1.46.65-2.18,1l.08.18,3.47-1.17a6.46,6.46,0,0,1,.24,1.1c0,1.21,0,2.42,0,3.64,0,1-.39,1.41-1.38,1.79-2.51,1-5,2-7.52,3a5.45,5.45,0,0,0-.58.31l.09.17.89-.3c.87-.33,1.74-.69,2.62-1,.41-.14.63,0,.64.5,0,1.26.13,2.52.11,3.78a2.32,2.32,0,0,1-1.31,2.14q-4,1.89-8,3.69a1.18,1.18,0,0,1-1,0,.71.71,0,0,0-1.12,0c0-.49-1.68-2-2.25-2.09a4.62,4.62,0,0,0-3.08,1.76.6.6,0,0,0,.11.06,1.31,1.31,0,0,0,.28,0c.79-.12,1.58-.33,2.22.43.12.13.44.1.66.13.39,0,.78,0,1.16.1a7.46,7.46,0,0,0,4.81-.6c.37-.19.76-.33,1.14-.5.8-.34.95-.24.9.66-.1,1.6-.23,3.2-.3,4.8a1.28,1.28,0,0,1-.82,1.23c-2.62,1.21-5.23,2.44-7.85,3.66a1.85,1.85,0,0,1-1.91-.32c-.88-.69-1.8-1.33-2.72-2-.13-.09-.39,0-.6,0,.13.16.22.4.37.46.44.17.71.42.68.91s-.07.73-.12,1.09c-.09.8.08,1,.9,1a8.16,8.16,0,0,0,4-.8,12,12,0,0,1,1.93-.88c.57-.23,1.16-.37,2-.62v4.78h.26c0-.23,0-.45,0-.67,0-1.24,0-2.48-.05-3.72a1.35,1.35,0,0,1,1-1.41c.77-.29,1.52-.66,2.27-1C35,525,37.12,524,39.22,523.1c.89-.4,1.22-.15,1.19.84,0,1.24-.07,2.48-.15,3.71a2.13,2.13,0,0,1-1.11,2q-3.63,1.8-7.28,3.56a11.59,11.59,0,0,1-1.3.42,10.75,10.75,0,0,0-1.38.49c-.75.39-1.46.86-2.18,1.29l-1.49.86a.35.35,0,0,0,.39,0c2.3-1,4.61-2,6.9-3.08,1.39-.64,1.58-.54,1.55,1,0,1,0,2.1,0,3.15a1,1,0,0,0,.27-.6c.07-1.24.07-2.48.19-3.71a1.62,1.62,0,0,1,.6-1.12c1-.59,2.11-1,3.13-1.57,1.35-.76,2.66-1.59,4-2.39ZM23.85,538c-1.46.55-2.85,1-4.22,1.59s-2.7,1.11-4.06,1.65A1.7,1.7,0,0,0,14.42,543c0,1,0,1.92,0,2.88,0,.31.07.62.13,1.08a7.72,7.72,0,0,0,1.82-.89,21.89,21.89,0,0,1,4.24-2.46c.07,0,.22.07.34.11l.41-.65.19.68,1.47-1.4.15.3c.15-.08.27-.2.39-.19.87,0,.89-.63.84-1.16C24.28,540.28,24.06,539.25,23.85,538Zm9.26-18.69c-.15,0-.22,0-.28,0-2.5,1-5,2-7.5,3.06a1,1,0,0,0-.48,1.36,1,1,0,0,1,0,.58c-.38,1.36-.64,2.59.44,3.54.15-.09.36-.3.43-.26.46.24.67-.09.94-.32a.79.79,0,0,1,.26-.19c1-.38,1.93-.71,2.88-1.11a24.68,24.68,0,0,0,2.59-1.25,1.43,1.43,0,0,0,.71-1C33.15,522.29,33.11,520.82,33.11,519.32Zm-2-1.67.08.18a1.61,1.61,0,0,0,.62,0L38.34,515c.4-.17.46-.4.4-.81a7.41,7.41,0,0,1,0-1.49c0-.59.16-1.19.14-1.77,0-.78-.37-1-1.09-.69s-1.58.64-2.36.95c-1.34.54-2.68,1.06-4,1.61a1.71,1.71,0,0,0-1.21,1.66c0,.87-.08,1.74-.08,2.61a3.73,3.73,0,0,0,.23.9ZM31,532.31c.73-.36,1.36-.6,1.92-.94,2-1.2,4.33-1.46,6.29-2.7a1.19,1.19,0,0,0,.61-1.46c-.1-.6-.18-1.21-.22-1.82s0-1,0-1.62c-.27.08-.44.12-.61.19-2.39,1-4.78,2.12-7.18,3.15a1.35,1.35,0,0,0-.87,1.52c.06,1,0,2,0,3C31,531.81,31,532,31,532.31Zm13.13-31.25c-.36.1-.62.16-.87.25-2.4.9-4.8,1.83-7.21,2.68-.56.2-.79.44-.72,1,.09.81.13,1.61.22,2.42.05.47.15.93.24,1.44,2.74-1.07,5.3-2.07,7.86-3.09a.81.81,0,0,0,.46-.52C44.15,503.89,44.13,502.52,44.13,501.06ZM28.86,530.67l-.14,0v-2c-.59.31-1,.58-1.51.8-1.2.55-2.41,1.1-3.63,1.61-.88.37-1.79.65-2.68,1a.59.59,0,0,0-.31.46c.06,1.48.16,3,.24,4.43.13,0,.18,0,.22,0,2.52-1.15,5-2.3,7.55-3.47a.69.69,0,0,0,.35-.46c.09-1,.13-2.1.18-3.16H29Zm20.87-38.12a6.25,6.25,0,0,0-.83.2c-2.32.85-4.64,1.7-6.95,2.58a1,1,0,0,0-.53.61c-.14,1-.24,2.09-.29,3.14a4.61,4.61,0,0,0,.23,1.14c1.07-.41,2-.74,3-1.12.52-.22,1-.51,1.52-.76.14-.07.4-.18.44-.13.41.44.72,0,1-.09s.64-.25,1-.34a1.5,1.5,0,0,0,1-1A6.79,6.79,0,0,0,49.73,492.55ZM46.13,518a7,7,0,0,0,1.68-.11,4.58,4.58,0,0,0,2.55-1.39.87.87,0,0,1,.35-.2l1-.37a5,5,0,0,1,1-.39A1.52,1.52,0,0,0,54.05,514c0-.71,0-1.42.09-2.13s-.38-1.18-1.1-.93-1.6.68-2.39,1c-.29.13-.57.28-.86.4-1.24.49-2.61.72-3.48,1.89-.06.07-.22.06-.3.13s-.37.32-.38.49c-.07,1-.09,2-.11,2.94a2.78,2.78,0,0,0,.11.63l.2,0V516.6H46Zm-1.71,10.09-6.2,3.22a1.69,1.69,0,0,1-.62.21,1.53,1.53,0,0,0-1.42.89c-.66,1.21-.41,2.49-.33,3.76,0,.12.36.34.46.3.77-.33,1.61-.57,1.94-1.26a8.34,8.34,0,0,0,4.89-2.53l0,.41c.91-.38,1.81-1.7,1.44-2.27a2.63,2.63,0,0,1-.21-1.83C44.43,528.66,44.42,528.37,44.42,528.06Zm-18,13.4,0,.23a5.82,5.82,0,0,0,1.12-.64,4.77,4.77,0,0,0,.69-1l.19.11-.06.52a28.08,28.08,0,0,1,4.75-2.18,1.14,1.14,0,0,0,.84-1.2c0-1,0-2,0-3.08,0-.88-.17-1-.94-.61-2.05,1-4.07,2.1-6.15,3.05a1.35,1.35,0,0,0-.91,1.41c0,.88.09,1.75.18,2.62A4.32,4.32,0,0,0,26.37,541.46ZM54,497.54a2.7,2.7,0,0,0-.39,0c-2.39.88-4.78,1.75-7.15,2.67A1.07,1.07,0,0,0,46,501a24,24,0,0,0,0,2.68c.07,1,.32,1.22,1.31.83q3.16-1.24,6.3-2.55a.76.76,0,0,0,.4-.54C54,500.18,54,498.9,54,497.54Zm-4.73,32.24c.49-.31,1-.63,1.49-.94l2.66-1.55a.81.81,0,0,0,.38-1,3.17,3.17,0,0,1,.1-2.06,1.06,1.06,0,0,0,.15-.59.83.83,0,0,0-.33-.55c-.12-.08-.37,0-.63.11l.39.42c-.3.19-.55.35-.81.49-1.85,1-3.7,2-5.53,3.06-.34.2-.76.62-.77,1a31.77,31.77,0,0,0,.15,3.24l2.7-1.69Zm1.79-20.11c.86-.46,1.6-.83,2.31-1.25a.89.89,0,0,0,.42-.56c.07-.87.09-1.74.09-2.61,0-.56-.33-.76-.88-.57a5.07,5.07,0,0,0-1.21.47,1.52,1.52,0,0,0-.67.84,21.37,21.37,0,0,0-.23,2.66A5,5,0,0,0,51.08,509.67Zm2.7,7.25c-.7.47-1.44,1-2.16,1.46a.56.56,0,0,0-.25.32,9.84,9.84,0,0,0-.09,3.67,8.27,8.27,0,0,1,1.78-.77c.61-.12.92-.36.92-1,0-1.2,0-2.4-.07-3.6C53.91,517,53.88,517,53.78,516.92Zm.46-25.43c-1.9.55-2.82.87-2.71,2.35l.48-.54-.65,2.07.21.09.46-.33.19.32c.61-.4,1.5-.68,1.75-1.24A8.33,8.33,0,0,0,54.24,491.49ZM31.33,509l-.72,1.07c.66.19,1.43-.09,1.72.68,0,0,.08,0,.13,0l2.09-.3.05-.24c-1.08-.58-2.15-1.18-3.25-1.73-.41-.21-.74,0-1,.45ZM17,539H19.4a11.3,11.3,0,0,0-3.71-2.83.6.6,0,0,0,.14.45,2.73,2.73,0,0,0,.63.41c.55.27.74.58.24,1.08a1.2,1.2,0,0,0-.22.42s.06.1.12.21l.39-.5Zm19.22-37.31c.72,0,1.31,0,1.89,0a6.8,6.8,0,0,1,1,.16l.66.1c-.14-.21-.22-.5-.41-.59a7.16,7.16,0,0,0-2-.82c-.51-.08-1.19-.38-1.77.24l.93.18Z"/><path class="cls-3" d="M45.12,499.76a2.43,2.43,0,0,0-.33,1.88c.09,1.28.13,2.56.24,3.84.08,1,.19,1,1.1.66q3.21-1.2,6.45-2.37a2.66,2.66,0,0,1,.75-.08l.05.24c-.86.37-1.7.75-2.57,1.08-.56.22-.66.56-.61,1.13.1,1.18.15,2.37.16,3.55,0,.92.16,1.09,1,.8s1.6-.56,2.39-.84l.16.16c-.13.14-.22.36-.38.42-2.51,1-5,2.07-7.56,3.1-.61.24-1.22.53-1.26,1.29,0,1.32-.08,2.65,0,4,0,.37.36.74.57,1.15l7.86-3.6.16.27a5.9,5.9,0,0,1-1.27.88c-1.6.58-2,1.7-1.7,3.26a29.78,29.78,0,0,1,.23,3l3-1.45.16.28c-.26.17-.5.37-.77.52-2.12,1.14-4.24,2.28-6.38,3.39a2.1,2.1,0,0,0-1.29,2.33c.11.86.13,1.73.16,2.6a2.88,2.88,0,0,1-.12.64l-.23,0a4.07,4.07,0,0,1-.08-.61c0-.92,0-1.83,0-2.75s-.24-1.1-1.12-1l-.54.06c2-1,3.91-2.06,5.88-3.06a1.48,1.48,0,0,0,.92-1.65c-.11-.92-.11-1.86-.19-2.8a2.84,2.84,0,0,0-.24-.73h0c0-.79-.23-1-.94-.66-2.54,1.26-5.07,2.54-7.57,3.86a1.36,1.36,0,0,0-.43,1c0,.91,0,1.82,0,2.74,0,.5,0,1,0,1.5s.31.8.89.52a8.67,8.67,0,0,1,.9-.31c-1.33.8-2.64,1.63-4,2.39-1,.57-2.13,1-3.13,1.57a1.62,1.62,0,0,0-.6,1.12c-.12,1.23-.12,2.47-.19,3.71a1,1,0,0,1-.27.6c0-1.05,0-2.1,0-3.15,0-1.51-.16-1.61-1.55-1-2.29,1-4.6,2.06-6.9,3.08a.35.35,0,0,1-.39,0l1.49-.86c.72-.43,1.43-.9,2.18-1.29a10.75,10.75,0,0,1,1.38-.49,11.59,11.59,0,0,0,1.3-.42q3.64-1.76,7.28-3.56a2.13,2.13,0,0,0,1.11-2c.08-1.23.1-2.47.15-3.71,0-1-.3-1.24-1.19-.84C37.12,524,35,525,33,525.94c-.75.34-1.5.71-2.27,1a1.35,1.35,0,0,0-1,1.41c0,1.24,0,2.48.05,3.72,0,.22,0,.44,0,.67h-.26V528c-.81.25-1.4.39-2,.62a12,12,0,0,0-1.93.88,8.16,8.16,0,0,1-4,.8c-.82,0-1-.2-.9-1,.05-.36.09-.72.12-1.09s-.24-.74-.68-.91c-.15-.06-.24-.3-.37-.46.21,0,.47-.12.6,0,.92.62,1.84,1.26,2.72,2A1.85,1.85,0,0,0,25,529c2.62-1.22,5.23-2.45,7.85-3.66a1.28,1.28,0,0,0,.82-1.23c.07-1.6.2-3.2.3-4.8,0-.9-.1-1-.9-.66-.38.17-.77.31-1.14.5a7.46,7.46,0,0,1-4.81.6c-.38-.06-.77-.06-1.16-.1-.22,0-.54,0-.66-.13-.64-.76-1.43-.55-2.22-.43a1.31,1.31,0,0,1-.28,0,.6.6,0,0,1-.11-.06,4.62,4.62,0,0,1,3.08-1.76c.57.1,2.23,1.6,2.25,2.09a.71.71,0,0,1,1.12,0,1.18,1.18,0,0,0,1,0q4-1.8,8-3.69a2.32,2.32,0,0,0,1.31-2.14c0-1.26-.09-2.52-.11-3.78,0-.49-.23-.64-.64-.5-.88.32-1.75.68-2.62,1l-.89.3-.09-.17a5.45,5.45,0,0,1,.58-.31c2.51-1,5-2,7.52-3,1-.38,1.36-.77,1.38-1.79,0-1.22,0-2.43,0-3.64a6.46,6.46,0,0,0-.24-1.1l-3.47,1.17-.08-.18c.72-.33,1.44-.68,2.18-1s1.44-.54,2.16-.81Zm-5.24,15.33c.65-.21,1.18-.36,1.68-.55,2.18-.83,4.34-1.71,6.54-2.48a2.46,2.46,0,0,0,1.81-2.14,12.33,12.33,0,0,0-.31-4.59l-.78.25-3.3,1.17c-1.59.57-3.2,1.12-4.79,1.7-.48.17-1,.34-1,1,0,1.19,0,2.38,0,3.57C39.77,513.69,39.83,514.33,39.88,515.09Zm-5.9,3.2a3.18,3.18,0,0,1,.24.77c.05,1.53.07,3.06.11,4.6a9.14,9.14,0,0,0,.12.93l.71-.31c2.45-1.08,4.89-2.19,7.36-3.23,1.72-.72,1.67-.67,1.67-2.55a18.48,18.48,0,0,1,.37-3.22c.1-.6-.08-1.2-.5-1.14a8.45,8.45,0,0,0-1.64.44c-.53.2-1,.5-1.55.72l-6.58,2.78A2.85,2.85,0,0,0,34,518.29Z"/><path class="cls-3" d="M23.85,538c.21,1.24.43,2.27.53,3.31.05.53,0,1.19-.84,1.16-.12,0-.24.11-.39.19l-.15-.3-1.47,1.4-.19-.68-.41.65c-.12,0-.27-.15-.34-.11a21.89,21.89,0,0,0-4.24,2.46,7.72,7.72,0,0,1-1.82.89c-.06-.46-.12-.77-.13-1.08,0-1,0-1.92,0-2.88a1.7,1.7,0,0,1,1.15-1.77c1.36-.54,2.7-1.12,4.06-1.65S22.39,538.56,23.85,538Z"/><path class="cls-3" d="M33.11,519.32c0,1.5,0,3,0,4.43a1.43,1.43,0,0,1-.71,1A24.68,24.68,0,0,1,29.77,526c-.95.4-1.92.73-2.88,1.11a.79.79,0,0,0-.26.19c-.27.23-.48.56-.94.32-.07,0-.28.17-.43.26-1.08-1-.82-2.18-.44-3.54a1,1,0,0,0,0-.58,1,1,0,0,1,.48-1.36c2.49-1,5-2.05,7.5-3.06C32.89,519.28,33,519.31,33.11,519.32Z"/><path class="cls-3" d="M31.07,517.65l-.75.33a3.73,3.73,0,0,1-.23-.9c0-.87.07-1.74.08-2.61a1.71,1.71,0,0,1,1.21-1.66c1.34-.55,2.68-1.07,4-1.61.78-.31,1.56-.65,2.36-.95s1.05-.09,1.09.69c0,.58-.12,1.18-.14,1.77a7.41,7.41,0,0,0,0,1.49c.06.41,0,.64-.4.81l-6.57,2.81a1.61,1.61,0,0,1-.62,0Z"/><path class="cls-3" d="M31,532.31c0-.32-.05-.5-.05-.67,0-1,0-2,0-3a1.35,1.35,0,0,1,.87-1.52c2.4-1,4.79-2.1,7.18-3.15.17-.07.34-.11.61-.19,0,.58,0,1.1,0,1.62s.12,1.22.22,1.82a1.19,1.19,0,0,1-.61,1.46c-2,1.24-4.32,1.5-6.29,2.7C32.36,531.71,31.73,532,31,532.31Z"/><path class="cls-3" d="M44.13,501.06c0,1.46,0,2.83,0,4.2a.81.81,0,0,1-.46.52c-2.56,1-5.12,2-7.86,3.09-.09-.51-.19-1-.24-1.44-.09-.81-.13-1.61-.22-2.42-.07-.58.16-.82.72-1,2.41-.85,4.81-1.78,7.21-2.68C43.51,501.22,43.77,501.16,44.13,501.06Z"/><path class="cls-3" d="M28.86,530.67l.18-.77h.09C29.08,531,29,532,29,533.06a.69.69,0,0,1-.35.46c-2.51,1.17-5,2.32-7.55,3.47,0,0-.09,0-.22,0-.08-1.47-.18-3-.24-4.43a.59.59,0,0,1,.31-.46c.89-.36,1.8-.64,2.68-1,1.22-.51,2.43-1.06,3.63-1.61.47-.22.92-.49,1.51-.8v2Z"/><path class="cls-3" d="M49.73,492.55a6.79,6.79,0,0,1-.47,4.27,1.5,1.5,0,0,1-1,1c-.33.09-.64.27-1,.34s-.64.53-1,.09c0,0-.3.06-.44.13-.51.25-1,.54-1.52.76-.93.38-1.88.71-3,1.12a4.61,4.61,0,0,1-.23-1.14c0-1.05.15-2.1.29-3.14a1,1,0,0,1,.53-.61c2.31-.88,4.63-1.73,6.95-2.58A6.25,6.25,0,0,1,49.73,492.55Z"/><path class="cls-3" d="M46.13,518,46,516.59h-.14v1.77l-.2,0a2.78,2.78,0,0,1-.11-.63c0-1,0-2,.11-2.94,0-.17.23-.34.38-.49s.24-.06.3-.13c.87-1.17,2.24-1.4,3.48-1.89.29-.12.57-.27.86-.4.79-.35,1.57-.75,2.39-1s1.16.18,1.1.93-.07,1.42-.09,2.13a1.52,1.52,0,0,1-1.35,1.56,5,5,0,0,0-1,.39l-1,.37a.87.87,0,0,0-.35.2,4.58,4.58,0,0,1-2.55,1.39A7,7,0,0,1,46.13,518Z"/><path class="cls-3" d="M44.42,528.06c0,.31,0,.6,0,.9a2.63,2.63,0,0,0,.21,1.83c.37.57-.53,1.89-1.44,2.27l0-.41a8.34,8.34,0,0,1-4.89,2.53c-.33.69-1.17.93-1.94,1.26-.1,0-.45-.18-.46-.3-.08-1.27-.33-2.55.33-3.76a1.53,1.53,0,0,1,1.42-.89,1.69,1.69,0,0,0,.62-.21Z"/><path class="cls-3" d="M26.37,541.46a4.32,4.32,0,0,1-.26-.82c-.09-.87-.16-1.74-.18-2.62a1.35,1.35,0,0,1,.91-1.41c2.08-1,4.1-2,6.15-3.05.77-.39.94-.27.94.61,0,1,0,2.06,0,3.08a1.14,1.14,0,0,1-.84,1.2,28.08,28.08,0,0,0-4.75,2.18l.06-.52-.19-.11a4.77,4.77,0,0,1-.69,1,5.82,5.82,0,0,1-1.12.64Z"/><path class="cls-3" d="M54,497.54c0,1.36,0,2.64,0,3.92a.76.76,0,0,1-.4.54q-3.14,1.31-6.3,2.55c-1,.39-1.24.22-1.31-.83A24,24,0,0,1,46,501a1.07,1.07,0,0,1,.52-.78c2.37-.92,4.76-1.79,7.15-2.67A2.7,2.7,0,0,1,54,497.54Z"/><path class="cls-3" d="M49.29,529.78l0-.1-2.7,1.69a31.77,31.77,0,0,1-.15-3.24c0-.33.43-.75.77-1,1.83-1,3.68-2,5.53-3.06.26-.14.51-.3.81-.49l-.39-.42c.26-.06.51-.19.63-.11a.83.83,0,0,1,.33.55,1.06,1.06,0,0,1-.15.59,3.17,3.17,0,0,0-.1,2.06.81.81,0,0,1-.38,1l-2.66,1.55C50.27,529.15,49.78,529.47,49.29,529.78Z"/><path class="cls-1" d="M42.53,528a8.67,8.67,0,0,0-.9.31c-.58.28-.84,0-.89-.52s0-1,0-1.5c0-.92,0-1.83,0-2.74a1.36,1.36,0,0,1,.43-1c2.5-1.32,5-2.6,7.57-3.86.71-.36,1-.13.94.66-1.12.43-2.25.85-3.37,1.29-.41.15-.8.34-1.2.5a23.64,23.64,0,0,0-2.21.88c-1.4.72-1.38.76-1.39,2.35v2.92c1.85-.78,3.58-1.48,5.28-2.25.7-.31,1.32-.83,2-1.17a1.27,1.27,0,0,0,.82-1.38c-.06-1.05,0-2.1,0-3.15a2.84,2.84,0,0,1,.24.73c.08.94.08,1.88.19,2.8a1.48,1.48,0,0,1-.92,1.65c-2,1-3.92,2-5.88,3.06Z"/><path class="cls-3" d="M51.08,509.67a5,5,0,0,1-.17-1,21.37,21.37,0,0,1,.23-2.66,1.52,1.52,0,0,1,.67-.84,5.07,5.07,0,0,1,1.21-.47c.55-.19.88,0,.88.57,0,.87,0,1.74-.09,2.61a.89.89,0,0,1-.42.56C52.68,508.84,51.94,509.21,51.08,509.67Z"/><path class="cls-3" d="M53.78,516.92c.1.09.13.1.13.12,0,1.2.06,2.4.07,3.6,0,.6-.31.84-.92,1a8.27,8.27,0,0,0-1.78.77,9.84,9.84,0,0,1,.09-3.67.56.56,0,0,1,.25-.32C52.34,517.88,53.08,517.39,53.78,516.92Z"/><path class="cls-3" d="M54.24,491.49a8.33,8.33,0,0,1-.27,2.72c-.25.56-1.14.84-1.75,1.24l-.19-.32-.46.33-.21-.09L52,493.3l-.48.54C51.42,492.36,52.34,492,54.24,491.49Z"/><path class="cls-3" d="M31.33,509l-1-.06c.28-.45.61-.66,1-.45,1.1.55,2.17,1.15,3.25,1.73l-.05.24-2.09.3c-.05,0-.13,0-.13,0-.29-.77-1.06-.49-1.72-.68Z"/><path class="cls-3" d="M45.12,499.76a2.81,2.81,0,0,0,.59-.13c1.45-.68,2.89-1.39,4.34-2.06a.92.92,0,0,0,.59-1c-.09-1.26-.16-2.53-.17-3.83a3.83,3.83,0,0,1,.19.72c.08,1,.14,2,.19,3,0,.55.31.68.77.5s1.19-.5,1.85-.78l.19.27L48,499a10.73,10.73,0,0,1-1.57.67,5.26,5.26,0,0,1-1.26.05Z"/><path class="cls-3" d="M17,539l-.05-.76-.39.5c-.06-.11-.13-.18-.12-.21a1.2,1.2,0,0,1,.22-.42c.5-.5.31-.81-.24-1.08a2.73,2.73,0,0,1-.63-.41.6.6,0,0,1-.14-.45A11.3,11.3,0,0,1,19.4,539Z"/><path class="cls-3" d="M36.26,501.66l.27-.72-.93-.18c.58-.62,1.26-.32,1.77-.24a7.16,7.16,0,0,1,2,.82c.19.09.27.38.41.59l-.66-.1a6.8,6.8,0,0,0-1-.16C37.57,501.64,37,501.66,36.26,501.66Z"/><path class="cls-1" d="M39.88,515.09c-.05-.76-.11-1.4-.12-2,0-1.19,0-2.38,0-3.57,0-.7.51-.87,1-1,1.59-.58,3.2-1.13,4.79-1.7l3.3-1.17.78-.25a12.33,12.33,0,0,1,.31,4.59,2.46,2.46,0,0,1-1.81,2.14c-2.2.77-4.36,1.65-6.54,2.48C41.06,514.73,40.53,514.88,39.88,515.09Zm.69-3.29c0,.34,0,.69,0,1,0,1,.32,1.23,1.26.79,2.43-1.13,4.84-2.28,7.25-3.44a.68.68,0,0,0,.33-.45,26.31,26.31,0,0,0,.18-2.8c0-.82-.37-1-1.12-.71-2,.87-4,1.82-6.11,2.63C41,509.41,40.17,510.21,40.57,511.8Z"/><path class="cls-1" d="M34,518.29a2.85,2.85,0,0,1,.31-.21l6.58-2.78c.52-.22,1-.52,1.55-.72a8.45,8.45,0,0,1,1.64-.44c.42-.06.6.54.5,1.14a18.48,18.48,0,0,0-.37,3.22c0,1.88.05,1.83-1.67,2.55-2.47,1-4.91,2.15-7.36,3.23l-.71.31a9.14,9.14,0,0,1-.12-.93c0-1.54-.06-3.07-.11-4.6A3.18,3.18,0,0,0,34,518.29Zm1.08,2c0,.46,0,.92,0,1.37a.69.69,0,0,0,.57.8,2.58,2.58,0,0,0,2.05-.27c1.19-.64,2.4-1.26,3.6-1.87a3.25,3.25,0,0,1,.7-.17c.83-.19,1.67-.61,1.64-1.53s.08-1.87.08-2.81-.56-1.2-1.29-.86c-1.73.79-3.4,1.72-5.19,2.33C35.67,517.84,34.74,518.56,35.06,520.31Z"/><path class="cls-3" d="M49.68,519.31c0,1.05-.1,2.1,0,3.15a1.27,1.27,0,0,1-.82,1.38c-.69.34-1.31.86-2,1.17-1.7.77-3.43,1.47-5.28,2.25v-2.92c0-1.59,0-1.63,1.39-2.35a23.64,23.64,0,0,1,2.21-.88c.4-.16.79-.35,1.2-.5,1.12-.44,2.25-.86,3.37-1.29Z"/><path class="cls-3" d="M40.57,511.8c-.4-1.59.38-2.39,1.79-2.95,2.06-.81,4.07-1.76,6.11-2.63.75-.32,1.11-.11,1.12.71a26.31,26.31,0,0,1-.18,2.8.68.68,0,0,1-.33.45c-2.41,1.16-4.82,2.31-7.25,3.44-.94.44-1.26.22-1.26-.79C40.56,512.49,40.57,512.14,40.57,511.8Z"/><path class="cls-3" d="M35.06,520.31c-.32-1.75.61-2.47,2.15-3,1.79-.61,3.46-1.54,5.19-2.33.73-.34,1.29,0,1.29.86s-.1,1.88-.08,2.81S42.8,520,42,520.17a3.25,3.25,0,0,0-.7.17c-1.2.61-2.41,1.23-3.6,1.87a2.58,2.58,0,0,1-2.05.27.69.69,0,0,1-.57-.8C35.08,521.23,35.06,520.77,35.06,520.31Z"/><path class="cls-1" d="M127.65,527.26a5.33,5.33,0,0,1-.28,1.83,7.57,7.57,0,0,0-1.17,4.8,1.81,1.81,0,0,1-.88-2c.29-1.15.81-2.26,1-3.42a4.13,4.13,0,0,0-.39-2.2c-.12-.27-.82-.33-1.27-.4s-.65.15-.59.61a2.91,2.91,0,0,0,.31,1.15,4.93,4.93,0,0,1,.09-.87c.06-.24.27-.62.38-.61.29,0,.78.21.81.39a5.07,5.07,0,0,1,.08,2.15c-.56,1.86-1.21,3.67-.19,5.55-.93.4-1.53.08-1.52-.87,0-1.12.14-2.24.2-3.36a3.9,3.9,0,0,0-.14-1.43c-.2,1.86-.4,3.72-.62,5.69h-1.33c-3.81-.13-7.63-.27-11.45-.37a1.53,1.53,0,0,0-1.13.39,8,8,0,0,1-5.69,3,8.87,8.87,0,0,1-7-1.6,10.74,10.74,0,0,1-2.2-2.9,1.51,1.51,0,0,0-1.53-1c-2.18.1-4.37.14-6.55.18a6.15,6.15,0,0,1-1.54-.15c-1-.21-1.34-.88-1.2-2a3.21,3.21,0,0,0,2.84,1c2.89,0,5.79,0,8.73,0l.41-2.56A12.63,12.63,0,0,0,90.55,527c-1.35,0-2.7.09-4,.08-.47,0-1.24.11-1.21-.6a2,2,0,0,1,.85-1.42,15,15,0,0,1,2.6-.9c-.42-2.95-.44-6-1.34-8.79L90.1,513l.13.44c.11-1.94-.57-3.3-1.69-3.45s-2,1.14-2.53,3a8.47,8.47,0,0,1-.53-1.51,3.25,3.25,0,0,1,2-3.76,15.64,15.64,0,0,1,4-.94c3.31-.33,6.64-.52,10-.76a3.35,3.35,0,0,0,.85-.12c3.39-1.23,7-1.41,10.49-1.94,2.07-.31,4.16-.54,6.24-.78a1.17,1.17,0,0,0,1.11-.88c.52-1.46,1.13-2.89,1.65-4.35a7.81,7.81,0,0,1,5.25-5.05,59.76,59.76,0,0,1,12.85-2.37,79.06,79.06,0,0,1,15.15,0A27.75,27.75,0,0,1,165.21,493a12.62,12.62,0,0,1,6.85,8.71c.19.78.39,1.56.55,2.35a1.3,1.3,0,0,0,1.2,1.14c1.25.22,2.48.49,3.72.73,1.09.22,1.44.57,1.65,1.69a16.35,16.35,0,0,1,0,7.43c-.52,1.89-.92,4-2.74,5.23-.14.1-.17.39-.21.61-.3,1.75-.58,3.5-.87,5.23l.44-.63c-.17,1.69-.85,2.68-2.14,2.79a6.19,6.19,0,0,1-3.29-.23c-.79-.45-1.11-1.73-1.7-2.75L165.51,527c-2.62,1.38-5.22,2.79-7.86,4.12a2,2,0,0,0-1.12,1.66,39.85,39.85,0,0,1-1.22,5.1,6.05,6.05,0,0,1-6.25,4.32c-1.12,0-2.24-.1-3.36-.19a2.77,2.77,0,0,1-2.28-1.37,35.07,35.07,0,0,1-2.07-4.22,1,1,0,0,0-1.25-.74c-1.2.15-2.4.19-3.6.3-3.23.31-6.23-.89-9.33-1.4-.79-.13-1-.7-.67-1.61,1.42.23,2.88.36,4.28.72a22.46,22.46,0,0,0,13.37-.91,2.71,2.71,0,0,0,2.08-2.8c0-1,0-2,0-3.17-.78.15-1.41.24-2,.38a36.82,36.82,0,0,1-12.69.51c-1-.12-1.95-.06-2.92-.13a4.09,4.09,0,0,1-1-.27c0-.55.29-.78.88-.74a12.88,12.88,0,0,0,2.06,0,1.6,1.6,0,0,0,1.7-1.51,16.33,16.33,0,0,0-.13-6.42,2.23,2.23,0,0,0-2.33-2.05c-1.52-.17-3-.35-4.55-.39-5.57-.15-11.14-.24-16.71-.35-.84,0-1.67,0-2.5,0h-2.49c8.84.24,17.71-.09,26.5,1.07v.33l-31.8-.9v-.22H101l0-.22c-2,.22-4.11-.46-6,.89l.59-.83a1.29,1.29,0,0,0-1.11,1.37,11.82,11.82,0,0,0,.15,1.88,16,16,0,0,0,1.4,4.74l.56-.8c-.24-.15-.53-.23-.56-.36-.35-1.59-.71-3.18-1-4.79-.06-.39.25-.83.39-1.26l.24.08-.16.68a5.66,5.66,0,0,0,.75.08l20.32.59q6.93.21,13.87.38c.51,0,.88.13,1,.65l0,0a2.35,2.35,0,0,1-.77.31l-19-.54c-3.87-.11-7.75-.24-11.63-.33-1.59,0-3.19,0-4.85,0l.22,1.15c.34,0,.59.07.85.08l20.33.59q7.11.2,14.22.37c.63,0,1,.18.73,1l-36-1L96,522l35.7,1-.07.93-32.83-1,.69,1.4c1,0,2.1,0,3.16,0l20.76.6a1.72,1.72,0,0,0,1-.35,1.83,1.83,0,0,1,2.62.19,1.34,1.34,0,0,0,.85.36c1.16,0,2.33,0,3.62,0-.15.27-.21.52-.31.53-1.2.19-2.4.34-3.66.5Zm10.61-13.39,0,0a3.64,3.64,0,0,0,.1-4.22,2.76,2.76,0,0,0-4.54-.37c-1.52,1.81-1.11,4.73.86,5.62l.45.15A2.38,2.38,0,0,0,138.26,513.87ZM96.73,532.22l0,0a1.84,1.84,0,0,0,2-.1c-.17-.23-.52-.29-.68-.49-.29-.37-.69-.85-.65-1.24a10.23,10.23,0,0,1,.74-3.32,2.15,2.15,0,0,0-.23-2.38c-.28-.38-1.06-.39-1.53-.54-.1,1.53-.18,2.83-.28,4.14-.07.94-.21,1.87-.28,2.81A1,1,0,0,0,96.73,532.22Zm57.41-3.14h0c-.56,2.17-1.12,4.34-1.73,6.73,1.16-.78,1.15-2.07,1.9-3A6.14,6.14,0,0,1,153.1,537a6.53,6.53,0,0,0,1.19-1.6,12.9,12.9,0,0,0,.93-7.5,31,31,0,0,0-1.14-4.92,3.27,3.27,0,0,0-1.26-1.44.82.82,0,0,0-1.37.41,3.73,3.73,0,0,1,1.34,0c1.15.53,2,2.9,1.57,4.24l-.8-1.44-.22.06ZM120.65,502.4c.72,0,1.23,0,1.74,0,4.88-.12,9.76-.32,14.64-.37q6.93-.06,13.87.12c2.23.06,4.46.37,6.69.57.62.06,1-.09.95-.83a22.24,22.24,0,0,0-1.55-6.42,4.4,4.4,0,0,0-3.31-2.74,31.66,31.66,0,0,0-4.44-.54,83.08,83.08,0,0,0-14.36.72c-3.06.42-6.09,1.09-9.13,1.7a3.72,3.72,0,0,0-2.77,2C122.14,498.47,121.45,500.38,120.65,502.4ZM104.1,514.62h10.53c.69,0,.81-.53,1-1a11.31,11.31,0,0,1,7-7.11,42.19,42.19,0,0,1,9.71-2.27c2.48-.31,5-.54,7.47-.8-2.76,0-5.51.12-8.26.21a70.76,70.76,0,0,0-15.26,2,23.69,23.69,0,0,0-9.22,4.07A7.84,7.84,0,0,0,104.1,514.62ZM118.44,526v-.08l-19-.92c.56,1.14,0,2.19-.6,3.32a16.17,16.17,0,0,0-.82,3.09c4.92.35,9.58.74,14.24,1,3.42.19,6.84.23,10.25.32.24,0,.67-.13.7-.27.23-1.07.39-2.16.56-3.21-4.19,0-8.27.09-12.33,0s-8.18-.43-12.29-.66c0-.86.43-1,1.06-1,3.44.19,6.88.46,10.32.55,4.22.11,8.44.07,12.66.08a3.11,3.11,0,0,0,.72-.16l0-.35c-8,1-15.88-.24-23.87-.49l-.23-1.73Zm40.41-20.13v-.16l-5.53-.66a48.85,48.85,0,0,0-13.82.1,12.84,12.84,0,0,0-5.66,2.15A4.19,4.19,0,0,0,132,511c.16-.48.29-1,.49-1.45a3.86,3.86,0,0,1,4.82-2.42,4,4,0,0,1,2.66,1.89c.73,1.23,1.38,2.51,2.06,3.77,0,0,.08-.06.1-.11.12-.35.24-.7.35-1.06A6.26,6.26,0,0,1,148,507c2.62-.3,5.25-.56,7.88-.84Zm18.07,4.91L158.86,513c1.72.28,3.69.52,5.62.94,1.7.37,2.15,1.22,1.56,2.85-.53,1.42-1.21,2.79-1.87,4.15s-1.49,2.94-2.24,4.41a31.82,31.82,0,0,0,2.47-3,44.29,44.29,0,0,1,7.95-8.68C173.78,512.59,175.39,511.72,176.92,510.74Zm-18.2-17.11c.63,3.24,1.2,6.19,1.8,9.13a.8.8,0,0,0,.47.55c1.54.23,3.09.4,4.77.61-.59-2.82-1.12-5.46-1.74-8.08a1.76,1.76,0,0,0-1-1C161.68,494.34,160.31,494.05,158.72,493.63Zm-7.33,42.19c1.52-1.62,1.78-3.67,2-5.75l-.15.32c.26-2-1.37-1.92-2.36-2.14l.58-3.06a1.8,1.8,0,0,1,1.35,1.22c.26.62.42,1.28.63,1.92l.19,0-.89-4.28-.26,0,.17.71-2.41.17c.19-.39.35-.71.5-1,.07-.15.23-.34.19-.47-.42-1.39.48-2.21,1.32-3a1.15,1.15,0,0,1,1.82.16,5.4,5.4,0,0,1,.94,1.53,19.45,19.45,0,0,1-.21,13.89,7.27,7.27,0,0,1-1.17,1.89,1.23,1.23,0,0,1-1.9.17l-.4-.28c.94,1.33,2.26,1.37,3.16.09a7.67,7.67,0,0,0,.9-1.84,22.61,22.61,0,0,0,1.12-8.75,13.88,13.88,0,0,0-1.65-6.7c-1-1.7-2.31-1.81-3.27-.11a18.81,18.81,0,0,0-1.78,4.53,13.94,13.94,0,0,0-.09,7V530.6a4.83,4.83,0,0,1,.36,1.31c.29,1.69.61,1.85,2.13,1.11l.29-.11.15.21a9.06,9.06,0,0,1-1.17.81C150.39,534.45,150.34,535,151.39,535.82Zm-50.63-29.34c-.24,0-.47,0-.69,0-2.54.2-5.09.42-7.63.61a11.51,11.51,0,0,0-5,1.24,10.47,10.47,0,0,0-1,.67l.1.2c1.43-1.1,2.74-.61,4,.28a28.52,28.52,0,0,1,2.2,1.92l2.29,2a34.8,34.8,0,0,1,2.42-3.83A33.86,33.86,0,0,1,100.76,506.48Zm64.66-11c0,.12-.07.18-.06.23q.78,3.87,1.59,7.73a.89.89,0,0,0,.44.58,11.7,11.7,0,0,0,2.1.37c.61,0,.95-.27.82-1-.24-1.32-.42-2.65-.67-4A4.76,4.76,0,0,0,165.42,495.49Zm7.69,14.12v-.05c-.64,0-1.3.05-1.94.1-3.78.32-7.56.6-11.32,1-4.77.47-9.53,1-14.29,1.57a5.11,5.11,0,0,0-1.38.57l.09.15Zm-15.82,13,.22-.05c-.31-1.32-.61-2.64-.92-3.95a2.49,2.49,0,0,0-1.83-1.87,4.1,4.1,0,0,0-4.94,1.78c-1.37,2.4-1.5,5.09-1.52,7.76.14-.72.21-1.46.3-2.2a9.73,9.73,0,0,1,1.65-4.91,4.15,4.15,0,0,1,4.08-1.5c1.37.16,1.69,1.31,2.08,2.37C156.72,520.89,157,521.75,157.29,522.61Zm-11.63.93a21.46,21.46,0,0,1-8,2.3c1.85,1,7.1,0,8.23-1l-1.17-.17Zm27.79-1-.11-.21a2.84,2.84,0,0,0-.38.13l-15.5,7.85a3.54,3.54,0,0,0-.63.54l.14.15Zm-69.68-7.15c8.84.12,17.69,0,26.51.86C121.48,514.86,112.62,515.36,103.77,515.35Zm33.29,5.14a13.66,13.66,0,0,0-1.56.53c-.46.23-.46.62-.05,1a3.7,3.7,0,0,0,3.51,0c.49-.37.48-.8-.09-1A17.31,17.31,0,0,0,137.06,520.49Zm33.47-21.41-.24.05c.31,1.59.6,3.19,1,4.77.06.26.49.42.75.63l.25-.22C171.94,502.49,171.76,500.62,170.53,499.08ZM95.9,526.75c-3.12-1.67-6.48-1.12-9.75-1.3l-.05.45C89.37,526.08,92.72,525.61,95.9,526.75Zm65.76-22,0,.21,11.2,1.27,0-.3Zm-71,15.9a4.1,4.1,0,0,0,.83-.22c.21-.1.48-.35.47-.52a.71.71,0,0,0-.49-.49,4.17,4.17,0,0,0-1.41,0c-.27,0-.5.29-.75.45a6.22,6.22,0,0,0,.7.66A1.75,1.75,0,0,0,90.63,520.64Zm84.6,3.73a8.45,8.45,0,0,0,.46-4.07c-.29.67.05,1.35-.77,1.5a1,1,0,0,0-.65.69,4.71,4.71,0,0,0,.14,1.33c.13-.09.33-.14.4-.27a5.88,5.88,0,0,0,.26-.74l.23,0ZM138.4,508.64a4.76,4.76,0,0,1,1.08,4,3.87,3.87,0,0,1-2.63,3.14,3.37,3.37,0,0,0,2.73-2.51A4.19,4.19,0,0,0,138.4,508.64ZM179.23,513a15.58,15.58,0,0,0-.43-5.69,1.15,1.15,0,0,0-1.14-1C179.62,508.24,178.9,510.76,179.23,513ZM89.69,523.8l3.06.48C91.05,523.34,90.4,523.23,89.69,523.8Zm37.05,1.55c-.55-.81-1-.91-1.89-.36Z"/><path class="cls-1" d="M128.08,528.87v-1c5.95.54,11.86,1.06,17.72-.5a5.12,5.12,0,0,1-3,1.56,22.75,22.75,0,0,1-7.27.43C133.12,529.13,130.65,529,128.08,528.87Z"/><path class="cls-1" d="M127.23,532.1c.44,0,.88,0,1.32,0,3,.19,6.06.52,9.09.53a18.81,18.81,0,0,0,4.88-.9,5.27,5.27,0,0,0,3.46-2.64,2.83,2.83,0,0,1-1.17,2.35,10.06,10.06,0,0,1-4.81,1.94,21.62,21.62,0,0,1-9.3-.29c-1.15-.29-2.32-.53-3.48-.79Z"/><path class="cls-1" d="M94.93,530.27c-3.22,0-6.37,0-9.53,0-1.08,0-1.31-.73-.78-2.08.21.39.33,1,.68,1.19a2.72,2.72,0,0,0,1.49.21c2.3-.09,4.59-.23,6.88-.33C94.27,529.22,94.82,529.35,94.93,530.27Z"/><path class="cls-3" d="M120.65,502.4c.8-2,1.49-3.93,2.33-5.78a3.72,3.72,0,0,1,2.77-2c3-.61,6.07-1.28,9.13-1.7a83.08,83.08,0,0,1,14.36-.72,31.66,31.66,0,0,1,4.44.54,4.4,4.4,0,0,1,3.31,2.74,22.24,22.24,0,0,1,1.55,6.42c.09.74-.33.89-.95.83-2.23-.2-4.46-.51-6.69-.57Q144,502,137,502c-4.88.05-9.76.25-14.64.37C121.88,502.42,121.37,502.4,120.65,502.4Z"/><path class="cls-3" d="M127.65,527.26l-.11-1c1.26-.16,2.46-.31,3.66-.5.1,0,.16-.26.31-.53-1.29,0-2.46,0-3.62,0a1.34,1.34,0,0,1-.85-.36,1.83,1.83,0,0,0-2.62-.19,1.72,1.72,0,0,1-1,.35l-20.76-.6c-1.06,0-2.13,0-3.16,0l-.69-1.4,32.83,1,.07-.93L96,522l-.4-1.3,36,1c.26-.78-.1-.94-.73-1q-7.11-.16-14.22-.37l-20.33-.59c-.26,0-.51-.05-.85-.08l-.22-1.15c1.66,0,3.26,0,4.85,0,3.88.09,7.76.22,11.63.33l19,.54a2.55,2.55,0,0,0,.77-.3,6.47,6.47,0,0,1,.37,1.47c.05,1.59,0,3.18,0,4.78a11.63,11.63,0,0,0-.34-6.73l0,.5c-.16-.52-.53-.63-1-.65q-6.93-.16-13.87-.38l-20.32-.59a5.66,5.66,0,0,1-.75-.08l.16-.68-.24-.08c-.14.43-.45.87-.39,1.26.25,1.61.61,3.2,1,4.79,0,.13.32.21.56.36l-.56.8a16,16,0,0,1-1.4-4.74,11.82,11.82,0,0,1-.15-1.88A1.29,1.29,0,0,1,95.57,516l-.59.83c1.9-1.35,4-.67,6-.89l0,.22H98.26v.22l31.8.9v-.33c-8.79-1.16-17.66-.83-26.5-1.07h2.49c.83,0,1.66-.05,2.5,0,5.57.11,11.14.2,16.71.35,1.52,0,3,.22,4.55.39a2.23,2.23,0,0,1,2.33,2.05,16.33,16.33,0,0,1,.13,6.42,1.6,1.6,0,0,1-1.7,1.51,12.88,12.88,0,0,1-2.06,0c-.59,0-.84.19-.88.74Z"/><path class="cls-3" d="M104.1,514.62a7.84,7.84,0,0,1,3-4.92,23.69,23.69,0,0,1,9.22-4.07,70.76,70.76,0,0,1,15.26-2c2.75-.09,5.5-.21,8.26-.21-2.49.26-5,.49-7.47.8a42.19,42.19,0,0,0-9.71,2.27,11.31,11.31,0,0,0-7,7.11c-.17.48-.29,1-1,1Z"/><path class="cls-3" d="M118.44,526l-18.69-.52.23,1.73c8,.25,15.89,1.46,23.87.49l0,.35a3.11,3.11,0,0,1-.72.16c-4.22,0-8.44,0-12.66-.08-3.44-.09-6.88-.36-10.32-.55-.63,0-1.07.14-1.06,1,4.11.23,8.19.54,12.29.66s8.14,0,12.33,0c-.17,1-.33,2.14-.56,3.21,0,.14-.46.27-.7.27-3.41-.09-6.83-.13-10.25-.32-4.66-.27-9.32-.66-14.24-1a16.17,16.17,0,0,1,.82-3.09c.55-1.13,1.16-2.18.6-3.32l19,.92Zm3.32,6.08-.57-.06-8.25-.6-13-.94a9.36,9.36,0,0,0-1.17.09C106.39,532.28,114.1,531.77,121.76,532Z"/><path class="cls-3" d="M158.85,505.83l-2.94.29c-2.63.28-5.26.54-7.88.84a6.26,6.26,0,0,0-5.6,4.65c-.11.36-.23.71-.35,1.06,0,.05-.08.08-.1.11-.68-1.26-1.33-2.54-2.06-3.77a4,4,0,0,0-2.66-1.89,3.86,3.86,0,0,0-4.82,2.42c-.2.47-.33,1-.49,1.45a4.19,4.19,0,0,1,1.88-3.73,12.84,12.84,0,0,1,5.66-2.15,48.85,48.85,0,0,1,13.82-.1l5.53.66Z"/><path class="cls-3" d="M176.92,510.74c-1.53,1-3.14,1.85-4.57,3a44.29,44.29,0,0,0-7.95,8.68,31.82,31.82,0,0,1-2.47,3c.75-1.47,1.53-2.92,2.24-4.41s1.34-2.73,1.87-4.15c.59-1.63.14-2.48-1.56-2.85-1.93-.42-3.9-.66-5.62-.94Z"/><path class="cls-3" d="M158.72,493.63c1.59.42,3,.71,4.28,1.16a1.76,1.76,0,0,1,1,1c.62,2.62,1.15,5.26,1.74,8.08-1.68-.21-3.23-.38-4.77-.61a.8.8,0,0,1-.47-.55C159.92,499.82,159.35,496.87,158.72,493.63Z"/><path class="cls-3" d="M151.39,535.82c-1-.78-1-1.37,0-1.89a9.06,9.06,0,0,0,1.17-.81l-.15-.21-.29.11c-1.52.74-1.84.58-2.13-1.11a4.83,4.83,0,0,0-.36-1.31V532a13.94,13.94,0,0,1,.09-7,18.81,18.81,0,0,1,1.78-4.53c1-1.7,2.27-1.59,3.27.11a13.88,13.88,0,0,1,1.65,6.7,22.61,22.61,0,0,1-1.12,8.75,7.67,7.67,0,0,1-.9,1.84c-.9,1.28-2.22,1.24-3.16-.09l.4.28a1.23,1.23,0,0,0,1.9-.17,7.27,7.27,0,0,0,1.17-1.89,19.45,19.45,0,0,0,.21-13.89,5.4,5.4,0,0,0-.94-1.53,1.15,1.15,0,0,0-1.82-.16c-.84.79-1.74,1.61-1.32,3,0,.13-.12.32-.19.47-.15.33-.31.65-.5,1l2.41-.17-.17-.71.26,0,.89,4.28-.19,0c-.21-.64-.37-1.3-.63-1.92a1.8,1.8,0,0,0-1.35-1.22l-.58,3.06c1,.22,2.62.1,2.36,2.14l.15-.32C153.17,532.15,152.91,534.2,151.39,535.82Z"/><path class="cls-3" d="M100.76,506.48a33.86,33.86,0,0,0-3.28,3.13,34.8,34.8,0,0,0-2.42,3.83l-2.29-2a28.52,28.52,0,0,0-2.2-1.92c-1.22-.89-2.53-1.38-4-.28l-.1-.2a10.47,10.47,0,0,1,1-.67,11.51,11.51,0,0,1,5-1.24c2.54-.19,5.09-.41,7.63-.61C100.29,506.47,100.52,506.48,100.76,506.48Z"/><path class="cls-3" d="M165.42,495.49a4.76,4.76,0,0,1,4.22,4c.25,1.33.43,2.66.67,4,.13.7-.21,1-.82,1a11.7,11.7,0,0,1-2.1-.37.89.89,0,0,1-.44-.58q-.81-3.85-1.59-7.73C165.35,495.67,165.39,495.61,165.42,495.49Z"/><path class="cls-3" d="M134.66,514.94c-2-.89-2.38-3.81-.86-5.62a2.76,2.76,0,0,1,4.54.37,3.64,3.64,0,0,1-.1,4.22l.59-2.08-.27-.12a6.12,6.12,0,0,1-3.77,2.89C134.72,514.62,134.7,514.82,134.66,514.94Zm.54-6.09a2.57,2.57,0,0,0-1.9,2.39Z"/><path class="cls-3" d="M154.14,529.08l-.8-4.25.22-.06.8,1.44c.45-1.34-.42-3.71-1.57-4.24a3.73,3.73,0,0,0-1.34,0,.82.82,0,0,1,1.37-.41,3.27,3.27,0,0,1,1.26,1.44,31,31,0,0,1,1.14,4.92,12.9,12.9,0,0,1-.93,7.5,6.53,6.53,0,0,1-1.19,1.6,6.14,6.14,0,0,0,1.19-4.21c-.75.94-.74,2.23-1.9,3,.61-2.39,1.17-4.56,1.73-6.73l.44-.28.42.78.15-.08-.53-2.57h-.24Z"/><path class="cls-3" d="M173.11,509.61l-28.84,3.32-.09-.15a5.11,5.11,0,0,1,1.38-.57c4.76-.55,9.52-1.1,14.29-1.57,3.76-.38,7.54-.66,11.32-1,.64-.05,1.3-.07,1.94-.1Z"/><path class="cls-3" d="M157.29,522.61c-.29-.86-.57-1.72-.88-2.57-.39-1.06-.71-2.21-2.08-2.37a4.15,4.15,0,0,0-4.08,1.5,9.73,9.73,0,0,0-1.65,4.91c-.09.74-.16,1.48-.3,2.2,0-2.67.15-5.36,1.52-7.76a4.1,4.1,0,0,1,4.94-1.78,2.49,2.49,0,0,1,1.83,1.87c.31,1.31.61,2.63.92,3.95Z"/><path class="cls-3" d="M145.66,523.54l-.93,1.1,1.17.17c-1.13,1-6.38,2-8.23,1A21.46,21.46,0,0,0,145.66,523.54Z"/><path class="cls-3" d="M173.45,522.5,157,531l-.14-.15a3.54,3.54,0,0,1,.63-.54l15.5-7.85a2.84,2.84,0,0,1,.38-.13Z"/><path class="cls-3" d="M103.77,515.35c8.85,0,17.71-.49,26.51.86C121.46,515.31,112.61,515.47,103.77,515.35Z"/><path class="cls-3" d="M137.06,520.49a17.31,17.31,0,0,1,1.81.5c.57.23.58.66.09,1a3.7,3.7,0,0,1-3.51,0c-.41-.34-.41-.73.05-1A13.66,13.66,0,0,1,137.06,520.49Z"/><path class="cls-3" d="M96.73,532.22a1,1,0,0,1-.91-1.15c.07-.94.21-1.87.28-2.81.1-1.31.18-2.61.28-4.14.47.15,1.25.16,1.53.54a2.15,2.15,0,0,1,.23,2.38,10.23,10.23,0,0,0-.74,3.32c0,.39.36.87.65,1.24.16.2.51.26.68.49a1.84,1.84,0,0,1-2,.1l.84-.12a7.32,7.32,0,0,1,.35-5.48,2.88,2.88,0,0,0-.13-1.65.88.88,0,0,0-.69-.46c-.17,0-.46.39-.48.63-.17,1.88-.33,3.77-.39,5.66A4.42,4.42,0,0,0,96.73,532.22Z"/><path class="cls-3" d="M170.53,499.08c1.23,1.54,1.41,3.41,1.73,5.23l-.25.22c-.26-.21-.69-.37-.75-.63-.37-1.58-.66-3.18-1-4.77Z"/><path class="cls-1" d="M134.66,514.94c0-.12.06-.32.13-.34a6.12,6.12,0,0,0,3.77-2.89l.27.12-.59,2.08,0,0a3.2,3.2,0,0,1-3.15,1.22Z"/><path class="cls-3" d="M95.9,526.75c-3.18-1.14-6.53-.67-9.8-.85l.05-.45C89.42,525.63,92.78,525.08,95.9,526.75Z"/><path class="cls-3" d="M161.66,504.74l11.22,1.18,0,.3L161.64,505Z"/><path class="cls-3" d="M90.63,520.64a1.75,1.75,0,0,1-.65-.12,6.22,6.22,0,0,1-.7-.66c.25-.16.48-.41.75-.45a4.17,4.17,0,0,1,1.41,0,.71.71,0,0,1,.49.49c0,.17-.26.42-.47.52A4.1,4.1,0,0,1,90.63,520.64Z"/><path class="cls-3" d="M175.23,524.37l.07-1.53-.23,0a5.88,5.88,0,0,1-.26.74c-.07.13-.27.18-.4.27a4.71,4.71,0,0,1-.14-1.33,1,1,0,0,1,.65-.69c.82-.15.48-.83.77-1.5A8.45,8.45,0,0,1,175.23,524.37Z"/><path class="cls-3" d="M138.4,508.64a4.19,4.19,0,0,1,1.18,4.61,3.37,3.37,0,0,1-2.73,2.51,3.87,3.87,0,0,0,2.63-3.14A4.76,4.76,0,0,0,138.4,508.64Z"/><path class="cls-3" d="M179.23,513c-.33-2.27.39-4.79-1.57-6.69a1.15,1.15,0,0,1,1.14,1A15.58,15.58,0,0,1,179.23,513Z"/><path class="cls-3" d="M89.69,523.8c.71-.57,1.36-.46,3.06.48Z"/><path class="cls-3" d="M126.74,525.35l-1.89-.36C125.69,524.44,126.19,524.54,126.74,525.35Z"/><path class="cls-3" d="M135.11,515.09a3.2,3.2,0,0,0,3.15-1.22A2.38,2.38,0,0,1,135.11,515.09Z"/><path class="cls-1" d="M131.5,519.19l0-.5a11.63,11.63,0,0,1,.34,6.73c0-1.6,0-3.19,0-4.78a6.47,6.47,0,0,0-.37-1.47Z"/><path class="cls-1" d="M121.76,532c-7.66-.27-15.37.24-23-1.51a9.36,9.36,0,0,1,1.17-.09l13,.94,8.25.6Z"/><path class="cls-1" d="M135.2,508.85l-1.9,2.39A2.57,2.57,0,0,1,135.2,508.85Z"/><path class="cls-1" d="M154.14,529.08l.22-2.16h.24l.53,2.57-.15.08-.42-.78-.44.28Z"/><path class="cls-1" d="M96.73,532.22a4.42,4.42,0,0,1-.53-1.45c.06-1.89.22-3.78.39-5.66,0-.24.31-.62.48-.63a.88.88,0,0,1,.69.46,2.88,2.88,0,0,1,.13,1.65,7.32,7.32,0,0,0-.35,5.48l-.84.12Z"/><path class="cls-1" d="M234.59,523.16l-10.31-1.57c.31-2,.59-4,.89-5.89s.65-4.09.93-6.15c.08-.61.31-.74.9-.71a14.66,14.66,0,0,0,2.81-.11,5.73,5.73,0,0,0,4.56-3.33,14.58,14.58,0,0,0,1.22-8.65,3,3,0,0,0-5.89-.73,11.21,11.21,0,0,0-.61,1.71c-.16.55-.25,1.12-.41,1.84L218.58,498a20.93,20.93,0,0,1,1.8-7.09,11.62,11.62,0,0,1,12.31-7,25.45,25.45,0,0,1,6.07,1.22c4.85,1.68,7.5,5.33,8.22,10.32a25.63,25.63,0,0,1-1.84,13.89,10,10,0,0,1-8.58,6.42c-.67.07-.92.32-1,1C235.29,518.88,234.93,521,234.59,523.16Z"/><path class="cls-1" d="M227.84,540.36a6.53,6.53,0,0,1-6.86-6.47,6.71,6.71,0,1,1,13.42-.28A6.49,6.49,0,0,1,227.84,540.36Z"/><path class="cls-1" d="M334.46,532.32l15.08,2.73,0-.17a10,10,0,0,1-1.1-.51c-.56-.34-1.05-.8-1.63-1.08a11.48,11.48,0,0,0-2.64-1.06c-3.16-.66-6.35-1.2-9.53-1.79a2.88,2.88,0,0,1-.49-.18l.06-.3,11.26,2.1c-.1-1.49-.23-1.63-1.54-1.89-1.52-.31-3-.58-4.55-.94a10.65,10.65,0,0,0-4.66-.24,1.18,1.18,0,0,1-.79-.14l11.6-4c-.71-.89-1.43-1.67-2-2.54-1-1.62-2-3.29-3-5a3,3,0,0,1-.13-2.8,10.47,10.47,0,0,0,.52-6.89,14.18,14.18,0,0,1-.08-6.48,9.33,9.33,0,0,1,2.15-4v2.14l.21,0c.05-.45.14-.89.15-1.33a7.63,7.63,0,0,1,10.4-6.92,4.12,4.12,0,0,1,1.16.79c-4-.64-7.37.08-9.33,3.91l.15.31,4.62-2.67.17.25-3,2.33.11.17,4-2.37.16.25-2.68,2.1.07.11,4-2.08.18.19-.8,1.21,3.49-1.27,0-.17-1.52-.18.54-.64-1.78-.21-.06-.3L357,492v-.12l-2.41-.57.06-.32c.89-.05,1.78-.13,2.67-.17a17.07,17.07,0,0,1,6.49.47,20.76,20.76,0,0,1,4,2,4.18,4.18,0,0,1,1.95,3,1.78,1.78,0,0,0,.35.91,7.83,7.83,0,0,1,1.69,6.13,21.61,21.61,0,0,1-3,9.81,27.68,27.68,0,0,1-2.85,3.64,7.63,7.63,0,0,0-1.93,5.16,1.81,1.81,0,0,0,.73,1.17,58.16,58.16,0,0,0,9.39,5.59l3.37,1.78c.5.26.79.6.45,1.17-.09,0-.16,0-.19,0-2.3-1.86-5-1.86-7.78-1.82-1.33,0-2.65,0-4-.06-1.54,0-1.54,0-2.15,1.68l14.2.49,0,.21a3.44,3.44,0,0,1-.76.16c-4.36-.16-8.72-.35-13.08-.49a1.84,1.84,0,0,0-1.1.42,9.1,9.1,0,0,0-1.1,1.31l15.5.82v0c-1.44,0-2.88.05-4.31,0-3.51-.13-7-.31-10.52-.47a1.34,1.34,0,0,0-.49,0,47.93,47.93,0,0,0-4.91,1.86l19.23.89V537c-1.64,0-3.28.21-4.91.12-4.55-.24-9.11-.49-13.64-.92A168.05,168.05,0,0,1,336,533c-.54-.13-1.07-.34-1.61-.51Zm29.44-21.38c-.22-.17-.46-.36-.71-.53-1-.7-1-.78-.61-1.91a3.88,3.88,0,0,0-.47-3.48c-.49-.83-1-1.63-1.48-2.49a3.8,3.8,0,0,1,2.07-5.37,11,11,0,0,1,2.64-.63c1.05-.1,2.11,0,3.16,0a1.4,1.4,0,0,0-.71-.59,4.77,4.77,0,0,0-4.09.2,14.49,14.49,0,0,1-5.58,1.74c-1.43.13-2.86.26-4.29.37a9.32,9.32,0,0,0-4.94,1.44,4,4,0,0,1-4.84.26c-1.81,1.58-2.89,5.39-2.06,7.35,1.18-.79,2.15-2.4,4.07-1.06l-.61.2-.66.1a2.89,2.89,0,0,0-2.7,3.23,8.11,8.11,0,0,1-.65,4.28,3.68,3.68,0,0,0,.31,3.85c1.2,1.76,2.4,3.52,3.62,5.26a3.51,3.51,0,0,0,2.43,1.44,12.63,12.63,0,0,0,5.33-.3c3.22-.84,5.52-2.92,7.49-5.46l1.58-2,.15.17c-2.17,5.52-6.31,8.38-12.23,8.74.74,2.56.66,3.89-.31,4.91.23-1.69.43-3.34-.88-4.89a23.93,23.93,0,0,0-1,2.35,3,3,0,0,0,1.95,4,12.82,12.82,0,0,0,5.79.71c3.78-.4,7.82-4.73,7.55-8.72a13.45,13.45,0,0,1,1.12-6.87s0-.1,0-.17l-.95-.56a6.11,6.11,0,0,1,.9-.08,2.58,2.58,0,0,0,1.35-.45,7.71,7.71,0,0,0,2.41-5.46c0-1.4-.74-1.89-2-1.19A18.26,18.26,0,0,0,363.9,510.94Zm-15.65,14.44a3.3,3.3,0,0,0-.51.2,5.51,5.51,0,0,0-1.84,3.6,3.69,3.69,0,0,0,2,4,13.53,13.53,0,0,0,10.65,1.34c3.59-1,6.56-5.28,6.39-9.08a4.13,4.13,0,0,0-.54-1.3l-.28.08c-.25.81-.47,1.63-.75,2.43-2.4,7-8.67,7.84-13.69,6-2.34-.88-3-2.54-2.23-4.92C347.65,527,347.93,526.26,348.25,525.38Zm18.57-24.51-.26-1.17,2.06,1.26-.4-1.27.17-.13,1.44,1.05a2.92,2.92,0,0,0-2.56-2.69,4.52,4.52,0,0,0-4.5,2.25l2,.63.11-.68Zm-1.91,28.39,8.67.28,0-.24c-.22-.13-.46-.26-.68-.4-1.81-1.12-3.87-1.25-5.9-1.42s-1.59-.56-2.18,1.53C364.86,529,364.87,529.06,364.91,529.26Zm-19.49-.68c-1.56-.25-3-.53-4.47-.72a4.26,4.26,0,0,0-3.06.85l7.28,1.27Zm.58-1.82c-1.66-.15-3.28-.45-4.86.74l3.27.4C345.65,528.06,345.65,528.06,346,526.76Zm19.47-1.64a7.77,7.77,0,0,0,0,1.22c0,.2.2.5.34.52,1.26.21,2.53.36,3.79.53l.06-.2Zm-21.17,1c1.77.43,2.49.1,2.49-1Zm20.91-33.41c0,1.07.3,1.24,1.94,1.1Z"/><path class="cls-1" d="M322,496.57l.63-.4a1.45,1.45,0,0,1,.12,1.79,7,7,0,0,1-4.68,3.87c.65.46,1.08.54,1.58-.07A2.87,2.87,0,0,1,321,501c-.39,1-1.46,1.56-1.35,3l1.18-1.5.24,0a9.67,9.67,0,0,1-.21,1.88c-.45,1.41-1,2.81-1.54,4.19-.44,1.09-.39,1.34.55,2.11a5.52,5.52,0,0,1,2,4.91,13.94,13.94,0,0,0,.68,3.39l2.12-2.36a6.85,6.85,0,0,1,1.32,4.18c0,.3-.37.67-.66.87a19.39,19.39,0,0,1-1.84,1c.26.18.45.32.65.44a7,7,0,0,1,3,4.25,3.65,3.65,0,0,1-.11,1.11l-1.25-.59-.24,1-.54-.91-.3,1.18-.24,0-1-2.66.17-.1.61.7c1.19-1.18.62-2.66-1.38-3.46-.49,1.59.13,3,.76,4.62l-1.36-.52,1.3,2-.08.13-9.3-3.85c-.18,1.05-.28,2.07-.54,3-.44,1.65-1,3.28-1.5,4.9a6,6,0,0,1-.88,1.58c-.59.82-1.32.81-1.87,0a20.56,20.56,0,0,1-1.08-1.95c-1.45-2.81-3.06-2.94-4.93-.42a22,22,0,0,1-1.7,2.13c-1.15,1.19-2.34.89-2.63-.71a52,52,0,0,1-.64-5.42c-.1-1.42,0-2.86,0-4.38l-3.33.44.31,1.09c-.86-.48-1.6-.88-2.32-1.31a.91.91,0,0,0-1.26.08,1,1,0,0,0-.15,1.27c.56,1.1,1.09,2.21,1.72,3.49l2.52-3.05.21.11a3.15,3.15,0,0,1-.3.83,23.21,23.21,0,0,1-1.75,2.3c-.61.68-1.12.57-1.53-.27-.57-1.16-1.1-2.34-1.71-3.67-.21.91-.36,1.66-.55,2.4a9,9,0,0,1-2.31,4.24,2.84,2.84,0,0,1-1.17.65c.83-1.86,2.05-3.51,2-5.72a5.8,5.8,0,0,0-.81.91c-.56,1-1.06,2-1.6,3-.37.7-.6.76-1.5.41l1.16-2.68-.3-.17L283.31,532a1.79,1.79,0,0,1-.21-2.47,12.19,12.19,0,0,1,4.3-4.29l1-.61c-.9-.22-1.66-.38-2.41-.59-1.8-.51-2-.91-1.25-2.59a21.81,21.81,0,0,1,1.45-2.69c.63-1,1.42-1,2,.07s1.06,2.23,1.59,3.35l-.2.19c-.26-.24-.6-.45-.74-.74-.32-.64-.51-1.35-.81-2a9.24,9.24,0,0,0-.74-1.18,8.29,8.29,0,0,0-2,3.87,1,1,0,0,0,.49.77,17.62,17.62,0,0,0,2.58.62,1,1,0,0,0,.78-.29,1.47,1.47,0,0,1,2.12-.38,1.71,1.71,0,0,0,.56.14,1.15,1.15,0,0,1,1,.73,1.51,1.51,0,0,0,1.27.65,27.17,27.17,0,0,0,4.48-.82c.53-.15.91-.87,1.34-1.35a1.26,1.26,0,0,0,.12-1.77,1.81,1.81,0,0,1-.32-.67c-.36-1.43-1.54-1.82-2.74-2.18-.53-.15-1.8.81-2,1.53s-.43,1.6-.72,2.37a1.95,1.95,0,0,1-3.72-1,3.68,3.68,0,0,1,1.61-2.42,1,1,0,0,0,.46-1.1,9.5,9.5,0,0,1,1.26-6.14,1.78,1.78,0,0,0,.14-1.7c-2-5.68,1.52-13.39,7.11-15.24a21.82,21.82,0,0,1,4.16-.53,9.12,9.12,0,0,0,2.23-.37c3.05-1.28,6.06-1.45,9,.25a9.88,9.88,0,0,1,1.77,1.47,2,2,0,0,0,2.48.44,2.21,2.21,0,0,1,1.06-.14c-1.28,1.43-3.8,1.33-5.52-.18l.92-.21-2.46-1.43-.09.15.83.67-.08.19L314,494l-1.51-.45.44-.35-.08-.24-4.3,1.15,0,.29c1.25.84,2.84,1.38,3,3.2-.95-.7-1.83-1.45-2.8-2a6.06,6.06,0,0,0-3.5-.79c.61.54,1.08,1,1.58,1.37.1.07.37-.13.55-.12.48,0,.95.13,1.42.2v.34l-2.95.88v.15c.75,0,1.49,0,2.24,0a5.52,5.52,0,0,1,2.07.14v.41c-1.06.14-2.13.27-3.19.43a3.85,3.85,0,0,0-1.17.34,3,3,0,0,1-3.07,0,1.65,1.65,0,0,0-2.22.49,4.56,4.56,0,0,1,1.07.08,5,5,0,0,1,1.66.77c.73.68.63,1.43-.06,2.19s-1.39,1.56-2.09,2.34l1.17.73c-1.25.81-2.72,1.3-3,3.16l.58-.67.54-.65c.86.66,1.41-.35,2.3-.39-1.18,1.43-3.25,2.3-2.34,4.86-.81-.22-1.41-.34-2-.54-1.07-.38-1.45-.21-1.74.9a5.26,5.26,0,0,0,.59,4.45c.63.93,1,1,2,.6l1.09-.44c-.1.47-.16.8-.25,1.12a2.3,2.3,0,0,0,.77,2.68c3,2.22,6.24,3.71,10.06,3.33a6.62,6.62,0,0,0,2.94-1,10.59,10.59,0,0,0,5-8.95,22.65,22.65,0,0,0-.56-3.41,4.1,4.1,0,0,1,.09-1.71.85.85,0,0,0-.41-1.1,3.8,3.8,0,0,0-2.79-.51l-.93.09c.77-1.32,2.13-1.24,4.53.32a6,6,0,0,0,.08-1.65c-.34-1.45-.79-2.86-1.21-4.35a6.26,6.26,0,0,0,3.76-3.2l-.69-.31,1.21-1.57Zm-21,25.15a10.05,10.05,0,0,1-.66,1,5.68,5.68,0,0,0-1.42,3.72c0,2.09.15,4.19.3,6.28a5.84,5.84,0,0,0,.54,1.8.69.69,0,0,0,1.16.29,19.46,19.46,0,0,0,1.54-1.48,19.23,19.23,0,0,1,1.8-1.91,2.46,2.46,0,0,1,3.55.44,17.49,17.49,0,0,1,1,1.62c.39.6.81,1.2,1.38,2a11.22,11.22,0,0,0,1.45-2.28c.65-2.1,1.19-4.25,1.67-6.4a11.64,11.64,0,0,0,0-2.44,3.21,3.21,0,0,0-2.72,1.8,11.73,11.73,0,0,1-3.55,4,1.86,1.86,0,0,1-2.63-.19,9.61,9.61,0,0,1-2.69-5.3c0-.25,0-.5-.06-.75a1.45,1.45,0,0,1,.43.63c.8,1.54,1.55,3.11,2.43,4.6a1.35,1.35,0,0,0,2.12.52c1.85-1.11,2.86-2.91,4-4.69C306.36,524.44,306.36,524.44,301,521.72Zm12.8,2.41c.43.52.71,1.14,1.18,1.36,1.81.85,3.68,1.58,5.68,2.41l-.22-3.26a11.41,11.41,0,0,1-1.45,1.19c-.33.19-.91.37-1.17.21a3.14,3.14,0,0,1-1.5-2.56,8.3,8.3,0,0,1,1,1c1,1.1,1.82,1,2.45-.45a4.35,4.35,0,0,0,.26-1.2c.07-.59-.25-.75-.81-.69-1,.09-2,.12-2.94.2a.88.88,0,0,0-.43.19Zm10.64-6.65-1.89,2.57c-.52.71-.9,1.6-2.32,1.48.41.67.61,1.39.95,1.47.64.15,1-.42.86-1.07a4.67,4.67,0,0,0,3-.81.52.52,0,0,0,.25-.39A4.83,4.83,0,0,0,324.43,517.48ZM301.89,495c-.24.08-.49.15-.73.24a10,10,0,0,0-5.79,6.11c-.29.73-.85,1.49-.05,2.27,0,0,0,.14.07.41A15,15,0,0,1,301.89,495Zm18,26.43-1.37-2.75-1.92,3.09Zm-26.44-5.32a20.56,20.56,0,0,0,1.37-4.92C293.74,512.68,293,514.24,293.45,516.13Zm27-2.19a2,2,0,0,0-.86-2.11v3.88h.24V513l.13,0Zm.11,5.37-.21-2.23-.4-.06a3.59,3.59,0,0,0-.37,1.07A1.11,1.11,0,0,0,320.54,519.31Zm-27.16-.61c-.93-.26-1.71.43-1.86,1.62Z"/><path class="cls-1" d="M315.69,498.27l1,1.85.18,0-.55-2.16a1.9,1.9,0,0,1,1.44,1.79,2.23,2.23,0,0,1-1.56,2.21,22.93,22.93,0,0,0-5.92,2.51c-1.23.64-1.34.62-2.36-.35a1.76,1.76,0,0,0-2.4-.29l-2.8,1.4-.24-.21,3.34-5.86.45,1.4h.94l-.76,2,1.78-.27-.38.58c1,.71,1.6.59,1.95-.52a23.37,23.37,0,0,0,.58-2.93c.77.22.84.86.81,1.53s-.09,1.25-.14,2c2-.57,1.69-2.26,1.94-3.67l.26-.09c.26.4.5.8.77,1.19s.47.9.72.9a1,1,0,0,0,1.07-1.05,10.63,10.63,0,0,0-.32-1.74Z"/><path class="cls-1" d="M334.62,534.69c13,2.86,26.33,3.42,39.59,4.13v.27c-1.6,0-3.21.11-4.8,0a273.16,273.16,0,0,1-28.12-2.8c-1.75-.26-3.47-.64-5.21-1-.5-.1-1-.3-1.49-.45Z"/><path class="cls-1" d="M370.13,541c-3.62,1.1-31.73-2.09-35.13-4C346.53,539.88,358.36,540.18,370.13,541Z"/><path class="cls-1" d="M322,496.55l-.83.34a3.3,3.3,0,0,0-.63.2c-.4.23-.78.51-1.35.89,0,.62.44,1.61-.53,2.48.11-1.18.38-2.36-.91-3a2.64,2.64,0,0,0-3.15.19c-.46-.73-.95-.31-1.48,0l-1.73-2.11.36-.54a16.56,16.56,0,0,1,1.7-.07,1.21,1.21,0,0,1,.73.36c1.78,2.05,4.06,1.53,6.3,1.27.5-.06,1,0,1.52,0Z"/><path class="cls-1" d="M336.91,540c4.41.66,9.13,1.53,13.9,2s9.51.66,14.08,1C362,544.05,339.72,541.6,336.91,540Z"/><path class="cls-1" d="M315,517.32l.57.51c-.26.23-.59.39-.65.61a3.53,3.53,0,0,1-3.23,3,3.69,3.69,0,0,1-3.82-2.2c-.06-.12-.14-.23-.24-.41l-.52.37-.14-.1.6-1A13.21,13.21,0,0,0,315,517.32ZM308.71,519c.56,1.36,1.63,1.83,3.27,1.53,1.37-.25,2.19-1,2.22-2.2Z"/><path class="cls-1" d="M306.42,512.16l.23-1.58-.35-.2-1.82,2.06a2.47,2.47,0,0,1,1.63-2.38c1.15-.46,1.93-.15,2.94,1.23C308.18,511.88,307.33,512.43,306.42,512.16Z"/><path class="cls-1" d="M305.61,540.61a1.75,1.75,0,0,1-1.39,1.87c-.75,0-1.45-.84-1.44-1.81a1.68,1.68,0,0,1,1.41-1.76A1.53,1.53,0,0,1,305.61,540.61Zm-.23-.05a12.06,12.06,0,0,0-1.32-1c-.07,0-.45.29-.54.51-.3.71.18,1.17.67,1.68Z"/><path class="cls-1" d="M303.25,535.63a1.65,1.65,0,0,1,1-1.53,1.53,1.53,0,0,1,1.29.13,1.87,1.87,0,0,1,.5,2,1.46,1.46,0,0,1-1.61,1.32C303.63,537.5,303.23,536.94,303.25,535.63Zm2.56.22v-.37c-.43-.28-.87-.82-1.27-.79-.67,0-.68.78-.61,1.33a3.44,3.44,0,0,0,.42,1Z"/><path class="cls-1" d="M303.6,509.07c.48-.86,1.09-1.68,2-1.76,1.69-.14,3.41,0,5.34,0a3.39,3.39,0,0,1-3.17.67,3.67,3.67,0,0,0-3.59.89c-.13.1-.28.18-.42.27A.71.71,0,0,1,303.6,509.07Z"/><path class="cls-1" d="M315.46,511.35l.13-1.21-1.3.82c.25-1.47,1.3-1.73,3.81-1.56C317.05,510,317,511.72,315.46,511.35Z"/><path class="cls-1" d="M297,512.86c.3-.19.76-.6.87-.52a25.09,25.09,0,0,1,1.93,1.65l-.13.28-1.39.45c0,.58,1.2.84.5,1.64-1.41-1.78-1.65-1.33-.11-2.55-.27-1-.51-1.18-1.54-.77Z"/><path class="cls-1" d="M313.47,514.07c.28.45.87,1,.77,1.33-.22.85-1.06,1.14-2,1.16l1.55-1.18-.64-1.09Z"/><path class="cls-1" d="M311.37,516.26H309.7C310.12,515.51,310.75,515.51,311.37,516.26Z"/><path class="cls-3" d="M363.9,510.94a18.26,18.26,0,0,1,2.13-1.67c1.22-.7,2-.21,2,1.19a7.71,7.71,0,0,1-2.41,5.46,2.58,2.58,0,0,1-1.35.45,6.11,6.11,0,0,0-.9.08l.95.56c0,.07.06.13,0,.17a13.45,13.45,0,0,0-1.12,6.87c.27,4-3.77,8.32-7.55,8.72a12.82,12.82,0,0,1-5.79-.71,3,3,0,0,1-1.95-4,23.93,23.93,0,0,1,1-2.35c1.31,1.55,1.11,3.2.88,4.89,1-1,1.05-2.35.31-4.91,5.92-.36,10.06-3.22,12.23-8.74l-.15-.17-1.58,2c-2,2.54-4.27,4.62-7.49,5.46a12.63,12.63,0,0,1-5.33.3,3.51,3.51,0,0,1-2.43-1.44c-1.22-1.74-2.42-3.5-3.62-5.26a3.68,3.68,0,0,1-.31-3.85,8.11,8.11,0,0,0,.65-4.28,2.89,2.89,0,0,1,2.7-3.23l.66-.1.61-.2c-1.92-1.34-2.89.27-4.07,1.06-.83-2,.25-5.77,2.06-7.35a4,4,0,0,0,4.84-.26,9.32,9.32,0,0,1,4.94-1.44c1.43-.11,2.86-.24,4.29-.37a14.49,14.49,0,0,0,5.58-1.74,4.77,4.77,0,0,1,4.09-.2,1.4,1.4,0,0,1,.71.59c-1.05,0-2.11-.08-3.16,0a11,11,0,0,0-2.64.63,3.8,3.8,0,0,0-2.07,5.37c.45.86,1,1.66,1.48,2.49a3.88,3.88,0,0,1,.47,3.48c-.42,1.13-.37,1.21.61,1.91C363.44,510.58,363.68,510.77,363.9,510.94Zm-10.49,6.78a6.62,6.62,0,0,0-1.6-.49c-.29,0-.58.49-.91.54-1.66.26-3.33.45-5,.65-.39.05-.79.08-1.19.12l0,.2h6.77a5,5,0,0,1-2.9,2.56,1.6,1.6,0,0,1-2.1-.63c-.25-.32-.51-.63-.77-.94.73,2.72,2.55,3.33,4.44,1.63a4,4,0,0,0,.55-.62c.57-.78,1.1-1.59,1.69-2.35A5.06,5.06,0,0,1,353.41,517.72Zm.53-7.86,2.86,1.43c.08-.15.14-.21.13-.25a.67.67,0,0,0-.14-.28,5.63,5.63,0,0,0-4.09-1.7c-1.2,0-1.73.64-1.78,1.9.73,0,.73,0,.77.62l-.67.2a7,7,0,0,0,4.62-.33h-1.9Zm5-2.41c-.07-.28-.06-.37-.11-.43a1.28,1.28,0,0,0-.29-.28,9.48,9.48,0,0,0-8.05-.92c-.3.1-.51.44-.77.67l.1.36C352.93,506,356,505.87,359,507.45Zm-13.52,3.45c0-1.32-1.19-1.74-2.43-1-.54.32-.73.68-.32,1.27a3.86,3.86,0,0,1,.3,1.05h2.23c-.94-.31-1.14-.91-.83-1.81Zm19.35,1.2,1.5-1.1s.1-.12.11-.11c.19.13.51.25.55.42a8.53,8.53,0,0,1,0,1.34l.26,0a6.69,6.69,0,0,0,.2-1.32c0-1-.57-1.33-1.47-.8a5.19,5.19,0,0,0-2.34,2.79,4.86,4.86,0,0,0-.15.84l1.2-1.33.38.17-.23,1.56C366,513.83,366,513.31,364.79,512.1Zm-17.1,4.48c-1.63-.06-2.33-.69-1.57-2.33-1,.87-1.16,1.4-.72,2.07S346.49,517.12,347.69,516.58Zm-.78-7.05v3A2.22,2.22,0,0,0,346.91,509.53Z"/><path class="cls-3" d="M348.25,525.38c-.32.88-.6,1.61-.84,2.36-.78,2.38-.11,4,2.23,4.92,5,1.87,11.29,1,13.69-6,.28-.8.5-1.62.75-2.43l.28-.08a4.13,4.13,0,0,1,.54,1.3c.17,3.8-2.8,8.1-6.39,9.08a13.53,13.53,0,0,1-10.65-1.34,3.69,3.69,0,0,1-2-4,5.51,5.51,0,0,1,1.84-3.6A3.3,3.3,0,0,1,348.25,525.38Z"/><path class="cls-3" d="M366.82,500.87l-2-.75-.11.68-2-.63a4.52,4.52,0,0,1,4.5-2.25,2.92,2.92,0,0,1,2.56,2.69l-1.44-1.05-.17.13.4,1.27-2.06-1.26Z"/><path class="cls-3" d="M364.91,529.26c0-.2-.05-.23-.05-.25.59-2.09.08-1.72,2.18-1.53s4.09.3,5.9,1.42c.22.14.46.27.68.4l0,.24Z"/><path class="cls-3" d="M345.42,528.58l-.25,1.4-7.28-1.27a4.26,4.26,0,0,1,3.06-.85C342.41,528.05,343.86,528.33,345.42,528.58Z"/><path class="cls-3" d="M346,526.76c-.35,1.3-.35,1.3-1.59,1.14l-3.27-.4C342.72,526.31,344.34,526.61,346,526.76Z"/><path class="cls-3" d="M365.47,525.12l4.21,2.07-.06.2c-1.26-.17-2.53-.32-3.79-.53-.14,0-.31-.32-.34-.52A7.77,7.77,0,0,1,365.47,525.12Z"/><path class="cls-3" d="M344.3,526.07l2.49-1C346.79,526.17,346.07,526.5,344.3,526.07Z"/><path class="cls-3" d="M365.21,492.66l1.94,1.1C365.51,493.9,365.19,493.73,365.21,492.66Z"/><path class="cls-3" d="M301,521.72c5.37,2.72,5.37,2.72,9.64,3.31-1.12,1.78-2.13,3.58-4,4.69a1.35,1.35,0,0,1-2.12-.52c-.88-1.49-1.63-3.06-2.43-4.6a1.45,1.45,0,0,0-.43-.63c0,.25,0,.5.06.75a9.61,9.61,0,0,0,2.69,5.3,1.86,1.86,0,0,0,2.63.19,11.73,11.73,0,0,0,3.55-4,3.21,3.21,0,0,1,2.72-1.8,11.64,11.64,0,0,1,0,2.44c-.48,2.15-1,4.3-1.67,6.4a11.22,11.22,0,0,1-1.45,2.28c-.57-.84-1-1.44-1.38-2a17.49,17.49,0,0,0-1-1.62,2.46,2.46,0,0,0-3.55-.44,19.23,19.23,0,0,0-1.8,1.91,19.46,19.46,0,0,1-1.54,1.48.69.69,0,0,1-1.16-.29,5.84,5.84,0,0,1-.54-1.8c-.15-2.09-.27-4.19-.3-6.28a5.68,5.68,0,0,1,1.42-3.72A10.05,10.05,0,0,0,301,521.72Z"/><path class="cls-3" d="M313.79,524.13l2-1.64a.88.88,0,0,1,.43-.19c1-.08,2-.11,2.94-.2.56-.06.88.1.81.69a4.35,4.35,0,0,1-.26,1.2c-.63,1.42-1.41,1.55-2.45.45a8.3,8.3,0,0,0-1-1,3.14,3.14,0,0,0,1.5,2.56c.26.16.84,0,1.17-.21a11.41,11.41,0,0,0,1.45-1.19l.22,3.26c-2-.83-3.87-1.56-5.68-2.41C314.5,525.27,314.22,524.65,313.79,524.13Z"/><path class="cls-3" d="M324.43,517.48a4.83,4.83,0,0,1,.86,3.25.52.52,0,0,1-.25.39,4.67,4.67,0,0,1-3,.81c.1.65-.22,1.22-.86,1.07-.34-.08-.54-.8-.95-1.47,1.42.12,1.8-.77,2.32-1.48Z"/><path class="cls-3" d="M301.89,495a15,15,0,0,0-6.5,9c0-.27,0-.37-.07-.41-.8-.78-.24-1.54.05-2.27a10,10,0,0,1,5.79-6.11C301.4,495.17,301.65,495.1,301.89,495Z"/><path class="cls-3" d="M319.89,521.45l-3.29.34,1.92-3.09Z"/><path class="cls-3" d="M293.45,516.13c-.47-1.89.29-3.45,1.37-4.92A20.56,20.56,0,0,1,293.45,516.13Z"/><path class="cls-3" d="M320.43,513.94l-.49-1-.13,0v2.7h-.24v-3.88A2,2,0,0,1,320.43,513.94Z"/><path class="cls-3" d="M320.54,519.31a1.11,1.11,0,0,1-1-1.22,3.59,3.59,0,0,1,.37-1.07l.4.06Z"/><path class="cls-3" d="M293.38,518.7l-1.86,1.62C291.67,519.13,292.45,518.44,293.38,518.7Z"/><path class="cls-3" d="M308.71,519l5.49-.67c0,1.18-.85,2-2.22,2.2C310.34,520.87,309.27,520.4,308.71,519Z"/><path class="cls-3" d="M305.38,540.56l-1.19,1.23c-.49-.51-1-1-.67-1.68.09-.22.47-.55.54-.51A12.06,12.06,0,0,1,305.38,540.56Z"/><path class="cls-3" d="M305.81,535.85,304.34,537a3.44,3.44,0,0,1-.42-1c-.07-.55-.06-1.28.61-1.33.4,0,.84.51,1.27.79Z"/><path class="cls-1" d="M353.41,517.72a5.06,5.06,0,0,0-1,.67c-.59.76-1.12,1.57-1.69,2.35a4,4,0,0,1-.55.62c-1.89,1.7-3.71,1.09-4.44-1.63.26.31.52.62.77.94a1.6,1.6,0,0,0,2.1.63,5,5,0,0,0,2.9-2.56h-6.77l0-.2c.4,0,.8-.07,1.19-.12,1.66-.2,3.33-.39,5-.65.33,0,.62-.56.91-.54A6.62,6.62,0,0,1,353.41,517.72Z"/><path class="cls-1" d="M353.94,509.86l-.2,1.59h1.9a7,7,0,0,1-4.62.33l.67-.2c0-.67,0-.67-.77-.62.05-1.26.58-1.87,1.78-1.9a5.63,5.63,0,0,1,4.09,1.7.67.67,0,0,1,.14.28s-.05.1-.13.25Z"/><path class="cls-1" d="M359,507.45c-3-1.58-6-1.45-9.12-.6l-.1-.36c.26-.23.47-.57.77-.67a9.48,9.48,0,0,1,8.05.92,1.28,1.28,0,0,1,.29.28C358.9,507.08,358.89,507.17,359,507.45Z"/><path class="cls-1" d="M345.44,510.9l-1.05-.49c-.31.9-.11,1.5.83,1.81H343a3.86,3.86,0,0,0-.3-1.05c-.41-.59-.22-.95.32-1.27C344.25,509.16,345.4,509.58,345.44,510.9Z"/><path class="cls-1" d="M364.79,512.1c1.18,1.21,1.17,1.73,0,2.48l.23-1.56-.38-.17-1.2,1.33a4.86,4.86,0,0,1,.15-.84,5.19,5.19,0,0,1,2.34-2.79c.9-.53,1.44-.24,1.47.8a6.69,6.69,0,0,1-.2,1.32l-.26,0a8.53,8.53,0,0,0,0-1.34c0-.17-.36-.29-.55-.42,0,0-.06.08-.11.11Z"/><path class="cls-1" d="M347.69,516.58c-1.2.54-1.84.42-2.29-.26s-.3-1.2.72-2.07C345.36,515.89,346.06,516.52,347.69,516.58Z"/><path class="cls-1" d="M346.91,509.53a2.22,2.22,0,0,1,0,3Z"/><path class="cls-1" d="M401.12,515.6v-3h4.44c1.57,0,1.57,0,2.11-1.44q3.25-8.7,6.53-17.4a1.44,1.44,0,0,1,.46-.69l4.43,24.13c.8-1.46,1.51-2.69,2.14-4a1.08,1.08,0,0,1,1.15-.67c1.15,0,2.3,0,3.5,0a10.49,10.49,0,0,0-.19-4.67c-.51-2.65-.69-5.29.46-7.82a25.32,25.32,0,0,1,1.38-2.35l.23.11v1.89l.21,0a10.23,10.23,0,0,0,.14-1.24,7.58,7.58,0,0,1,10.25-7,4,4,0,0,1,1.26.86A8.6,8.6,0,0,0,432,494a4.14,4.14,0,0,0-1.67,2.69l4.68-2.71.17.24-3.21,2.5.08.13,4.24-2.5.17.24-2.63,2.06.07.12,4-2.05.18.16-.79,1.23,3.39-1.24v-.18l-1.45-.19.52-.63-1.77-.21,0-.31,3.65-.89v-.13l-2.43-.56,0-.31c.74-.05,1.47-.11,2.21-.15a21.86,21.86,0,0,1,7,.44,10.63,10.63,0,0,1,4.19,2.2,4.5,4.5,0,0,1,1.58,2.71,2,2,0,0,0,.37,1,7.81,7.81,0,0,1,1.65,6.25c-.48,5-2.11,9.51-5.74,13.14a7,7,0,0,0-2,5.08,1.84,1.84,0,0,0,.73,1.24,57.39,57.39,0,0,0,9.46,5.62c1.06.57,2.14,1.12,3.2,1.69.48.26.77.62.37,1.23-.81-.44-1.57-.93-2.39-1.29a5.14,5.14,0,0,0-1.78-.49c-2.55-.09-5.1-.12-7.65-.16-1.56,0-1.56,0-2.09,1.68l14.07.48,0,.21a1.38,1.38,0,0,1-.47.13c-4.05-.1-8.12-.15-12.17-.36-2.1-.11-1.69-.29-3.13,1.5,5.12.67,10.2.49,15.23,1-1.21,0-2.42,0-3.63,0-3.59-.14-7.18-.33-10.77-.47a4.86,4.86,0,0,0-1.7.19,30.29,30.29,0,0,0-3.89,1.66l19,.88c-4.42,1.4-37.74-2-41.83-4.35l15.1,2.73,0-.16a5.42,5.42,0,0,1-.69-.32c-.71-.44-1.38-1-2.13-1.34a9.59,9.59,0,0,0-2.4-1c-3.17-.64-6.35-1.19-9.53-1.77a.93.93,0,0,1-.56-.32c3.77.4,7.45,1.28,11.19,1.88,0-1.3-.18-1.58-1.35-1.82-2-.41-4-.88-6-1.2a17.77,17.77,0,0,0-3,0,2.35,2.35,0,0,1-1-.13l11.46-3.92c-.48-.61-1-1.13-1.35-1.71-1-1.51-2.1-3-3-4.6a21.06,21.06,0,0,1-1.21-3.13c-1.13-.24-1.2-.2-1.83,1l-4.63,8.52a2,2,0,0,1-.59.71l-4-21.81c-.18.41-.28.61-.36.82-1.25,3.3-2.51,6.61-3.72,9.93a1.09,1.09,0,0,1-1.24.84C405.94,515.58,403.58,515.6,401.12,515.6Zm47.28,1.34a5.46,5.46,0,0,0,1.88-.81,7.49,7.49,0,0,0,2.27-5.06,2.38,2.38,0,0,0-.51-1.61c-.5-.51-1.22-.17-1.73.19s-1.21,1-1.84,1.53l-1-.69a1,1,0,0,1-.41-1.34,4,4,0,0,0-.41-3.91c-.49-.79-.94-1.61-1.44-2.39-1.16-1.82.17-4.59,1.89-5.14a17.34,17.34,0,0,1,3.19-.72,25,25,0,0,1,2.87,0,1.8,1.8,0,0,0-.79-.64,5.26,5.26,0,0,0-4.22.17,16.9,16.9,0,0,1-3.75,1.42c-2.12.39-4.29.53-6.44.71a8.75,8.75,0,0,0-4.69,1.55,4.12,4.12,0,0,1-1.33.6,3.21,3.21,0,0,1-3.23-.57,8.59,8.59,0,0,0-2.2,7.42c.58-.53,1.13-1.08,1.74-1.57.88-.71,1.57-.73,2.13-.08-.31.07-.6.16-.9.21a3.58,3.58,0,0,0-2.77,3.78,7.12,7.12,0,0,1-.55,4.17,3.92,3.92,0,0,0,.29,4.14q1.76,2.58,3.54,5.15a3.29,3.29,0,0,0,2.25,1.38,12.39,12.39,0,0,0,8.83-1.7,19.77,19.77,0,0,0,5-5c.1-.13.19-.27.3-.39s.2-.18.39-.36c-1.56,4.85-5.38,7.53-12,8.53.6,3.34.59,3.77-.15,4.58.34-2.16-.07-4-1.05-4.49-.31.64-.67,1.26-.92,1.92-.78,2.17,0,3.83,2.23,4.49a20.11,20.11,0,0,0,3,.58,8.92,8.92,0,0,0,10-8.77c0-2.36,0-4.71,1.24-6.87Zm-15.49,8.64c-.35.17-.58.21-.71.35a6.24,6.24,0,0,0-1.66,3.67A3.35,3.35,0,0,0,432,533c4,2.49,8.25,3.09,12.53,1,3.36-1.61,4.46-4.86,4.87-8.35a1,1,0,0,0-.83-1.22c-.26.84-.48,1.66-.76,2.46-2.51,7.14-9,7.63-13.62,5.84-2.28-.88-2.93-2.52-2.17-4.84C432.3,527.22,432.59,526.49,432.91,525.58ZM454.33,501a2.88,2.88,0,0,0-2.58-2.69,4.42,4.42,0,0,0-4.41,2.26l1.93.61.07-.68,2,.73-.19-1.12,1.95,1.21-.35-1.52ZM458,529.73l.09-.21-.58-.37c-1.85-1.19-4-1.27-6.06-1.5-1.73-.19-1.74-.17-2.06,1.55a1.12,1.12,0,0,0,0,.24Zm-35.37-.83,3.65.66,3.57.59.24-1.44c-.78-.09-1.48-.15-2.18-.25s-1.44-.31-2.17-.4A4.41,4.41,0,0,0,422.63,528.9Zm8-1.88c-2.21-.45-4-.19-4.57.71l3.11.39C430.35,528.25,430.35,528.24,430.65,527Zm23.48.57.06-.18L450,525.34a11.17,11.17,0,0,0,0,1.32.58.58,0,0,0,.35.42C451.61,527.28,452.87,527.43,454.13,527.59Zm-22.6-2.32-2.46,1C430.57,526.76,431.27,526.47,431.53,525.27Zm18.22-32.15c0,1.05.21,1.19,1.93,1.12Z"/><path class="cls-1" d="M419.42,534.9c12.93,2.79,26.1,3.33,39.24,4.1C454.08,540.06,422.71,536.79,419.42,534.9Z"/><path class="cls-1" d="M419.86,537.2c11.4,2.79,23.08,3.09,34.7,3.92C451,542.18,423.65,539.1,419.86,537.2Z"/><path class="cls-1" d="M449.68,543c-2.75,1.19-25.84-1.36-28.36-3.08,3.14.57,6.21,1.22,9.32,1.66s6.25.76,9.39,1S446.38,542.82,449.68,543Z"/><path class="cls-3" d="M448.4,516.94l.64.4c-1.22,2.16-1.24,4.51-1.24,6.87a8.92,8.92,0,0,1-10,8.77,20.11,20.11,0,0,1-3-.58c-2.21-.66-3-2.32-2.23-4.49.25-.66.61-1.28.92-1.92,1,.52,1.39,2.33,1.05,4.49.74-.81.75-1.24.15-4.58,6.62-1,10.44-3.68,12-8.53-.19.18-.3.26-.39.36s-.2.26-.3.39a19.77,19.77,0,0,1-5,5,12.39,12.39,0,0,1-8.83,1.7,3.29,3.29,0,0,1-2.25-1.38q-1.78-2.56-3.54-5.15a3.92,3.92,0,0,1-.29-4.14,7.12,7.12,0,0,0,.55-4.17,3.58,3.58,0,0,1,2.77-3.78c.3-.05.59-.14.9-.21-.56-.65-1.25-.63-2.13.08-.61.49-1.16,1-1.74,1.57a8.59,8.59,0,0,1,2.2-7.42,3.21,3.21,0,0,0,3.23.57,4.12,4.12,0,0,0,1.33-.6,8.75,8.75,0,0,1,4.69-1.55c2.15-.18,4.32-.32,6.44-.71a16.9,16.9,0,0,0,3.75-1.42,5.26,5.26,0,0,1,4.22-.17,1.8,1.8,0,0,1,.79.64,25,25,0,0,0-2.87,0,17.34,17.34,0,0,0-3.19.72c-1.72.55-3.05,3.32-1.89,5.14.5.78,1,1.6,1.44,2.39a4,4,0,0,1,.41,3.91,1,1,0,0,0,.41,1.34l1,.69c.63-.53,1.19-1.08,1.84-1.53s1.23-.7,1.73-.19a2.38,2.38,0,0,1,.51,1.61,7.49,7.49,0,0,1-2.27,5.06A5.46,5.46,0,0,1,448.4,516.94Zm-12.82-4.83a6.84,6.84,0,0,0,4.77-.34h-2l.21-1.57,2.78,1.38c.45-.84.13-1.33-.61-1.66a1.25,1.25,0,0,0-.3-.12c-1.19-.12-2.38-.32-3.56-.32-.82,0-1.65,1.33-1.28,1.86l.64-.12.18.66Zm7.95-1.44a3.28,3.28,0,0,0-.21-.67,9.28,9.28,0,0,0-6.34-4.66,3.75,3.75,0,0,0-1.08.15v.25a30.79,30.79,0,0,1,4.12,1.89A31.38,31.38,0,0,1,443.53,510.67ZM429,509.93l1.12.55a1.11,1.11,0,0,0,.07-.28c-.14-1.08-1.29-1.4-2.46-.7-.55.33-.71.69-.31,1.27a3,3,0,0,1,.27,1h2.23v-.11l-.92-.37Zm22.51,3,.25.05a4.32,4.32,0,0,0,.22-1.15c0-.38-.15-.92-.41-1.07a1.34,1.34,0,0,0-1.12.18,5,5,0,0,0-2.26,2.73,5.49,5.49,0,0,0-.15.82l1.2-1.32.38.17-.23,1.54c1.12-.73,1.13-1.16,0-2.48.54-.41,1.06-.83,1.62-1.2.06,0,.44.21.46.35A10.57,10.57,0,0,1,451.47,512.93Zm-20.84,8.36c2.49-2.08,2.53-2.08,5.49.12a3.11,3.11,0,0,0-3-2.36C431.81,519,431.18,519.53,430.63,521.29Zm.05-6.64c-.94.78-1.07,1.37-.53,2.06a1.28,1.28,0,0,0,1.89.21C430.36,516.36,430.32,516.3,430.68,514.65Zm.89-1.77a2.23,2.23,0,0,0,0-3Z"/><path class="cls-3" d="M432.91,525.58c-.32.91-.61,1.64-.85,2.38-.76,2.32-.11,4,2.17,4.84,4.65,1.79,11.11,1.3,13.62-5.84.28-.8.5-1.62.76-2.46a1,1,0,0,1,.83,1.22c-.41,3.49-1.51,6.74-4.87,8.35-4.28,2-8.55,1.45-12.53-1a3.35,3.35,0,0,1-1.5-3.43,6.24,6.24,0,0,1,1.66-3.67C432.33,525.79,432.56,525.75,432.91,525.58Z"/><path class="cls-3" d="M454.33,501l-1.61-1.2.35,1.52-1.95-1.21.19,1.12-2-.73-.07.68-1.93-.61a4.42,4.42,0,0,1,4.41-2.26A2.88,2.88,0,0,1,454.33,501Z"/><path class="cls-3" d="M458,529.73l-8.57-.29a1.12,1.12,0,0,1,0-.24c.32-1.72.33-1.74,2.06-1.55,2.08.23,4.21.31,6.06,1.5l.58.37Z"/><path class="cls-3" d="M422.63,528.9a4.41,4.41,0,0,1,3.11-.84c.73.09,1.44.28,2.17.4s1.4.16,2.18.25l-.24,1.44-3.57-.59Z"/><path class="cls-3" d="M430.65,527c-.3,1.22-.3,1.23-1.46,1.1l-3.11-.39C426.68,526.83,428.44,526.57,430.65,527Z"/><path class="cls-3" d="M454.13,527.59c-1.26-.16-2.52-.31-3.77-.51a.58.58,0,0,1-.35-.42,11.17,11.17,0,0,1,0-1.32l4.19,2.07Z"/><path class="cls-3" d="M431.53,525.27c-.26,1.2-1,1.49-2.46,1Z"/><path class="cls-3" d="M449.75,493.12l1.93,1.12C450,494.31,449.71,494.17,449.75,493.12Z"/><path class="cls-1" d="M435.58,512.11l.83-.23-.18-.66-.64.12c-.37-.53.46-1.85,1.28-1.86,1.18,0,2.37.2,3.56.32a1.25,1.25,0,0,1,.3.12c.74.33,1.06.82.61,1.66l-2.78-1.38-.21,1.57h2A6.84,6.84,0,0,1,435.58,512.11Z"/><path class="cls-1" d="M443.53,510.67a31.38,31.38,0,0,0-3.51-3,30.79,30.79,0,0,0-4.12-1.89v-.25a3.75,3.75,0,0,1,1.08-.15,9.28,9.28,0,0,1,6.34,4.66A3.28,3.28,0,0,1,443.53,510.67Z"/><path class="cls-1" d="M429,509.93v1.33l.92.37v.11h-2.23a3,3,0,0,0-.27-1c-.4-.58-.24-.94.31-1.27,1.17-.7,2.32-.38,2.46.7a1.11,1.11,0,0,1-.07.28Z"/><path class="cls-1" d="M451.47,512.93a10.57,10.57,0,0,0,0-1.38c0-.14-.4-.39-.46-.35-.56.37-1.08.79-1.62,1.2,1.11,1.32,1.1,1.75,0,2.48l.23-1.54-.38-.17-1.2,1.32a5.49,5.49,0,0,1,.15-.82,5,5,0,0,1,2.26-2.73,1.34,1.34,0,0,1,1.12-.18c.26.15.38.69.41,1.07a4.32,4.32,0,0,1-.22,1.15Z"/><path class="cls-1" d="M430.63,521.29c.55-1.76,1.18-2.3,2.47-2.24a3.11,3.11,0,0,1,3,2.36C433.16,519.21,433.12,519.21,430.63,521.29Z"/><path class="cls-1" d="M430.68,514.65c-.36,1.65-.32,1.71,1.36,2.27a1.28,1.28,0,0,1-1.89-.21C429.61,516,429.74,515.43,430.68,514.65Z"/><path class="cls-1" d="M431.57,512.88v-3A2.23,2.23,0,0,1,431.57,512.88Z"/></g></g></svg>