<svg xmlns="http://www.w3.org/2000/svg" viewBox="0 0 561.47 678.87"><defs><style>.cls-1{fill:#4c2a12;}.cls-2{fill:#fc9;}.cls-3{fill:#fff4c0;}</style></defs><title>result_1</title><g id="Calque_2" data-name="Calque 2"><g id="Calque_1-2" data-name="Calque 1"><rect class="cls-1" x="3.34" y="245.66" width="84.79" height="303.85"/><rect class="cls-1" x="121.01" y="261.84" width="84.79" height="287.67"/><rect class="cls-1" x="238.67" y="296.62" width="84.79" height="252.88"/><rect class="cls-1" x="356.34" y="94.42" width="84.79" height="455.09"/><rect class="cls-1" x="474" y="110.56" width="84.79" height="438.95"/><rect class="cls-2" x="3.34" y="94.42" width="84.79" height="151.23"/><rect class="cls-2" x="121.01" y="94.42" width="84.79" height="167.41"/><rect class="cls-2" x="238.67" y="94.42" width="84.79" height="202.2"/><rect class="cls-2" x="474" y="94.42" width="84.79" height="16.13"/><path class="cls-1" d="M349.53,33.44c.35.25.59.45.85.62a2.34,2.34,0,0,1,1.19,2.47,2.73,2.73,0,0,1-2,2.39,4.38,4.38,0,0,0-1.6.9,33.42,33.42,0,0,0-2.52,2.53,1.07,1.07,0,0,0-.14.88c.58,1.85.41,2.36-1.25,3.32a20.75,20.75,0,0,1-7.65,2.79.92.92,0,0,0-.6.32l7.83.59.16.22c-.22.21-.4.52-.67.62-1.08.4-2.18.79-3.3,1.09q-12.5,3.41-25,6.76a7.21,7.21,0,0,1-5.17-.42,23.3,23.3,0,0,0-7.74-1.88,6.4,6.4,0,0,1-1.39-.22,6.48,6.48,0,0,0-4.38.32c-4.5,1.44-9.07,2.07-13.74.83a13.51,13.51,0,0,1-7.89-5A4.61,4.61,0,0,0,271.45,51q-20-3.85-40.07-7.69a6.36,6.36,0,0,0-2.42.07,18.77,18.77,0,0,1-6.93.07,5.39,5.39,0,0,1-4.75-4.56c-.45-2.12-.76-4.26-1.08-6.41a2.73,2.73,0,0,0-1.33-2,12.84,12.84,0,0,1-5.82-8.78,4.9,4.9,0,0,1,.18-2.21,30.23,30.23,0,0,1,1.21-3.16,2.71,2.71,0,0,1,2.15-1.76c2.44-.48,4.88-.93,7.28-1.54a6.23,6.23,0,0,0,2.71-1.37A40.11,40.11,0,0,1,246.48.72a144,144,0,0,1,29,0,70,70,0,0,1,7.9,1.18,12.2,12.2,0,0,1,5.51,3.16c3.06,2.79,6.15,5.57,9.21,8.37a4.13,4.13,0,0,0,2.78,1.13,234.28,234.28,0,0,1,45.94,6.49,30.29,30.29,0,0,1,3.18.84,8.8,8.8,0,0,1,2.2,1.23c.82.63.71.81,0,1.58a2.8,2.8,0,0,0-.7,1.67A12.93,12.93,0,0,1,349.53,33.44Zm-121.6-20.6c.57-.21,1-.35,1.38-.51a1.82,1.82,0,0,0,1.18-1.67,4.78,4.78,0,0,1,2.95-4.37,24.42,24.42,0,0,1,5.3-1.87c3.41-.64,6.88-1,10.33-1.44,2-.27,3,.23,3.87,2,1.59,3.14,3.2,6.27,4.77,9.41a1.94,1.94,0,0,0,2.06,1.28c1.37-.12,2.76-.13,4.14-.17,4.36-.13,8.73-.27,13.09-.38l19.42-.43c.3,0,.6,0,1.1-.05a10.83,10.83,0,0,0-.84-.93c-2.65-2.46-5.35-4.86-8-7.37a15.75,15.75,0,0,0-8-4.29A92.82,92.82,0,0,0,264.4.66c-4.52-.07-9,.14-13.57.31a49.27,49.27,0,0,0-12,2c-6.11,1.79-11,5.6-15.72,9.59,0,0,0,.12,0,.22l1.64.32c-3.66.53-7.47,1.1-11.29,1.64a2.71,2.71,0,0,0-2.34,1.77c-.32.78-.78,1.51-1.05,2.31a23.63,23.63,0,0,0-.54,2.48,6.91,6.91,0,0,1,1.85-1,33.52,33.52,0,0,1,3.48-.24c.57,0,1.15-.12,1.72-.19l0-.17-6.05-.44c.44-.9.83-1.72,1.25-2.52a2.12,2.12,0,0,1,2-1.12q5.85.13,11.68.37a2.72,2.72,0,0,1,1.65.51c1,.94,1.95,2,3,3.12l-2.62,1.06c26.72-.94,53.17,1.92,79.53,4.58l-.29,4.17.36.07c.94-1.51,1.93-3,2.82-4.52a1,1,0,0,0-.51-1.44A16.29,16.29,0,0,0,305.82,22c-4.58-.92-9.16-1.89-13.79-2.44-7.48-.88-15-1.53-22.51-2.11-5.88-.45-11.78-.7-17.68-.92-5.25-.19-10.5-.3-15.75-.26C232.87,16.27,230.41,14.78,227.93,12.84Zm42.33,33.58c0-.49,0-.83,0-1.17a25.43,25.43,0,0,1,.25-7.69c1.36-7.19,8.19-10.94,14.95-8.17a19.71,19.71,0,0,1,9.09,7.79c1.68,2.58,3.19,5.26,4.81,7.87a5.52,5.52,0,0,0,4.35,2.79,8.41,8.41,0,0,1,3,.81A38.07,38.07,0,0,1,311,51.42a5.57,5.57,0,0,0,4,1.27c3-.37,6-.69,9-1.07,1.42-.18,2.83-.43,4.24-.65l0-.3c-.7,0-1.41.06-2.11.11-3.31.27-6.65.39-9.94.86-3,.43-4.92-1.25-6.9-3.1h3.37v-.23c-2.74-.43-5.48-.94-8.24-1.28A5.21,5.21,0,0,1,300,44.09c-1.22-2.37-2.48-4.73-3.88-7a40.54,40.54,0,0,0-4.1-5.84,14.3,14.3,0,0,0-13-4.75c-4.41.56-7.15,3.37-8.74,7.4A23.69,23.69,0,0,0,269,43.16c0,.49,0,1,0,1.51-.56-.09-1-.15-1.37-.23-3-.59-6-1.15-8.94-1.77-8.94-1.84-17.86-3.72-26.79-5.57a5.23,5.23,0,0,1-4.14-3.89c-.91-2.73-2-5.39-3.2-8a5.37,5.37,0,0,0-3.78-3c-1.84-.48-3.19-.09-4.13,1.2-1.13,1.52-1.45,4.05-.64,5.4.11-.88.15-1.73.32-2.54a2.92,2.92,0,0,1,2-2.54,2.76,2.76,0,0,1,2.78.77,1.88,1.88,0,0,0-2.25.82,9.73,9.73,0,0,0-1.19,2.42,15.42,15.42,0,0,0-.56,6.15,12.66,12.66,0,0,0,2,6.32c1.25,1.78,2.77,1.77,3.83-.14a12.7,12.7,0,0,0,1.41-8,60.6,60.6,0,0,0-1.41-6.18c0,.13.07.25.17.37a25.32,25.32,0,0,1,3.8,7.42A6.53,6.53,0,0,0,232,38c8.36,1.83,16.7,3.73,25.06,5.58C261.41,44.53,265.8,45.45,270.26,46.42Zm19-8.56-1.42-1.2c-1.54-1.31-1.54-1.31-.81-3.18.06-.14.1-.29.17-.43a1.32,1.32,0,0,0-.48-1.8,6,6,0,0,0-8.27.48c-5.12,5-5.19,14.74-.15,19.77A8.88,8.88,0,0,0,292,50.62a16.62,16.62,0,0,0,2.88-7.37c.63-3.25-1-5.44-3.24-7.52Zm-4.2-22,0,.14a4.15,4.15,0,0,0,.77.2c3.16.27,6.32.48,9.48.77,4.43.42,8.87.85,13.29,1.38A96.68,96.68,0,0,1,327,22.3,9.47,9.47,0,0,1,329.74,24a2.52,2.52,0,0,0,1.77.67c1.73-.09,3.45-.15,5.18-.21L348.74,24a4.26,4.26,0,0,0,1-.15,2.59,2.59,0,0,0,.59-.36c-.15-.17-.27-.42-.45-.5a10.33,10.33,0,0,0-1.77-.62A278.48,278.48,0,0,0,317.67,17c-5.4-.57-10.81-1.12-16.23-1.39-4-.21-8.1.05-12.15.12C287.88,15.73,286.48,15.83,285.08,15.89Zm-15,.5,0,.2,2.62.23c3.72.33,7.45.62,11.16,1,4.28.44,8.54,1,12.81,1.44a46.66,46.66,0,0,1,12.23,2.87,4.05,4.05,0,0,1,2.69,2.33,1.43,1.43,0,0,0,1.57,1l9.22.33a4.44,4.44,0,0,0,.91-.19,7.52,7.52,0,0,0-1.41-1.58,24.18,24.18,0,0,0-4.19-2.11,73.79,73.79,0,0,0-16-3.41c-4.7-.54-9.42-1-14.14-1.36-5.45-.39-10.91-.6-16.36-.87A9.22,9.22,0,0,0,270.07,16.39Zm28.45,22.82a9.48,9.48,0,0,0,1.82.78,16.3,16.3,0,0,0,2.53.22c4.52.19,9,.4,13.57.55a83.24,83.24,0,0,0,15.14-.6c5.95-.9,11.85-2.1,17.77-3.18a3.51,3.51,0,0,0,1.12-.45.77.77,0,0,0,.18-1.33A8.92,8.92,0,0,0,349.11,34c-.59-.36-1.07-.23-1.07.56A1.4,1.4,0,0,1,346.86,36c-1.4.34-2.82.61-4.22.91a115.94,115.94,0,0,1-21.57,2.48,105.91,105.91,0,0,1-20.28-1.18A2,2,0,0,0,298.52,39.21Zm16-2.57c2.17.12,4.29.27,6.41.35a1.79,1.79,0,0,0,1.69-1.29c1-2.27,2-4.52,3-6.78.26-.59.44-1.2.66-1.8a11.67,11.67,0,0,0-2,.09,53.93,53.93,0,0,0-5.37,1.32c-1.65.55-2.13,1.47-2.05,3.18,0,.53.12,1,.19,1.62-.59-.22-1.12-.47-1.68-.63s-1.1.12-1.06.87C314.37,34.54,314.43,35.51,314.49,36.64ZM307.91,32a21.56,21.56,0,0,0,.72,2.9c.75,2,2.62,2.26,3.84.62a8,8,0,0,0,1.17-8.08c-.75-1.93-2.53-2.15-3.79-.52A9.34,9.34,0,0,0,307.91,32Zm-51.73-6.55-.29,0a4.54,4.54,0,0,0-.29.93c-.09,1.25-.14,2.5-.21,3.75-.12,2.23-.25,4.45-.36,6.68,0,.7-.4,1.06-1.09,1-3.36-.45-6.71-.93-10.06-1.39-2.08-.29-4.16-.58-6.24-.85a2.18,2.18,0,0,0-.75.21L237,36l19.72,3.5Zm67.9,10.08c.2-.31.41-.6.58-.92.83-1.55,1.63-3.12,2.46-4.66A4.8,4.8,0,0,1,331,27.23c3.87-.38,7.75-.63,11.63-1,2.09-.19,4.17-.5,6.25-.77a1.37,1.37,0,0,0,.48-.27l-.05-.25c-.48,0-1,0-1.44,0-2.48.11-5,.22-7.43.36-3.2.17-6.39.35-9.59.57a4.3,4.3,0,0,0-3,1.49C325.74,29.72,325,32.65,324.08,35.52ZM255.17,13.59a2.82,2.82,0,0,0,0-.62c-1-2.12-2-4.27-3.1-6.34a3.9,3.9,0,0,0-4.16-2.13c-1.5.15-3,.21-4.5.44-2.69.43-5.36.95-8,1.45a2,2,0,0,0-.5.23,1.57,1.57,0,0,0,1,.18c3.41-.34,6.81-.64,10.21-1,2.78-.34,4.24.29,5.69,2.66.61,1,1.25,1.95,1.9,2.92C254.09,12,254.57,12.71,255.17,13.59Zm70.42,23.85.07.35c.61,0,1.23.05,1.84,0,1.66-.16,3.3-.37,4.95-.57,4.11-.51,8.21-1,12.31-1.55a4.1,4.1,0,0,0,3.13-4.57,11.28,11.28,0,0,0-.93,1.75A3.21,3.21,0,0,1,344,35.11l-17.84,2.11A2.91,2.91,0,0,0,325.59,37.44Zm18.9-9.18V28a5.83,5.83,0,0,0-.72-.06c-3.7.2-7.4.34-11.08.65a3,3,0,0,0-2,1.2,44.41,44.41,0,0,0-2.41,4.46,1.5,1.5,0,0,0-.06.49.88.88,0,0,0,.58-.44c.43-.83.86-1.67,1.27-2.52a4.19,4.19,0,0,1,3.71-2.47c2.63-.22,5.26-.38,7.88-.61C342.62,28.59,343.55,28.4,344.49,28.26ZM324.3,46.32l.17.16a2.91,2.91,0,0,0,.46-.38q1.38-1.68,2.73-3.37c.14-.18.31-.54.24-.63a1,1,0,0,0-.69-.32c-2,0-4-.05-6,0-1.55.05-3.11.23-4.66.35v.19l9.52.75Zm-5.61-25.6c2,1.28,4.09,2.68,6.25,3.91a6,6,0,0,0,2.42.46c.29,0,.61-.31.92-.48a3.66,3.66,0,0,0-.6-.74C325,21.92,321.7,21.44,318.69,20.72ZM238,31.55l.05-.29a8.21,8.21,0,0,0-.84-.27l-7.1-1.34a2.13,2.13,0,0,1-2-2.18c-.17-1.49-.37-3-.58-4.46a4.25,4.25,0,0,0-.28-.75l-.32.08c.18,2.1.33,4.21.56,6.31a1.76,1.76,0,0,0,1.75,1.75c1.55.26,3.09.52,4.64.72C235.17,31.3,236.57,31.41,238,31.55Zm77.16,12a5.4,5.4,0,0,0-3.88,2.61c-.32.8.21,1.56,1,1.36a5.43,5.43,0,0,0,3.66-2.84C316.28,44,315.9,43.59,315.11,43.58Zm15.58,2.47c3.18.88,5.85-.13,8.24-2.13,1.49-1.25,2.28-3,1.95-4.28-.47.75-.94,1.37-1.28,2.06A5.44,5.44,0,0,1,335.32,45c-.5.07-1,.23-1.47.34Z"/><path class="cls-3" d="M227.93,12.84c2.48,1.94,4.94,3.43,8.16,3.4,5.25,0,10.5.07,15.75.26,5.9.22,11.8.47,17.68.92,7.51.58,15,1.23,22.51,2.11,4.63.55,9.21,1.52,13.79,2.44a16.29,16.29,0,0,1,3.53,1.52,1,1,0,0,1,.51,1.44c-.89,1.53-1.88,3-2.82,4.52l-.36-.07.29-4.17c-26.36-2.66-52.81-5.52-79.53-4.58l2.62-1.06c-1-1.09-1.93-2.18-3-3.12a2.72,2.72,0,0,0-1.65-.51q-5.83-.24-11.68-.37a2.12,2.12,0,0,0-2,1.12c-.42.8-.81,1.62-1.25,2.52l6.05.44,0,.17c-.57.07-1.15.16-1.72.19a33.52,33.52,0,0,0-3.48.24,6.91,6.91,0,0,0-1.85,1A23.63,23.63,0,0,1,210,18.8c.27-.8.73-1.53,1.05-2.31a2.71,2.71,0,0,1,2.34-1.77c3.82-.54,7.63-1.11,11.29-1.64l-1.64-.32c0-.1,0-.19,0-.22,4.75-4,9.61-7.8,15.72-9.59a49.27,49.27,0,0,1,12-2c4.52-.17,9-.38,13.57-.31a92.82,92.82,0,0,1,16.3,1.43,15.75,15.75,0,0,1,8,4.29c2.61,2.51,5.31,4.91,8,7.37a10.83,10.83,0,0,1,.84.93c-.5,0-.8.05-1.1.05L277,15.16c-4.36.11-8.73.25-13.09.38-1.38,0-2.77.05-4.14.17a1.94,1.94,0,0,1-2.06-1.28c-1.57-3.14-3.18-6.27-4.77-9.41-.91-1.81-1.83-2.31-3.87-2-3.45.45-6.92.8-10.33,1.44a24.42,24.42,0,0,0-5.3,1.87,4.78,4.78,0,0,0-2.95,4.37,1.82,1.82,0,0,1-1.18,1.67C228.91,12.49,228.5,12.63,227.93,12.84ZM295.14,14l.08-.32a7.55,7.55,0,0,0-.61-.65c-3.14-2.76-6.29-5.5-9.42-8.28a6.59,6.59,0,0,0-3.36-1.58,96.37,96.37,0,0,0-25-.67c-1.21.12-1.43.49-.92,1.61,1.47,3.23,3,6.44,4.45,9.67a1.52,1.52,0,0,0,1.64,1c1.19-.07,2.39-.1,3.58-.13q12.35-.32,24.68-.63C291.89,14,293.52,14,295.14,14Z"/><path class="cls-3" d="M270.26,46.42c-4.46-1-8.85-1.89-13.22-2.86-8.36-1.85-16.7-3.75-25.06-5.58a6.53,6.53,0,0,1-5.11-4.35,25.32,25.32,0,0,0-3.8-7.42c-.1-.12-.2-.24-.17-.37A60.6,60.6,0,0,1,224.31,32a12.7,12.7,0,0,1-1.41,8c-1.06,1.91-2.58,1.92-3.83.14a12.66,12.66,0,0,1-2-6.32,15.42,15.42,0,0,1,.56-6.15,9.73,9.73,0,0,1,1.19-2.42,1.88,1.88,0,0,1,2.25-.82,2.76,2.76,0,0,0-2.78-.77,2.92,2.92,0,0,0-2,2.54c-.17.81-.21,1.66-.32,2.54-.81-1.35-.49-3.88.64-5.4.94-1.29,2.29-1.68,4.13-1.2a5.37,5.37,0,0,1,3.78,3c1.16,2.64,2.29,5.3,3.2,8a5.23,5.23,0,0,0,4.14,3.89c8.93,1.85,17.85,3.73,26.79,5.57,3,.62,6,1.18,8.94,1.77.4.08.81.14,1.37.23,0-.54,0-1,0-1.51a23.69,23.69,0,0,1,1.28-9.26c1.59-4,4.33-6.84,8.74-7.4a14.3,14.3,0,0,1,13,4.75,40.54,40.54,0,0,1,4.1,5.84c1.4,2.27,2.66,4.63,3.88,7A5.21,5.21,0,0,0,304.42,47c2.76.34,5.5.85,8.24,1.28v.23h-3.37c2,1.85,3.88,3.53,6.9,3.1,3.29-.47,6.63-.59,9.94-.86.7-.05,1.41-.07,2.11-.11l0,.3c-1.41.22-2.82.47-4.24.65-3,.38-6,.7-9,1.07a5.57,5.57,0,0,1-4-1.27,38.07,38.07,0,0,0-4.35-2.77,8.41,8.41,0,0,0-3-.81,5.52,5.52,0,0,1-4.35-2.79c-1.62-2.61-3.13-5.29-4.81-7.87a19.71,19.71,0,0,0-9.09-7.79c-6.76-2.77-13.59,1-14.95,8.17a25.43,25.43,0,0,0-.25,7.69C270.29,45.59,270.26,45.93,270.26,46.42ZM219.74,30.65c1.28-1.5.81-3.25,1.13-4.89C218.72,26.16,218.18,28.54,219.74,30.65Zm2.36,9.19c-.51-1.5-.4-3-1.9-3.84a16.6,16.6,0,0,0-.32,2.43,1.86,1.86,0,0,0,.55,1.36C220.8,40,221.44,39.84,222.1,39.84Zm-4.26-9.09L218.2,36C220,34.25,219.92,32.33,217.84,30.75Zm6.07,2.09c-1.27.37-1.67.9-1.68,2,0,.92.57,1.37,1.41,1.78Zm-1.57-1.74c1.29-.73,1.3-2.08.08-3.42C221.38,29.49,221.36,30,222.34,31.1Z"/><path class="cls-3" d="M289.28,37.86l2.36-2.13c2.25,2.08,3.87,4.27,3.24,7.52A16.62,16.62,0,0,1,292,50.62a8.88,8.88,0,0,1-13.68.88c-5-5-5-14.81.15-19.77a6,6,0,0,1,8.27-.48,1.32,1.32,0,0,1,.48,1.8c-.07.14-.11.29-.17.43-.73,1.87-.73,1.87.81,3.18Zm-6.66-6.77-.1-.2a21.22,21.22,0,0,0-2.29,1.4,11.75,11.75,0,0,0-4.35,8,12.29,12.29,0,0,0,3.42,10.46A4.8,4.8,0,0,0,282,52.27C275.42,46.79,275.84,35.9,282.62,31.09Zm1.63,18.45c0,.44,0,.88,0,1.32-.06.84.27,1.24,1.15,1.1s2-.24,3-.42,1.15-.61.76-1.47-.88-1.73-1.26-2.62a1.31,1.31,0,0,0-1.7-.88c-1.85.39-1.92.42-1.92,2.32Zm9.64-8.46c-.78,0-1.47,0-2.15,0-1.54.13-1.68.27-2,1.82a5.6,5.6,0,0,0-.17,1.21,1.24,1.24,0,0,0,.31.82,25,25,0,0,0,2.32,1.91.84.84,0,0,0,.73-.2C293.27,44.81,293.57,43,293.89,41.08Zm-12.42-1.59c.69-1,1.68-1.8,1.81-2.73a20,20,0,0,0-.27-4.48l-.37-.13c-.86,1-1.79,1.89-2.56,2.93-1,1.41-1,1.58.11,2.91ZM280,48.12c2.54-1.82,2.31-3.36,1-5.89-.41-.78-1.28-.6-2-.4a1.25,1.25,0,0,0-.77.88A8.22,8.22,0,0,0,280,48.12Zm5.17-4.47A1.85,1.85,0,0,0,286.86,42a2.61,2.61,0,0,0-1.17-3C286.38,41.68,286.38,41.68,285.21,43.65Zm-.91-4.32,1.06,2.52C285.84,40.22,285.42,39.29,284.3,39.33Z"/><path class="cls-3" d="M285.08,15.89c1.4-.06,2.8-.16,4.21-.18,4-.07,8.11-.33,12.15-.12,5.42.27,10.83.82,16.23,1.39a278.48,278.48,0,0,1,30.46,5.36,10.33,10.33,0,0,1,1.77.62c.18.08.3.33.45.5a2.59,2.59,0,0,1-.59.36,4.26,4.26,0,0,1-1,.15l-12.05.44c-1.73.06-3.45.12-5.18.21a2.52,2.52,0,0,1-1.77-.67A9.47,9.47,0,0,0,327,22.3a96.68,96.68,0,0,0-18.36-3.92c-4.42-.53-8.86-1-13.29-1.38-3.16-.29-6.32-.5-9.48-.77a4.15,4.15,0,0,1-.77-.2Z"/><path class="cls-3" d="M270.07,16.39a9.22,9.22,0,0,1,1.17-.09c5.45.27,10.91.48,16.36.87,4.72.34,9.44.82,14.14,1.36a73.79,73.79,0,0,1,16,3.41,24.18,24.18,0,0,1,4.19,2.11,7.52,7.52,0,0,1,1.41,1.58,4.44,4.44,0,0,1-.91.19l-9.22-.33a1.43,1.43,0,0,1-1.57-1,4.05,4.05,0,0,0-2.69-2.33,46.66,46.66,0,0,0-12.23-2.87c-4.27-.44-8.53-1-12.81-1.44-3.71-.39-7.44-.68-11.16-1l-2.62-.23Z"/><path class="cls-3" d="M298.52,39.21a2,2,0,0,1,2.27-1,105.91,105.91,0,0,0,20.28,1.18,115.94,115.94,0,0,0,21.57-2.48c1.4-.3,2.82-.57,4.22-.91A1.4,1.4,0,0,0,348,34.55c0-.79.48-.92,1.07-.56a8.92,8.92,0,0,1,1.54,1.21.77.77,0,0,1-.18,1.33,3.51,3.51,0,0,1-1.12.45c-5.92,1.08-11.82,2.28-17.77,3.18a83.24,83.24,0,0,1-15.14.6c-4.53-.15-9.05-.36-13.57-.55a16.3,16.3,0,0,1-2.53-.22A9.48,9.48,0,0,1,298.52,39.21Z"/><path class="cls-3" d="M314.49,36.64c-.06-1.13-.12-2.1-.15-3.07,0-.75.35-1.07,1.06-.87s1.09.41,1.68.63c-.07-.57-.16-1.09-.19-1.62-.08-1.71.4-2.63,2.05-3.18a53.93,53.93,0,0,1,5.37-1.32,11.67,11.67,0,0,1,2-.09c-.22.6-.4,1.21-.66,1.8-1,2.26-2,4.51-3,6.78A1.79,1.79,0,0,1,320.9,37C318.78,36.91,316.66,36.76,314.49,36.64Z"/><path class="cls-3" d="M307.91,32a9.34,9.34,0,0,1,1.94-5.08c1.26-1.63,3-1.41,3.79.52a8,8,0,0,1-1.17,8.08c-1.22,1.64-3.09,1.33-3.84-.62A21.56,21.56,0,0,1,307.91,32Zm1.35,2.38c.83,1.38,2,1.43,2.69.14a15.14,15.14,0,0,0,.9-2.16c.22-.58.38-1.19.56-1.78l-.32-.17C312.18,32.1,311.78,34.3,309.26,34.37Z"/><path class="cls-3" d="M256.18,25.44l.5,14.07L237,36l-.07-.31a2.18,2.18,0,0,1,.75-.21c2.08.27,4.16.56,6.24.85,3.35.46,6.7.94,10.06,1.39.69.09,1.05-.27,1.09-1,.11-2.23.24-4.45.36-6.68.07-1.25.12-2.5.21-3.75a4.54,4.54,0,0,1,.29-.93Z"/><path class="cls-3" d="M324.08,35.52c.93-2.87,1.66-5.8,3.7-8.14a4.3,4.3,0,0,1,3-1.49c3.2-.22,6.39-.4,9.59-.57,2.47-.14,4.95-.25,7.43-.36.48,0,1,0,1.44,0l.05.25a1.37,1.37,0,0,1-.48.27c-2.08.27-4.16.58-6.25.77-3.88.36-7.76.61-11.63,1a4.8,4.8,0,0,0-3.85,2.71c-.83,1.54-1.63,3.11-2.46,4.66C324.49,34.92,324.28,35.21,324.08,35.52Z"/><path class="cls-3" d="M255.17,13.59c-.6-.88-1.08-1.56-1.54-2.26-.65-1-1.29-1.93-1.9-2.92-1.45-2.37-2.91-3-5.69-2.66-3.4.41-6.8.71-10.21,1a1.57,1.57,0,0,1-1-.18,2,2,0,0,1,.5-.23c2.68-.5,5.35-1,8-1.45,1.49-.23,3-.29,4.5-.44a3.9,3.9,0,0,1,4.16,2.13c1.1,2.07,2.08,4.22,3.1,6.34A2.82,2.82,0,0,1,255.17,13.59Z"/><path class="cls-3" d="M325.59,37.44a2.91,2.91,0,0,1,.6-.22L344,35.11A3.21,3.21,0,0,0,347,32.84a11.28,11.28,0,0,1,.93-1.75,4.1,4.1,0,0,1-3.13,4.57c-4.1.55-8.2,1-12.31,1.55-1.65.2-3.29.41-4.95.57-.61.06-1.23,0-1.84,0Z"/><path class="cls-3" d="M344.49,28.26c-.94.14-1.87.33-2.82.41-2.62.23-5.25.39-7.88.61a4.19,4.19,0,0,0-3.71,2.47c-.41.85-.84,1.69-1.27,2.52a.88.88,0,0,1-.58.44,1.5,1.5,0,0,1,.06-.49,44.41,44.41,0,0,1,2.41-4.46,3,3,0,0,1,2-1.2c3.68-.31,7.38-.45,11.08-.65a5.83,5.83,0,0,1,.72.06Z"/><path class="cls-3" d="M324.3,46.32l1.75-3.24-9.52-.75v-.19c1.55-.12,3.11-.3,4.66-.35,2-.06,4,0,6,0a1,1,0,0,1,.69.32c.07.09-.1.45-.24.63q-1.35,1.7-2.73,3.37a2.91,2.91,0,0,1-.46.38Z"/><path class="cls-3" d="M318.69,20.72c3,.72,6.26,1.2,9,3.15a3.66,3.66,0,0,1,.6.74c-.31.17-.63.5-.92.48a6,6,0,0,1-2.42-.46C322.78,23.4,320.71,22,318.69,20.72Z"/><path class="cls-3" d="M238,31.55c-1.38-.14-2.78-.25-4.16-.43-1.55-.2-3.09-.46-4.64-.72a1.76,1.76,0,0,1-1.75-1.75c-.23-2.1-.38-4.21-.56-6.31l.32-.08a4.25,4.25,0,0,1,.28.75c.21,1.48.41,3,.58,4.46a2.13,2.13,0,0,0,2,2.18l7.1,1.34a8.21,8.21,0,0,1,.84.27Z"/><path class="cls-3" d="M315.11,43.58c.79,0,1.17.45.81,1.13a5.43,5.43,0,0,1-3.66,2.84c-.82.2-1.35-.56-1-1.36A5.4,5.4,0,0,1,315.11,43.58Z"/><path class="cls-3" d="M330.69,46.05l3.16-.73c.49-.11,1-.27,1.47-.34a5.44,5.44,0,0,0,4.28-3.28c.34-.69.81-1.31,1.28-2.06.33,1.31-.46,3-1.95,4.28C336.54,45.92,333.87,46.93,330.69,46.05Z"/><path class="cls-1" d="M295.14,14c-1.62,0-3.25,0-4.87,0q-12.34.3-24.68.63c-1.19,0-2.39.06-3.58.13a1.52,1.52,0,0,1-1.64-1c-1.47-3.23-3-6.44-4.45-9.67-.51-1.12-.29-1.49.92-1.61a96.37,96.37,0,0,1,25,.67,6.59,6.59,0,0,1,3.36,1.58c3.13,2.78,6.28,5.52,9.42,8.28a7.55,7.55,0,0,1,.61.65ZM267,2.86l-.11.3c.3.19.6.39.91.57a30.47,30.47,0,0,1,8.59,6.49,2.59,2.59,0,0,1,.68,3c2.58,0,5,0,7.52,0,.51,0,.69-.33.36-.76a30.34,30.34,0,0,0-2.42-2.87,33.81,33.81,0,0,0-9.84-6.17C270.79,2.57,268.88,2.92,267,2.86Zm-4.3-.17-.2.48a7.77,7.77,0,0,0,.74.54,23.45,23.45,0,0,1,6.28,4.59c1.32,1.5,2.3,3.09,1.35,5.28,1.48,0,2.86.08,4.22,0a1.24,1.24,0,0,0,1.05-2A9.27,9.27,0,0,0,274,9c-2.57-1.86-5.21-3.63-7.92-5.27A14.24,14.24,0,0,0,262.67,2.69Z"/><path class="cls-1" d="M219.74,30.65c-1.56-2.11-1-4.49,1.13-4.89C220.55,27.4,221,29.15,219.74,30.65Z"/><path class="cls-1" d="M222.1,39.84c-.66,0-1.3.18-1.67-.05a1.86,1.86,0,0,1-.55-1.36A16.6,16.6,0,0,1,220.2,36C221.7,36.88,221.59,38.34,222.1,39.84Z"/><path class="cls-1" d="M217.84,30.75c2.08,1.58,2.2,3.5.36,5.21Z"/><path class="cls-1" d="M223.91,32.84l-.27,3.82c-.84-.41-1.43-.86-1.41-1.78C222.24,33.74,222.64,33.21,223.91,32.84Z"/><path class="cls-1" d="M222.34,31.1c-1-1.12-1-1.61.08-3.42C223.64,29,223.63,30.37,222.34,31.1Z"/><path class="cls-1" d="M282.62,31.09c-6.78,4.81-7.2,15.7-.59,21.18a4.8,4.8,0,0,1-2.73-1.54,12.29,12.29,0,0,1-3.42-10.46,11.75,11.75,0,0,1,4.35-8,21.22,21.22,0,0,1,2.29-1.4Z"/><path class="cls-1" d="M284.25,49.54v-.65c0-1.9.07-1.93,1.92-2.32a1.31,1.31,0,0,1,1.7.88c.38.89.86,1.73,1.26,2.62s.18,1.29-.76,1.47-2,.27-3,.42-1.21-.26-1.15-1.1C284.28,50.42,284.25,50,284.25,49.54Z"/><path class="cls-1" d="M293.89,41.08c-.32,1.88-.62,3.73-1,5.57a.84.84,0,0,1-.73.2,25,25,0,0,1-2.32-1.91,1.24,1.24,0,0,1-.31-.82,5.6,5.6,0,0,1,.17-1.21c.33-1.55.47-1.69,2-1.82C292.42,41,293.11,41.08,293.89,41.08Z"/><path class="cls-1" d="M281.47,39.49,280.19,38c-1.1-1.33-1.15-1.5-.11-2.91.77-1,1.7-2,2.56-2.93l.37.13a20,20,0,0,1,.27,4.48C283.15,37.69,282.16,38.5,281.47,39.49Z"/><path class="cls-1" d="M280,48.12a8.22,8.22,0,0,1-1.72-5.41,1.25,1.25,0,0,1,.77-.88c.67-.2,1.54-.38,2,.4C282.35,44.76,282.58,46.3,280,48.12Z"/><path class="cls-1" d="M285.21,43.65c1.17-2,1.17-2,.48-4.65a2.61,2.61,0,0,1,1.17,3A1.85,1.85,0,0,1,285.21,43.65Z"/><path class="cls-1" d="M284.3,39.33c1.12,0,1.54.89,1.06,2.52Z"/><path class="cls-1" d="M309.26,34.37c2.52-.07,2.92-2.27,3.83-4l.32.17c-.18.59-.34,1.2-.56,1.78a15.14,15.14,0,0,1-.9,2.16C311.23,35.8,310.09,35.75,309.26,34.37Z"/><path class="cls-3" d="M267,2.86c1.91.06,3.82-.29,5.69.56a33.81,33.81,0,0,1,9.84,6.17,30.34,30.34,0,0,1,2.42,2.87c.33.43.15.76-.36.76-2.47,0-4.94,0-7.52,0a2.59,2.59,0,0,0-.68-3,30.47,30.47,0,0,0-8.59-6.49c-.31-.18-.61-.38-.91-.57Z"/><path class="cls-3" d="M262.67,2.69a14.24,14.24,0,0,1,3.41,1C268.79,5.36,271.43,7.13,274,9a9.27,9.27,0,0,1,2.11,2.6,1.24,1.24,0,0,1-1.05,2c-1.36.1-2.74,0-4.22,0,1-2.19,0-3.78-1.35-5.28a23.45,23.45,0,0,0-6.28-4.59,7.77,7.77,0,0,1-.74-.54Z"/><path class="cls-1" d="M0,672c1.83-1,2.09-2.52,2-4.33s-.06-3.45-.14-5.17a1.23,1.23,0,0,1,.91-1.39c3.13-1.15,5.52-3.36,8-5.48a2.49,2.49,0,0,0,1-2.13c-.08-2.54-.08-5.09-.15-7.64,0-1,.39-1.5,1.35-2,2.49-1.33,5.56-1.72,7.32-4.27a2.52,2.52,0,0,0,.52-1.35c0-2.26-.15-4.52-.2-6.78a3,3,0,0,1,1.85-2.93,6.69,6.69,0,0,0,2.12-1.95,5.4,5.4,0,0,1,2.73-2.16c3.41-1.2,3.44-1.22,3.64-4.84.1-1.92,0-3.86.06-5.79s.27-2.27,2-2.86a15.33,15.33,0,0,0,6.25-3.33,2,2,0,0,0,.54-1.23q.08-3.76,0-7.53a2.84,2.84,0,0,1,2-3c1.22-.47,2.81-.8,3.45-1.73s.12-2.46.22-3.73c.09-1,.44-2,.48-3s-.25-1.84-.24-2.76c0-2.12.21-4.25.17-6.37s-.33-4.15-.46-6.22c-.21-3.51-.28-2.93,2.73-3.92a17.53,17.53,0,0,1,10.77.14c1.69.5,3.43.81,5.15,1.2.12,0,.31,0,.36.07,1.06,1.6,2.87,1,4.31,1.43,3.37,1,6.77,2,10.16,3a6.23,6.23,0,0,0,1.67.39c1.44,0,2,.84,2.06,2.07.11,2,.19,4,.12,6a9.1,9.1,0,0,1-.8,2.15c-.17.51-.53,1.24-.32,1.56.84,1.3.63,2.68.63,4.06s0,3,0,4.56a3.34,3.34,0,0,1-.2,1.57c-1,1.69-.23,3.36-.17,5,.08,2.33-.13,4.67-.09,7a19.27,19.27,0,0,0,.57,3.07,5.81,5.81,0,0,1,.14,1.09c0,1.77,0,3.54-.08,5.3s-1.55,3.1-.36,5.18c.83,1.44.51,3.61.52,5.45a18.08,18.08,0,0,1-.55,3.22,3.75,3.75,0,0,0-.19.69q.21,3.72.45,7.44a3.35,3.35,0,0,1-1.85,3.63c-4.47,2.43-8.71,5.35-13.32,7.46-2.4,1.09-4.39,2.75-6.77,3.8s-4.66,2.42-7,3.56c-2.73,1.3-5.54,2.42-8.24,3.76-2.46,1.22-4.81,2.64-7.24,3.92-2,1.06-4,2-6.05,3.06a2.29,2.29,0,0,1-.23.1c-3.25.68-5.78,2.89-8.78,4.13s-5.89,2.9-8.85,4.33a13.34,13.34,0,0,1-3.33,1.26,3.51,3.51,0,0,1-2.5-.53c-1.87-1.46-3.57-3.13-5.37-4.69-.26-.22-.73-.48-1-.39C.63,673.61.33,673,0,672Zm62-29.81,1-.1c1.57-.17,2,.21,2,1.79s0,3.29,0,4.93a8.27,8.27,0,0,0,.14,1.1l.42,0a4.68,4.68,0,0,0,.22-1.14c-.06-1.56-.1-3.13-.3-4.67A3.76,3.76,0,0,1,67.76,640c3.83-2,7.63-4,11.43-6.08a15.28,15.28,0,0,0,1.38-.94l-.28-.5L75,635.08a53.59,53.59,0,0,0-.41-5.4c-.49-2.8.17-4.8,3-5.84a11,11,0,0,0,2.29-1.58l-.29-.49-14.09,6.44c-.38-.73-1-1.38-1-2.05-.09-2.36,0-4.74.06-7.11.06-1.36,1.15-1.87,2.25-2.32q6.78-2.76,13.55-5.55c.28-.11.45-.5.68-.76l-.28-.27c-1.43.5-2.85,1-4.28,1.49s-1.85.23-1.85-1.42c0-2.13-.09-4.26-.27-6.37-.09-1,.09-1.63,1.09-2,1.55-.59,3.07-1.28,4.6-1.93l-.09-.44a5.48,5.48,0,0,0-1.35.14q-5.79,2.1-11.55,4.26c-1.63.62-1.82.57-2-1.19-.2-2.29-.27-4.6-.43-6.89-.09-1.18-.23-2.35.6-3.35a9.35,9.35,0,0,0,2.25-.09,20.4,20.4,0,0,0,2.82-1.2l10.22-4.69-.33-.49c-1.18.51-2.24,1-3.32,1.41-.82.32-1.34.09-1.39-.89-.09-1.8-.19-3.6-.33-5.4a6.64,6.64,0,0,0-.34-1.29c0,2.33.14,4.59.3,6.86a1.64,1.64,0,0,1-1.06,1.85c-2.6,1.2-5.17,2.47-7.77,3.69a5,5,0,0,1-1,.24c-1.29.47-2.61.91-3.88,1.43s-2.61,1.17-3.91,1.76l.15.33,6.22-2.1a11,11,0,0,1,.43,2c0,2.17,0,4.35,0,6.52,0,1.84-.7,2.54-2.46,3.22-4.51,1.76-9,3.6-13.48,5.42a11.65,11.65,0,0,0-1,.56l.16.3c.53-.17,1.06-.34,1.59-.53,1.57-.6,3.12-1.24,4.7-1.8.74-.27,1.13,0,1.14.88,0,2.26.23,4.52.2,6.77A4.12,4.12,0,0,1,52.74,621q-7.1,3.4-14.28,6.62a2.11,2.11,0,0,1-1.81-.08,1.27,1.27,0,0,0-2,.11c0-.88-3-3.57-4-3.76-1.29-.23-5,1.91-5.52,3.16a.75.75,0,0,0,.2.1,2,2,0,0,0,.49,0c1.42-.21,2.84-.59,4,.76.2.24.77.2,1.18.24.69.07,1.4.07,2.08.18a13.43,13.43,0,0,0,8.62-1.07c.65-.35,1.35-.6,2-.89,1.43-.62,1.7-.43,1.61,1.17-.17,2.87-.4,5.74-.53,8.61a2.3,2.3,0,0,1-1.46,2.2c-4.7,2.17-9.38,4.38-14.07,6.56a3.35,3.35,0,0,1-3.43-.57c-1.57-1.24-3.22-2.38-4.88-3.5-.23-.16-.7,0-1.06.06.22.28.38.71.66.82.79.31,1.28.75,1.21,1.63,0,.66-.12,1.3-.2,1.95-.18,1.43.14,1.85,1.6,1.79,2.45-.11,4.92-.1,7.16-1.42a24.23,24.23,0,0,1,3.47-1.6c1-.39,2.08-.65,3.52-1.09v8.57l.48,0c0-.4,0-.8,0-1.2l-.09-6.65a2.4,2.4,0,0,1,1.72-2.53c1.38-.52,2.71-1.18,4.06-1.79,3.74-1.7,7.46-3.43,11.21-5.09,1.61-.72,2.2-.27,2.14,1.5-.08,2.21-.13,4.43-.27,6.65a3.85,3.85,0,0,1-2,3.59q-6.51,3.21-13.05,6.37a21.85,21.85,0,0,1-2.33.75,16.13,16.13,0,0,0-2.47.89c-1.34.7-2.61,1.53-3.92,2.3l-2.66,1.55a.67.67,0,0,0,.7,0c4.12-1.83,8.26-3.64,12.36-5.52,2.5-1.15,2.84-1,2.78,1.73,0,1.88,0,3.77,0,5.65a1.67,1.67,0,0,0,.48-1.07c.12-2.22.12-4.44.34-6.65a2.89,2.89,0,0,1,1.08-2c1.79-1.06,3.77-1.8,5.59-2.81,2.43-1.36,4.78-2.86,7.16-4.29ZM27.14,661c-2.62,1-5.1,1.88-7.56,2.84s-4.85,2-7.29,3a3.07,3.07,0,0,0-2,3.16c0,1.73,0,3.45,0,5.18a18.35,18.35,0,0,0,.23,1.92,13.67,13.67,0,0,0,3.25-1.59c2.24-2,5.06-3,7.6-4.41.12-.07.41.13.62.2l.73-1.17.35,1.23,2.63-2.52.27.54c.26-.14.48-.36.69-.35,1.56.07,1.6-1.13,1.51-2.07C27.92,665,27.51,663.19,27.14,661Zm16.59-33.5c-.26,0-.4-.07-.5,0-4.48,1.81-9,3.61-13.43,5.48a1.77,1.77,0,0,0-.87,2.44,1.83,1.83,0,0,1-.06,1c-.67,2.45-1.14,4.64.79,6.35.27-.16.64-.54.78-.46.82.43,1.2-.17,1.68-.58a2,2,0,0,1,.47-.35c1.71-.67,3.46-1.27,5.15-2a42.21,42.21,0,0,0,4.65-2.23,2.7,2.7,0,0,0,1.28-1.73C43.81,632.79,43.73,630.17,43.73,627.47Zm-3.66-3,.14.33a3,3,0,0,0,1.12,0c3.93-1.66,7.84-3.37,11.77-5,.71-.3.83-.72.73-1.45a14,14,0,0,1-.07-2.67c.05-1.06.3-2.13.25-3.18-.06-1.39-.66-1.72-1.95-1.23s-2.82,1.14-4.23,1.7c-2.4,1-4.81,1.91-7.2,2.88a3.09,3.09,0,0,0-2.17,3c0,1.56-.14,3.12-.14,4.68a6.74,6.74,0,0,0,.42,1.61ZM40,650.74c1.31-.64,2.43-1.07,3.44-1.68,3.53-2.14,7.76-2.62,11.28-4.83a2.15,2.15,0,0,0,1.09-2.62,32.62,32.62,0,0,1-.41-3.26c-.06-.93,0-1.86,0-2.9-.47.15-.79.21-1.09.34-4.28,1.88-8.56,3.79-12.86,5.64a2.39,2.39,0,0,0-1.56,2.72c.11,1.8,0,3.6,0,5.4C39.86,649.86,39.9,650.17,40,650.74Zm23.53-56c-.65.19-1.11.3-1.56.47-4.31,1.6-8.59,3.26-12.93,4.8-1,.35-1.41.79-1.29,1.82.17,1.44.24,2.89.4,4.33.09.84.27,1.67.43,2.58,4.92-1.92,9.51-3.7,14.08-5.53a1.42,1.42,0,0,0,.83-.94C63.51,599.82,63.48,597.37,63.48,594.74ZM36.11,647.8l-.25,0v-3.53c-1,.56-1.85,1-2.7,1.43-2.16,1-4.32,2-6.51,2.9-1.58.65-3.21,1.16-4.79,1.8a1.09,1.09,0,0,0-.57.83c.11,2.65.29,5.3.44,7.94a1.36,1.36,0,0,0,.39,0q6.78-3.09,13.53-6.22a1.25,1.25,0,0,0,.63-.82c.15-1.88.22-3.77.32-5.65h-.16Zm37.41-68.3a12.92,12.92,0,0,0-1.49.36c-4.16,1.52-8.32,3-12.45,4.62a1.7,1.7,0,0,0-.95,1.1c-.26,1.86-.43,3.75-.52,5.63a8.08,8.08,0,0,0,.4,2c1.92-.72,3.62-1.33,5.29-2,.94-.38,1.81-.91,2.73-1.35.25-.13.71-.32.79-.23.72.78,1.28,0,1.88-.16s1.14-.45,1.73-.62a2.69,2.69,0,0,0,1.74-1.72A12.23,12.23,0,0,0,73.52,579.5Zm-6.46,45.55a12.29,12.29,0,0,0,3-.19c1.66-.53,3.42-1,4.57-2.49a1.41,1.41,0,0,1,.62-.36l1.82-.67a10,10,0,0,1,1.75-.7,2.74,2.74,0,0,0,2.42-2.8c0-1.27.07-2.54.16-3.81s-.69-2.12-2-1.67c-1.47.5-2.86,1.22-4.27,1.85-.52.23-1,.51-1.55.72-2.22.88-4.68,1.29-6.24,3.38-.1.14-.4.11-.53.24s-.67.56-.69.87c-.12,1.76-.16,3.52-.2,5.28a6.44,6.44,0,0,0,.2,1.12l.36-.05v-3.18h.25ZM64,643.12,52.88,648.9a2.56,2.56,0,0,1-1.11.37,2.75,2.75,0,0,0-2.53,1.6c-1.19,2.17-.74,4.47-.6,6.74,0,.21.65.61.83.53,1.37-.58,2.88-1,3.47-2.25a15,15,0,0,0,8.76-4.53l.1.73c1.63-.68,3.24-3.05,2.57-4.07s-.42-2.18-.38-3.28C64,644.21,64,643.69,64,643.12Zm-32.34,24,.05.42a9.74,9.74,0,0,0,2-1.16A8.77,8.77,0,0,0,35,664.53l.33.2-.09.93a49.22,49.22,0,0,1,8.51-3.91,2.08,2.08,0,0,0,1.51-2.15c0-1.84,0-3.67,0-5.51,0-1.58-.3-1.8-1.69-1.1-3.67,1.84-7.29,3.77-11,5.46A2.41,2.41,0,0,0,30.87,661c0,1.57.17,3.13.32,4.69A7.38,7.38,0,0,0,31.66,667.14ZM81.2,588.43a4.3,4.3,0,0,0-.7.11c-4.28,1.57-8.56,3.12-12.81,4.77a1.89,1.89,0,0,0-.93,1.4,40.49,40.49,0,0,0,.06,4.8c.11,1.89.56,2.19,2.33,1.49q5.67-2.22,11.3-4.57a1.35,1.35,0,0,0,.72-1C81.23,593.17,81.2,590.87,81.2,588.43Zm-8.48,57.78c.89-.56,1.77-1.13,2.67-1.67,1.58-.94,3.18-1.86,4.77-2.79a1.47,1.47,0,0,0,.69-1.77,5.7,5.7,0,0,1,.17-3.69,2,2,0,0,0,.27-1.06,1.54,1.54,0,0,0-.59-1c-.22-.14-.67.1-1.13.19l.7.77c-.54.33-1,.62-1.45.87-3.31,1.83-6.64,3.61-9.91,5.49-.61.35-1.36,1.1-1.39,1.7a56,56,0,0,0,.28,5.81l4.84-3C72.58,645.92,72.66,646.1,72.72,646.21Zm3.22-36c1.54-.82,2.86-1.48,4.13-2.22a1.59,1.59,0,0,0,.75-1c.13-1.55.17-3.11.17-4.67,0-1-.59-1.36-1.58-1a9.33,9.33,0,0,0-2.17.85,2.73,2.73,0,0,0-1.2,1.5,39.86,39.86,0,0,0-.42,4.77A9,9,0,0,0,75.94,610.17Zm4.83,13c-1.26.85-2.58,1.72-3.87,2.62a1,1,0,0,0-.44.56,17.75,17.75,0,0,0-.18,6.58,16,16,0,0,1,3.19-1.38c1.1-.21,1.66-.64,1.65-1.72,0-2.15-.07-4.3-.12-6.45C81,623.35,81,623.33,80.77,623.17Zm.82-45.56c-3.4,1-5,1.54-4.85,4.19l.86-.95-1.16,3.7.36.16.84-.58.34.57c1.09-.72,2.69-1.21,3.14-2.22C81.73,581.11,81.47,579.35,81.59,577.61Zm-41,31.33-1.29,1.91c1.17.36,2.56-.16,3.07,1.22,0,0,.15,0,.23,0l3.76-.54.08-.43c-1.93-1-3.85-2.12-5.82-3.1-.73-.37-1.34,0-1.83.81ZM14.93,662.68h4.24a20.68,20.68,0,0,0-6.65-5.07,1.11,1.11,0,0,0,.24.8,4.89,4.89,0,0,0,1.13.74c1,.48,1.34,1.05.43,1.94a2.08,2.08,0,0,0-.38.74c0,.07.1.19.21.39l.69-.91Zm34.45-66.85c1.28,0,2.34,0,3.39,0,.59,0,1.17.19,1.76.28l1.18.18c-.23-.36-.39-.89-.72-1.06a13.23,13.23,0,0,0-3.62-1.46c-.92-.14-2.13-.67-3.18.42l1.66.34Z"/><path class="cls-3" d="M65.26,592.42c-.83,1-.69,2.18-.6,3.36.16,2.29.23,4.6.43,6.89.15,1.76.34,1.81,2,1.19q5.76-2.16,11.55-4.26a5.48,5.48,0,0,1,1.35-.14l.09.44c-1.53.65-3,1.34-4.6,1.93-1,.39-1.18,1-1.09,2,.18,2.11.27,4.24.27,6.37,0,1.65.3,1.95,1.85,1.42s2.85-1,4.28-1.49l.28.27c-.23.26-.4.65-.68.76q-6.76,2.8-13.55,5.55c-1.1.45-2.19,1-2.25,2.32-.1,2.37-.15,4.75-.06,7.11,0,.67.64,1.32,1,2.05l14.09-6.44.29.49a11,11,0,0,1-2.29,1.58c-2.87,1-3.53,3-3,5.84a53.59,53.59,0,0,1,.41,5.4l5.31-2.62.28.5a15.28,15.28,0,0,1-1.38.94C75.39,636,71.59,638,67.76,640a3.76,3.76,0,0,0-2.32,4.17c.2,1.54.24,3.11.3,4.67a4.68,4.68,0,0,1-.22,1.14l-.42,0a8.27,8.27,0,0,1-.14-1.1c0-1.64,0-3.28,0-4.93s-.44-2-2-1.79l-1,.1c3.52-1.83,7-3.68,10.55-5.48a2.64,2.64,0,0,0,1.64-3c-.19-1.66-.19-3.34-.34-5a5.47,5.47,0,0,0-.42-1.32l0,0c.07-1.42-.42-1.83-1.7-1.2-4.55,2.26-9.08,4.55-13.56,6.93a2.39,2.39,0,0,0-.77,1.74c-.1,1.64,0,3.28,0,4.91,0,.9-.09,1.81,0,2.7S58,644,59,643.5a12.81,12.81,0,0,1,1.61-.57c-2.38,1.43-4.73,2.93-7.16,4.29-1.82,1-3.8,1.75-5.59,2.81a2.89,2.89,0,0,0-1.08,2c-.22,2.21-.22,4.43-.34,6.65a1.67,1.67,0,0,1-.48,1.07c0-1.88,0-3.77,0-5.65.06-2.7-.28-2.88-2.78-1.73-4.1,1.88-8.24,3.69-12.36,5.52a.67.67,0,0,1-.7,0l2.66-1.55c1.31-.77,2.58-1.6,3.92-2.3a16.13,16.13,0,0,1,2.47-.89,21.85,21.85,0,0,0,2.33-.75q6.54-3.15,13.05-6.37a3.85,3.85,0,0,0,2-3.59c.14-2.22.19-4.44.27-6.65.06-1.77-.53-2.22-2.14-1.5-3.75,1.66-7.47,3.39-11.21,5.09-1.35.61-2.68,1.27-4.06,1.79a2.4,2.4,0,0,0-1.72,2.53l.09,6.65c0,.4,0,.8,0,1.2l-.48,0V643c-1.44.44-2.51.7-3.52,1.09a24.23,24.23,0,0,0-3.47,1.6c-2.24,1.32-4.71,1.31-7.16,1.42-1.46.06-1.78-.36-1.6-1.79.08-.65.15-1.29.2-1.95.07-.88-.42-1.32-1.21-1.63-.28-.11-.44-.54-.66-.82.36,0,.83-.22,1.06-.06,1.66,1.12,3.31,2.26,4.88,3.5a3.35,3.35,0,0,0,3.43.57c4.69-2.18,9.37-4.39,14.07-6.56a2.3,2.3,0,0,0,1.46-2.2c.13-2.87.36-5.74.53-8.61.09-1.6-.18-1.79-1.61-1.17-.68.29-1.38.54-2,.89A13.43,13.43,0,0,1,33,628.31c-.68-.11-1.39-.11-2.08-.18-.41,0-1,0-1.18-.24-1.15-1.35-2.57-1-4-.76a2,2,0,0,1-.49,0,.75.75,0,0,1-.2-.1c.48-1.25,4.23-3.39,5.52-3.16,1,.19,4,2.88,4,3.76a1.27,1.27,0,0,1,2-.11,2.11,2.11,0,0,0,1.81.08q7.18-3.23,14.28-6.62a4.12,4.12,0,0,0,2.35-3.83c0-2.25-.16-4.51-.2-6.77,0-.88-.4-1.15-1.14-.88-1.58.56-3.13,1.2-4.7,1.8-.53.19-1.06.36-1.59.53l-.16-.3a11.65,11.65,0,0,1,1-.56c4.49-1.82,9-3.66,13.48-5.42,1.76-.68,2.43-1.38,2.46-3.22,0-2.17,0-4.35,0-6.52a11,11,0,0,0-.43-2L57.62,596l-.15-.33c1.3-.59,2.59-1.21,3.91-1.76s2.59-1,3.88-1.43ZM55.85,619.9c1.18-.39,2.12-.66,3-1,3.91-1.48,7.78-3.06,11.72-4.44a4.41,4.41,0,0,0,3.24-3.83,21.87,21.87,0,0,0-.56-8.23c-.56.18-1,.3-1.4.45-2,.69-3.94,1.4-5.91,2.1-2.86,1-5.73,2-8.58,3-.87.32-1.81.62-1.78,1.88,0,2.13,0,4.26,0,6.39C55.67,617.38,55.77,618.52,55.85,619.9ZM45.3,625.63a5.66,5.66,0,0,1,.42,1.37c.09,2.74.13,5.49.2,8.24,0,.52.13,1,.22,1.68l1.26-.56c4.4-1.94,8.76-3.93,13.19-5.79,3.08-1.29,3-1.2,3-4.57a34.25,34.25,0,0,1,.67-5.77c.18-1.07-.14-2.16-.9-2.05a14.38,14.38,0,0,0-2.94.8c-.95.36-1.83.89-2.77,1.29-3.93,1.67-7.87,3.31-11.79,5A3.15,3.15,0,0,0,45.3,625.63Z"/><path class="cls-3" d="M27.14,661c.37,2.22.78,4.06.95,5.92.09.94.05,2.14-1.51,2.07-.21,0-.43.21-.69.35l-.27-.54L23,671.29l-.35-1.23-.73,1.17c-.21-.07-.5-.27-.62-.2-2.54,1.45-5.36,2.39-7.6,4.41A13.67,13.67,0,0,1,10.44,677a18.35,18.35,0,0,1-.23-1.92c0-1.73,0-3.45,0-5.18a3.07,3.07,0,0,1,2-3.16c2.44-1,4.85-2,7.29-3S24.52,662,27.14,661Z"/><path class="cls-3" d="M43.73,627.47c0,2.7.08,5.32-.06,7.93a2.7,2.7,0,0,1-1.28,1.73,42.21,42.21,0,0,1-4.65,2.23c-1.69.72-3.44,1.32-5.15,2a2,2,0,0,0-.47.35c-.48.41-.86,1-1.68.58-.14-.08-.51.3-.78.46-1.93-1.71-1.46-3.9-.79-6.35a1.83,1.83,0,0,0,.06-1,1.77,1.77,0,0,1,.87-2.44c4.45-1.87,9-3.67,13.43-5.48C43.33,627.4,43.47,627.45,43.73,627.47Z"/><path class="cls-3" d="M40.07,624.47l-1.33.6a6.74,6.74,0,0,1-.42-1.61c0-1.56.12-3.12.14-4.68a3.09,3.09,0,0,1,2.17-3c2.39-1,4.8-1.92,7.2-2.88,1.41-.56,2.81-1.16,4.23-1.7s1.89-.16,1.95,1.23c.05,1-.2,2.12-.25,3.18a14,14,0,0,0,.07,2.67c.1.73,0,1.15-.73,1.45-3.93,1.66-7.84,3.37-11.77,5a3,3,0,0,1-1.12,0Z"/><path class="cls-3" d="M40,650.74c-.05-.57-.09-.88-.1-1.19,0-1.8.09-3.6,0-5.4a2.39,2.39,0,0,1,1.56-2.72c4.3-1.85,8.58-3.76,12.86-5.64.3-.13.62-.19,1.09-.34,0,1-.05,2,0,2.9a32.62,32.62,0,0,0,.41,3.26,2.15,2.15,0,0,1-1.09,2.62c-3.52,2.21-7.75,2.69-11.28,4.83C42.38,649.67,41.26,650.1,40,650.74Z"/><path class="cls-3" d="M63.48,594.74c0,2.63,0,5.08,0,7.53a1.42,1.42,0,0,1-.83.94c-4.57,1.83-9.16,3.61-14.08,5.53-.16-.91-.34-1.74-.43-2.58-.16-1.44-.23-2.89-.4-4.33-.12-1,.29-1.47,1.29-1.82,4.34-1.54,8.62-3.2,12.93-4.8C62.37,595,62.83,594.93,63.48,594.74Z"/><path class="cls-3" d="M36.11,647.8l.33-1.37h.16c-.1,1.88-.17,3.77-.32,5.65a1.25,1.25,0,0,1-.63.82Q28.9,656,22.12,659.13a1.36,1.36,0,0,1-.39,0c-.15-2.64-.33-5.29-.44-7.94a1.09,1.09,0,0,1,.57-.83c1.58-.64,3.21-1.15,4.79-1.8,2.19-.91,4.35-1.9,6.51-2.9.85-.39,1.65-.87,2.7-1.43v3.53Z"/><path class="cls-3" d="M73.52,579.5a12.23,12.23,0,0,1-.85,7.65,2.69,2.69,0,0,1-1.74,1.72c-.59.17-1.14.49-1.73.62s-1.16.94-1.88.16c-.08-.09-.54.1-.79.23-.92.44-1.79,1-2.73,1.35-1.67.68-3.37,1.29-5.29,2a8.08,8.08,0,0,1-.4-2c.09-1.88.26-3.77.52-5.63a1.7,1.7,0,0,1,.95-1.1c4.13-1.58,8.29-3.1,12.45-4.62A12.92,12.92,0,0,1,73.52,579.5Z"/><path class="cls-3" d="M67.06,625.05l-.29-2.46h-.25v3.18l-.36.05a6.44,6.44,0,0,1-.2-1.12c0-1.76.08-3.52.2-5.28,0-.31.43-.61.69-.87s.43-.1.53-.24c1.56-2.09,4-2.5,6.24-3.38.53-.21,1-.49,1.55-.72,1.41-.63,2.8-1.35,4.27-1.85,1.29-.45,2.08.33,2,1.67s-.13,2.54-.16,3.81a2.74,2.74,0,0,1-2.42,2.8,10,10,0,0,0-1.75.7l-1.82.67a1.41,1.41,0,0,0-.62.36c-1.15,1.52-2.91,2-4.57,2.49A12.29,12.29,0,0,1,67.06,625.05Z"/><path class="cls-3" d="M64,643.12c0,.57,0,1.09,0,1.62,0,1.1-.37,2.14.38,3.28s-.94,3.39-2.57,4.07l-.1-.73a15,15,0,0,1-8.76,4.53c-.59,1.24-2.1,1.67-3.47,2.25-.18.08-.81-.32-.83-.53-.14-2.27-.59-4.57.6-6.74a2.75,2.75,0,0,1,2.53-1.6,2.56,2.56,0,0,0,1.11-.37Z"/><path class="cls-3" d="M31.66,667.14a7.38,7.38,0,0,1-.47-1.47c-.15-1.56-.29-3.12-.32-4.69a2.41,2.41,0,0,1,1.62-2.53c3.73-1.69,7.35-3.62,11-5.46,1.39-.7,1.7-.48,1.69,1.1,0,1.84,0,3.67,0,5.51a2.08,2.08,0,0,1-1.51,2.15,49.22,49.22,0,0,0-8.51,3.91l.09-.93-.33-.2a8.77,8.77,0,0,1-1.23,1.87,9.74,9.74,0,0,1-2,1.16Z"/><path class="cls-3" d="M81.2,588.43c0,2.44,0,4.74,0,7a1.35,1.35,0,0,1-.72,1q-5.62,2.34-11.3,4.57c-1.77.7-2.22.4-2.33-1.49a40.49,40.49,0,0,1-.06-4.8,1.89,1.89,0,0,1,.93-1.4c4.25-1.65,8.53-3.2,12.81-4.77A4.3,4.3,0,0,1,81.2,588.43Z"/><path class="cls-3" d="M72.72,646.21c-.06-.11-.14-.29-.08-.17l-4.84,3a56,56,0,0,1-.28-5.81c0-.6.78-1.35,1.39-1.7,3.27-1.88,6.6-3.66,9.91-5.49.46-.25.91-.54,1.45-.87l-.7-.77c.46-.09.91-.33,1.13-.19a1.54,1.54,0,0,1,.59,1,2,2,0,0,1-.27,1.06,5.7,5.7,0,0,0-.17,3.69,1.47,1.47,0,0,1-.69,1.77c-1.59.93-3.19,1.85-4.77,2.79C74.49,645.08,73.61,645.65,72.72,646.21Z"/><path class="cls-1" d="M60.61,642.93a12.81,12.81,0,0,0-1.61.57c-1,.49-1.51,0-1.59-.94s0-1.8,0-2.7c0-1.63-.08-3.27,0-4.91a2.39,2.39,0,0,1,.77-1.74c4.48-2.38,9-4.67,13.56-6.93,1.28-.63,1.77-.22,1.69,1.2l-6,2.29c-.72.28-1.42.61-2.14.9-1.32.53-2.71.94-4,1.59-2.51,1.29-2.48,1.35-2.49,4.2,0,1.65,0,3.3,0,5.23,3.31-1.4,6.41-2.64,9.46-4,1.26-.57,2.36-1.49,3.61-2.1a2.29,2.29,0,0,0,1.46-2.48c-.1-1.87,0-3.76.08-5.64a5.47,5.47,0,0,1,.42,1.32c.15,1.67.15,3.35.34,5a2.64,2.64,0,0,1-1.64,3c-3.53,1.8-7,3.65-10.55,5.48Z"/><path class="cls-3" d="M75.94,610.17a9,9,0,0,1-.32-1.82,39.86,39.86,0,0,1,.42-4.77,2.73,2.73,0,0,1,1.2-1.5,9.33,9.33,0,0,1,2.17-.85c1-.33,1.57,0,1.58,1,0,1.56,0,3.12-.17,4.67a1.59,1.59,0,0,1-.75,1C78.8,608.69,77.48,609.35,75.94,610.17Z"/><path class="cls-3" d="M80.77,623.17c.18.16.23.18.23.21,0,2.15.11,4.3.12,6.45,0,1.08-.55,1.51-1.65,1.72a16,16,0,0,0-3.19,1.38,17.75,17.75,0,0,1,.18-6.58,1,1,0,0,1,.44-.56C78.19,624.89,79.51,624,80.77,623.17Z"/><path class="cls-3" d="M81.59,577.61c-.12,1.74.14,3.5-.47,4.87-.45,1-2.05,1.5-3.14,2.22l-.34-.57-.84.58-.36-.16,1.16-3.7-.86.95C76.54,579.15,78.19,578.6,81.59,577.61Z"/><path class="cls-3" d="M40.55,608.94l-1.8-.1c.49-.82,1.1-1.18,1.83-.81,2,1,3.89,2.06,5.82,3.1l-.08.43-3.76.54c-.08,0-.22,0-.23,0-.51-1.38-1.9-.86-3.07-1.22Z"/><path class="cls-3" d="M65.26,592.43a5,5,0,0,0,1-.24c2.6-1.22,5.17-2.49,7.77-3.69a1.64,1.64,0,0,0,1.06-1.85c-.16-2.27-.28-4.53-.3-6.86a6.64,6.64,0,0,1,.34,1.29c.14,1.8.24,3.6.33,5.4,0,1,.57,1.21,1.39.89C78,587,79,586.47,80.22,586l.33.49-10.22,4.69a20.4,20.4,0,0,1-2.82,1.2,9.35,9.35,0,0,1-2.25.09Z"/><path class="cls-3" d="M14.93,662.68l-.09-1.37-.69.91c-.11-.2-.23-.32-.21-.39a2.08,2.08,0,0,1,.38-.74c.91-.89.56-1.46-.43-1.94a4.89,4.89,0,0,1-1.13-.74,1.11,1.11,0,0,1-.24-.8,20.68,20.68,0,0,1,6.65,5.07Z"/><path class="cls-3" d="M49.38,595.83l.47-1.29-1.66-.34c1.05-1.09,2.26-.56,3.18-.42A13.23,13.23,0,0,1,55,595.24c.33.17.49.7.72,1.06l-1.18-.18c-.59-.09-1.17-.25-1.76-.28C51.72,595.8,50.66,595.83,49.38,595.83Z"/><path class="cls-1" d="M55.85,619.9c-.08-1.38-.18-2.52-.2-3.65,0-2.13,0-4.26,0-6.39,0-1.26.91-1.56,1.78-1.88,2.85-1,5.72-2,8.58-3,2-.7,3.94-1.41,5.91-2.1.41-.15.84-.27,1.4-.45a21.87,21.87,0,0,1,.56,8.23,4.41,4.41,0,0,1-3.24,3.83c-3.94,1.38-7.81,3-11.72,4.44C58,619.24,57,619.51,55.85,619.9Zm1.24-5.9v1.84c0,1.81.58,2.21,2.27,1.42,4.34-2,8.67-4.09,13-6.17a1.15,1.15,0,0,0,.6-.8,47,47,0,0,0,.32-5c0-1.47-.66-1.83-2-1.26-3.65,1.55-7.25,3.26-11,4.71C57.77,609.71,56.39,611.15,57.09,614Z"/><path class="cls-1" d="M45.3,625.63a3.15,3.15,0,0,1,.55-.39c3.92-1.66,7.86-3.3,11.79-5,.94-.4,1.82-.93,2.77-1.29a14.38,14.38,0,0,1,2.94-.8c.76-.11,1.08,1,.9,2.05a34.25,34.25,0,0,0-.67,5.77c0,3.37.09,3.28-3,4.57-4.43,1.86-8.79,3.85-13.19,5.79l-1.26.56c-.09-.64-.2-1.16-.22-1.68-.07-2.75-.11-5.5-.2-8.24A5.66,5.66,0,0,0,45.3,625.63Zm1.92,3.61c0,.83,0,1.65,0,2.47a1.22,1.22,0,0,0,1,1.42,4.65,4.65,0,0,0,3.68-.48q3.2-1.71,6.45-3.35a5.59,5.59,0,0,1,1.25-.32c1.49-.33,3-1.07,2.94-2.72s.13-3.36.14-5c0-1.51-1-2.15-2.32-1.55-3.08,1.42-6.09,3.08-9.29,4.19C48.31,624.82,46.66,626.11,47.22,629.24Z"/><path class="cls-3" d="M73.43,627.45c0,1.88-.18,3.77-.08,5.64a2.29,2.29,0,0,1-1.46,2.48c-1.25.61-2.35,1.53-3.61,2.1-3,1.38-6.15,2.62-9.46,4,0-1.93,0-3.58,0-5.23,0-2.85,0-2.91,2.49-4.2,1.25-.65,2.64-1.06,4-1.59.72-.29,1.42-.62,2.14-.9l6-2.29Z"/><path class="cls-3" d="M57.09,614c-.7-2.85.68-4.29,3.21-5.29,3.7-1.45,7.3-3.16,11-4.71,1.35-.57,2-.21,2,1.26a47,47,0,0,1-.32,5,1.15,1.15,0,0,1-.6.8c-4.31,2.08-8.64,4.15-13,6.17-1.69.79-2.26.39-2.27-1.42Z"/><path class="cls-3" d="M47.22,629.24c-.56-3.13,1.09-4.42,3.86-5.38,3.2-1.11,6.21-2.77,9.29-4.19,1.31-.6,2.32,0,2.32,1.55,0,1.68-.18,3.36-.14,5s-1.45,2.39-2.94,2.72a5.59,5.59,0,0,0-1.25.32q-3.26,1.63-6.45,3.35a4.65,4.65,0,0,1-3.68.48,1.22,1.22,0,0,1-1-1.42C47.26,630.89,47.22,630.07,47.22,629.24Z"/><path class="cls-1" d="M157.62,637.54a7.24,7.24,0,0,1-.37,2.47,10.14,10.14,0,0,0-1.58,6.45,2.43,2.43,0,0,1-1.18-2.76c.39-1.55,1.08-3,1.33-4.6a5.68,5.68,0,0,0-.53-3c-.15-.36-1.1-.44-1.71-.54s-.87.21-.79.82a3.87,3.87,0,0,0,.42,1.55,6.45,6.45,0,0,1,.12-1.17c.09-.31.37-.84.51-.82.4,0,1,.28,1.09.53a6.76,6.76,0,0,1,.11,2.89c-.76,2.5-1.62,4.93-.26,7.47-1.25.53-2.05.11-2-1.18,0-1.5.19-3,.27-4.51a5.39,5.39,0,0,0-.19-1.94c-.27,2.51-.54,5-.83,7.66-.42,0-1.11,0-1.79,0-5.14-.17-10.27-.36-15.41-.49a2.09,2.09,0,0,0-1.52.52,10.73,10.73,0,0,1-7.65,4.1c-3.4.45-6.73.05-9.46-2.16a14.44,14.44,0,0,1-3-3.91,2,2,0,0,0-2-1.28c-2.94.13-5.88.19-8.81.24a8.46,8.46,0,0,1-2.07-.2c-1.29-.29-1.82-1.18-1.62-2.71,1,1.28,2.4,1.33,3.81,1.32,3.9,0,7.8,0,11.76,0l.55-3.45a17.07,17.07,0,0,0-7.05-1.66c-1.82,0-3.63.11-5.45.1-.64,0-1.67.15-1.63-.81a2.72,2.72,0,0,1,1.15-1.91,18.89,18.89,0,0,1,3.5-1.2c-.58-4-.6-8-1.81-11.84l3.64-3.26.17.59c.14-2.61-.78-4.44-2.27-4.63-1.32-.18-2.69,1.53-3.41,4a10.43,10.43,0,0,1-.71-2,4.36,4.36,0,0,1,2.76-5.06A20.59,20.59,0,0,1,109,609.9c4.46-.45,8.94-.7,13.41-1a4.24,4.24,0,0,0,1.14-.16c4.56-1.65,9.38-1.9,14.11-2.61,2.79-.41,5.6-.73,8.4-1.05a1.57,1.57,0,0,0,1.49-1.18c.7-2,1.52-3.89,2.22-5.85a10.51,10.51,0,0,1,7.07-6.8A80.19,80.19,0,0,1,174.15,588a106.74,106.74,0,0,1,20.38,0c4.72.46,9.36,1.29,13.63,3.48a17,17,0,0,1,9.22,11.71c.24,1.06.52,2.1.73,3.16a1.76,1.76,0,0,0,1.62,1.54c1.67.29,3.33.66,5,1,1.47.29,1.94.77,2.22,2.27a22.07,22.07,0,0,1,0,10c-.7,2.55-1.24,5.32-3.68,7-.2.14-.24.54-.29.83-.4,2.35-.78,4.71-1.17,7l.59-.84c-.23,2.28-1.15,3.61-2.88,3.75-1.49.12-3.26.35-4.43-.31s-1.49-2.33-2.28-3.69l-4.2,2.21c-3.52,1.86-7,3.75-10.57,5.54a2.73,2.73,0,0,0-1.52,2.24,50,50,0,0,1-1.64,6.86c-1.32,3.89-4.27,5.84-8.41,5.82-1.5,0-3-.14-4.51-.26a3.75,3.75,0,0,1-3.07-1.84,50.77,50.77,0,0,1-2.79-5.69,1.32,1.32,0,0,0-1.68-1c-1.61.21-3.23.26-4.85.42-4.34.41-8.37-1.2-12.55-1.89-1.05-.17-1.31-.94-.9-2.17,1.92.31,3.88.49,5.76,1a30.18,30.18,0,0,0,18-1.23,3.63,3.63,0,0,0,2.79-3.76c0-1.35,0-2.69,0-4.26-1,.19-1.9.32-2.74.51a49.15,49.15,0,0,1-17.06.68c-1.3-.16-2.62-.08-3.93-.17a5.32,5.32,0,0,1-1.28-.36c0-.75.39-1.06,1.18-1a18.3,18.3,0,0,0,2.77,0,2.14,2.14,0,0,0,2.28-2,21.44,21.44,0,0,0-.17-8.63c-.46-1.92-1.16-2.54-3.13-2.76s-4.08-.47-6.12-.52c-7.5-.2-15-.33-22.49-.48-1.12,0-2.24,0-3.36,0h-3.34c11.89.32,23.82-.12,35.65,1.44l0,.45-42.78-1.22v-.29h3.69l0-.29c-2.68.29-5.53-.62-8.08,1.2l.79-1.12a1.72,1.72,0,0,0-1.49,1.84,14.31,14.31,0,0,0,.2,2.53,21.76,21.76,0,0,0,1.88,6.38l.76-1.09c-.32-.19-.72-.3-.76-.48-.47-2.13-1-4.27-1.29-6.43-.09-.53.33-1.13.52-1.7l.33.1-.22.92c.4.05.7.1,1,.11l27.35.79q9.31.27,18.65.51c.69,0,1.19.18,1.41.88l0,0c-.35.14-.7.42-1.05.41q-12.75-.33-25.5-.72c-5.21-.15-10.43-.33-15.64-.45-2.15,0-4.3,0-6.54,0l.3,1.55c.46,0,.8.09,1.15.1l27.35.79q9.57.27,19.13.51c.85,0,1.34.23,1,1.29l-48.42-1.37.53,1.75,48,1.39-.09,1.25-44.17-1.27.92,1.88c1.4,0,2.82,0,4.25,0,9.31.27,18.62.56,27.93.8a2.28,2.28,0,0,0,1.33-.46,2.45,2.45,0,0,1,3.52.26,1.86,1.86,0,0,0,1.14.48c1.57,0,3.14,0,4.88,0-.21.37-.29.7-.42.72-1.61.25-3.23.45-4.93.68Zm14.28-18,0,0a4.87,4.87,0,0,0,.15-5.67,3.72,3.72,0,0,0-6.11-.5c-2.05,2.44-1.5,6.37,1.16,7.57l.6.2A3.2,3.2,0,0,0,171.9,619.53ZM116,644.21l0,0a2.48,2.48,0,0,0,2.73-.14c-.23-.31-.7-.38-.91-.66-.39-.49-.93-1.14-.87-1.67a13.66,13.66,0,0,1,1-4.46,2.91,2.91,0,0,0-.32-3.21c-.37-.5-1.41-.51-2.06-.72-.13,2.06-.23,3.81-.36,5.56-.1,1.27-.28,2.53-.38,3.79A1.3,1.3,0,0,0,116,644.21ZM193.26,640l0,0c-.75,2.93-1.5,5.85-2.33,9.06,1.56-1,1.56-2.79,2.57-4a8.26,8.26,0,0,1-1.61,5.65,8.31,8.31,0,0,0,1.6-2.15,17.25,17.25,0,0,0,1.26-10.09,41.71,41.71,0,0,0-1.54-6.61,4.42,4.42,0,0,0-1.69-1.94,1.11,1.11,0,0,0-1.85.55,4.74,4.74,0,0,1,1.81,0c1.54.7,2.71,3.9,2.11,5.7l-1.07-1.94-.3.09ZM148.2,604.1c1,0,1.66,0,2.34,0,6.57-.17,13.14-.43,19.7-.5q9.33-.09,18.66.16c3,.08,6,.5,9,.77.83.07,1.39-.12,1.27-1.12a30,30,0,0,0-2.08-8.64,5.91,5.91,0,0,0-4.46-3.68,42.88,42.88,0,0,0-6-.73,111.42,111.42,0,0,0-19.32,1c-4.12.56-8.2,1.46-12.28,2.29a5,5,0,0,0-3.73,2.7C150.21,598.8,149.28,601.38,148.2,604.1Zm-22.26,16.44H140.1c.94,0,1.1-.7,1.33-1.35a15.2,15.2,0,0,1,9.43-9.57,56.29,56.29,0,0,1,13-3c3.34-.42,6.7-.72,10.05-1.08-3.7,0-7.4.16-11.11.28a96,96,0,0,0-20.53,2.67c-4.44,1.13-8.75,2.56-12.41,5.47A10.57,10.57,0,0,0,125.94,620.54Zm19.29,15.25v-.11l-25.6-1.24c.74,1.54-.07,3-.81,4.48a21.92,21.92,0,0,0-1.1,4.15c6.62.47,12.88,1,19.16,1.36,4.59.26,9.19.31,13.79.43.32,0,.9-.17.94-.36.31-1.44.52-2.91.75-4.31-5.64,0-11.12.12-16.59,0s-11-.58-16.53-.89c0-1.16.58-1.39,1.42-1.35,4.63.26,9.26.63,13.89.75,5.68.15,11.36.09,17,.11a4.67,4.67,0,0,0,1-.21l0-.48c-10.73,1.3-21.37-.33-32.11-.66l-.31-2.32Zm54.37-27.08v-.22c-2.48-.29-5-.6-7.45-.88a65.42,65.42,0,0,0-18.59.13,17.2,17.2,0,0,0-7.61,2.9c-1.79,1.35-2.82,3.4-2.53,5a18.62,18.62,0,0,1,.66-1.95c1.26-2.86,3.42-3.92,6.48-3.26a5.3,5.3,0,0,1,3.58,2.54c1,1.65,1.85,3.37,2.77,5.06,0,0,.11-.07.13-.14.17-.47.33-.94.48-1.42,1.21-3.65,3.65-5.84,7.53-6.27,3.53-.39,7.06-.75,10.6-1.12Zm24.31,6.61-24.3,3.09c2.32.38,5,.7,7.56,1.26,2.29.5,2.9,1.64,2.1,3.83-.71,1.92-1.62,3.76-2.51,5.6s-2,3.95-3,5.92a40.81,40.81,0,0,0,3.31-4c3.2-4.23,6.48-8.41,10.7-11.68C219.69,617.81,221.86,616.63,223.91,615.32Zm-24.49-23c.85,4.36,1.62,8.33,2.43,12.29a1,1,0,0,0,.62.73c2.08.31,4.17.55,6.43.83-.8-3.8-1.51-7.35-2.35-10.88a2.37,2.37,0,0,0-1.36-1.4C203.41,593.26,201.56,592.86,199.42,592.29Zm-9.86,56.77c2.05-2.19,2.4-4.94,2.63-7.74l-.21.43c.35-2.74-1.83-2.58-3.18-2.87l.78-4.12a2.43,2.43,0,0,1,1.83,1.64c.35.84.57,1.72.84,2.58l.26-.05-1.19-5.76-.35.07.21,1-3.23.23.67-1.39c.1-.21.31-.47.26-.64-.57-1.87.65-3,1.78-4a1.54,1.54,0,0,1,2.44.22,7.32,7.32,0,0,1,1.26,2.06,26.1,26.1,0,0,1-.28,18.68,9.52,9.52,0,0,1-1.58,2.55,1.65,1.65,0,0,1-2.55.23l-.53-.38c1.26,1.79,3,1.84,4.24.13a10.66,10.66,0,0,0,1.22-2.49,30.49,30.49,0,0,0,1.51-11.76,18.86,18.86,0,0,0-2.22-9c-1.35-2.29-3.12-2.43-4.41-.14a25.55,25.55,0,0,0-2.39,6.09,18.85,18.85,0,0,0-.13,9.38V642a5.94,5.94,0,0,1,.49,1.76c.39,2.27.82,2.49,2.87,1.5l.39-.16.2.29a11.91,11.91,0,0,1-1.57,1.09C188.22,647.22,188.14,648,189.56,649.06Zm-68.12-39.47c-.32,0-.63,0-.93,0-3.42.28-6.84.57-10.26.83a15.51,15.51,0,0,0-6.68,1.66c-.45.26-.86.6-1.29.9l.13.28c1.92-1.48,3.69-.82,5.33.38,1.05.76,2,1.71,3,2.57l3.08,2.74a47.89,47.89,0,0,1,3.26-5.16A47.9,47.9,0,0,1,121.44,609.59Zm87-14.79c-.05.16-.1.24-.08.3.7,3.47,1.4,6.94,2.14,10.41a1.18,1.18,0,0,0,.59.77,16.16,16.16,0,0,0,2.83.51c.82.05,1.28-.36,1.1-1.3-.33-1.78-.56-3.58-.9-5.36A6.41,6.41,0,0,0,208.44,594.8Zm10.35,19v-.07c-.87,0-1.75.06-2.62.14-5.08.42-10.16.8-15.23,1.31-6.42.64-12.82,1.37-19.22,2.11a7.4,7.4,0,0,0-1.86.77l.12.2ZM197.5,631.29l.29-.07-1.23-5.32a3.39,3.39,0,0,0-2.47-2.52,5.53,5.53,0,0,0-6.64,2.41c-1.84,3.23-2,6.83-2,10.44.2-1,.29-2,.41-3,.31-2.35.73-4.67,2.22-6.61a5.63,5.63,0,0,1,5.49-2c1.84.23,2.28,1.78,2.79,3.19C196.73,629,197.11,630.13,197.5,631.29Zm-15.65,1.25a29,29,0,0,1-10.75,3.09c2.49,1.29,9.56,0,11.08-1.38L180.6,634Zm37.39-1.41-.14-.28a3.13,3.13,0,0,0-.51.19q-10.44,5.26-20.87,10.56a4.29,4.29,0,0,0-.83.72l.18.2Zm-93.74-9.61c11.89.16,23.8-.06,35.66,1.15C149.32,620.85,137.4,621.53,125.5,621.52Zm44.79,6.92a15.39,15.39,0,0,0-2.11.71c-.62.31-.61.83-.06,1.28a5,5,0,0,0,4.72.06c.66-.5.65-1.07-.13-1.38A23.1,23.1,0,0,0,170.29,628.44Zm45-28.81-.32.06c.42,2.15.81,4.3,1.31,6.43.08.34.66.56,1,.84l.33-.29C217.21,604.21,217,601.7,215.31,599.63ZM114.9,636.85c-4.19-2.24-8.71-1.5-13.12-1.74l-.06.61C106.13,636,110.63,635.32,114.9,636.85Zm88.48-29.61,0,.29,15.08,1.71,0-.41Zm-95.57,21.4a5.28,5.28,0,0,0,1.13-.3c.27-.14.64-.47.63-.7a1,1,0,0,0-.66-.66,6.05,6.05,0,0,0-1.9,0,3.33,3.33,0,0,0-1,.6,8.63,8.63,0,0,0,.93.89A2.45,2.45,0,0,0,107.81,628.64Zm113.83,5a11.23,11.23,0,0,0,.62-5.47c-.4.89.06,1.81-1,2a1.38,1.38,0,0,0-.87.93,6.22,6.22,0,0,0,.18,1.8c.18-.12.45-.2.54-.37a5.37,5.37,0,0,0,.35-1l.31.05Zm-49.56-21.16a6.4,6.4,0,0,1,1.46,5.36,5.22,5.22,0,0,1-3.54,4.22,4.55,4.55,0,0,0,3.68-3.38A5.63,5.63,0,0,0,172.08,612.49Zm54.93,5.9a20.56,20.56,0,0,0-.57-7.65,1.56,1.56,0,0,0-1.54-1.35C227.55,612,226.58,615.34,227,618.39Zm-120.46,14.5,4.11.64C108.38,632.27,107.51,632.11,106.55,632.89ZM156.4,635c-.74-1.1-1.42-1.24-2.55-.49Z"/><path class="cls-1" d="M158.2,639.7v-1.39c8,.73,16,1.43,23.84-.68a6.82,6.82,0,0,1-4,2.11,31.27,31.27,0,0,1-9.79.58C165,640.06,161.66,639.91,158.2,639.7Z"/><path class="cls-1" d="M157.06,644.05c.59,0,1.18,0,1.77,0,4.08.26,8.15.71,12.23.71a25.41,25.41,0,0,0,6.57-1.2,7.19,7.19,0,0,0,4.66-3.56,3.82,3.82,0,0,1-1.58,3.17,13.55,13.55,0,0,1-6.47,2.6,28.71,28.71,0,0,1-12.51-.39c-1.55-.39-3.12-.7-4.68-1Z"/><path class="cls-1" d="M113.6,641.6c-4.34,0-8.58,0-12.82,0-1.46,0-1.76-1-1-2.8.28.53.44,1.31.91,1.6a3.71,3.71,0,0,0,2,.29c3.09-.12,6.17-.32,9.26-.45A1.39,1.39,0,0,1,113.6,641.6Z"/><path class="cls-3" d="M148.2,604.1c1.08-2.72,2-5.3,3.14-7.78a5,5,0,0,1,3.73-2.7c4.08-.83,8.16-1.73,12.28-2.29a111.42,111.42,0,0,1,19.32-1,42.88,42.88,0,0,1,6,.73,5.91,5.91,0,0,1,4.46,3.68,30,30,0,0,1,2.08,8.64c.12,1-.44,1.19-1.27,1.12-3-.27-6-.69-9-.77q-9.33-.24-18.66-.16c-6.56.07-13.13.33-19.7.5C149.86,604.12,149.17,604.1,148.2,604.1Z"/><path class="cls-3" d="M157.62,637.54l-.15-1.28c1.7-.23,3.32-.43,4.93-.68.13,0,.21-.35.42-.72-1.74,0-3.31,0-4.88,0a1.86,1.86,0,0,1-1.14-.48,2.45,2.45,0,0,0-3.52-.26,2.28,2.28,0,0,1-1.33.46c-9.31-.24-18.62-.53-27.93-.8-1.43,0-2.85,0-4.25,0l-.92-1.88L163,633.14l.09-1.25-48-1.39-.53-1.75L163,630.12c.35-1.06-.14-1.27-1-1.29q-9.57-.24-19.13-.51l-27.35-.79c-.35,0-.69-.06-1.15-.1l-.3-1.55c2.24,0,4.39,0,6.54,0,5.21.12,10.43.3,15.64.45q12.75.38,25.5.72c.35,0,.7-.27,1.05-.41a9.58,9.58,0,0,1,.5,2c.06,2.14,0,4.29,0,6.44a15.71,15.71,0,0,0-.45-9.05l0,.67c-.22-.7-.72-.86-1.41-.88q-9.33-.22-18.65-.51l-27.35-.79c-.31,0-.61-.06-1-.11l.22-.92-.33-.1c-.19.57-.61,1.17-.52,1.7.34,2.16.82,4.3,1.29,6.43,0,.18.44.29.76.48l-.76,1.09a21.76,21.76,0,0,1-1.88-6.38,14.31,14.31,0,0,1-.2-2.53,1.72,1.72,0,0,1,1.49-1.84l-.79,1.12c2.55-1.82,5.4-.91,8.08-1.2l0,.29h-3.69v.29l42.78,1.22,0-.45c-11.83-1.56-23.76-1.12-35.65-1.44h3.34c1.12,0,2.24-.06,3.36,0,7.5.15,15,.28,22.49.48,2,0,4.08.29,6.12.52s2.67.84,3.13,2.76a21.44,21.44,0,0,1,.17,8.63,2.14,2.14,0,0,1-2.28,2,18.3,18.3,0,0,1-2.77,0c-.79-.07-1.13.24-1.18,1C157.6,637.56,157.62,637.54,157.62,637.54Z"/><path class="cls-3" d="M125.94,620.54a10.57,10.57,0,0,1,4-6.63c3.66-2.91,8-4.34,12.41-5.47a96,96,0,0,1,20.53-2.67c3.71-.12,7.41-.27,11.11-.28-3.35.36-6.71.66-10.05,1.08a56.29,56.29,0,0,0-13,3,15.2,15.2,0,0,0-9.43,9.57c-.23.65-.39,1.36-1.33,1.35Z"/><path class="cls-3" d="M145.23,635.79l-25.14-.69.31,2.32c10.74.33,21.38,2,32.11.66l0,.48a4.67,4.67,0,0,1-1,.21c-5.67,0-11.35,0-17-.11-4.63-.12-9.26-.49-13.89-.75-.84,0-1.44.19-1.42,1.35,5.52.31,11,.74,16.53.89s10.95,0,16.59,0c-.23,1.4-.44,2.87-.75,4.31,0,.19-.62.36-.94.36-4.6-.12-9.2-.17-13.79-.43-6.28-.36-12.54-.89-19.16-1.36a21.92,21.92,0,0,1,1.1-4.15c.74-1.52,1.55-2.94.81-4.48l25.6,1.24Zm4.46,8.18-.77-.07-11.09-.81c-5.82-.42-11.64-.86-17.46-1.27a11.85,11.85,0,0,0-1.57.12C129,644.3,139.39,643.61,149.69,644Z"/><path class="cls-3" d="M199.6,608.71l-4,.39c-3.54.37-7.07.73-10.6,1.12-3.88.43-6.32,2.62-7.53,6.27-.15.48-.31,1-.48,1.42,0,.07-.1.11-.13.14-.92-1.69-1.78-3.41-2.77-5.06a5.3,5.3,0,0,0-3.58-2.54c-3.06-.66-5.22.4-6.48,3.26a18.62,18.62,0,0,0-.66,1.95c-.29-1.62.74-3.67,2.53-5a17.2,17.2,0,0,1,7.61-2.9,65.42,65.42,0,0,1,18.59-.13c2.49.28,5,.59,7.45.88Z"/><path class="cls-3" d="M223.91,615.32c-2,1.31-4.22,2.49-6.15,4-4.22,3.27-7.5,7.45-10.7,11.68a40.81,40.81,0,0,1-3.31,4c1-2,2.05-3.93,3-5.92s1.8-3.68,2.51-5.6c.8-2.19.19-3.33-2.1-3.83-2.59-.56-5.24-.88-7.56-1.26Z"/><path class="cls-3" d="M199.42,592.29c2.14.57,4,1,5.77,1.57a2.37,2.37,0,0,1,1.36,1.4c.84,3.53,1.55,7.08,2.35,10.88-2.26-.28-4.35-.52-6.43-.83a1,1,0,0,1-.62-.73C201,600.62,200.27,596.65,199.42,592.29Z"/><path class="cls-3" d="M189.56,649.06c-1.42-1-1.34-1.84.06-2.54a11.91,11.91,0,0,0,1.57-1.09l-.2-.29-.39.16c-2,1-2.48.77-2.87-1.5a5.94,5.94,0,0,0-.49-1.76v1.85a18.85,18.85,0,0,1,.13-9.38,25.55,25.55,0,0,1,2.39-6.09c1.29-2.29,3.06-2.15,4.41.14a18.86,18.86,0,0,1,2.22,9,30.49,30.49,0,0,1-1.51,11.76,10.66,10.66,0,0,1-1.22,2.49c-1.2,1.71-3,1.66-4.24-.13l.53.38a1.65,1.65,0,0,0,2.55-.23,9.52,9.52,0,0,0,1.58-2.55,26.1,26.1,0,0,0,.28-18.68,7.32,7.32,0,0,0-1.26-2.06,1.54,1.54,0,0,0-2.44-.22c-1.13,1.07-2.35,2.17-1.78,4,.05.17-.16.43-.26.64l-.67,1.39,3.23-.23-.21-1,.35-.07,1.19,5.76-.26.05c-.27-.86-.49-1.74-.84-2.58a2.43,2.43,0,0,0-1.83-1.64l-.78,4.12c1.35.29,3.53.13,3.18,2.87l.21-.43C192,644.12,191.61,646.87,189.56,649.06Z"/><path class="cls-3" d="M121.44,609.59a47.9,47.9,0,0,0-4.41,4.2,47.89,47.89,0,0,0-3.26,5.16l-3.08-2.74c-1-.86-1.9-1.81-3-2.57-1.64-1.2-3.41-1.86-5.33-.38l-.13-.28c.43-.3.84-.64,1.29-.9a15.51,15.51,0,0,1,6.68-1.66c3.42-.26,6.84-.55,10.26-.83C120.81,609.57,121.12,609.59,121.44,609.59Z"/><path class="cls-3" d="M208.44,594.8a6.41,6.41,0,0,1,5.68,5.33c.34,1.78.57,3.58.9,5.36.18.94-.28,1.35-1.1,1.3a16.16,16.16,0,0,1-2.83-.51,1.18,1.18,0,0,1-.59-.77c-.74-3.47-1.44-6.94-2.14-10.41C208.34,595,208.39,595,208.44,594.8Z"/><path class="cls-3" d="M167.06,621c-2.66-1.2-3.21-5.13-1.16-7.57a3.72,3.72,0,0,1,6.11.5,4.87,4.87,0,0,1-.15,5.67c.27-.93.54-1.86.8-2.79l-.36-.16a8.26,8.26,0,0,1-5.07,3.89C167.14,620.53,167.11,620.81,167.06,621Zm.72-8.2a3.47,3.47,0,0,0-2.55,3.22Z"/><path class="cls-3" d="M193.26,640c-.36-1.9-.71-3.81-1.07-5.71l.3-.09,1.07,1.94c.6-1.8-.57-5-2.11-5.7a4.74,4.74,0,0,0-1.81,0,1.11,1.11,0,0,1,1.85-.55,4.42,4.42,0,0,1,1.69,1.94,41.71,41.71,0,0,1,1.54,6.61,17.25,17.25,0,0,1-1.26,10.09,8.31,8.31,0,0,1-1.6,2.15,8.26,8.26,0,0,0,1.61-5.65c-1,1.25-1,3-2.57,4,.83-3.21,1.58-6.13,2.33-9.06l.6-.37.56,1,.2-.11-.71-3.46h-.33Z"/><path class="cls-3" d="M218.79,613.8,180,618.26l-.12-.2a7.4,7.4,0,0,1,1.86-.77c6.4-.74,12.8-1.47,19.22-2.11,5.07-.51,10.15-.89,15.23-1.31.87-.08,1.75-.1,2.62-.14Z"/><path class="cls-3" d="M197.5,631.29c-.39-1.16-.77-2.32-1.19-3.47-.51-1.41-.95-3-2.79-3.19a5.63,5.63,0,0,0-5.49,2c-1.49,1.94-1.91,4.26-2.22,6.61-.12,1-.21,2-.41,3,0-3.61.21-7.21,2-10.44a5.53,5.53,0,0,1,6.64-2.41,3.39,3.39,0,0,1,2.47,2.52l1.23,5.32Z"/><path class="cls-3" d="M181.85,632.54,180.6,634l1.58.23c-1.52,1.4-8.59,2.67-11.08,1.38A29,29,0,0,0,181.85,632.54Z"/><path class="cls-3" d="M219.24,631.13l-22.17,11.39-.18-.2a4.29,4.29,0,0,1,.83-.72q10.42-5.29,20.87-10.56a3.13,3.13,0,0,1,.51-.19Z"/><path class="cls-3" d="M125.5,621.52c11.9,0,23.82-.67,35.66,1.15C149.3,621.46,137.39,621.68,125.5,621.52Z"/><path class="cls-3" d="M170.29,628.44a23.1,23.1,0,0,1,2.42.67c.78.31.79.88.13,1.38a5,5,0,0,1-4.72-.06c-.55-.45-.56-1,.06-1.28A15.39,15.39,0,0,1,170.29,628.44Z"/><path class="cls-3" d="M116,644.21a1.3,1.3,0,0,1-1.22-1.54c.1-1.26.28-2.52.38-3.79.13-1.75.23-3.5.36-5.56.65.21,1.69.22,2.06.72a2.91,2.91,0,0,1,.32,3.21,13.66,13.66,0,0,0-1,4.46c-.06.53.48,1.18.87,1.67.21.28.68.35.91.66a2.48,2.48,0,0,1-2.73.14l1.14-.16a9.91,9.91,0,0,1,.46-7.38,3.84,3.84,0,0,0-.18-2.22,1.14,1.14,0,0,0-.92-.62c-.23,0-.61.53-.64.85-.23,2.53-.45,5.07-.53,7.61A5.77,5.77,0,0,0,116,644.21Z"/><path class="cls-3" d="M215.31,599.63c1.66,2.07,1.9,4.58,2.33,7l-.33.29c-.35-.28-.93-.5-1-.84-.5-2.13-.89-4.28-1.31-6.43Z"/><path class="cls-1" d="M167.06,621c.05-.16.08-.44.17-.46a8.26,8.26,0,0,0,5.07-3.89l.36.16c-.26.93-.53,1.86-.8,2.79l0,0a4.3,4.3,0,0,1-4.24,1.64Z"/><path class="cls-3" d="M114.9,636.85c-4.27-1.53-8.77-.89-13.18-1.13l.06-.61C106.19,635.35,110.71,634.61,114.9,636.85Z"/><path class="cls-3" d="M203.38,607.24l15.09,1.59,0,.41-15.08-1.71Z"/><path class="cls-3" d="M107.81,628.64a2.45,2.45,0,0,1-.88-.17,8.63,8.63,0,0,1-.93-.89,3.33,3.33,0,0,1,1-.6,6.05,6.05,0,0,1,1.9,0,1,1,0,0,1,.66.66c0,.23-.36.56-.63.7A5.28,5.28,0,0,1,107.81,628.64Z"/><path class="cls-3" d="M221.64,633.65l.09-2-.31-.05a5.37,5.37,0,0,1-.35,1c-.09.17-.36.25-.54.37a6.22,6.22,0,0,1-.18-1.8,1.38,1.38,0,0,1,.87-.93c1.1-.2.64-1.12,1-2A11.23,11.23,0,0,1,221.64,633.65Z"/><path class="cls-3" d="M172.08,612.49a5.63,5.63,0,0,1,1.6,6.2,4.55,4.55,0,0,1-3.68,3.38,5.22,5.22,0,0,0,3.54-4.22A6.4,6.4,0,0,0,172.08,612.49Z"/><path class="cls-3" d="M227,618.39c-.43-3,.54-6.43-2.11-9a1.56,1.56,0,0,1,1.54,1.35A20.56,20.56,0,0,1,227,618.39Z"/><path class="cls-3" d="M106.55,632.89c1-.78,1.83-.62,4.11.64Z"/><path class="cls-3" d="M156.4,635l-2.55-.49C155,633.74,155.66,633.88,156.4,635Z"/><path class="cls-3" d="M167.66,621.17a4.3,4.3,0,0,0,4.24-1.64A3.2,3.2,0,0,1,167.66,621.17Z"/><path class="cls-1" d="M162.81,626.69l0-.67a15.71,15.71,0,0,1,.45,9.05c0-2.15,0-4.3,0-6.44a9.58,9.58,0,0,0-.5-2Z"/><path class="cls-1" d="M149.69,644c-10.3-.36-20.67.33-30.89-2a11.85,11.85,0,0,1,1.57-.12c5.82.41,11.64.85,17.46,1.27l11.09.81Z"/><path class="cls-1" d="M167.78,612.77,165.23,616A3.47,3.47,0,0,1,167.78,612.77Z"/><path class="cls-1" d="M193.26,640l.29-2.9h.33l.71,3.46-.2.11-.56-1-.6.37Z"/><path class="cls-1" d="M116,644.21a5.77,5.77,0,0,1-.71-2c.08-2.54.3-5.08.53-7.61,0-.32.41-.84.64-.85a1.14,1.14,0,0,1,.92.62,3.84,3.84,0,0,1,.18,2.22,9.91,9.91,0,0,0-.46,7.38l-1.14.16Z"/><path class="cls-1" d="M284.33,633.12l-14.67-2.24c.43-2.88.84-5.63,1.26-8.39s.93-5.82,1.32-8.75c.12-.88.45-1,1.29-1a20.44,20.44,0,0,0,4-.15,8.15,8.15,0,0,0,6.5-4.74,20.69,20.69,0,0,0,1.73-12.32,4.29,4.29,0,0,0-4-3.85c-1.76-.22-3.37.78-4.34,2.81a15.07,15.07,0,0,0-.87,2.44c-.23.79-.37,1.6-.59,2.62l-14.38-2.18a30.12,30.12,0,0,1,2.56-10.09c3.31-7.09,9.52-10.71,17.53-10a36.7,36.7,0,0,1,8.64,1.74c6.9,2.4,10.68,7.6,11.7,14.7a36.43,36.43,0,0,1-2.62,19.77,14.19,14.19,0,0,1-12.21,9.13c-1,.1-1.31.46-1.43,1.43C285.33,627,284.82,630,284.33,633.12Z"/><path class="cls-1" d="M274.73,657.61c-5.57,0-9.74-3.94-9.77-9.22a9.56,9.56,0,1,1,19.11-.4C284.05,653.52,280.08,657.61,274.73,657.61Z"/><path class="cls-1" d="M404.07,644l20.45,3.7.06-.22a15.41,15.41,0,0,1-1.48-.7c-.76-.46-1.43-1.08-2.22-1.47a15.41,15.41,0,0,0-3.57-1.43c-4.3-.89-8.62-1.63-12.93-2.43a3.65,3.65,0,0,1-.67-.25l.09-.4,15.27,2.84c-.14-2-.31-2.2-2.1-2.56-2.05-.41-4.12-.78-6.16-1.27a14.56,14.56,0,0,0-6.33-.33,1.62,1.62,0,0,1-1.06-.18l15.73-5.4a42,42,0,0,1-2.71-3.45c-1.42-2.2-2.75-4.46-4-6.74a4,4,0,0,1-.18-3.8c1.48-3,1.34-6.16.71-9.34a19.24,19.24,0,0,1-.11-8.8,12.56,12.56,0,0,1,2.92-5.37v2.9l.29,0c.06-.6.18-1.2.19-1.8a10.35,10.35,0,0,1,14.11-9.39,5.48,5.48,0,0,1,1.57,1.07c-5.45-.86-10,.11-12.65,5.31l.2.42,6.27-3.63.23.35-4.08,3.16.14.22,5.45-3.21.21.34-3.63,2.86.09.14,5.47-2.82.24.25-1.09,1.65,4.74-1.73,0-.22-2.06-.25.73-.87-2.42-.28-.08-.41,5-1.23v-.17l-3.26-.77.07-.43c1.2-.08,2.41-.18,3.62-.24,3-.14,6-.33,8.81.65a27.6,27.6,0,0,1,5.39,2.67,5.58,5.58,0,0,1,2.65,4.13,2.45,2.45,0,0,0,.48,1.24c2.11,2.41,2.53,5.27,2.29,8.31A29.33,29.33,0,0,1,450.6,618a36.51,36.51,0,0,1-3.86,4.94,10.39,10.39,0,0,0-2.62,7,2.48,2.48,0,0,0,1,1.6c3.88,3.12,8.36,5.26,12.73,7.57l4.57,2.41c.68.36,1.07.82.61,1.59-.12,0-.21,0-.25,0-3.13-2.52-6.83-2.52-10.56-2.47-1.8,0-3.6,0-5.4-.08-2.09,0-2.09,0-2.92,2.29l19.26.65.06.29a3.8,3.8,0,0,1-1,.22c-5.92-.22-11.83-.47-17.75-.66a2.5,2.5,0,0,0-1.49.56,12.94,12.94,0,0,0-1.48,1.78l21,1.11v.06c-1.95,0-3.9.06-5.85,0-4.75-.18-9.51-.42-14.26-.64a1.87,1.87,0,0,0-.67,0,67.93,67.93,0,0,0-6.66,2.53L461.14,650v.38c-2.22.06-4.45.28-6.66.16-6.18-.33-12.36-.66-18.51-1.24-10-.94-20-2-29.81-4.25-.74-.17-1.46-.45-2.18-.68ZM444,615l-1-.72c-1.33-.94-1.4-1.06-.83-2.58a5.27,5.27,0,0,0-.64-4.72c-.67-1.13-1.4-2.23-2-3.38a5.16,5.16,0,0,1,2.81-7.29,14.79,14.79,0,0,1,3.59-.85,40.69,40.69,0,0,1,4.28,0,1.94,1.94,0,0,0-1-.79,6.41,6.41,0,0,0-5.54.27,19.81,19.81,0,0,1-7.57,2.36q-2.91.27-5.82.5c-2.37.19-4.68.5-6.7,2s-4.29,1.88-6.56.35c-2.46,2.15-3.92,7.31-2.8,10,1.6-1.06,2.92-3.24,5.52-1.43-.42.13-.62.22-.83.26a6.6,6.6,0,0,1-.89.14,3.93,3.93,0,0,0-3.67,4.38,11.08,11.08,0,0,1-.87,5.81,5,5,0,0,0,.42,5.23q2.43,3.59,4.9,7.13a4.78,4.78,0,0,0,3.29,1.95,17,17,0,0,0,7.24-.41c4.36-1.13,7.49-4,10.17-7.4l2.13-2.73.21.21c-2.95,7.5-8.56,11.37-16.6,11.87,1,3.47.9,5.28-.41,6.66.31-2.3.58-4.54-1.19-6.64a31,31,0,0,0-1.39,3.19,4,4,0,0,0,2.65,5.39,17.24,17.24,0,0,0,7.86,1c5.12-.53,10.6-6.42,10.24-11.82a17.94,17.94,0,0,1,1.52-9.32s0-.14-.06-.24l-1.29-.76a9.22,9.22,0,0,1,1.21-.1,3.63,3.63,0,0,0,1.84-.61,10.52,10.52,0,0,0,3.27-7.41c0-1.9-1-2.56-2.66-1.62A24.9,24.9,0,0,0,444,615Zm-21.23,19.59a2.81,2.81,0,0,0-.69.28,7.47,7.47,0,0,0-2.5,4.87,5,5,0,0,0,2.66,5.48,18.33,18.33,0,0,0,14.44,1.82c4.88-1.33,8.91-7.17,8.68-12.32a5.57,5.57,0,0,0-.74-1.76l-.38.11c-.33,1.1-.64,2.21-1,3.29-3.26,9.47-11.77,10.64-18.57,8.1-3.18-1.19-4.09-3.45-3-6.67C422,636.8,422.34,635.81,422.77,634.62ZM448,601.36l-.36-1.58,2.8,1.72-.55-1.73.24-.18,2,1.43a4,4,0,0,0-3.47-3.65,6.12,6.12,0,0,0-6.11,3l2.66.86.14-.93Zm-2.59,38.52,11.76.38.06-.32-.93-.54c-2.45-1.53-5.24-1.7-8-1.94s-2.16-.75-2.95,2.08A1.64,1.64,0,0,0,445.37,639.88ZM418.93,639c-2.11-.35-4.08-.73-6.06-1a5.84,5.84,0,0,0-4.15,1.15l9.87,1.73Zm.79-2.48c-2.25-.21-4.44-.61-6.59,1l4.44.55C419.25,638.25,419.25,638.25,419.72,636.49Zm26.42-2.22a11,11,0,0,0,0,1.66c0,.26.27.67.46.7,1.71.28,3.43.48,5.14.71l.08-.26Zm-28.73,1.28c2.4.58,3.38.14,3.38-1.34Zm28.36-45.31c0,1.44.42,1.67,2.64,1.49Z"/><path class="cls-1" d="M387.11,595.54,388,595a2,2,0,0,1,.16,2.43,9.47,9.47,0,0,1-6.35,5.26c.87.62,1.46.73,2.14-.1a4,4,0,0,1,1.82-1c-.53,1.35-2,2.13-1.84,4l1.61-2,.32,0a13.28,13.28,0,0,1-.28,2.55c-.62,1.92-1.34,3.81-2.09,5.69-.6,1.48-.52,1.82.74,2.86a7.46,7.46,0,0,1,2.7,6.67c-.08,1.43.56,2.89.92,4.59l2.88-3.2a9.21,9.21,0,0,1,1.79,5.67c0,.4-.49.91-.89,1.18-.74.49-1.57.85-2.49,1.33.35.24.61.43.88.6a9.48,9.48,0,0,1,4,5.75,4.58,4.58,0,0,1-.14,1.52l-1.7-.81-.32,1.4-.73-1.23-.42,1.61-.32,0-1.38-3.6.23-.14.83.95c1.62-1.6.84-3.61-1.88-4.7-.66,2.17.19,4.08,1,6.27l-1.84-.71,1.76,2.65-.11.18-12.63-5.23c-.24,1.43-.37,2.8-.72,4.12-.6,2.24-1.29,4.45-2,6.65a8.44,8.44,0,0,1-1.2,2.15c-.8,1.1-1.79,1.09-2.54,0a29.66,29.66,0,0,1-1.46-2.65c-2-3.81-4.16-4-6.69-.57a29.37,29.37,0,0,1-2.31,2.9c-1.55,1.61-3.16,1.2-3.56-1a69.32,69.32,0,0,1-.87-7.34c-.13-1.93,0-3.88,0-6l-4.52.61.42,1.47c-1.17-.66-2.18-1.19-3.15-1.78a1.24,1.24,0,0,0-1.71.11,1.29,1.29,0,0,0-.21,1.72c.76,1.49,1.49,3,2.34,4.74l3.41-4.14.29.15a4.44,4.44,0,0,1-.4,1.13,33.18,33.18,0,0,1-2.38,3.11c-.83.93-1.52.78-2.08-.36-.77-1.57-1.48-3.17-2.32-5-.28,1.23-.49,2.24-.74,3.24a12.3,12.3,0,0,1-3.13,5.76,3.91,3.91,0,0,1-1.59.88c1.13-2.52,2.78-4.76,2.69-7.76a8,8,0,0,0-1.1,1.23c-.76,1.33-1.45,2.71-2.17,4.06-.51,1-.81,1-2,.56l1.57-3.64-.41-.23-3.1,3.87a2.45,2.45,0,0,1-.3-3.36,16.58,16.58,0,0,1,5.84-5.81l1.3-.83c-1.21-.3-2.25-.52-3.27-.81-2.44-.68-2.73-1.23-1.7-3.5a29.13,29.13,0,0,1,2-3.65c.86-1.34,1.93-1.3,2.65.09s1.44,3,2.15,4.55l-.27.26c-.34-.33-.81-.61-1-1-.43-.86-.68-1.82-1.08-2.7a14.15,14.15,0,0,0-1-1.6,11.15,11.15,0,0,0-2.71,5.25,1.26,1.26,0,0,0,.67,1,23,23,0,0,0,3.49.84,1.31,1.31,0,0,0,1.06-.39,2,2,0,0,1,2.88-.52,1.94,1.94,0,0,0,.76.19,1.54,1.54,0,0,1,1.4,1,2.11,2.11,0,0,0,1.73.88,36.66,36.66,0,0,0,6.07-1.12c.72-.21,1.23-1.18,1.83-1.82a1.72,1.72,0,0,0,.15-2.41,2.65,2.65,0,0,1-.44-.91c-.48-1.94-2.08-2.47-3.71-3-.72-.21-2.44,1.09-2.75,2.07s-.59,2.17-1,3.22a2.64,2.64,0,0,1-5-1.39,5,5,0,0,1,2.18-3.29,1.33,1.33,0,0,0,.62-1.48,12.86,12.86,0,0,1,1.72-8.33,2.44,2.44,0,0,0,.18-2.31c-2.75-7.7,2.07-18.16,9.65-20.67,1.77-.59,3.75-.48,5.64-.72a11.57,11.57,0,0,0,3-.51c4.15-1.73,8.22-2,12.21.34a13.9,13.9,0,0,1,2.41,2,2.65,2.65,0,0,0,3.36.59,3.14,3.14,0,0,1,1.44-.19c-1.74,1.93-5.15,1.8-7.49-.25l1.25-.28-3.33-1.94-.13.2,1.12.9-.1.27c-.6-.17-1.21-.33-1.81-.51l-2-.61.59-.47-.1-.33-5.85,1.56v.4c1.69,1.14,3.85,1.87,4.1,4.34-1.29-1-2.48-2-3.8-2.77a8.14,8.14,0,0,0-4.74-1.07c.82.73,1.45,1.33,2.15,1.86.12.1.49-.18.74-.16.64,0,1.29.18,1.93.27l0,.46-4,1.2v.2c1,0,2,0,3,0a7.35,7.35,0,0,1,2.81.19v.56c-1.45.19-2.89.36-4.33.58a5.71,5.71,0,0,0-1.59.46,4,4,0,0,1-4.16,0,2.23,2.23,0,0,0-3,.66,6,6,0,0,1,1.46.11,6.48,6.48,0,0,1,2.25,1.05c1,.91.85,1.93-.08,3s-1.89,2.11-2.84,3.17l1.59,1c-1.69,1.08-3.7,1.76-4,4.28l.78-.91.73-.88c1.17.89,1.92-.48,3.12-.54-1.6,1.94-4.41,3.13-3.18,6.59-1.09-.29-1.91-.45-2.69-.73-1.45-.51-2-.28-2.36,1.22a7.14,7.14,0,0,0,.8,6.05c.85,1.26,1.35,1.4,2.73.81l1.49-.6c-.14.63-.22,1.08-.34,1.52a3.13,3.13,0,0,0,1,3.63c4,3,8.46,5,13.64,4.53a9.13,9.13,0,0,0,4-1.33,14.37,14.37,0,0,0,6.8-12.14,30,30,0,0,0-.76-4.63,5.83,5.83,0,0,1,.12-2.32,1.16,1.16,0,0,0-.55-1.5A5.25,5.25,0,0,0,378,610l-1.26.12c1.05-1.79,2.9-1.67,6.15.45a8.45,8.45,0,0,0,.11-2.25c-.46-2-1.08-3.88-1.65-5.9,2.14-.86,4.08-2,5.1-4.34l-.93-.42,1.64-2.12Zm-28.44,34.11a14,14,0,0,1-.9,1.39,7.62,7.62,0,0,0-1.92,5c0,2.84.19,5.69.4,8.52a8,8,0,0,0,.73,2.45.93.93,0,0,0,1.57.39,24.74,24.74,0,0,0,2.09-2,26.3,26.3,0,0,1,2.45-2.6,3.34,3.34,0,0,1,4.81.61,22.92,22.92,0,0,1,1.35,2.19c.53.82,1.09,1.62,1.86,2.77a15,15,0,0,0,2-3.09c.88-2.86,1.62-5.77,2.27-8.69a15.75,15.75,0,0,0,0-3.3,4.3,4.3,0,0,0-3.67,2.44,16.05,16.05,0,0,1-4.82,5.41,2.52,2.52,0,0,1-3.57-.26,13,13,0,0,1-3.65-7.19c-.05-.34-.06-.68-.09-1a2,2,0,0,1,.59.86c1.08,2.09,2.1,4.22,3.3,6.24a1.83,1.83,0,0,0,2.88.7c2.5-1.5,3.87-3.94,5.39-6.36C366,633.34,366,633.34,358.67,629.65ZM376,632.92c.59.7,1,1.55,1.61,1.85,2.46,1.16,5,2.13,7.7,3.26l-.3-4.42a14,14,0,0,1-2,1.61c-.45.27-1.24.51-1.59.3a4.31,4.31,0,0,1-2-3.47,10.5,10.5,0,0,1,1.37,1.29c1.41,1.49,2.46,1.31,3.31-.61a5.45,5.45,0,0,0,.35-1.62c.1-.81-.33-1-1.09-.94-1.32.13-2.66.16-4,.26a1.22,1.22,0,0,0-.59.27C377.93,631.39,377.06,632.09,376,632.92Zm14.44-9c-.89,1.21-1.73,2.34-2.56,3.48-.71,1-1.22,2.18-3.15,2,.56.91.83,1.88,1.29,2,.87.2,1.3-.57,1.17-1.45,1.61.31,2.82-.5,4.08-1.1a.69.69,0,0,0,.34-.53A6.6,6.6,0,0,0,390.46,623.9Zm-30.57-30.46c-.33.11-.67.2-1,.32-3.94,1.52-6.35,4.48-7.85,8.29-.39,1-1.16,2-.07,3.08.06,0,0,.19.1.55A20.37,20.37,0,0,1,359.89,593.44Zm24.41,35.84-1.85-3.72-2.61,4.18Zm-35.86-7.21a28.25,28.25,0,0,0,1.85-6.67C348.83,617.4,347.79,619.5,348.44,622.07Zm36.6-3a2.79,2.79,0,0,0-1.17-2.87v5.26h.32v-3.66l.18,0Zm.14,7.27-.28-3-.55-.09a4.75,4.75,0,0,0-.49,1.46A1.49,1.49,0,0,0,385.18,626.38Zm-36.84-.82c-1.26-.36-2.31.58-2.52,2.2Z"/><path class="cls-1" d="M378.6,597.84l1.41,2.52.24,0-.75-2.92a2.56,2.56,0,0,1,1.95,2.42,3,3,0,0,1-2.11,3,31.51,31.51,0,0,0-8,3.4c-1.66.87-1.81.85-3.19-.47-1.06-1-1.85-1.1-3.25-.39l-3.8,1.89-.34-.27,4.53-8,.62,1.9h1.27l-1,2.67,2.41-.36L368,604c1.36,1,2.17.8,2.65-.7a34.19,34.19,0,0,0,.78-4c1,.3,1.14,1.16,1.11,2.08s-.13,1.69-.2,2.64c2.68-.76,2.3-3.06,2.64-5l.35-.13c.35.55.68,1.1,1,1.63s.64,1.22,1,1.22a1.4,1.4,0,0,0,1.45-1.42,13.13,13.13,0,0,0-.43-2.37Z"/><path class="cls-1" d="M404.29,647.24c17.69,3.89,35.7,4.64,53.7,5.61v.36c-2.17,0-4.35.16-6.51.06a375,375,0,0,1-38.14-3.79c-2.37-.36-4.71-.87-7.06-1.35-.69-.14-1.35-.41-2-.61Z"/><path class="cls-1" d="M452.45,655.82c-4.91,1.49-43-2.84-47.65-5.41C420.44,654.29,436.49,654.69,452.45,655.82Z"/><path class="cls-1" d="M387.11,595.52c-.37.15-.74.31-1.12.45a4.68,4.68,0,0,0-.85.27c-.55.32-1.07.69-1.84,1.21.05.84.6,2.19-.72,3.36.15-1.6.51-3.2-1.23-4.06a3.61,3.61,0,0,0-4.27.26c-.64-1-1.3-.41-2,0l-2.34-2.86.49-.74a22.48,22.48,0,0,1,2.3-.08,1.59,1.59,0,0,1,1,.49c2.42,2.78,5.51,2.07,8.55,1.71a20.17,20.17,0,0,1,2.06,0Z"/><path class="cls-1" d="M407.39,654.4c6,.89,12.39,2.07,18.85,2.76s12.91.9,19.1,1.3C441.48,659.94,411.2,656.63,407.39,654.4Z"/><path class="cls-1" d="M377.62,623.68l.78.7c-.35.31-.8.52-.88.83-.61,2.29-1.92,3.76-4.38,4a5,5,0,0,1-5.18-3l-.33-.55-.7.49-.2-.13.82-1.36A17.9,17.9,0,0,0,377.62,623.68ZM369.14,626c.76,1.86,2.2,2.49,4.44,2.09,1.85-.34,3-1.39,3-3Z"/><path class="cls-1" d="M366,616.69l.32-2.15-.49-.27-2.46,2.8a3.34,3.34,0,0,1,2.21-3.23c1.56-.63,2.62-.2,4,1.67C368.42,616.31,367.27,617.05,366,616.69Z"/><path class="cls-1" d="M364.94,655.28a2.38,2.38,0,0,1-1.89,2.54c-1,0-2-1.15-2-2.46A2.29,2.29,0,0,1,363,653,2.09,2.09,0,0,1,364.94,655.28Zm-.32-.06a17.67,17.67,0,0,0-1.79-1.32c-.09,0-.61.4-.73.7-.41,1,.24,1.59.91,2.28Z"/><path class="cls-1" d="M361.73,648.52a2.24,2.24,0,0,1,1.31-2.08,2.07,2.07,0,0,1,1.74.18,2.55,2.55,0,0,1,.68,2.77,2,2,0,0,1-2.19,1.8C362.24,651.06,361.7,650.3,361.73,648.52Zm3.48.3,0-.5c-.58-.39-1.18-1.12-1.72-1.08-.91.08-.92,1.07-.83,1.81a5.07,5.07,0,0,0,.57,1.32Z"/><path class="cls-1" d="M362.2,612.49c.66-1.16,1.49-2.28,2.78-2.38,2.3-.2,4.63-.06,7.24-.06a4.56,4.56,0,0,1-4.29.91,5,5,0,0,0-4.88,1.2,3,3,0,0,1-.56.37C362.44,612.55,362.36,612.51,362.2,612.49Z"/><path class="cls-1" d="M378.29,615.59l.18-1.64-1.77,1.11c.35-2,1.77-2.35,5.17-2.11C380.45,613.79,380.39,616.09,378.29,615.59Z"/><path class="cls-1" d="M353.19,617.63c.41-.25,1-.81,1.19-.71.93.67,1.75,1.49,2.61,2.25l-.17.38-1.88.6c0,.8,1.62,1.15.68,2.24-1.92-2.43-2.24-1.81-.16-3.46-.36-1.44-.69-1.6-2.08-1Z"/><path class="cls-1" d="M375.59,619.28c.38.61,1.18,1.33,1.05,1.81-.31,1.14-1.44,1.54-2.7,1.56l2.1-1.59-.87-1.48Z"/><path class="cls-1" d="M372.74,622.25h-2.26C371.05,621.23,371.91,621.23,372.74,622.25Z"/><path class="cls-3" d="M444,615a24.9,24.9,0,0,1,2.89-2.27c1.66-.94,2.67-.28,2.66,1.62a10.52,10.52,0,0,1-3.27,7.41,3.63,3.63,0,0,1-1.84.61,9.22,9.22,0,0,0-1.21.1l1.29.76c0,.1.08.19.06.24a17.94,17.94,0,0,0-1.52,9.32c.36,5.4-5.12,11.29-10.24,11.82a17.24,17.24,0,0,1-7.86-1,4,4,0,0,1-2.65-5.39,31,31,0,0,1,1.39-3.19c1.77,2.1,1.5,4.34,1.19,6.64,1.31-1.38,1.42-3.19.41-6.66,8-.5,13.65-4.37,16.6-11.87l-.21-.21-2.13,2.73c-2.68,3.44-5.81,6.27-10.17,7.4a17,17,0,0,1-7.24.41,4.78,4.78,0,0,1-3.29-1.95q-2.48-3.54-4.9-7.13a5,5,0,0,1-.42-5.23,11.08,11.08,0,0,0,.87-5.81,3.93,3.93,0,0,1,3.67-4.38,6.6,6.6,0,0,0,.89-.14c.21,0,.41-.13.83-.26-2.6-1.81-3.92.37-5.52,1.43-1.12-2.66.34-7.82,2.8-10,2.27,1.53,4.48,1.14,6.56-.35s4.33-1.76,6.7-2q2.91-.22,5.82-.5a19.81,19.81,0,0,0,7.57-2.36,6.41,6.41,0,0,1,5.54-.27,1.94,1.94,0,0,1,1,.79,40.69,40.69,0,0,0-4.28,0,14.79,14.79,0,0,0-3.59.85,5.16,5.16,0,0,0-2.81,7.29c.61,1.15,1.34,2.25,2,3.38a5.27,5.27,0,0,1,.64,4.72c-.57,1.52-.5,1.64.83,2.58Zm-14.22,9.2a9.23,9.23,0,0,0-2.17-.67c-.4,0-.8.67-1.24.74-2.25.35-4.51.6-6.77.88-.54.07-1.08.11-1.61.16l0,.27h9.19a6.89,6.89,0,0,1-3.94,3.48,2.18,2.18,0,0,1-2.85-.86c-.33-.44-.7-.85-1.05-1.28,1,3.69,3.46,4.52,6,2.21a5,5,0,0,0,.75-.84c.77-1.06,1.49-2.15,2.29-3.19A6.61,6.61,0,0,1,429.78,624.23Zm.71-10.66,3.88,1.94c.11-.21.19-.29.17-.34a.85.85,0,0,0-.19-.38,7.57,7.57,0,0,0-5.54-2.31c-1.63,0-2.35.86-2.41,2.58,1-.07,1-.07,1,.83l-.92.28a9.56,9.56,0,0,0,6.27-.44h-2.57Zm6.82-3.27c-.1-.39-.1-.51-.16-.58a1.21,1.21,0,0,0-.4-.38,12.83,12.83,0,0,0-10.91-1.25c-.41.14-.7.59-1,.9l.13.49C429.12,608.34,433.24,608.15,437.31,610.3ZM419,615c0-1.8-1.61-2.36-3.29-1.36-.74.43-1,.92-.45,1.73a4.62,4.62,0,0,1,.41,1.41h3c-1.27-.42-1.55-1.22-1.13-2.45Zm26.25,1.62,2-1.48c.05,0,.13-.17.14-.16.26.18.7.34.74.57a10,10,0,0,1,0,1.82l.35,0a9.34,9.34,0,0,0,.27-1.79c0-1.42-.77-1.8-2-1.09a7.06,7.06,0,0,0-3.18,3.79,6.9,6.9,0,0,0-.21,1.13c.62-.67,1.13-1.24,1.64-1.8l.51.24-.31,2.1C446.79,619,446.81,618.25,445.21,616.6ZM422,622.68c-2.2-.09-3.16-.94-2.13-3.17-1.38,1.19-1.57,1.91-1,2.81S420.39,623.41,422,622.68ZM421,613.12v4.07A3,3,0,0,0,421,613.12Z"/><path class="cls-3" d="M422.77,634.62c-.43,1.19-.81,2.18-1.14,3.2-1.06,3.22-.15,5.48,3,6.67,6.8,2.54,15.31,1.37,18.57-8.1.37-1.08.68-2.19,1-3.29l.38-.11a5.57,5.57,0,0,1,.74,1.76c.23,5.15-3.8,11-8.68,12.32a18.33,18.33,0,0,1-14.44-1.82,5,5,0,0,1-2.66-5.48,7.47,7.47,0,0,1,2.5-4.87A2.81,2.81,0,0,1,422.77,634.62Z"/><path class="cls-3" d="M448,601.36l-2.69-1-.14.93-2.66-.86a6.12,6.12,0,0,1,6.11-3,4,4,0,0,1,3.47,3.65l-2-1.43-.24.18.55,1.73-2.8-1.72Z"/><path class="cls-3" d="M445.37,639.88a1.64,1.64,0,0,1-.06-.34c.79-2.83.11-2.33,2.95-2.08s5.55.41,8,1.94l.93.54-.06.32Z"/><path class="cls-3" d="M418.93,639l-.34,1.89-9.87-1.73a5.84,5.84,0,0,1,4.15-1.15C414.85,638.24,416.82,638.62,418.93,639Z"/><path class="cls-3" d="M419.72,636.49c-.47,1.76-.47,1.76-2.15,1.55l-4.44-.55C415.28,635.88,417.47,636.28,419.72,636.49Z"/><path class="cls-3" d="M446.14,634.27l5.7,2.81-.08.26c-1.71-.23-3.43-.43-5.14-.71-.19,0-.42-.44-.46-.7A11,11,0,0,1,446.14,634.27Z"/><path class="cls-3" d="M417.41,635.55l3.38-1.34C420.79,635.69,419.81,636.13,417.41,635.55Z"/><path class="cls-3" d="M445.77,590.24l2.64,1.49C446.19,591.91,445.75,591.68,445.77,590.24Z"/><path class="cls-3" d="M358.67,629.65c7.28,3.69,7.28,3.69,13.07,4.49-1.52,2.42-2.89,4.86-5.39,6.36a1.83,1.83,0,0,1-2.88-.7c-1.2-2-2.22-4.15-3.3-6.24a2,2,0,0,0-.59-.86c0,.34,0,.68.09,1a13,13,0,0,0,3.65,7.19,2.52,2.52,0,0,0,3.57.26,16.05,16.05,0,0,0,4.82-5.41,4.3,4.3,0,0,1,3.67-2.44,15.75,15.75,0,0,1,0,3.3c-.65,2.92-1.39,5.83-2.27,8.69a15,15,0,0,1-2,3.09c-.77-1.15-1.33-1.95-1.86-2.77a22.92,22.92,0,0,0-1.35-2.19,3.34,3.34,0,0,0-4.81-.61,26.3,26.3,0,0,0-2.45,2.6,24.74,24.74,0,0,1-2.09,2,.93.93,0,0,1-1.57-.39,8,8,0,0,1-.73-2.45c-.21-2.83-.37-5.68-.4-8.52a7.62,7.62,0,0,1,1.92-5A14,14,0,0,0,358.67,629.65Z"/><path class="cls-3" d="M376,632.92c1-.83,1.91-1.53,2.79-2.22a1.22,1.22,0,0,1,.59-.27c1.32-.1,2.66-.13,4-.26.76-.08,1.19.13,1.09.94a5.45,5.45,0,0,1-.35,1.62c-.85,1.92-1.9,2.1-3.31.61a10.5,10.5,0,0,0-1.37-1.29,4.31,4.31,0,0,0,2,3.47c.35.21,1.14,0,1.59-.3a14,14,0,0,0,2-1.61l.3,4.42c-2.7-1.13-5.24-2.1-7.7-3.26C377,634.47,376.61,633.62,376,632.92Z"/><path class="cls-3" d="M390.46,623.9a6.6,6.6,0,0,1,1.17,4.41.69.69,0,0,1-.34.53c-1.26.6-2.47,1.41-4.08,1.1.13.88-.3,1.65-1.17,1.45-.46-.11-.73-1.08-1.29-2,1.93.16,2.44-1,3.15-2C388.73,626.24,389.57,625.11,390.46,623.9Z"/><path class="cls-3" d="M359.89,593.44a20.37,20.37,0,0,0-8.82,12.24c-.06-.36,0-.5-.1-.55-1.09-1.06-.32-2.09.07-3.08,1.5-3.81,3.91-6.77,7.85-8.29C359.22,593.64,359.56,593.55,359.89,593.44Z"/><path class="cls-3" d="M384.3,629.28l-4.46.46,2.61-4.18Z"/><path class="cls-3" d="M348.44,622.07c-.65-2.57.39-4.67,1.85-6.67A28.25,28.25,0,0,1,348.44,622.07Z"/><path class="cls-3" d="M385,619.11l-.67-1.3-.18,0v3.66h-.32v-5.26A2.79,2.79,0,0,1,385,619.11Z"/><path class="cls-3" d="M385.18,626.38a1.49,1.49,0,0,1-1.32-1.65,4.75,4.75,0,0,1,.49-1.46l.55.09Z"/><path class="cls-3" d="M348.34,625.56l-2.52,2.2C346,626.14,347.08,625.2,348.34,625.56Z"/><path class="cls-3" d="M369.14,626l7.44-.9c0,1.6-1.15,2.65-3,3C371.34,628.5,369.9,627.87,369.14,626Z"/><path class="cls-3" d="M364.62,655.22,363,656.88c-.67-.69-1.32-1.31-.91-2.28.12-.3.64-.75.73-.7A17.67,17.67,0,0,1,364.62,655.22Z"/><path class="cls-3" d="M365.21,648.82l-2,1.55a5.07,5.07,0,0,1-.57-1.32c-.09-.74-.08-1.73.83-1.81.54,0,1.14.69,1.72,1.08Z"/><path class="cls-1" d="M429.78,624.23a6.61,6.61,0,0,0-1.35.9c-.8,1-1.52,2.13-2.29,3.19a5,5,0,0,1-.75.84c-2.57,2.31-5,1.48-6-2.21.35.43.72.84,1.05,1.28a2.18,2.18,0,0,0,2.85.86,6.89,6.89,0,0,0,3.94-3.48H418l0-.27c.53-.05,1.07-.09,1.61-.16,2.26-.28,4.52-.53,6.77-.88.44-.07.84-.77,1.24-.74A9.23,9.23,0,0,1,429.78,624.23Z"/><path class="cls-1" d="M430.49,613.57l-.27,2.16h2.57a9.56,9.56,0,0,1-6.27.44l.92-.28c-.06-.9-.06-.9-1-.83.06-1.72.78-2.54,2.41-2.58a7.57,7.57,0,0,1,5.54,2.31.85.85,0,0,1,.19.38c0,.05-.06.13-.17.34Z"/><path class="cls-1" d="M437.31,610.3c-4.07-2.15-8.19-2-12.38-.82l-.13-.49c.34-.31.63-.76,1-.9a12.83,12.83,0,0,1,10.91,1.25,1.21,1.21,0,0,1,.4.38C437.21,609.79,437.21,609.91,437.31,610.3Z"/><path class="cls-1" d="M419,615l-1.43-.67c-.42,1.23-.14,2,1.13,2.45h-3a4.62,4.62,0,0,0-.41-1.41c-.55-.81-.29-1.3.45-1.73C417.35,612.62,418.91,613.18,419,615Z"/><path class="cls-1" d="M445.21,616.6c1.6,1.65,1.58,2.35,0,3.36l.31-2.1-.51-.24c-.51.56-1,1.13-1.64,1.8a6.9,6.9,0,0,1,.21-1.13,7.06,7.06,0,0,1,3.18-3.79c1.22-.71,1.95-.33,2,1.09a9.34,9.34,0,0,1-.27,1.79l-.35,0a10,10,0,0,0,0-1.82c0-.23-.48-.39-.74-.57,0,0-.09.11-.14.16Z"/><path class="cls-1" d="M422,622.68c-1.62.73-2.5.57-3.11-.36s-.4-1.62,1-2.81C418.85,621.74,419.81,622.59,422,622.68Z"/><path class="cls-1" d="M421,613.12a3,3,0,0,1,0,4.07Z"/><path class="cls-1" d="M478.25,621.32v-4h6c2.14,0,2.13,0,2.86-2q4.42-11.79,8.86-23.58a1.9,1.9,0,0,1,.63-.94l6,32.71c1.08-2,2-3.64,2.91-5.35a1.44,1.44,0,0,1,1.56-.9c1.55,0,3.12,0,4.73,0a14.2,14.2,0,0,0-.25-6.33c-.69-3.6-.94-7.17.63-10.61.51-1.11,1.24-2.12,1.86-3.18l.32.15v2.56l.29,0c.06-.56.18-1.12.19-1.68a10.26,10.26,0,0,1,13.89-9.48,5.29,5.29,0,0,1,1.71,1.16A11.66,11.66,0,0,0,520.17,592a5.64,5.64,0,0,0-2.26,3.65l6.34-3.67.24.33-4.35,3.39.11.17,5.74-3.39.24.33-3.58,2.79.09.16,5.39-2.78.24.22-1.07,1.67,4.6-1.68v-.24l-2-.27.71-.84-2.41-.3-.06-.42,5-1.2v-.18l-3.29-.75,0-.42c1-.07,2-.15,3-.2a29.36,29.36,0,0,1,9.53.58,14.59,14.59,0,0,1,5.68,3,6,6,0,0,1,2.14,3.68,2.82,2.82,0,0,0,.5,1.33c2.14,2.48,2.55,5.39,2.25,8.49-.67,6.77-2.87,12.89-7.79,17.81a9.55,9.55,0,0,0-2.67,6.89,2.58,2.58,0,0,0,1,1.69c3.92,3.15,8.43,5.29,12.83,7.62,1.45.77,2.91,1.51,4.35,2.29.65.35,1,.83.5,1.67-1.1-.61-2.13-1.26-3.24-1.76a6.93,6.93,0,0,0-2.42-.66c-3.45-.13-6.92-.17-10.37-.21-2.11,0-2.11,0-2.84,2.27l19.09.65,0,.28a2.17,2.17,0,0,1-.63.19c-5.5-.14-11-.21-16.51-.49-2.85-.15-2.29-.39-4.24,2,6.93.91,13.83.66,20.66,1.35-1.65,0-3.29.06-4.93,0-4.87-.19-9.73-.44-14.6-.63a6.62,6.62,0,0,0-2.31.25,42.9,42.9,0,0,0-5.28,2.25l25.76,1.19c-6,1.9-51.17-2.76-56.72-5.89l20.47,3.7.08-.21a10.08,10.08,0,0,1-.94-.44c-1-.6-1.88-1.3-2.88-1.82a13.25,13.25,0,0,0-3.26-1.31c-4.29-.87-8.62-1.61-12.93-2.41a1.24,1.24,0,0,1-.76-.43c5.11.55,10.11,1.74,15.18,2.56,0-1.76-.25-2.16-1.83-2.48-2.7-.55-5.38-1.19-8.09-1.62a26.54,26.54,0,0,0-4.09-.05,3.12,3.12,0,0,1-1.38-.17l15.54-5.32c-.66-.82-1.3-1.53-1.83-2.31-1.4-2.06-2.85-4.09-4.09-6.24a29.75,29.75,0,0,1-1.65-4.24c-1.53-.33-1.63-.29-2.48,1.27l-6.28,11.57a2.52,2.52,0,0,1-.8,1l-5.43-29.57c-.25.56-.39.83-.5,1.11-1.69,4.48-3.41,9-5,13.47a1.47,1.47,0,0,1-1.68,1.14C484.78,621.28,481.58,621.32,478.25,621.32Zm64.1,1.81c.89-.36,2-.49,2.56-1.1a10.2,10.2,0,0,0,3.08-6.86,3.27,3.27,0,0,0-.69-2.18c-.69-.7-1.65-.23-2.36.26a31.25,31.25,0,0,0-2.48,2.07l-1.36-.94a1.32,1.32,0,0,1-.55-1.81,5.46,5.46,0,0,0-.56-5.31c-.67-1.07-1.27-2.18-2-3.24-1.58-2.47.22-6.22,2.56-7a23.65,23.65,0,0,1,4.32-1,31.68,31.68,0,0,1,3.9,0,2.34,2.34,0,0,0-1.08-.86,7.09,7.09,0,0,0-5.72.23,23,23,0,0,1-5.08,1.92c-2.88.53-5.82.72-8.74,1a11.78,11.78,0,0,0-6.36,2.1,5.67,5.67,0,0,1-1.8.82,4.4,4.4,0,0,1-4.38-.78c-2.84,2.94-3.41,6.39-3,10.06.78-.71,1.53-1.46,2.35-2.12,1.2-1,2.14-1,2.89-.11a11.53,11.53,0,0,1-1.21.27,4.89,4.89,0,0,0-3.77,5.14,9.6,9.6,0,0,1-.74,5.66,5.3,5.3,0,0,0,.39,5.6c1.59,2.34,3.19,4.66,4.81,7a4.45,4.45,0,0,0,3.05,1.88,16.85,16.85,0,0,0,12-2.3c2.78-1.73,4.76-4.24,6.72-6.78.14-.17.26-.36.41-.53s.27-.24.53-.47c-2.11,6.57-7.29,10.2-16.28,11.55.82,4.53.8,5.12-.2,6.22.46-2.93-.09-5.39-1.42-6.08a28.11,28.11,0,0,0-1.24,2.6c-1.07,2.94,0,5.19,3,6.08a25.16,25.16,0,0,0,4,.78A12.1,12.1,0,0,0,541.55,633c0-3.21,0-6.39,1.67-9.32Zm-21,11.72a3.67,3.67,0,0,0-1,.47,8.38,8.38,0,0,0-2.25,5,4.55,4.55,0,0,0,2,4.66c5.39,3.37,11.19,4.19,17,1.41,4.56-2.19,6.06-6.6,6.61-11.33a1.34,1.34,0,0,0-1.13-1.65c-.35,1.14-.64,2.25-1,3.33-3.41,9.69-12.17,10.35-18.47,7.92-3.1-1.19-4-3.41-2.95-6.56C520.53,637.06,520.91,636.07,521.35,634.85Zm29-33.31a3.9,3.9,0,0,0-3.5-3.65,6,6,0,0,0-6,3.06l2.62.83.1-.92,2.67,1-.26-1.51,2.64,1.64-.47-2.06Zm5,38.93.12-.28-.77-.5c-2.51-1.61-5.4-1.72-8.23-2-2.34-.26-2.35-.24-2.79,2.09a1.19,1.19,0,0,0,.06.33Zm-47.95-1.12c1.81.32,3.37.62,4.94.89s3.18.53,4.84.8l.33-1.95c-1.06-.12-2-.2-3-.35s-2-.42-2.94-.53A5.89,5.89,0,0,0,507.42,639.35Zm10.87-2.55c-3-.62-5.39-.26-6.19,1,1.41.18,2.81.36,4.21.52C517.88,638.46,517.88,638.45,518.29,636.8Zm31.83.77.09-.24-5.69-2.81a12.57,12.57,0,0,0,0,1.79.81.81,0,0,0,.47.57C546.72,637.14,548.42,637.35,550.12,637.57Zm-30.64-3.14-3.33,1.32C518.17,636.44,519.13,636.06,519.48,634.43Zm24.71-43.61c-.06,1.43.28,1.62,2.62,1.52Z"/><path class="cls-1" d="M503.05,647.49c17.54,3.77,35.4,4.51,53.22,5.55C550.06,654.49,507.53,650.05,503.05,647.49Z"/><path class="cls-1" d="M503.66,650.6c15.45,3.79,31.29,4.19,47.05,5.32C545.93,657.36,508.8,653.17,503.66,650.6Z"/><path class="cls-1" d="M544.09,658.41c-3.73,1.62-35-1.83-38.45-4.17,4.25.77,8.42,1.65,12.63,2.25s8.49,1,12.74,1.33S539.62,658.22,544.09,658.41Z"/><path class="cls-3" d="M542.35,623.13l.87.54c-1.65,2.93-1.68,6.11-1.67,9.32A12.1,12.1,0,0,1,528,644.87a25.16,25.16,0,0,1-4-.78c-3-.89-4.09-3.14-3-6.08a28.11,28.11,0,0,1,1.24-2.6c1.33.69,1.88,3.15,1.42,6.08,1-1.1,1-1.69.2-6.22,9-1.35,14.17-5,16.28-11.55-.26.23-.41.34-.53.47s-.27.36-.41.53c-2,2.54-3.94,5-6.72,6.78a16.85,16.85,0,0,1-12,2.3,4.45,4.45,0,0,1-3.05-1.88c-1.62-2.32-3.22-4.64-4.81-7a5.3,5.3,0,0,1-.39-5.6,9.6,9.6,0,0,0,.74-5.66,4.89,4.89,0,0,1,3.77-5.14,11.53,11.53,0,0,0,1.21-.27c-.75-.88-1.69-.86-2.89.11-.82.66-1.57,1.41-2.35,2.12-.43-3.67.14-7.12,3-10.06a4.4,4.4,0,0,0,4.38.78,5.67,5.67,0,0,0,1.8-.82,11.78,11.78,0,0,1,6.36-2.1c2.92-.25,5.86-.44,8.74-1a23,23,0,0,0,5.08-1.92,7.09,7.09,0,0,1,5.72-.23,2.34,2.34,0,0,1,1.08.86,31.68,31.68,0,0,0-3.9,0,23.65,23.65,0,0,0-4.32,1c-2.34.76-4.14,4.51-2.56,7,.68,1.06,1.28,2.17,2,3.24a5.46,5.46,0,0,1,.56,5.31,1.32,1.32,0,0,0,.55,1.81l1.36.94a31.25,31.25,0,0,1,2.48-2.07c.71-.49,1.67-1,2.36-.26a3.27,3.27,0,0,1,.69,2.18,10.2,10.2,0,0,1-3.08,6.86C544.32,622.64,543.24,622.77,542.35,623.13ZM525,616.57c1.78.68,5.25.4,6.46-.46h-2.71L529,614l3.77,1.88c.62-1.13.19-1.8-.82-2.25a1.43,1.43,0,0,0-.41-.17,46.29,46.29,0,0,0-4.83-.42c-1.11,0-2.23,1.79-1.73,2.52l.86-.17.25.89Zm10.78-1.94a4,4,0,0,0-.29-.91,12.59,12.59,0,0,0-8.6-6.32,4.67,4.67,0,0,0-1.46.2v.34A41,41,0,0,1,531,610.5,42.65,42.65,0,0,1,535.76,614.63Zm-19.76-1,1.51.75a1.38,1.38,0,0,0,.1-.39c-.19-1.45-1.76-1.89-3.34-.94-.74.44-1,.93-.41,1.72a4.15,4.15,0,0,1,.36,1.31h3v-.15l-1.25-.49Zm30.53,4.07.33.07a5.88,5.88,0,0,0,.3-1.56c0-.52-.2-1.25-.56-1.46a1.92,1.92,0,0,0-1.52.25,6.79,6.79,0,0,0-3.06,3.7,6.69,6.69,0,0,0-.2,1.11l1.62-1.79.52.24-.31,2.08c1.51-1,1.53-1.56,0-3.36.73-.55,1.44-1.12,2.2-1.62.08-.06.59.27.61.46A13.09,13.09,0,0,1,546.53,617.69ZM518.27,629c3.37-2.81,3.42-2.81,7.44.17a4.26,4.26,0,0,0-4.09-3.21C519.86,625.9,519,626.64,518.27,629Zm.06-9c-1.27,1.06-1.45,1.86-.72,2.79a1.74,1.74,0,0,0,2.57.29C517.89,622.34,517.85,622.26,518.33,620Zm1.2-2.4a3,3,0,0,0,0-4.1Z"/><path class="cls-3" d="M521.35,634.85c-.44,1.22-.82,2.21-1.15,3.22-1,3.15-.15,5.37,2.95,6.56,6.3,2.43,15.06,1.77,18.47-7.92.38-1.08.67-2.19,1-3.33a1.34,1.34,0,0,1,1.13,1.65c-.55,4.73-2,9.14-6.61,11.33-5.8,2.78-11.6,2-17-1.41a4.55,4.55,0,0,1-2-4.66,8.38,8.38,0,0,1,2.25-5A3.67,3.67,0,0,1,521.35,634.85Z"/><path class="cls-3" d="M550.4,601.54l-2.18-1.63.47,2.06-2.64-1.64.26,1.51-2.67-1-.1.92-2.62-.83a6,6,0,0,1,6-3.06A3.9,3.9,0,0,1,550.4,601.54Z"/><path class="cls-3" d="M555.37,640.47l-11.61-.39a1.19,1.19,0,0,1-.06-.33c.44-2.33.45-2.35,2.79-2.09,2.83.31,5.72.42,8.23,2l.77.5Z"/><path class="cls-3" d="M507.42,639.35a5.89,5.89,0,0,1,4.21-1.14c1,.11,2,.38,2.94.53s1.9.23,3,.35L517.2,641c-1.66-.27-3.25-.52-4.84-.8S509.23,639.67,507.42,639.35Z"/><path class="cls-3" d="M518.29,636.8c-.41,1.65-.41,1.66-2,1.48-1.4-.16-2.8-.34-4.21-.52C512.9,636.54,515.29,636.18,518.29,636.8Z"/><path class="cls-3" d="M550.12,637.57c-1.7-.22-3.4-.43-5.1-.69a.81.81,0,0,1-.47-.57,12.57,12.57,0,0,1,0-1.79l5.69,2.81Z"/><path class="cls-3" d="M519.48,634.43c-.35,1.63-1.31,2-3.33,1.32Z"/><path class="cls-3" d="M544.19,590.82l2.62,1.52C544.47,592.44,544.13,592.25,544.19,590.82Z"/><path class="cls-1" d="M525,616.57l1.12-.31-.25-.89-.86.17c-.5-.73.62-2.52,1.73-2.52a46.29,46.29,0,0,1,4.83.42,1.43,1.43,0,0,1,.41.17c1,.45,1.44,1.12.82,2.25L529,614l-.28,2.13h2.71C530.23,617,526.76,617.25,525,616.57Z"/><path class="cls-1" d="M535.76,614.63A42.65,42.65,0,0,0,531,610.5a41,41,0,0,0-5.58-2.56v-.34a4.67,4.67,0,0,1,1.46-.2,12.59,12.59,0,0,1,8.6,6.32A4,4,0,0,1,535.76,614.63Z"/><path class="cls-1" d="M516,613.62v1.81l1.25.49v.15h-3a4.15,4.15,0,0,0-.36-1.31c-.55-.79-.33-1.28.41-1.72,1.58-.95,3.15-.51,3.34.94a1.38,1.38,0,0,1-.1.39Z"/><path class="cls-1" d="M546.53,617.69a13.09,13.09,0,0,0,0-1.88c0-.19-.53-.52-.61-.46-.76.5-1.47,1.07-2.2,1.62,1.5,1.8,1.48,2.37,0,3.36l.31-2.08-.52-.24-1.62,1.79a6.69,6.69,0,0,1,.2-1.11,6.79,6.79,0,0,1,3.06-3.7,1.92,1.92,0,0,1,1.52-.25c.36.21.52.94.56,1.46a5.88,5.88,0,0,1-.3,1.56Z"/><path class="cls-1" d="M518.27,629c.74-2.38,1.59-3.12,3.35-3a4.26,4.26,0,0,1,4.09,3.21C521.69,626.21,521.64,626.21,518.27,629Z"/><path class="cls-1" d="M518.33,620c-.48,2.24-.44,2.32,1.85,3.08a1.74,1.74,0,0,1-2.57-.29C516.88,621.88,517.06,621.08,518.33,620Z"/><path class="cls-1" d="M519.53,617.62v-4.1A3,3,0,0,1,519.53,617.62Z"/></g></g></svg>