<svg xmlns="http://www.w3.org/2000/svg" viewBox="0 0 246.54 530.74"><defs><style>.cls-1,.cls-4{fill:#4c2a12;}.cls-2{fill:#fff4c0;}.cls-3{fill:#fc9;}.cls-4{font-size:19.62px;font-family:Rubik-Italic, Rubik;font-style:italic;}.cls-5{letter-spacing:-0.02em;}.cls-6{letter-spacing:-0.05em;}.cls-7{letter-spacing:0em;}.cls-8{letter-spacing:-0.01em;}.cls-9{letter-spacing:-0.01em;}.cls-10{letter-spacing:-0.01em;}.cls-11{letter-spacing:0em;}.cls-12{letter-spacing:-0.01em;}.cls-13{letter-spacing:-0.02em;}.cls-14{letter-spacing:0em;}.cls-15{letter-spacing:-0.01em;}</style></defs><title>22Fichier 2</title><g id="Calque_2" data-name="Calque 2"><g id="Calque_1-2" data-name="Calque 1"><path class="cls-1" d="M109.78,26.16c.24.17.45.34.67.49a1.81,1.81,0,0,1,.88,2,2.15,2.15,0,0,1-1.51,1.81,3.73,3.73,0,0,0-1.31.75,23.19,23.19,0,0,0-1.92,1.92.81.81,0,0,0-.13.68c.46,1.5.33,1.87-1,2.64a15.93,15.93,0,0,1-5.91,2.15.75.75,0,0,0-.48.25l6.14.47.11.23a2.62,2.62,0,0,1-.65.47c-1.3.44-2.61.87-3.93,1.23q-9.06,2.46-18.13,4.87a5.59,5.59,0,0,1-4-.33,18.15,18.15,0,0,0-6-1.48,4.46,4.46,0,0,1-1.16-.18,4.7,4.7,0,0,0-3.28.23A18.85,18.85,0,0,1,57.27,45a10.46,10.46,0,0,1-6.11-3.84,3.55,3.55,0,0,0-2.41-1.29c-10.46-2-20.91-4.05-31.39-6-1-.2-2.17.23-3.27.24A34.89,34.89,0,0,1,10,33.9a4,4,0,0,1-3.56-3.35,39,39,0,0,1-.75-4.43,3.37,3.37,0,0,0-1.57-2.63A8.71,8.71,0,0,1,0,16.15C0,14.76.93,13.36,1.54,12c.15-.31.7-.52,1.11-.62,1.91-.43,3.86-.75,5.76-1.23A4.94,4.94,0,0,0,10.53,9.1,31.25,31.25,0,0,1,29.2.57a112.85,112.85,0,0,1,22.73,0,53.42,53.42,0,0,1,6.17.94A9.29,9.29,0,0,1,62.33,4c2.35,2.13,4.71,4.24,7,6.39a3.78,3.78,0,0,0,2.56,1.07,181.76,181.76,0,0,1,36.32,5.19,20.58,20.58,0,0,1,2.66.85,4.5,4.5,0,0,1,1.22.93.43.43,0,0,1-.09.77,1.77,1.77,0,0,0-.77,1.59A9.63,9.63,0,0,1,109.78,26.16ZM14.72,10c.45-.17.77-.28,1.08-.41a1.39,1.39,0,0,0,.92-1.3A3.73,3.73,0,0,1,19,4.92a19.11,19.11,0,0,1,4.14-1.47c2.67-.5,5.38-.77,8.07-1.12a2.46,2.46,0,0,1,3,1.59c1.24,2.46,2.5,4.9,3.72,7.36a1.5,1.5,0,0,0,1.61,1c1.08-.09,2.16-.09,3.24-.13,3.41-.1,6.82-.21,10.23-.29l15.18-.34c.23,0,.46,0,.86,0-.28-.31-.46-.54-.66-.73C66.38,8.83,64.27,7,62.23,5A12.39,12.39,0,0,0,56,1.63,72.51,72.51,0,0,0,43.22.52c-3.53-.06-7.07.11-10.6.24a38.09,38.09,0,0,0-9.41,1.55C18.43,3.7,14.64,6.68,10.93,9.8c0,0,0,.09,0,.18l1.29.24L3.39,11.51a2.12,2.12,0,0,0-1.84,1.37c-.24.62-.6,1.19-.81,1.81a17.11,17.11,0,0,0-.43,1.94,5.59,5.59,0,0,1,1.45-.81,27.2,27.2,0,0,1,2.72-.18c.45,0,.9-.1,1.35-.15l0-.13L1.08,15c.35-.7.65-1.34,1-2a1.66,1.66,0,0,1,1.59-.88c3.05.08,6.09.17,9.13.29a2.19,2.19,0,0,1,1.28.4c.82.74,1.53,1.59,2.33,2.45l-1.07.42-1,.4c20.88-.73,41.55,1.5,62.15,3.58L76.26,23l.28.05c.74-1.17,1.51-2.33,2.21-3.53a.78.78,0,0,0-.4-1.12,12.12,12.12,0,0,0-2.76-1.19c-3.58-.72-7.16-1.48-10.78-1.91C59,14.57,53.1,14.07,47.23,13.62c-4.6-.36-9.22-.56-13.83-.72-4.09-.15-8.2-.24-12.3-.21C18.58,12.71,16.66,11.55,14.72,10ZM47.8,36.27c0-.38,0-.65,0-.91a20.54,20.54,0,0,1,.19-6A8.34,8.34,0,0,1,59.68,23a15.36,15.36,0,0,1,7.1,6.08c1.31,2,2.49,4.12,3.76,6.16a4.32,4.32,0,0,0,3.4,2.18,6.41,6.41,0,0,1,2.32.63,28.7,28.7,0,0,1,3.4,2.16,4.3,4.3,0,0,0,3.14,1c2.34-.28,4.68-.54,7-.83,1.11-.14,2.21-.34,3.32-.51l0-.23c-.55,0-1.1,0-1.64.09-2.6.2-5.21.29-7.77.66-2.36.34-3.85-1-5.39-2.41h2.63v-.19c-2.15-.34-4.29-.73-6.44-1a4.08,4.08,0,0,1-3.43-2.29c-.95-1.86-1.94-3.7-3-5.47a31.18,31.18,0,0,0-3.2-4.57,11.16,11.16,0,0,0-10.17-3.71c-3.45.43-5.58,2.63-6.83,5.78a18.54,18.54,0,0,0-1,7.24v1.18l-1.07-.18c-2.33-.46-4.66-.9-7-1.38L17.85,29a4.08,4.08,0,0,1-3.23-3c-.71-2.13-1.6-4.21-2.5-6.27a4.22,4.22,0,0,0-3-2.35,2.75,2.75,0,0,0-3.23.93,4.31,4.31,0,0,0-.49,4.23c.08-.7.11-1.36.24-2a2.29,2.29,0,0,1,1.55-2,2.13,2.13,0,0,1,2.16.6,1.47,1.47,0,0,0-1.75.64,7.45,7.45,0,0,0-.93,1.9,11.86,11.86,0,0,0-.44,4.81A9.85,9.85,0,0,0,7.8,31.39c1,1.39,2.16,1.38,3-.11A9.88,9.88,0,0,0,11.9,25c-.22-1.63-.73-3.22-1.11-4.82,0,.1.06.19.13.28a19.58,19.58,0,0,1,3,5.8,5.09,5.09,0,0,0,4,3.4c6.53,1.43,13.05,2.91,19.58,4.36C40.89,34.8,44.31,35.52,47.8,36.27Zm14.86-6.68L61.93,29c-.5-.44-1.26-.81-1.41-1.34s.31-1.22.56-1.82a1,1,0,0,0-.37-1.35,4.65,4.65,0,0,0-6.51.37c-4,3.87-4,11.41-.13,15.4a6.93,6.93,0,0,0,10.6-.51,13.39,13.39,0,0,0,2.4-6A5.84,5.84,0,0,0,64.44,28ZM59.38,12.42l0,.11a4.21,4.21,0,0,0,.61.16c2.47.2,4.94.37,7.4.6,3.47.33,6.94.66,10.39,1.07a76.25,76.25,0,0,1,14.35,3.07,7.35,7.35,0,0,1,2.17,1.28,2,2,0,0,0,1.39.53c1.34-.07,2.69-.12,4-.17l9.42-.34a3.6,3.6,0,0,0,.8-.12,2.27,2.27,0,0,0,.46-.28c-.12-.13-.21-.32-.36-.39a8.07,8.07,0,0,0-1.38-.49,218.2,218.2,0,0,0-23.8-4.18c-4.22-.44-8.45-.88-12.68-1.09-3.16-.16-6.33,0-9.5.1C61.57,12.3,60.48,12.37,59.38,12.42Zm-11.75.42V13l2,.19c2.93.26,5.87.48,8.8.78,3.31.35,6.62.79,9.93,1.12A36.85,36.85,0,0,1,78,17.28,3.1,3.1,0,0,1,80.06,19c.26.81.77.9,1.45.92,2.33.07,4.66.17,7,.24a3.68,3.68,0,0,0,.77-.15,5.86,5.86,0,0,0-1.14-1.24,19.7,19.7,0,0,0-3.35-1.66C79,15.14,73,14.46,67,13.88c-2.59-.25-5.18-.47-7.78-.62-3.6-.22-7.2-.36-10.8-.52A4.07,4.07,0,0,0,47.63,12.84ZM69.91,30.63a7.43,7.43,0,0,0,1.43.63,12,12,0,0,0,1.9.16c3.56.15,7.12.36,10.68.42a76.46,76.46,0,0,0,8.83-.19c4-.4,8-1.08,12-1.71,1.69-.26,3.36-.69,5-1.1.39-.1.91-.41,1-.72s-.31-.75-.58-1.06a2.7,2.7,0,0,0-.86-.55c-.44-.21-.74-.06-.74.45a1.14,1.14,0,0,1-1,1.23c-1,.24-2.11.44-3.16.67a91.41,91.41,0,0,1-17.29,1.95,81.79,81.79,0,0,1-15.48-.94A1.53,1.53,0,0,0,69.91,30.63Zm12.45-2,4.78.28A1.41,1.41,0,0,0,88.65,28c.24-.54.44-1.09.69-1.63.71-1.56,1.44-3.11,2.16-4.66.23-.49.15-.72-.43-.61-.34.07-.68.1-1,.17-1.26.28-2.55.5-3.78.88-1.79.55-2.29,1.45-2,3.29,0,.2.07.4.12.64-.52-.2-1-.39-1.39-.51s-.78.08-.77.59C82.27,26.94,82.32,27.75,82.36,28.63ZM77.22,25a19.16,19.16,0,0,0,.57,2.26c.59,1.52,2,1.76,3,.48a6.26,6.26,0,0,0,.91-6.32c-.59-1.5-2-1.67-3-.4A7.31,7.31,0,0,0,77.22,25ZM36.8,19.88l-.2,0a3.29,3.29,0,0,0-.25.77c-.08,1-.11,2-.17,3-.09,1.69-.2,3.37-.28,5.06,0,.59-.31.88-.89.8l-5.68-.78c-2.32-.33-4.65-.66-7-1a1.78,1.78,0,0,0-.6.18,1.67,1.67,0,0,0,.5.28l11.42,2.05,3.52.62Zm72.78-.07,0-.3c-.39,0-.79,0-1.19,0-4.31.23-8.62.48-12.93.7a3.76,3.76,0,0,0-3,1.51,17.55,17.55,0,0,0-2.33,4.81l-.42,1.14a1.54,1.54,0,0,0,.6-.68c.65-1.21,1.27-2.43,1.93-3.64a3.78,3.78,0,0,1,3-2.07c1.24-.16,2.49-.21,3.74-.32q4.32-.36,8.64-.76A19.24,19.24,0,0,0,109.58,19.81ZM20.15,5.07l0,.25c.24,0,.49,0,.72,0,2.66-.27,5.33-.51,8-.83a3.88,3.88,0,0,1,4.44,2.09c.75,1.21,1.57,2.38,2.35,3.57.07.12.12.26.18.39.16-.21.19-.29.16-.35-.82-1.7-1.59-3.42-2.48-5.09a3,3,0,0,0-3.22-1.58c-2.26.25-4.54.47-6.79.79C22.39,4.47,21.27,4.81,20.15,5.07Zm88.21,19.35c-.22.45-.47.89-.66,1.35a2.27,2.27,0,0,1-1.79,1.56c-.77.13-1.55.2-2.33.3l-12,1.45a3,3,0,0,0-.58.19l0,.21a18.26,18.26,0,0,0,2.22,0c4.14-.5,8.26-1,12.39-1.57A3,3,0,0,0,108.36,24.42Zm-2.54-2.33v-.22a3.31,3.31,0,0,0-.54-.06c-2.91.16-5.83.27-8.73.51a2.38,2.38,0,0,0-1.53,1,35.28,35.28,0,0,0-1.85,3.43,1.38,1.38,0,0,0,0,.42l.22.08c.37-.72.77-1.43,1.1-2.17a3.34,3.34,0,0,1,2.91-2.15c2-.18,4.06-.3,6.08-.47C104.22,22.35,105,22.2,105.82,22.09ZM91.39,33.66,90,36.22l.22.14c.85-1,1.73-2.09,2.54-3.18.32-.43-.08-.54-.44-.54l-8.41.16v.28ZM85.64,16.19c1.62,1,3.28,2.12,5,3.12a3.77,3.77,0,0,0,1.69.3c.27,0,.54-.23.81-.36a2.91,2.91,0,0,0-.52-.63C90.5,17.13,88,16.76,85.64,16.19ZM22.56,24.66l0-.24a5.16,5.16,0,0,0-.67-.2q-2.76-.54-5.54-1a1.65,1.65,0,0,1-1.58-1.71c-.14-1.17-.3-2.33-.46-3.49a2.52,2.52,0,0,0-.23-.57l-.24.06c.15,1.65.26,3.3.44,4.95.1.86.51,1.21,1.38,1.35,1.21.2,2.42.4,3.63.56S21.48,24.55,22.56,24.66Zm60,9.39a4.17,4.17,0,0,0-2.74,2,.84.84,0,0,0,0,.79,1,1,0,0,0,.83.28,4.34,4.34,0,0,0,2.71-2.08C83.78,34.44,83.51,34.05,82.59,34.05ZM95.05,36c3.49,1.23,8.41-2.15,8-5a10.51,10.51,0,0,0-.87,1.36,4.88,4.88,0,0,1-4.05,3C97.07,35.45,96.06,35.74,95.05,36Z"/><path class="cls-2" d="M14.72,10c1.94,1.51,3.86,2.67,6.38,2.65,4.1,0,8.21.06,12.3.21,4.61.16,9.23.36,13.83.72,5.87.45,11.74,1,17.58,1.64,3.62.43,7.2,1.19,10.78,1.91a12.12,12.12,0,0,1,2.76,1.19.78.78,0,0,1,.4,1.12c-.7,1.2-1.47,2.36-2.21,3.53L76.26,23l.23-3.26c-20.6-2.08-41.27-4.31-62.15-3.58l1-.4,1.07-.42c-.8-.86-1.51-1.71-2.33-2.45a2.19,2.19,0,0,0-1.28-.4c-3-.12-6.08-.21-9.13-.29A1.66,1.66,0,0,0,2.06,13c-.33.63-.63,1.27-1,2l4.73.35,0,.13c-.45,0-.9.12-1.35.15a27.2,27.2,0,0,0-2.72.18,5.59,5.59,0,0,0-1.45.81,17.11,17.11,0,0,1,.43-1.94c.21-.62.57-1.19.81-1.81a2.12,2.12,0,0,1,1.84-1.37l8.82-1.29L10.92,10c0-.09,0-.16,0-.18,3.71-3.12,7.5-6.1,12.28-7.49A38.09,38.09,0,0,1,32.62.76c3.53-.13,7.07-.3,10.6-.24A72.51,72.51,0,0,1,56,1.63,12.39,12.39,0,0,1,62.23,5c2,2,4.15,3.84,6.22,5.75.2.19.38.42.66.73-.4,0-.63,0-.86,0l-15.18.34c-3.41.08-6.82.19-10.23.29-1.08,0-2.16,0-3.24.13a1.5,1.5,0,0,1-1.61-1c-1.22-2.46-2.48-4.9-3.72-7.36a2.46,2.46,0,0,0-3-1.59c-2.69.35-5.4.62-8.07,1.12A19.11,19.11,0,0,0,19,4.92a3.73,3.73,0,0,0-2.31,3.41,1.39,1.39,0,0,1-.92,1.3C15.49,9.76,15.17,9.87,14.72,10Zm52.52.9.15-.39a6.49,6.49,0,0,1-.55-.36C64.37,8,61.92,5.81,59.4,3.71a5.65,5.65,0,0,0-2.48-1.18,69.58,69.58,0,0,0-16-.86c-1.23.06-2.45.17-3.67.3-.87.09-1,.37-.71,1.17.08.2.18.4.27.6C37.89,6,39,8.32,40,10.62a1.36,1.36,0,0,0,1.48.91q10.93-.31,21.86-.58C64.65,10.91,66,10.94,67.24,10.94Z"/><path class="cls-2" d="M47.8,36.27c-3.49-.75-6.91-1.47-10.33-2.23-6.53-1.45-13-2.93-19.58-4.36a5.09,5.09,0,0,1-4-3.4,19.58,19.58,0,0,0-3-5.8c-.07-.09-.15-.18-.13-.28.38,1.6.89,3.19,1.11,4.82a9.88,9.88,0,0,1-1.11,6.26c-.83,1.49-2,1.5-3,.11a9.85,9.85,0,0,1-1.53-4.93,11.86,11.86,0,0,1,.44-4.81,7.45,7.45,0,0,1,.93-1.9,1.47,1.47,0,0,1,1.75-.64,2.13,2.13,0,0,0-2.16-.6,2.29,2.29,0,0,0-1.55,2c-.13.63-.16,1.29-.24,2a4.31,4.31,0,0,1,.49-4.23,2.75,2.75,0,0,1,3.23-.93,4.22,4.22,0,0,1,3,2.35c.9,2.06,1.79,4.14,2.5,6.27a4.08,4.08,0,0,0,3.23,3l20.93,4.36c2.33.48,4.66.92,7,1.38l1.07.18V33.73a18.54,18.54,0,0,1,1-7.24c1.25-3.15,3.38-5.35,6.83-5.78a11.16,11.16,0,0,1,10.17,3.71A31.18,31.18,0,0,1,68,29c1.09,1.77,2.08,3.61,3,5.47a4.08,4.08,0,0,0,3.43,2.29c2.15.27,4.29.66,6.44,1v.19H78.3c1.54,1.44,3,2.75,5.39,2.41,2.56-.37,5.17-.46,7.77-.66.54,0,1.09-.06,1.64-.09l0,.23c-1.11.17-2.21.37-3.32.51-2.33.29-4.67.55-7,.83a4.3,4.3,0,0,1-3.14-1A28.7,28.7,0,0,0,76.26,38a6.41,6.41,0,0,0-2.32-.63,4.32,4.32,0,0,1-3.4-2.18c-1.27-2-2.45-4.14-3.76-6.16A15.36,15.36,0,0,0,59.68,23,8.34,8.34,0,0,0,48,29.35a20.54,20.54,0,0,0-.19,6C47.83,35.62,47.8,35.89,47.8,36.27ZM9.13,20.12a1.58,1.58,0,0,0-1.38,1.14,2.91,2.91,0,0,0,.5,2.66C9.12,23.3,9.06,22,9.13,20.12Zm1,11C9.7,29,9.45,28.47,8.66,28.28A9.68,9.68,0,0,0,8.44,30a1.6,1.6,0,0,0,.43,1.14C9.13,31.29,9.65,31.13,10.09,31.13Zm-3-3c1.46-1.47,1.3-3.23-.27-4Zm4.25.53.2-3c-1,.13-1.21.79-1.29,1.49S10.68,28.3,11.37,28.66Zm-1-4.35c1-.6,1-1.46.08-2.7C9.6,22.91,9.58,23.44,10.38,24.31Z"/><path class="cls-2" d="M62.66,29.59,64.44,28a5.84,5.84,0,0,1,2.63,5.71,13.39,13.39,0,0,1-2.4,6,6.93,6.93,0,0,1-10.6.51c-3.91-4-3.85-11.53.13-15.4a4.65,4.65,0,0,1,6.51-.37,1,1,0,0,1,.37,1.35c-.25.6-.71,1.3-.56,1.82s.91.9,1.41,1.34Zm-5.24-5.43c-.48.26-1,.49-1.45.79-4.81,3.22-5.19,11.4-.68,15.06a10.48,10.48,0,0,0,1.52.9C51.87,36.68,52.12,28,57.42,24.16Zm1.32,14.56c0,.36,0,.73,0,1.1,0,.59.22.88.83.79.8-.11,1.6-.19,2.39-.33s.91-.48.6-1.16-.69-1.35-1-2a1,1,0,0,0-1.33-.69c-1.44.3-1.49.33-1.49,1.81Zm7.53-6.62a4.21,4.21,0,0,0-.57,0c-.42,0-.83,0-1.25.06-1,.1-1.19.26-1.41,1.26a6.71,6.71,0,0,0-.16,1.08.93.93,0,0,0,.24.65c.57.53,1.18,1,1.8,1.51.3.24.54.21.62-.23C65.78,35,66,33.55,66.27,32.1Zm-8.53-7A7.81,7.81,0,0,0,55,28.21a1,1,0,0,0,.1.87c.4.6.9,1.13,1.41,1.75.41-.52.77-.94,1.09-1.4a1.93,1.93,0,0,0,.43-1C58,27.4,57.86,26.34,57.74,25.11ZM55.46,37.62c1.9-1.46,1.84-2.5.79-4.58-.33-.66-1-.48-1.58-.37s-.63.54-.61,1A7,7,0,0,0,55.46,37.62Zm3.91-3.5c.94-.22,1.26-.56,1.41-1.32a2.13,2.13,0,0,0-1.06-2.41A2.88,2.88,0,0,1,59.37,34.12Zm-.59-3.39.83,2C60,31.41,59.64,30.69,58.78,30.73Z"/><path class="cls-2" d="M59.38,12.42c1.1-.05,2.19-.12,3.29-.14,3.17-.06,6.34-.26,9.5-.1,4.23.21,8.46.65,12.68,1.09a218.2,218.2,0,0,1,23.8,4.18,8.07,8.07,0,0,1,1.38.49c.15.07.24.26.36.39a2.27,2.27,0,0,1-.46.28,3.6,3.6,0,0,1-.8.12l-9.42.34c-1.35.05-2.7.1-4,.17a2,2,0,0,1-1.39-.53,7.35,7.35,0,0,0-2.17-1.28,76.25,76.25,0,0,0-14.35-3.07c-3.45-.41-6.92-.74-10.39-1.07-2.46-.23-4.93-.4-7.4-.6a4.21,4.21,0,0,1-.61-.16Z"/><path class="cls-2" d="M47.63,12.84a4.07,4.07,0,0,1,.76-.1c3.6.16,7.2.3,10.8.52,2.6.15,5.19.37,7.78.62,6,.58,12,1.26,17.81,3.24a19.7,19.7,0,0,1,3.35,1.66A5.86,5.86,0,0,1,89.27,20a3.68,3.68,0,0,1-.77.15c-2.33-.07-4.66-.17-7-.24-.68,0-1.19-.11-1.45-.92A3.1,3.1,0,0,0,78,17.28a36.85,36.85,0,0,0-9.56-2.23c-3.31-.33-6.62-.77-9.93-1.12-2.93-.3-5.87-.52-8.8-.78l-2-.19Z"/><path class="cls-2" d="M69.91,30.63a1.53,1.53,0,0,1,1.72-.76,81.79,81.79,0,0,0,15.48.94,91.41,91.41,0,0,0,17.29-1.95c1-.23,2.11-.43,3.16-.67a1.14,1.14,0,0,0,1-1.23c0-.51.3-.66.74-.45a2.7,2.7,0,0,1,.86.55c.27.31.66.77.58,1.06s-.6.62-1,.72c-1.66.41-3.33.84-5,1.1-4,.63-8,1.31-12,1.71a76.46,76.46,0,0,1-8.83.19c-3.56-.06-7.12-.27-10.68-.42a12,12,0,0,1-1.9-.16A7.43,7.43,0,0,1,69.91,30.63Z"/><path class="cls-2" d="M82.36,28.63c0-.88-.09-1.69-.11-2.49,0-.51.29-.72.77-.59s.87.31,1.39.51c0-.24-.08-.44-.12-.64-.31-1.84.19-2.74,2-3.29,1.23-.38,2.52-.6,3.78-.88.34-.07.68-.1,1-.17.58-.11.66.12.43.61-.72,1.55-1.45,3.1-2.16,4.66-.25.54-.45,1.09-.69,1.63a1.41,1.41,0,0,1-1.51.93Z"/><path class="cls-2" d="M77.22,25a7.31,7.31,0,0,1,1.51-4c1-1.27,2.38-1.1,3,.4a6.26,6.26,0,0,1-.91,6.32c-1,1.28-2.41,1-3-.48A19.16,19.16,0,0,1,77.22,25Zm1,1.84c.67,1.09,1.59,1.14,2.11.11a25.81,25.81,0,0,0,1.05-2.74,1,1,0,0,0,0-.38C80.57,25.1,80.25,26.8,78.27,26.85Z"/><path class="cls-2" d="M36.8,19.88l.39,11-3.52-.62L22.25,28.2a1.67,1.67,0,0,1-.5-.28,1.78,1.78,0,0,1,.6-.18c2.33.3,4.66.63,7,1l5.68.78c.58.08.86-.21.89-.8.08-1.69.19-3.37.28-5.06.06-1,.09-2,.17-3a3.29,3.29,0,0,1,.25-.77Z"/><path class="cls-2" d="M109.58,19.81a19.24,19.24,0,0,1-2,.39q-4.32.4-8.64.76c-1.25.11-2.5.16-3.74.32a3.78,3.78,0,0,0-3,2.07C91.6,24.56,91,25.78,90.33,27a1.54,1.54,0,0,1-.6.68l.42-1.14a17.55,17.55,0,0,1,2.33-4.81,3.76,3.76,0,0,1,3-1.51c4.31-.22,8.62-.47,12.93-.7.4,0,.8,0,1.19,0Z"/><path class="cls-2" d="M20.15,5.07c1.12-.26,2.24-.6,3.38-.76,2.25-.32,4.53-.54,6.79-.79A3,3,0,0,1,33.54,5.1c.89,1.67,1.66,3.39,2.48,5.09,0,.06,0,.14-.16.35-.06-.13-.11-.27-.18-.39C34.9,9,34.08,7.79,33.33,6.58a3.88,3.88,0,0,0-4.44-2.09c-2.65.32-5.32.56-8,.83-.23,0-.48,0-.72,0Z"/><path class="cls-2" d="M108.36,24.42a3,3,0,0,1-2.67,3.48c-4.13.52-8.25,1.07-12.39,1.57a18.26,18.26,0,0,1-2.22,0l0-.21a3,3,0,0,1,.58-.19l12-1.45c.78-.1,1.56-.17,2.33-.3a2.27,2.27,0,0,0,1.79-1.56C107.89,25.31,108.14,24.87,108.36,24.42Z"/><path class="cls-2" d="M105.82,22.09c-.8.11-1.6.26-2.4.33-2,.17-4,.29-6.08.47A3.34,3.34,0,0,0,94.43,25c-.33.74-.73,1.45-1.1,2.17l-.22-.08a1.38,1.38,0,0,1,0-.42A35.28,35.28,0,0,1,95,23.28a2.38,2.38,0,0,1,1.53-1c2.9-.24,5.82-.35,8.73-.51a3.31,3.31,0,0,1,.54.06Z"/><path class="cls-2" d="M91.39,33.66l-7.45-.58V32.8l8.41-.16c.36,0,.76.11.44.54-.81,1.09-1.69,2.13-2.54,3.18L90,36.22Z"/><path class="cls-2" d="M85.64,16.19c2.35.57,4.86.94,7,2.43a2.91,2.91,0,0,1,.52.63c-.27.13-.54.37-.81.36a3.77,3.77,0,0,1-1.69-.3C88.92,18.31,87.26,17.21,85.64,16.19Z"/><path class="cls-2" d="M22.56,24.66c-1.08-.11-2.17-.2-3.24-.34s-2.42-.36-3.63-.56c-.87-.14-1.28-.49-1.38-1.35-.18-1.65-.29-3.3-.44-4.95l.24-.06a2.52,2.52,0,0,1,.23.57c.16,1.16.32,2.32.46,3.49a1.65,1.65,0,0,0,1.58,1.71q2.78.51,5.54,1a5.16,5.16,0,0,1,.67.2Z"/><path class="cls-2" d="M82.59,34.05c.92,0,1.19.39.84,1a4.34,4.34,0,0,1-2.71,2.08,1,1,0,0,1-.83-.28.84.84,0,0,1,0-.79A4.17,4.17,0,0,1,82.59,34.05Z"/><path class="cls-2" d="M95.05,36c1-.24,2-.53,3-.69a4.88,4.88,0,0,0,4.05-3A10.51,10.51,0,0,1,103,31C103.46,33.83,98.54,37.21,95.05,36Z"/><path class="cls-1" d="M67.24,10.94c-1.29,0-2.59,0-3.89,0q-10.92.27-21.86.58A1.36,1.36,0,0,1,40,10.62C39,8.32,37.89,6,36.82,3.74c-.09-.2-.19-.4-.27-.6-.31-.8-.16-1.08.71-1.17,1.22-.13,2.44-.24,3.67-.3a69.58,69.58,0,0,1,16,.86A5.65,5.65,0,0,1,59.4,3.71c2.52,2.1,5,4.31,7.44,6.48a6.49,6.49,0,0,0,.55.36Zm-14.15-.6h5.85c.44,0,.58-.26.3-.63A24.22,24.22,0,0,0,57.4,7.52a25.65,25.65,0,0,0-8.17-5c-1.31-.54-2.67-.23-4-.16a2,2,0,0,0,.64.54,23.84,23.84,0,0,1,6.82,5.18A1.94,1.94,0,0,1,53.09,10.34Zm-4.83.28c1.16,0,2.23.06,3.3,0a1,1,0,0,0,.82-1.55,6.7,6.7,0,0,0-1.54-1.93c-2.13-1.54-4.35-3-6.54-4.39a4.08,4.08,0,0,0-2.54-.36,1.49,1.49,0,0,0,.53.53A18.32,18.32,0,0,1,47.2,6.49C48.24,7.67,49,8.91,48.26,10.62Z"/><path class="cls-1" d="M9.13,20.12c-.07,1.83,0,3.18-.88,3.8a2.91,2.91,0,0,1-.5-2.66A1.58,1.58,0,0,1,9.13,20.12Z"/><path class="cls-1" d="M10.09,31.13c-.44,0-1,.16-1.22,0A1.6,1.6,0,0,1,8.44,30a9.68,9.68,0,0,1,.22-1.67C9.45,28.47,9.7,29,10.09,31.13Z"/><path class="cls-1" d="M7.12,28.13l-.27-4C8.42,24.9,8.58,26.66,7.12,28.13Z"/><path class="cls-1" d="M11.37,28.66c-.69-.36-1.18-.75-1.09-1.49s.27-1.36,1.29-1.49Z"/><path class="cls-1" d="M10.38,24.31c-.8-.87-.78-1.4.08-2.7C11.37,22.85,11.36,23.71,10.38,24.31Z"/><path class="cls-1" d="M57.42,24.16c-5.3,3.87-5.55,12.52-.61,16.75a10.48,10.48,0,0,1-1.52-.9C50.78,36.35,51.16,28.17,56,25,56.43,24.65,56.94,24.42,57.42,24.16Z"/><path class="cls-1" d="M58.74,38.72V38.2c0-1.48,0-1.51,1.49-1.81a1,1,0,0,1,1.33.69c.3.69.67,1.36,1,2s.14,1-.6,1.16-1.59.22-2.39.33c-.61.09-.86-.2-.83-.79C58.75,39.45,58.74,39.08,58.74,38.72Z"/><path class="cls-1" d="M66.27,32.1c-.25,1.45-.49,2.87-.73,4.29-.08.44-.32.47-.62.23-.62-.49-1.23-1-1.8-1.51a.93.93,0,0,1-.24-.65A6.71,6.71,0,0,1,63,33.38c.22-1,.4-1.16,1.41-1.26.42,0,.83,0,1.25-.06A4.21,4.21,0,0,1,66.27,32.1Z"/><path class="cls-1" d="M57.74,25.11c.12,1.23.27,2.29.3,3.36a1.93,1.93,0,0,1-.43,1c-.32.46-.68.88-1.09,1.4-.51-.62-1-1.15-1.41-1.75a1,1,0,0,1-.1-.87A7.81,7.81,0,0,1,57.74,25.11Z"/><path class="cls-1" d="M55.46,37.62a7,7,0,0,1-1.4-3.92c0-.49.07-.92.61-1s1.25-.29,1.58.37C57.3,35.12,57.36,36.16,55.46,37.62Z"/><path class="cls-1" d="M59.37,34.12a2.88,2.88,0,0,0,.35-3.73,2.13,2.13,0,0,1,1.06,2.41C60.63,33.56,60.31,33.9,59.37,34.12Z"/><path class="cls-1" d="M58.78,30.73c.86,0,1.19.68.83,2Z"/><path class="cls-1" d="M78.27,26.85c2-.05,2.3-1.75,3.14-3a1,1,0,0,1,0,.38A25.81,25.81,0,0,1,80.38,27C79.86,28,78.94,27.94,78.27,26.85Z"/><path class="cls-2" d="M53.09,10.34a1.94,1.94,0,0,0-.45-2.27,23.84,23.84,0,0,0-6.82-5.18,2,2,0,0,1-.64-.54c1.38-.07,2.74-.38,4,.16a25.65,25.65,0,0,1,8.17,5,24.22,24.22,0,0,1,1.84,2.19c.28.37.14.62-.3.63Z"/><path class="cls-2" d="M48.26,10.62c.74-1.71,0-2.95-1.06-4.13A18.32,18.32,0,0,0,42.29,2.9a1.49,1.49,0,0,1-.53-.53,4.08,4.08,0,0,1,2.54.36c2.19,1.43,4.41,2.85,6.54,4.39a6.7,6.7,0,0,1,1.54,1.93,1,1,0,0,1-.82,1.55C50.49,10.68,49.42,10.62,48.26,10.62Z"/><path class="cls-1" d="M36,487.45c.85-1.68.24-3.39-.26-6.59-.34-2.16-1.25-6.88.65-11.05a36.68,36.68,0,0,1,1.94-3.31l.33.15v2.67l.3,0a17,17,0,0,0,.2-1.75,10.69,10.69,0,0,1,14.47-9.88,5.47,5.47,0,0,1,1.78,1.21,12.14,12.14,0,0,0-10.71,2.16,5.85,5.85,0,0,0-2.35,3.8l6.6-3.83.25.35-4.53,3.53.11.18,6-3.53.25.34-3.72,2.91.1.17,5.6-2.9.26.23-1.12,1.74,4.79-1.75v-.25l-2-.28c.24-.29.42-.51.74-.88l-2.5-.31-.07-.44,5.16-1.25v-.18L54.75,458l0-.44c1-.07,2.09-.16,3.13-.21,3.33-.16,6.67-.31,9.93.61A15.15,15.15,0,0,1,73.77,461,6.24,6.24,0,0,1,76,464.86a3,3,0,0,0,.52,1.39c2.23,2.57,2.65,5.61,2.34,8.84-.69,7.06-3,13.42-8.11,18.55A10,10,0,0,0,68,500.83a2.71,2.71,0,0,0,1,1.75c4.08,3.28,8.79,5.51,13.37,7.94,1.51.8,3,1.58,4.52,2.39.69.37,1.1.86.53,1.74-1.15-.64-2.23-1.32-3.38-1.84a7,7,0,0,0-2.52-.68c-3.6-.14-7.2-.18-10.81-.23-2.19,0-2.19,0-2.95,2.37l19.88.68,0,.3a2.74,2.74,0,0,1-.66.19c-5.73-.15-11.47-.22-17.19-.52-3-.15-2.39-.4-4.42,2.12,7.22,1,14.41.69,21.51,1.41-1.71,0-3.42.06-5.13,0-5.07-.2-10.14-.46-15.21-.66a6.73,6.73,0,0,0-2.41.27,45.57,45.57,0,0,0-5.5,2.34l26.84,1.24c-6.24,2-53.31-2.87-59.09-6.14l21.33,3.86.08-.23a9.75,9.75,0,0,1-1-.45c-1-.63-2-1.36-3-1.9a13.9,13.9,0,0,0-3.39-1.36c-4.48-.91-9-1.68-13.48-2.51a1.29,1.29,0,0,1-.79-.45c5.33.57,10.54,1.81,15.82,2.66,0-1.83-.26-2.24-1.91-2.58-2.81-.57-5.61-1.24-8.43-1.69a27.38,27.38,0,0,0-4.25,0,3,3,0,0,1-1.44-.18l16.18-5.54c-.68-.85-1.35-1.59-1.91-2.41C38.4,500,37,498.11,36,496.17a7.41,7.41,0,0,1-1.08-5.94A10.37,10.37,0,0,1,36,487.45Zm31.81,6.1c.92-.37,2-.51,2.67-1.15a10.62,10.62,0,0,0,3.2-7.14,3.39,3.39,0,0,0-.72-2.28c-.71-.73-1.72-.24-2.45.27-.9.64-1.71,1.42-2.59,2.16-.46-.32-.93-.65-1.41-1a1.38,1.38,0,0,1-.58-1.89,5.65,5.65,0,0,0-.58-5.53c-.7-1.12-1.32-2.27-2-3.38-1.65-2.57.23-6.48,2.66-7.27a24.79,24.79,0,0,1,4.5-1,32.48,32.48,0,0,1,4.07,0,2.42,2.42,0,0,0-1.13-.9,7.42,7.42,0,0,0-6,.25,24.22,24.22,0,0,1-5.29,2c-3,.56-6.06.76-9.1,1a12.22,12.22,0,0,0-6.63,2.18,5.88,5.88,0,0,1-1.87.85,4.57,4.57,0,0,1-4.57-.81c-3,3.06-3.55,6.66-3.1,10.48.81-.74,1.59-1.52,2.45-2.21,1.25-1,2.22-1,3-.11-.44.1-.85.22-1.26.28a5.1,5.1,0,0,0-3.93,5.36,10,10,0,0,1-.78,5.89,5.55,5.55,0,0,0,.41,5.84c1.67,2.43,3.33,4.85,5,7.27a4.63,4.63,0,0,0,3.18,2,17.54,17.54,0,0,0,12.48-2.4c2.89-1.8,5-4.42,7-7.06.14-.18.27-.38.42-.55s.28-.26.55-.5c-2.2,6.84-7.59,10.63-17,12,.85,4.72.83,5.34-.21,6.48.48-3.06-.1-5.62-1.48-6.34a28,28,0,0,0-1.3,2.71c-1.11,3.06,0,5.41,3.15,6.34a26,26,0,0,0,4.2.81,12.59,12.59,0,0,0,14.12-12.38c0-3.34,0-6.66,1.75-9.7ZM45.9,505.76a3.8,3.8,0,0,0-1,.49,8.79,8.79,0,0,0-2.36,5.18,4.77,4.77,0,0,0,2.12,4.86c5.62,3.51,11.66,4.36,17.7,1.46,4.76-2.28,6.32-6.87,6.89-11.8a1.4,1.4,0,0,0-1.18-1.72c-.36,1.19-.67,2.34-1.06,3.47-3.55,10.09-12.68,10.78-19.25,8.25-3.22-1.24-4.14-3.56-3.06-6.83C45,508.07,45.44,507,45.9,505.76Zm30.25-34.7a4,4,0,0,0-3.64-3.8,6.24,6.24,0,0,0-6.23,3.18l2.73.87.1-1,2.78,1-.26-1.57,2.75,1.7-.5-2.14Zm5.19,40.56.12-.3-.8-.52C78,509.12,75,509,72.09,508.68c-2.45-.27-2.45-.24-2.91,2.19,0,.07,0,.15.06.34Zm-50-1.18c1.88.35,3.51.65,5.15.93s3.31.56,5,.84l.34-2c-1.1-.13-2.1-.21-3.08-.36s-2-.44-3.07-.56A6.21,6.21,0,0,0,31.38,510.44Zm11.33-2.65c-3.13-.64-5.62-.27-6.46,1,1.48.19,2.93.38,4.39.55C42.28,509.52,42.28,509.51,42.71,507.79Zm33.16.8.08-.25L70,505.42a13.57,13.57,0,0,0,0,1.86.84.84,0,0,0,.49.6C72.32,508.15,74.1,508.36,75.87,508.59ZM44,505.32l-3.48,1.37C42.58,507.41,43.58,507,44,505.32Zm25.73-45.43c-.06,1.49.3,1.68,2.74,1.59Z"/><path class="cls-1" d="M26.83,518.93c18.27,3.93,36.87,4.7,55.44,5.78C75.8,526.22,31.49,521.59,26.83,518.93Z"/><path class="cls-1" d="M27.46,522.17c16.1,4,32.6,4.37,49,5.54C71.5,529.21,32.82,524.85,27.46,522.17Z"/><path class="cls-1" d="M69.59,530.31C65.7,532,33.07,528.39,29.53,526c4.43.8,8.77,1.72,13.16,2.35s8.83,1.06,13.27,1.38S64.92,530.11,69.59,530.31Z"/><path class="cls-2" d="M67.77,493.55l.91.57c-1.73,3-1.75,6.36-1.75,9.7A12.59,12.59,0,0,1,52.81,516.2a26,26,0,0,1-4.2-.81c-3.12-.93-4.26-3.28-3.15-6.34a28,28,0,0,1,1.3-2.71c1.38.72,2,3.28,1.48,6.34,1-1.14,1.06-1.76.21-6.48,9.36-1.41,14.75-5.2,17-12-.27.24-.42.36-.55.5s-.28.37-.42.55c-2.05,2.64-4.11,5.26-7,7.06A17.54,17.54,0,0,1,45,504.67a4.63,4.63,0,0,1-3.18-2c-1.68-2.42-3.34-4.84-5-7.27a5.55,5.55,0,0,1-.41-5.84,10,10,0,0,0,.78-5.89,5.1,5.1,0,0,1,3.93-5.36c.41-.06.82-.18,1.26-.28-.79-.92-1.76-.9-3,.11-.86.69-1.64,1.47-2.45,2.21-.45-3.82.15-7.42,3.1-10.48a4.57,4.57,0,0,0,4.57.81,5.88,5.88,0,0,0,1.87-.85A12.22,12.22,0,0,1,53,467.69c3-.26,6.11-.46,9.1-1a24.22,24.22,0,0,0,5.29-2,7.42,7.42,0,0,1,6-.25,2.42,2.42,0,0,1,1.13.9,32.48,32.48,0,0,0-4.07,0,24.79,24.79,0,0,0-4.5,1c-2.43.79-4.31,4.7-2.66,7.27.71,1.11,1.33,2.26,2,3.38a5.65,5.65,0,0,1,.58,5.53,1.38,1.38,0,0,0,.58,1.89c.48.32,1,.65,1.41,1,.88-.74,1.69-1.52,2.59-2.16.73-.51,1.74-1,2.45-.27a3.39,3.39,0,0,1,.72,2.28,10.62,10.62,0,0,1-3.2,7.14C69.82,493,68.69,493.18,67.77,493.55Zm-18.1-6.83c1.86.7,5.47.41,6.73-.48H53.58l.3-2.22,3.92,2c.65-1.19.19-1.88-.86-2.34a1.27,1.27,0,0,0-.42-.18,50.44,50.44,0,0,0-5-.45c-1.15,0-2.32,1.88-1.79,2.63l.89-.18.26.94Zm11.23-2a4.4,4.4,0,0,0-.3-.95c-2.09-3.41-4.93-5.83-9-6.58a5.11,5.11,0,0,0-1.52.21v.36a43.22,43.22,0,0,1,5.82,2.66A45.23,45.23,0,0,1,60.9,484.69Zm-20.58-1.05,1.57.78A1.64,1.64,0,0,0,42,484c-.21-1.52-1.83-2-3.48-1-.78.46-1,1-.43,1.79a4.26,4.26,0,0,1,.37,1.37h3.15V486l-1.3-.51Zm31.8,4.24.35.07a5.87,5.87,0,0,0,.31-1.62c0-.54-.21-1.3-.58-1.52a2,2,0,0,0-1.58.26,7,7,0,0,0-3.19,3.85,7.3,7.3,0,0,0-.21,1.16l1.69-1.87.54.25-.33,2.17c1.58-1,1.6-1.63,0-3.5.76-.57,1.5-1.17,2.29-1.69.09-.05.62.29.65.49A15.83,15.83,0,0,1,72.12,487.88ZM42.68,499.69c3.51-2.93,3.56-2.93,7.75.17a4.42,4.42,0,0,0-4.26-3.34C44.34,496.44,43.45,497.21,42.68,499.69Zm.06-9.38c-1.32,1.11-1.51,1.93-.74,2.91a1.8,1.8,0,0,0,2.67.3C42.29,492.73,42.24,492.65,42.74,490.31Zm1.26-2.5a3.15,3.15,0,0,0,0-4.27Z"/><path class="cls-2" d="M45.9,505.76c-.46,1.27-.86,2.31-1.2,3.36-1.08,3.27-.16,5.59,3.06,6.83,6.57,2.53,15.7,1.84,19.25-8.25.39-1.13.7-2.28,1.06-3.47A1.4,1.4,0,0,1,69.25,506c-.57,4.93-2.13,9.52-6.89,11.8-6,2.9-12.08,2-17.7-1.46a4.77,4.77,0,0,1-2.12-4.86,8.79,8.79,0,0,1,2.36-5.18A3.8,3.8,0,0,1,45.9,505.76Z"/><path class="cls-2" d="M76.15,471.06l-2.27-1.7.5,2.14-2.75-1.7.26,1.57-2.78-1-.1,1-2.73-.87a6.24,6.24,0,0,1,6.23-3.18A4,4,0,0,1,76.15,471.06Z"/><path class="cls-2" d="M81.34,511.62l-12.1-.41c0-.19-.08-.27-.06-.34.46-2.43.46-2.46,2.91-2.19,2.94.33,6,.44,8.57,2.12l.8.52Z"/><path class="cls-2" d="M31.38,510.44a6.21,6.21,0,0,1,4.38-1.18c1,.12,2,.4,3.07.56s2,.23,3.08.36l-.34,2c-1.73-.28-3.39-.55-5-.84S33.26,510.79,31.38,510.44Z"/><path class="cls-2" d="M42.71,507.79c-.43,1.72-.43,1.73-2.07,1.55-1.46-.17-2.91-.36-4.39-.55C37.09,507.52,39.58,507.15,42.71,507.79Z"/><path class="cls-2" d="M75.87,508.59c-1.77-.23-3.55-.44-5.32-.71a.84.84,0,0,1-.49-.6,13.57,13.57,0,0,1,0-1.86L76,508.34Z"/><path class="cls-2" d="M44,505.32c-.37,1.7-1.37,2.09-3.48,1.37Z"/><path class="cls-2" d="M69.68,459.89l2.74,1.59C70,461.57,69.62,461.38,69.68,459.89Z"/><path class="cls-1" d="M49.67,486.72l1.17-.32-.26-.94-.89.18c-.53-.75.64-2.62,1.79-2.63a50.44,50.44,0,0,1,5,.45,1.27,1.27,0,0,1,.42.18c1.05.46,1.51,1.15.86,2.34l-3.92-2-.3,2.22H56.4C55.14,487.13,51.53,487.42,49.67,486.72Z"/><path class="cls-1" d="M60.9,484.69a45.23,45.23,0,0,0-5-4.3,43.22,43.22,0,0,0-5.82-2.66v-.36a5.11,5.11,0,0,1,1.52-.21c4,.75,6.87,3.17,9,6.58A4.4,4.4,0,0,1,60.9,484.69Z"/><path class="cls-1" d="M40.32,483.64v1.89l1.3.51v.16H38.46a4.26,4.26,0,0,0-.37-1.37c-.57-.82-.35-1.33.43-1.79,1.65-1,3.27-.54,3.48,1a1.64,1.64,0,0,1-.11.4Z"/><path class="cls-1" d="M72.12,487.88a15.83,15.83,0,0,0,0-1.95c0-.2-.56-.54-.65-.49-.79.52-1.53,1.12-2.29,1.69,1.57,1.87,1.55,2.47,0,3.5l.33-2.17-.54-.25-1.69,1.87a7.3,7.3,0,0,1,.21-1.16,7,7,0,0,1,3.19-3.85,2,2,0,0,1,1.58-.26c.37.22.54,1,.58,1.52a5.87,5.87,0,0,1-.31,1.62Z"/><path class="cls-1" d="M42.68,499.69c.77-2.48,1.66-3.25,3.49-3.17a4.42,4.42,0,0,1,4.26,3.34C46.24,496.76,46.19,496.76,42.68,499.69Z"/><path class="cls-1" d="M42.74,490.31c-.5,2.34-.45,2.42,1.93,3.21a1.8,1.8,0,0,1-2.67-.3C41.23,492.24,41.42,491.42,42.74,490.31Z"/><path class="cls-1" d="M44,487.81v-4.27A3.15,3.15,0,0,1,44,487.81Z"/><rect class="cls-3" x="22.17" y="61.95" width="71.7" height="199.58"/><rect class="cls-1" x="22.17" y="261.53" width="71.7" height="180.87"/><text class="cls-4" transform="translate(105.75 350.08)">Donn<tspan class="cls-5" x="48.61" y="0">e</tspan><tspan x="59.08" y="0">r </tspan><tspan class="cls-6" x="71.36" y="0">l</tspan><tspan class="cls-7" x="75.17" y="0">’</tspan><tspan class="cls-8" x="79.82" y="0">a</tspan><tspan x="91.15" y="0">rg</tspan><tspan class="cls-9" x="110.26" y="0">e</tspan><tspan x="120.99" y="0">nt</tspan><tspan x="0" y="23.54">po</tspan><tspan class="cls-5" x="22.99" y="23.54">u</tspan><tspan x="34.23" y="23.54">r aid</tspan><tspan class="cls-5" x="74.44" y="23.54">e</tspan><tspan x="84.92" y="23.54">r des</tspan><tspan class="cls-10" x="0" y="47.08">e</tspan><tspan class="cls-11" x="10.69" y="47.08">n</tspan><tspan x="22.5" y="47.08">f</tspan><tspan class="cls-9" x="30.09" y="47.08">a</tspan><tspan x="41.39" y="47.08">nts</tspan></text><text class="cls-4" transform="translate(105.57 160.13)">Ac<tspan class="cls-12" x="24.21" y="0">h</tspan><tspan x="36" y="0">et</tspan><tspan class="cls-13" x="54.63" y="0">e</tspan><tspan class="cls-7" x="65.11" y="0">r la</tspan><tspan class="cls-14" x="-0.2" y="23.54">voit</tspan><tspan class="cls-15" x="34.46" y="23.54">u</tspan><tspan x="45.98" y="23.54">re</tspan></text></g></g></svg>